<?xml version="1.0" encoding="utf-8" standalone="no"?>
<!DOCTYPE svg PUBLIC "-//W3C//DTD SVG 1.1//EN"
  "http://www.w3.org/Graphics/SVG/1.1/DTD/svg11.dtd">
<svg xmlns:xlink="http://www.w3.org/1999/xlink" width="576pt" height="576pt" viewBox="0 0 576 576" xmlns="http://www.w3.org/2000/svg" version="1.1">
 <metadata>
  <rdf:RDF xmlns:dc="http://purl.org/dc/elements/1.1/" xmlns:cc="http://creativecommons.org/ns#" xmlns:rdf="http://www.w3.org/1999/02/22-rdf-syntax-ns#">
   <cc:Work>
    <dc:type rdf:resource="http://purl.org/dc/dcmitype/StillImage"/>
    <dc:date>2022-01-04T14:49:55.919816</dc:date>
    <dc:format>image/svg+xml</dc:format>
    <dc:creator>
     <cc:Agent>
      <dc:title>Matplotlib v3.5.1, https://matplotlib.org/</dc:title>
     </cc:Agent>
    </dc:creator>
   </cc:Work>
  </rdf:RDF>
 </metadata>
 <defs>
  <style type="text/css">*{stroke-linejoin: round; stroke-linecap: butt}</style>
 </defs>
 <g id="figure_1">
  <g id="patch_1">
   <path d="M 0 576 
L 576 576 
L 576 0 
L 0 0 
z
" style="fill: #ffffff"/>
  </g>
  <g id="axes_1">
   <g id="patch_2">
    <path d="M 72 512.64 
L 518.4 512.64 
L 518.4 69.12 
L 72 69.12 
z
" style="fill: #ffffff"/>
   </g>
   <g id="matplotlib.axis_1">
    <g id="xtick_1">
     <g id="line2d_1">
      <defs>
       <path id="ma008cd7984" d="M 0 0 
L 0 3.5 
" style="stroke: #000000; stroke-width: 0.8"/>
      </defs>
      <g>
       <use xlink:href="#ma008cd7984" x="72" y="512.64" style="stroke: #000000; stroke-width: 0.8"/>
      </g>
     </g>
     <g id="text_1">
      <!-- 0 -->
      <g transform="translate(65.6375 534.836875)scale(0.2 -0.2)">
       <defs>
        <path id="DejaVuSans-30" d="M 2034 4250 
Q 1547 4250 1301 3770 
Q 1056 3291 1056 2328 
Q 1056 1369 1301 889 
Q 1547 409 2034 409 
Q 2525 409 2770 889 
Q 3016 1369 3016 2328 
Q 3016 3291 2770 3770 
Q 2525 4250 2034 4250 
z
M 2034 4750 
Q 2819 4750 3233 4129 
Q 3647 3509 3647 2328 
Q 3647 1150 3233 529 
Q 2819 -91 2034 -91 
Q 1250 -91 836 529 
Q 422 1150 422 2328 
Q 422 3509 836 4129 
Q 1250 4750 2034 4750 
z
" transform="scale(0.015625)"/>
       </defs>
       <use xlink:href="#DejaVuSans-30"/>
      </g>
     </g>
    </g>
    <g id="xtick_2">
     <g id="line2d_2">
      <g>
       <use xlink:href="#ma008cd7984" x="161.28" y="512.64" style="stroke: #000000; stroke-width: 0.8"/>
      </g>
     </g>
     <g id="text_2">
      <!-- 20 -->
      <g transform="translate(148.555 534.836875)scale(0.2 -0.2)">
       <defs>
        <path id="DejaVuSans-32" d="M 1228 531 
L 3431 531 
L 3431 0 
L 469 0 
L 469 531 
Q 828 903 1448 1529 
Q 2069 2156 2228 2338 
Q 2531 2678 2651 2914 
Q 2772 3150 2772 3378 
Q 2772 3750 2511 3984 
Q 2250 4219 1831 4219 
Q 1534 4219 1204 4116 
Q 875 4013 500 3803 
L 500 4441 
Q 881 4594 1212 4672 
Q 1544 4750 1819 4750 
Q 2544 4750 2975 4387 
Q 3406 4025 3406 3419 
Q 3406 3131 3298 2873 
Q 3191 2616 2906 2266 
Q 2828 2175 2409 1742 
Q 1991 1309 1228 531 
z
" transform="scale(0.015625)"/>
       </defs>
       <use xlink:href="#DejaVuSans-32"/>
       <use xlink:href="#DejaVuSans-30" x="63.623047"/>
      </g>
     </g>
    </g>
    <g id="xtick_3">
     <g id="line2d_3">
      <g>
       <use xlink:href="#ma008cd7984" x="250.56" y="512.64" style="stroke: #000000; stroke-width: 0.8"/>
      </g>
     </g>
     <g id="text_3">
      <!-- 40 -->
      <g transform="translate(237.835 534.836875)scale(0.2 -0.2)">
       <defs>
        <path id="DejaVuSans-34" d="M 2419 4116 
L 825 1625 
L 2419 1625 
L 2419 4116 
z
M 2253 4666 
L 3047 4666 
L 3047 1625 
L 3713 1625 
L 3713 1100 
L 3047 1100 
L 3047 0 
L 2419 0 
L 2419 1100 
L 313 1100 
L 313 1709 
L 2253 4666 
z
" transform="scale(0.015625)"/>
       </defs>
       <use xlink:href="#DejaVuSans-34"/>
       <use xlink:href="#DejaVuSans-30" x="63.623047"/>
      </g>
     </g>
    </g>
    <g id="xtick_4">
     <g id="line2d_4">
      <g>
       <use xlink:href="#ma008cd7984" x="339.84" y="512.64" style="stroke: #000000; stroke-width: 0.8"/>
      </g>
     </g>
     <g id="text_4">
      <!-- 60 -->
      <g transform="translate(327.115 534.836875)scale(0.2 -0.2)">
       <defs>
        <path id="DejaVuSans-36" d="M 2113 2584 
Q 1688 2584 1439 2293 
Q 1191 2003 1191 1497 
Q 1191 994 1439 701 
Q 1688 409 2113 409 
Q 2538 409 2786 701 
Q 3034 994 3034 1497 
Q 3034 2003 2786 2293 
Q 2538 2584 2113 2584 
z
M 3366 4563 
L 3366 3988 
Q 3128 4100 2886 4159 
Q 2644 4219 2406 4219 
Q 1781 4219 1451 3797 
Q 1122 3375 1075 2522 
Q 1259 2794 1537 2939 
Q 1816 3084 2150 3084 
Q 2853 3084 3261 2657 
Q 3669 2231 3669 1497 
Q 3669 778 3244 343 
Q 2819 -91 2113 -91 
Q 1303 -91 875 529 
Q 447 1150 447 2328 
Q 447 3434 972 4092 
Q 1497 4750 2381 4750 
Q 2619 4750 2861 4703 
Q 3103 4656 3366 4563 
z
" transform="scale(0.015625)"/>
       </defs>
       <use xlink:href="#DejaVuSans-36"/>
       <use xlink:href="#DejaVuSans-30" x="63.623047"/>
      </g>
     </g>
    </g>
    <g id="xtick_5">
     <g id="line2d_5">
      <g>
       <use xlink:href="#ma008cd7984" x="429.12" y="512.64" style="stroke: #000000; stroke-width: 0.8"/>
      </g>
     </g>
     <g id="text_5">
      <!-- 80 -->
      <g transform="translate(416.395 534.836875)scale(0.2 -0.2)">
       <defs>
        <path id="DejaVuSans-38" d="M 2034 2216 
Q 1584 2216 1326 1975 
Q 1069 1734 1069 1313 
Q 1069 891 1326 650 
Q 1584 409 2034 409 
Q 2484 409 2743 651 
Q 3003 894 3003 1313 
Q 3003 1734 2745 1975 
Q 2488 2216 2034 2216 
z
M 1403 2484 
Q 997 2584 770 2862 
Q 544 3141 544 3541 
Q 544 4100 942 4425 
Q 1341 4750 2034 4750 
Q 2731 4750 3128 4425 
Q 3525 4100 3525 3541 
Q 3525 3141 3298 2862 
Q 3072 2584 2669 2484 
Q 3125 2378 3379 2068 
Q 3634 1759 3634 1313 
Q 3634 634 3220 271 
Q 2806 -91 2034 -91 
Q 1263 -91 848 271 
Q 434 634 434 1313 
Q 434 1759 690 2068 
Q 947 2378 1403 2484 
z
M 1172 3481 
Q 1172 3119 1398 2916 
Q 1625 2713 2034 2713 
Q 2441 2713 2670 2916 
Q 2900 3119 2900 3481 
Q 2900 3844 2670 4047 
Q 2441 4250 2034 4250 
Q 1625 4250 1398 4047 
Q 1172 3844 1172 3481 
z
" transform="scale(0.015625)"/>
       </defs>
       <use xlink:href="#DejaVuSans-38"/>
       <use xlink:href="#DejaVuSans-30" x="63.623047"/>
      </g>
     </g>
    </g>
    <g id="xtick_6">
     <g id="line2d_6">
      <g>
       <use xlink:href="#ma008cd7984" x="518.4" y="512.64" style="stroke: #000000; stroke-width: 0.8"/>
      </g>
     </g>
     <g id="text_6">
      <!-- 100 -->
      <g transform="translate(499.3125 534.836875)scale(0.2 -0.2)">
       <defs>
        <path id="DejaVuSans-31" d="M 794 531 
L 1825 531 
L 1825 4091 
L 703 3866 
L 703 4441 
L 1819 4666 
L 2450 4666 
L 2450 531 
L 3481 531 
L 3481 0 
L 794 0 
L 794 531 
z
" transform="scale(0.015625)"/>
       </defs>
       <use xlink:href="#DejaVuSans-31"/>
       <use xlink:href="#DejaVuSans-30" x="63.623047"/>
       <use xlink:href="#DejaVuSans-30" x="127.246094"/>
      </g>
     </g>
    </g>
   </g>
   <g id="matplotlib.axis_2">
    <g id="ytick_1">
     <g id="line2d_7">
      <defs>
       <path id="mc619c87cf8" d="M 0 0 
L -3.5 0 
" style="stroke: #000000; stroke-width: 0.8"/>
      </defs>
      <g>
       <use xlink:href="#mc619c87cf8" x="72" y="512.64" style="stroke: #000000; stroke-width: 0.8"/>
      </g>
     </g>
     <g id="text_7">
      <!-- 0.0 -->
      <g transform="translate(33.19375 520.238438)scale(0.2 -0.2)">
       <defs>
        <path id="DejaVuSans-2e" d="M 684 794 
L 1344 794 
L 1344 0 
L 684 0 
L 684 794 
z
" transform="scale(0.015625)"/>
       </defs>
       <use xlink:href="#DejaVuSans-30"/>
       <use xlink:href="#DejaVuSans-2e" x="63.623047"/>
       <use xlink:href="#DejaVuSans-30" x="95.410156"/>
      </g>
     </g>
    </g>
    <g id="ytick_2">
     <g id="line2d_8">
      <g>
       <use xlink:href="#mc619c87cf8" x="72" y="455.04" style="stroke: #000000; stroke-width: 0.8"/>
      </g>
     </g>
     <g id="text_8">
      <!-- 0.5 -->
      <g transform="translate(33.19375 462.638438)scale(0.2 -0.2)">
       <defs>
        <path id="DejaVuSans-35" d="M 691 4666 
L 3169 4666 
L 3169 4134 
L 1269 4134 
L 1269 2991 
Q 1406 3038 1543 3061 
Q 1681 3084 1819 3084 
Q 2600 3084 3056 2656 
Q 3513 2228 3513 1497 
Q 3513 744 3044 326 
Q 2575 -91 1722 -91 
Q 1428 -91 1123 -41 
Q 819 9 494 109 
L 494 744 
Q 775 591 1075 516 
Q 1375 441 1709 441 
Q 2250 441 2565 725 
Q 2881 1009 2881 1497 
Q 2881 1984 2565 2268 
Q 2250 2553 1709 2553 
Q 1456 2553 1204 2497 
Q 953 2441 691 2322 
L 691 4666 
z
" transform="scale(0.015625)"/>
       </defs>
       <use xlink:href="#DejaVuSans-30"/>
       <use xlink:href="#DejaVuSans-2e" x="63.623047"/>
       <use xlink:href="#DejaVuSans-35" x="95.410156"/>
      </g>
     </g>
    </g>
    <g id="ytick_3">
     <g id="line2d_9">
      <g>
       <use xlink:href="#mc619c87cf8" x="72" y="397.44" style="stroke: #000000; stroke-width: 0.8"/>
      </g>
     </g>
     <g id="text_9">
      <!-- 1.0 -->
      <g transform="translate(33.19375 405.038437)scale(0.2 -0.2)">
       <use xlink:href="#DejaVuSans-31"/>
       <use xlink:href="#DejaVuSans-2e" x="63.623047"/>
       <use xlink:href="#DejaVuSans-30" x="95.410156"/>
      </g>
     </g>
    </g>
    <g id="ytick_4">
     <g id="line2d_10">
      <g>
       <use xlink:href="#mc619c87cf8" x="72" y="339.84" style="stroke: #000000; stroke-width: 0.8"/>
      </g>
     </g>
     <g id="text_10">
      <!-- 1.5 -->
      <g transform="translate(33.19375 347.438438)scale(0.2 -0.2)">
       <use xlink:href="#DejaVuSans-31"/>
       <use xlink:href="#DejaVuSans-2e" x="63.623047"/>
       <use xlink:href="#DejaVuSans-35" x="95.410156"/>
      </g>
     </g>
    </g>
    <g id="ytick_5">
     <g id="line2d_11">
      <g>
       <use xlink:href="#mc619c87cf8" x="72" y="282.24" style="stroke: #000000; stroke-width: 0.8"/>
      </g>
     </g>
     <g id="text_11">
      <!-- 2.0 -->
      <g transform="translate(33.19375 289.838437)scale(0.2 -0.2)">
       <use xlink:href="#DejaVuSans-32"/>
       <use xlink:href="#DejaVuSans-2e" x="63.623047"/>
       <use xlink:href="#DejaVuSans-30" x="95.410156"/>
      </g>
     </g>
    </g>
    <g id="ytick_6">
     <g id="line2d_12">
      <g>
       <use xlink:href="#mc619c87cf8" x="72" y="224.64" style="stroke: #000000; stroke-width: 0.8"/>
      </g>
     </g>
     <g id="text_12">
      <!-- 2.5 -->
      <g transform="translate(33.19375 232.238437)scale(0.2 -0.2)">
       <use xlink:href="#DejaVuSans-32"/>
       <use xlink:href="#DejaVuSans-2e" x="63.623047"/>
       <use xlink:href="#DejaVuSans-35" x="95.410156"/>
      </g>
     </g>
    </g>
    <g id="ytick_7">
     <g id="line2d_13">
      <g>
       <use xlink:href="#mc619c87cf8" x="72" y="167.04" style="stroke: #000000; stroke-width: 0.8"/>
      </g>
     </g>
     <g id="text_13">
      <!-- 3.0 -->
      <g transform="translate(33.19375 174.638438)scale(0.2 -0.2)">
       <defs>
        <path id="DejaVuSans-33" d="M 2597 2516 
Q 3050 2419 3304 2112 
Q 3559 1806 3559 1356 
Q 3559 666 3084 287 
Q 2609 -91 1734 -91 
Q 1441 -91 1130 -33 
Q 819 25 488 141 
L 488 750 
Q 750 597 1062 519 
Q 1375 441 1716 441 
Q 2309 441 2620 675 
Q 2931 909 2931 1356 
Q 2931 1769 2642 2001 
Q 2353 2234 1838 2234 
L 1294 2234 
L 1294 2753 
L 1863 2753 
Q 2328 2753 2575 2939 
Q 2822 3125 2822 3475 
Q 2822 3834 2567 4026 
Q 2313 4219 1838 4219 
Q 1578 4219 1281 4162 
Q 984 4106 628 3988 
L 628 4550 
Q 988 4650 1302 4700 
Q 1616 4750 1894 4750 
Q 2613 4750 3031 4423 
Q 3450 4097 3450 3541 
Q 3450 3153 3228 2886 
Q 3006 2619 2597 2516 
z
" transform="scale(0.015625)"/>
       </defs>
       <use xlink:href="#DejaVuSans-33"/>
       <use xlink:href="#DejaVuSans-2e" x="63.623047"/>
       <use xlink:href="#DejaVuSans-30" x="95.410156"/>
      </g>
     </g>
    </g>
    <g id="ytick_8">
     <g id="line2d_14">
      <g>
       <use xlink:href="#mc619c87cf8" x="72" y="109.44" style="stroke: #000000; stroke-width: 0.8"/>
      </g>
     </g>
     <g id="text_14">
      <!-- 3.5 -->
      <g transform="translate(33.19375 117.038438)scale(0.2 -0.2)">
       <use xlink:href="#DejaVuSans-33"/>
       <use xlink:href="#DejaVuSans-2e" x="63.623047"/>
       <use xlink:href="#DejaVuSans-35" x="95.410156"/>
      </g>
     </g>
    </g>
    <g id="text_15">
     <!-- Intensity / $1\times 10^6$ -->
     <g transform="translate(24.57375 389.33)rotate(-90)scale(0.22 -0.22)">
      <defs>
       <path id="DejaVuSans-49" d="M 628 4666 
L 1259 4666 
L 1259 0 
L 628 0 
L 628 4666 
z
" transform="scale(0.015625)"/>
       <path id="DejaVuSans-6e" d="M 3513 2113 
L 3513 0 
L 2938 0 
L 2938 2094 
Q 2938 2591 2744 2837 
Q 2550 3084 2163 3084 
Q 1697 3084 1428 2787 
Q 1159 2491 1159 1978 
L 1159 0 
L 581 0 
L 581 3500 
L 1159 3500 
L 1159 2956 
Q 1366 3272 1645 3428 
Q 1925 3584 2291 3584 
Q 2894 3584 3203 3211 
Q 3513 2838 3513 2113 
z
" transform="scale(0.015625)"/>
       <path id="DejaVuSans-74" d="M 1172 4494 
L 1172 3500 
L 2356 3500 
L 2356 3053 
L 1172 3053 
L 1172 1153 
Q 1172 725 1289 603 
Q 1406 481 1766 481 
L 2356 481 
L 2356 0 
L 1766 0 
Q 1100 0 847 248 
Q 594 497 594 1153 
L 594 3053 
L 172 3053 
L 172 3500 
L 594 3500 
L 594 4494 
L 1172 4494 
z
" transform="scale(0.015625)"/>
       <path id="DejaVuSans-65" d="M 3597 1894 
L 3597 1613 
L 953 1613 
Q 991 1019 1311 708 
Q 1631 397 2203 397 
Q 2534 397 2845 478 
Q 3156 559 3463 722 
L 3463 178 
Q 3153 47 2828 -22 
Q 2503 -91 2169 -91 
Q 1331 -91 842 396 
Q 353 884 353 1716 
Q 353 2575 817 3079 
Q 1281 3584 2069 3584 
Q 2775 3584 3186 3129 
Q 3597 2675 3597 1894 
z
M 3022 2063 
Q 3016 2534 2758 2815 
Q 2500 3097 2075 3097 
Q 1594 3097 1305 2825 
Q 1016 2553 972 2059 
L 3022 2063 
z
" transform="scale(0.015625)"/>
       <path id="DejaVuSans-73" d="M 2834 3397 
L 2834 2853 
Q 2591 2978 2328 3040 
Q 2066 3103 1784 3103 
Q 1356 3103 1142 2972 
Q 928 2841 928 2578 
Q 928 2378 1081 2264 
Q 1234 2150 1697 2047 
L 1894 2003 
Q 2506 1872 2764 1633 
Q 3022 1394 3022 966 
Q 3022 478 2636 193 
Q 2250 -91 1575 -91 
Q 1294 -91 989 -36 
Q 684 19 347 128 
L 347 722 
Q 666 556 975 473 
Q 1284 391 1588 391 
Q 1994 391 2212 530 
Q 2431 669 2431 922 
Q 2431 1156 2273 1281 
Q 2116 1406 1581 1522 
L 1381 1569 
Q 847 1681 609 1914 
Q 372 2147 372 2553 
Q 372 3047 722 3315 
Q 1072 3584 1716 3584 
Q 2034 3584 2315 3537 
Q 2597 3491 2834 3397 
z
" transform="scale(0.015625)"/>
       <path id="DejaVuSans-69" d="M 603 3500 
L 1178 3500 
L 1178 0 
L 603 0 
L 603 3500 
z
M 603 4863 
L 1178 4863 
L 1178 4134 
L 603 4134 
L 603 4863 
z
" transform="scale(0.015625)"/>
       <path id="DejaVuSans-79" d="M 2059 -325 
Q 1816 -950 1584 -1140 
Q 1353 -1331 966 -1331 
L 506 -1331 
L 506 -850 
L 844 -850 
Q 1081 -850 1212 -737 
Q 1344 -625 1503 -206 
L 1606 56 
L 191 3500 
L 800 3500 
L 1894 763 
L 2988 3500 
L 3597 3500 
L 2059 -325 
z
" transform="scale(0.015625)"/>
       <path id="DejaVuSans-20" transform="scale(0.015625)"/>
       <path id="DejaVuSans-2f" d="M 1625 4666 
L 2156 4666 
L 531 -594 
L 0 -594 
L 1625 4666 
z
" transform="scale(0.015625)"/>
       <path id="DejaVuSans-d7" d="M 4488 3438 
L 3059 2003 
L 4488 575 
L 4116 197 
L 2681 1631 
L 1247 197 
L 878 575 
L 2303 2003 
L 878 3438 
L 1247 3816 
L 2681 2381 
L 4116 3816 
L 4488 3438 
z
" transform="scale(0.015625)"/>
      </defs>
      <use xlink:href="#DejaVuSans-49" transform="translate(0 0.765625)"/>
      <use xlink:href="#DejaVuSans-6e" transform="translate(29.492188 0.765625)"/>
      <use xlink:href="#DejaVuSans-74" transform="translate(92.871094 0.765625)"/>
      <use xlink:href="#DejaVuSans-65" transform="translate(132.080078 0.765625)"/>
      <use xlink:href="#DejaVuSans-6e" transform="translate(193.603516 0.765625)"/>
      <use xlink:href="#DejaVuSans-73" transform="translate(256.982422 0.765625)"/>
      <use xlink:href="#DejaVuSans-69" transform="translate(309.082031 0.765625)"/>
      <use xlink:href="#DejaVuSans-74" transform="translate(336.865234 0.765625)"/>
      <use xlink:href="#DejaVuSans-79" transform="translate(376.074219 0.765625)"/>
      <use xlink:href="#DejaVuSans-20" transform="translate(435.253906 0.765625)"/>
      <use xlink:href="#DejaVuSans-2f" transform="translate(467.041016 0.765625)"/>
      <use xlink:href="#DejaVuSans-20" transform="translate(500.732422 0.765625)"/>
      <use xlink:href="#DejaVuSans-31" transform="translate(532.519531 0.765625)"/>
      <use xlink:href="#DejaVuSans-d7" transform="translate(615.625 0.765625)"/>
      <use xlink:href="#DejaVuSans-31" transform="translate(718.896484 0.765625)"/>
      <use xlink:href="#DejaVuSans-30" transform="translate(782.519531 0.765625)"/>
      <use xlink:href="#DejaVuSans-36" transform="translate(847.099609 39.046875)scale(0.7)"/>
     </g>
    </g>
   </g>
   <g id="line2d_15">
    <path d="M 72 505.38708 
L 80.928 497.154643 
L 89.856 492.581513 
L 98.784 489.246542 
L 107.712 487.223412 
L 116.64 482.088987 
L 125.568 476.591139 
L 134.496 469.637751 
L 143.424 462.111584 
L 161.28 438.001403 
L 170.208 419.974418 
L 179.136 398.481362 
L 188.064 370.431649 
L 196.992 334.357461 
L 205.92 288.835876 
L 214.848 233.55799 
L 223.776 176.869116 
L 232.704 123.374261 
L 241.632 85.218491 
L 250.56 79.270323 
L 259.488 109.476009 
L 268.416 159.771503 
L 277.344 218.4636 
L 286.272 274.146249 
L 295.2 319.615977 
L 304.128 355.817747 
L 313.056 385.935297 
L 321.984 408.863014 
L 330.912 427.287106 
L 339.84 440.577171 
L 348.768 452.718702 
L 357.696 460.730959 
L 366.624 467.826641 
L 375.552 475.096895 
L 384.48 478.815511 
L 393.408 485.115642 
L 402.336 488.48907 
L 411.264 491.183072 
L 429.12 496.060004 
L 446.976 500.269332 
L 455.904 502.108387 
L 464.832 502.899271 
L 473.76 503.105104 
L 482.688 505.237682 
L 491.616 505.467723 
L 500.544 507.446623 
L 509.472 507.57826 
L 518.4 508.202225 
L 527.328 507.175594 
L 536.256 509.2843 
L 554.112 510.2351 
L 563.04 509.259578 
L 571.968 510.659878 
L 577 510.84322 
L 577 510.84322 
" clip-path="url(#ped9588f5b6)" style="fill: none; stroke: #9467bd; stroke-width: 3; stroke-linecap: square"/>
   </g>
   <g id="line2d_16">
    <path d="M 72 505.443968 
L 80.928 497.171 
L 89.856 495.862483 
L 98.784 490.977526 
L 107.712 488.085461 
L 116.64 484.469044 
L 125.568 478.093367 
L 134.496 471.867226 
L 143.424 463.725926 
L 152.352 453.900782 
L 161.28 442.525091 
L 170.208 427.032976 
L 179.136 406.533655 
L 188.064 382.700111 
L 196.992 348.56884 
L 205.92 307.205637 
L 223.776 203.592445 
L 232.704 155.20119 
L 241.632 120.228249 
L 250.56 116.313678 
L 259.488 144.0366 
L 268.416 191.727115 
L 277.344 244.190172 
L 286.272 294.99922 
L 295.2 336.982204 
L 304.128 369.259911 
L 313.056 397.627574 
L 321.984 418.848286 
L 330.912 435.045847 
L 339.84 447.200299 
L 348.768 456.719773 
L 357.696 465.554021 
L 366.624 472.52439 
L 375.552 476.993639 
L 384.48 481.282249 
L 393.408 487.958018 
L 402.336 489.573935 
L 411.264 492.222342 
L 420.192 495.068258 
L 429.12 497.632609 
L 446.976 500.436596 
L 455.904 502.254902 
L 464.832 503.331416 
L 473.76 505.029341 
L 482.688 506.259744 
L 491.616 505.84111 
L 500.544 506.466532 
L 509.472 506.054745 
L 518.4 508.552227 
L 527.328 508.605477 
L 545.184 509.745868 
L 554.112 509.117339 
L 563.04 510.286258 
L 571.968 510.714106 
L 577 510.736735 
L 577 510.736735 
" clip-path="url(#ped9588f5b6)" style="fill: none; stroke: #d62728; stroke-width: 3; stroke-linecap: square"/>
   </g>
   <g id="line2d_17">
    <path d="M 72 507.372368 
L 80.928 500.272081 
L 89.856 497.931346 
L 98.784 494.974444 
L 107.712 490.740036 
L 116.64 489.152445 
L 125.568 484.279098 
L 134.496 479.630891 
L 143.424 472.306084 
L 152.352 465.949252 
L 161.28 454.961277 
L 170.208 443.268038 
L 179.136 425.405614 
L 188.064 405.220486 
L 196.992 378.69229 
L 205.92 342.635395 
L 214.848 301.024831 
L 223.776 258.396277 
L 232.704 219.612266 
L 241.632 193.576877 
L 250.56 191.237128 
L 259.488 215.692558 
L 268.416 253.217211 
L 277.344 296.230499 
L 286.272 337.27927 
L 295.2 372.195366 
L 304.128 398.721491 
L 313.056 420.810607 
L 321.984 435.87337 
L 330.912 449.018402 
L 348.768 467.018178 
L 357.696 474.486539 
L 375.552 485.23845 
L 384.48 489.964629 
L 393.408 491.504809 
L 402.336 494.312205 
L 411.264 497.313591 
L 420.192 498.286586 
L 429.12 500.029801 
L 438.048 501.374955 
L 446.976 503.635426 
L 455.904 504.846466 
L 464.832 504.661043 
L 473.76 506.519669 
L 482.688 506.218605 
L 491.616 508.067511 
L 500.544 507.96538 
L 509.472 509.295537 
L 518.4 508.82309 
L 527.328 508.843125 
L 536.256 509.098427 
L 545.184 510.293426 
L 554.112 510.263004 
L 563.04 510.396381 
L 571.968 511.375418 
L 577 511.042637 
L 577 511.042637 
" clip-path="url(#ped9588f5b6)" style="fill: none; stroke: #2ca02c; stroke-width: 3; stroke-linecap: square"/>
   </g>
   <g id="line2d_18">
    <path d="M 72 508.598676 
L 80.928 503.347796 
L 89.856 503.620789 
L 98.784 501.165013 
L 107.712 500.147981 
L 116.64 496.924509 
L 125.568 493.901177 
L 134.496 490.433037 
L 143.424 485.837098 
L 152.352 481.744647 
L 161.28 474.253587 
L 170.208 467.771735 
L 179.136 458.351468 
L 188.064 443.890479 
L 196.992 427.188204 
L 205.92 404.843942 
L 214.848 377.52343 
L 223.776 350.859061 
L 232.704 326.684687 
L 241.632 310.904962 
L 250.56 309.776151 
L 259.488 326.101406 
L 268.416 350.481822 
L 277.344 377.563356 
L 286.272 404.238568 
L 295.2 426.25173 
L 304.128 443.337624 
L 313.056 455.955427 
L 321.984 466.622132 
L 330.912 475.032318 
L 339.84 480.736653 
L 348.768 486.010404 
L 357.696 488.81283 
L 366.624 493.173714 
L 375.552 495.176532 
L 393.408 499.479392 
L 402.336 501.935282 
L 411.264 503.450268 
L 420.192 504.156085 
L 429.12 505.516451 
L 438.048 504.889879 
L 446.976 506.759395 
L 455.904 506.340158 
L 464.832 507.217107 
L 473.76 507.672128 
L 482.688 508.420725 
L 491.616 509.573947 
L 500.544 508.672755 
L 509.472 509.875186 
L 518.4 510.090609 
L 527.328 511.141687 
L 536.256 511.357264 
L 545.184 510.678245 
L 554.112 510.335806 
L 563.04 509.818892 
L 571.968 510.275234 
L 577 511.091312 
L 577 511.091312 
" clip-path="url(#ped9588f5b6)" style="fill: none; stroke: #ff7f0e; stroke-width: 3; stroke-linecap: square"/>
   </g>
   <g id="line2d_19">
    <path d="M 72 510.19974 
L 80.928 508.730105 
L 89.856 506.324326 
L 98.784 505.357815 
L 116.64 503.872102 
L 125.568 501.621494 
L 134.496 500.427194 
L 143.424 498.222982 
L 152.352 495.683416 
L 161.28 490.633435 
L 170.208 487.199502 
L 179.136 481.647808 
L 188.064 473.007712 
L 196.992 462.100488 
L 205.92 448.52637 
L 214.848 433.700832 
L 223.776 417.828573 
L 232.704 403.249453 
L 241.632 393.52548 
L 250.56 394.239504 
L 259.488 405.348222 
L 268.416 418.982223 
L 277.344 435.20774 
L 286.272 450.59168 
L 295.2 463.145627 
L 304.128 472.373772 
L 313.056 480.932292 
L 321.984 486.022545 
L 330.912 490.749574 
L 339.84 494.041415 
L 348.768 496.798577 
L 357.696 499.046193 
L 366.624 500.729648 
L 393.408 504.517769 
L 402.336 504.407301 
L 411.264 507.215841 
L 420.192 508.134763 
L 429.12 508.497078 
L 438.048 508.582738 
L 455.904 510.034517 
L 464.832 509.602878 
L 473.76 509.334366 
L 482.688 511.140747 
L 491.616 510.022439 
L 500.544 510.524708 
L 509.472 510.902613 
L 518.4 512.114813 
L 527.328 511.754805 
L 536.256 511.769709 
L 545.184 511.043132 
L 554.112 511.845562 
L 563.04 510.750758 
L 571.968 510.14673 
L 577 510.962016 
L 577 510.962016 
" clip-path="url(#ped9588f5b6)" style="fill: none; stroke: #1f77b4; stroke-width: 3; stroke-linecap: square"/>
   </g>
   <g id="patch_3">
    <path d="M 72 512.64 
L 72 69.12 
" style="fill: none; stroke: #000000; stroke-width: 0.8; stroke-linejoin: miter; stroke-linecap: square"/>
   </g>
   <g id="patch_4">
    <path d="M 518.4 512.64 
L 518.4 69.12 
" style="fill: none; stroke: #000000; stroke-width: 0.8; stroke-linejoin: miter; stroke-linecap: square"/>
   </g>
   <g id="patch_5">
    <path d="M 72 512.64 
L 518.4 512.64 
" style="fill: none; stroke: #000000; stroke-width: 0.8; stroke-linejoin: miter; stroke-linecap: square"/>
   </g>
   <g id="patch_6">
    <path d="M 72 69.12 
L 518.4 69.12 
" style="fill: none; stroke: #000000; stroke-width: 0.8; stroke-linejoin: miter; stroke-linecap: square"/>
   </g>
   <g id="text_16">
    <!-- Signals in dependence of $\tau$ -->
    <g transform="translate(126.075 63.12)scale(0.25 -0.25)">
     <defs>
      <path id="DejaVuSans-53" d="M 3425 4513 
L 3425 3897 
Q 3066 4069 2747 4153 
Q 2428 4238 2131 4238 
Q 1616 4238 1336 4038 
Q 1056 3838 1056 3469 
Q 1056 3159 1242 3001 
Q 1428 2844 1947 2747 
L 2328 2669 
Q 3034 2534 3370 2195 
Q 3706 1856 3706 1288 
Q 3706 609 3251 259 
Q 2797 -91 1919 -91 
Q 1588 -91 1214 -16 
Q 841 59 441 206 
L 441 856 
Q 825 641 1194 531 
Q 1563 422 1919 422 
Q 2459 422 2753 634 
Q 3047 847 3047 1241 
Q 3047 1584 2836 1778 
Q 2625 1972 2144 2069 
L 1759 2144 
Q 1053 2284 737 2584 
Q 422 2884 422 3419 
Q 422 4038 858 4394 
Q 1294 4750 2059 4750 
Q 2388 4750 2728 4690 
Q 3069 4631 3425 4513 
z
" transform="scale(0.015625)"/>
      <path id="DejaVuSans-67" d="M 2906 1791 
Q 2906 2416 2648 2759 
Q 2391 3103 1925 3103 
Q 1463 3103 1205 2759 
Q 947 2416 947 1791 
Q 947 1169 1205 825 
Q 1463 481 1925 481 
Q 2391 481 2648 825 
Q 2906 1169 2906 1791 
z
M 3481 434 
Q 3481 -459 3084 -895 
Q 2688 -1331 1869 -1331 
Q 1566 -1331 1297 -1286 
Q 1028 -1241 775 -1147 
L 775 -588 
Q 1028 -725 1275 -790 
Q 1522 -856 1778 -856 
Q 2344 -856 2625 -561 
Q 2906 -266 2906 331 
L 2906 616 
Q 2728 306 2450 153 
Q 2172 0 1784 0 
Q 1141 0 747 490 
Q 353 981 353 1791 
Q 353 2603 747 3093 
Q 1141 3584 1784 3584 
Q 2172 3584 2450 3431 
Q 2728 3278 2906 2969 
L 2906 3500 
L 3481 3500 
L 3481 434 
z
" transform="scale(0.015625)"/>
      <path id="DejaVuSans-61" d="M 2194 1759 
Q 1497 1759 1228 1600 
Q 959 1441 959 1056 
Q 959 750 1161 570 
Q 1363 391 1709 391 
Q 2188 391 2477 730 
Q 2766 1069 2766 1631 
L 2766 1759 
L 2194 1759 
z
M 3341 1997 
L 3341 0 
L 2766 0 
L 2766 531 
Q 2569 213 2275 61 
Q 1981 -91 1556 -91 
Q 1019 -91 701 211 
Q 384 513 384 1019 
Q 384 1609 779 1909 
Q 1175 2209 1959 2209 
L 2766 2209 
L 2766 2266 
Q 2766 2663 2505 2880 
Q 2244 3097 1772 3097 
Q 1472 3097 1187 3025 
Q 903 2953 641 2809 
L 641 3341 
Q 956 3463 1253 3523 
Q 1550 3584 1831 3584 
Q 2591 3584 2966 3190 
Q 3341 2797 3341 1997 
z
" transform="scale(0.015625)"/>
      <path id="DejaVuSans-6c" d="M 603 4863 
L 1178 4863 
L 1178 0 
L 603 0 
L 603 4863 
z
" transform="scale(0.015625)"/>
      <path id="DejaVuSans-64" d="M 2906 2969 
L 2906 4863 
L 3481 4863 
L 3481 0 
L 2906 0 
L 2906 525 
Q 2725 213 2448 61 
Q 2172 -91 1784 -91 
Q 1150 -91 751 415 
Q 353 922 353 1747 
Q 353 2572 751 3078 
Q 1150 3584 1784 3584 
Q 2172 3584 2448 3432 
Q 2725 3281 2906 2969 
z
M 947 1747 
Q 947 1113 1208 752 
Q 1469 391 1925 391 
Q 2381 391 2643 752 
Q 2906 1113 2906 1747 
Q 2906 2381 2643 2742 
Q 2381 3103 1925 3103 
Q 1469 3103 1208 2742 
Q 947 2381 947 1747 
z
" transform="scale(0.015625)"/>
      <path id="DejaVuSans-70" d="M 1159 525 
L 1159 -1331 
L 581 -1331 
L 581 3500 
L 1159 3500 
L 1159 2969 
Q 1341 3281 1617 3432 
Q 1894 3584 2278 3584 
Q 2916 3584 3314 3078 
Q 3713 2572 3713 1747 
Q 3713 922 3314 415 
Q 2916 -91 2278 -91 
Q 1894 -91 1617 61 
Q 1341 213 1159 525 
z
M 3116 1747 
Q 3116 2381 2855 2742 
Q 2594 3103 2138 3103 
Q 1681 3103 1420 2742 
Q 1159 2381 1159 1747 
Q 1159 1113 1420 752 
Q 1681 391 2138 391 
Q 2594 391 2855 752 
Q 3116 1113 3116 1747 
z
" transform="scale(0.015625)"/>
      <path id="DejaVuSans-63" d="M 3122 3366 
L 3122 2828 
Q 2878 2963 2633 3030 
Q 2388 3097 2138 3097 
Q 1578 3097 1268 2742 
Q 959 2388 959 1747 
Q 959 1106 1268 751 
Q 1578 397 2138 397 
Q 2388 397 2633 464 
Q 2878 531 3122 666 
L 3122 134 
Q 2881 22 2623 -34 
Q 2366 -91 2075 -91 
Q 1284 -91 818 406 
Q 353 903 353 1747 
Q 353 2603 823 3093 
Q 1294 3584 2113 3584 
Q 2378 3584 2631 3529 
Q 2884 3475 3122 3366 
z
" transform="scale(0.015625)"/>
      <path id="DejaVuSans-6f" d="M 1959 3097 
Q 1497 3097 1228 2736 
Q 959 2375 959 1747 
Q 959 1119 1226 758 
Q 1494 397 1959 397 
Q 2419 397 2687 759 
Q 2956 1122 2956 1747 
Q 2956 2369 2687 2733 
Q 2419 3097 1959 3097 
z
M 1959 3584 
Q 2709 3584 3137 3096 
Q 3566 2609 3566 1747 
Q 3566 888 3137 398 
Q 2709 -91 1959 -91 
Q 1206 -91 779 398 
Q 353 888 353 1747 
Q 353 2609 779 3096 
Q 1206 3584 1959 3584 
z
" transform="scale(0.015625)"/>
      <path id="DejaVuSans-66" d="M 2375 4863 
L 2375 4384 
L 1825 4384 
Q 1516 4384 1395 4259 
Q 1275 4134 1275 3809 
L 1275 3500 
L 2222 3500 
L 2222 3053 
L 1275 3053 
L 1275 0 
L 697 0 
L 697 3053 
L 147 3053 
L 147 3500 
L 697 3500 
L 697 3744 
Q 697 4328 969 4595 
Q 1241 4863 1831 4863 
L 2375 4863 
z
" transform="scale(0.015625)"/>
      <path id="DejaVuSans-Oblique-3c4" d="M 2103 638 
Q 2188 488 2525 488 
L 2800 488 
L 2706 0 
L 2363 0 
Q 1800 0 1600 300 
Q 1403 606 1534 1269 
L 1856 2925 
L 541 2925 
L 653 3500 
L 3881 3500 
L 3769 2925 
L 2444 2925 
L 2113 1234 
Q 2025 781 2103 638 
z
" transform="scale(0.015625)"/>
     </defs>
     <use xlink:href="#DejaVuSans-53" transform="translate(0 0.015625)"/>
     <use xlink:href="#DejaVuSans-69" transform="translate(63.476562 0.015625)"/>
     <use xlink:href="#DejaVuSans-67" transform="translate(91.259766 0.015625)"/>
     <use xlink:href="#DejaVuSans-6e" transform="translate(154.736328 0.015625)"/>
     <use xlink:href="#DejaVuSans-61" transform="translate(218.115234 0.015625)"/>
     <use xlink:href="#DejaVuSans-6c" transform="translate(279.394531 0.015625)"/>
     <use xlink:href="#DejaVuSans-73" transform="translate(307.177734 0.015625)"/>
     <use xlink:href="#DejaVuSans-20" transform="translate(359.277344 0.015625)"/>
     <use xlink:href="#DejaVuSans-69" transform="translate(391.064453 0.015625)"/>
     <use xlink:href="#DejaVuSans-6e" transform="translate(418.847656 0.015625)"/>
     <use xlink:href="#DejaVuSans-20" transform="translate(482.226562 0.015625)"/>
     <use xlink:href="#DejaVuSans-64" transform="translate(514.013672 0.015625)"/>
     <use xlink:href="#DejaVuSans-65" transform="translate(577.490234 0.015625)"/>
     <use xlink:href="#DejaVuSans-70" transform="translate(639.013672 0.015625)"/>
     <use xlink:href="#DejaVuSans-65" transform="translate(702.490234 0.015625)"/>
     <use xlink:href="#DejaVuSans-6e" transform="translate(764.013672 0.015625)"/>
     <use xlink:href="#DejaVuSans-64" transform="translate(827.392578 0.015625)"/>
     <use xlink:href="#DejaVuSans-65" transform="translate(890.869141 0.015625)"/>
     <use xlink:href="#DejaVuSans-6e" transform="translate(952.392578 0.015625)"/>
     <use xlink:href="#DejaVuSans-63" transform="translate(1015.771484 0.015625)"/>
     <use xlink:href="#DejaVuSans-65" transform="translate(1070.751953 0.015625)"/>
     <use xlink:href="#DejaVuSans-20" transform="translate(1132.275391 0.015625)"/>
     <use xlink:href="#DejaVuSans-6f" transform="translate(1164.0625 0.015625)"/>
     <use xlink:href="#DejaVuSans-66" transform="translate(1225.244141 0.015625)"/>
     <use xlink:href="#DejaVuSans-20" transform="translate(1260.449219 0.015625)"/>
     <use xlink:href="#DejaVuSans-Oblique-3c4" transform="translate(1292.236328 0.015625)"/>
    </g>
   </g>
   <g id="legend_1">
    <g id="patch_7">
     <path d="M 326.4 232.104375 
L 504.4 232.104375 
Q 508.4 232.104375 508.4 228.104375 
L 508.4 83.12 
Q 508.4 79.12 504.4 79.12 
L 326.4 79.12 
Q 322.4 79.12 322.4 83.12 
L 322.4 228.104375 
Q 322.4 232.104375 326.4 232.104375 
z
" style="fill: #ffffff; opacity: 0.8; stroke: #cccccc; stroke-linejoin: miter"/>
    </g>
    <g id="line2d_20">
     <path d="M 330.4 95.316875 
L 350.4 95.316875 
L 370.4 95.316875 
" style="fill: none; stroke: #9467bd; stroke-width: 3; stroke-linecap: square"/>
    </g>
    <g id="text_17">
     <!-- $\tau=11\,\mu$s -->
     <g transform="translate(386.4 102.316875)scale(0.2 -0.2)">
      <defs>
       <path id="DejaVuSans-3d" d="M 678 2906 
L 4684 2906 
L 4684 2381 
L 678 2381 
L 678 2906 
z
M 678 1631 
L 4684 1631 
L 4684 1100 
L 678 1100 
L 678 1631 
z
" transform="scale(0.015625)"/>
       <path id="DejaVuSans-Oblique-3bc" d="M -84 -1331 
L 856 3500 
L 1434 3500 
L 1009 1322 
Q 997 1256 987 1175 
Q 978 1094 978 1013 
Q 978 722 1161 565 
Q 1344 409 1684 409 
Q 2147 409 2431 671 
Q 2716 934 2816 1459 
L 3213 3500 
L 3788 3500 
L 3266 809 
Q 3253 750 3248 706 
Q 3244 663 3244 628 
Q 3244 531 3283 486 
Q 3322 441 3406 441 
Q 3438 441 3492 456 
Q 3547 472 3647 513 
L 3559 50 
Q 3422 -19 3297 -55 
Q 3172 -91 3053 -91 
Q 2847 -91 2730 40 
Q 2613 172 2613 403 
Q 2438 153 2195 31 
Q 1953 -91 1625 -91 
Q 1334 -91 1117 43 
Q 900 178 831 397 
L 494 -1331 
L -84 -1331 
z
" transform="scale(0.015625)"/>
      </defs>
      <use xlink:href="#DejaVuSans-Oblique-3c4" transform="translate(0 0.09375)"/>
      <use xlink:href="#DejaVuSans-3d" transform="translate(79.6875 0.09375)"/>
      <use xlink:href="#DejaVuSans-31" transform="translate(182.958984 0.09375)"/>
      <use xlink:href="#DejaVuSans-31" transform="translate(246.582031 0.09375)"/>
      <use xlink:href="#DejaVuSans-Oblique-3bc" transform="translate(326.440754 0.09375)"/>
      <use xlink:href="#DejaVuSans-73" transform="translate(390.063801 0.09375)"/>
     </g>
    </g>
    <g id="line2d_21">
     <path d="M 330.4 124.71375 
L 350.4 124.71375 
L 370.4 124.71375 
" style="fill: none; stroke: #d62728; stroke-width: 3; stroke-linecap: square"/>
    </g>
    <g id="text_18">
     <!-- $\tau=48\,\mu$s -->
     <g transform="translate(386.4 131.71375)scale(0.2 -0.2)">
      <use xlink:href="#DejaVuSans-Oblique-3c4" transform="translate(0 0.78125)"/>
      <use xlink:href="#DejaVuSans-3d" transform="translate(79.6875 0.78125)"/>
      <use xlink:href="#DejaVuSans-34" transform="translate(182.958984 0.78125)"/>
      <use xlink:href="#DejaVuSans-38" transform="translate(246.582031 0.78125)"/>
      <use xlink:href="#DejaVuSans-Oblique-3bc" transform="translate(326.440754 0.78125)"/>
      <use xlink:href="#DejaVuSans-73" transform="translate(390.063801 0.78125)"/>
     </g>
    </g>
    <g id="line2d_22">
     <path d="M 330.4 154.110625 
L 350.4 154.110625 
L 370.4 154.110625 
" style="fill: none; stroke: #2ca02c; stroke-width: 3; stroke-linecap: square"/>
    </g>
    <g id="text_19">
     <!-- $\tau=151\,\mu$s -->
     <g transform="translate(386.4 161.110625)scale(0.2 -0.2)">
      <use xlink:href="#DejaVuSans-Oblique-3c4" transform="translate(0 0.09375)"/>
      <use xlink:href="#DejaVuSans-3d" transform="translate(79.6875 0.09375)"/>
      <use xlink:href="#DejaVuSans-31" transform="translate(182.958984 0.09375)"/>
      <use xlink:href="#DejaVuSans-35" transform="translate(246.582031 0.09375)"/>
      <use xlink:href="#DejaVuSans-31" transform="translate(310.205078 0.09375)"/>
      <use xlink:href="#DejaVuSans-Oblique-3bc" transform="translate(390.063801 0.09375)"/>
      <use xlink:href="#DejaVuSans-73" transform="translate(453.686848 0.09375)"/>
     </g>
    </g>
    <g id="line2d_23">
     <path d="M 330.4 183.5075 
L 350.4 183.5075 
L 370.4 183.5075 
" style="fill: none; stroke: #ff7f0e; stroke-width: 3; stroke-linecap: square"/>
    </g>
    <g id="text_20">
     <!-- $\tau=468\,\mu$s -->
     <g transform="translate(386.4 190.5075)scale(0.2 -0.2)">
      <use xlink:href="#DejaVuSans-Oblique-3c4" transform="translate(0 0.78125)"/>
      <use xlink:href="#DejaVuSans-3d" transform="translate(79.6875 0.78125)"/>
      <use xlink:href="#DejaVuSans-34" transform="translate(182.958984 0.78125)"/>
      <use xlink:href="#DejaVuSans-36" transform="translate(246.582031 0.78125)"/>
      <use xlink:href="#DejaVuSans-38" transform="translate(310.205078 0.78125)"/>
      <use xlink:href="#DejaVuSans-Oblique-3bc" transform="translate(390.063801 0.78125)"/>
      <use xlink:href="#DejaVuSans-73" transform="translate(453.686848 0.78125)"/>
     </g>
    </g>
    <g id="line2d_24">
     <path d="M 330.4 212.904375 
L 350.4 212.904375 
L 370.4 212.904375 
" style="fill: none; stroke: #1f77b4; stroke-width: 3; stroke-linecap: square"/>
    </g>
    <g id="text_21">
     <!-- $\tau=1000\,\mu$s -->
     <g transform="translate(386.4 219.904375)scale(0.2 -0.2)">
      <use xlink:href="#DejaVuSans-Oblique-3c4" transform="translate(0 0.78125)"/>
      <use xlink:href="#DejaVuSans-3d" transform="translate(79.6875 0.78125)"/>
      <use xlink:href="#DejaVuSans-31" transform="translate(182.958984 0.78125)"/>
      <use xlink:href="#DejaVuSans-30" transform="translate(246.582031 0.78125)"/>
      <use xlink:href="#DejaVuSans-30" transform="translate(310.205078 0.78125)"/>
      <use xlink:href="#DejaVuSans-30" transform="translate(373.828125 0.78125)"/>
      <use xlink:href="#DejaVuSans-Oblique-3bc" transform="translate(453.686848 0.78125)"/>
      <use xlink:href="#DejaVuSans-73" transform="translate(517.309895 0.78125)"/>
     </g>
    </g>
   </g>
  </g>
 </g>
 <defs>
  <clipPath id="ped9588f5b6">
   <rect x="72" y="69.12" width="446.4" height="443.52"/>
  </clipPath>
 </defs>
</svg>
