<?xml version="1.0" encoding="utf-8" standalone="no"?>
<!DOCTYPE svg PUBLIC "-//W3C//DTD SVG 1.1//EN"
  "http://www.w3.org/Graphics/SVG/1.1/DTD/svg11.dtd">
<svg xmlns:xlink="http://www.w3.org/1999/xlink" width="576pt" height="576pt" viewBox="0 0 576 576" xmlns="http://www.w3.org/2000/svg" version="1.1">
 <metadata>
  <rdf:RDF xmlns:dc="http://purl.org/dc/elements/1.1/" xmlns:cc="http://creativecommons.org/ns#" xmlns:rdf="http://www.w3.org/1999/02/22-rdf-syntax-ns#">
   <cc:Work>
    <dc:type rdf:resource="http://purl.org/dc/dcmitype/StillImage"/>
    <dc:date>2021-12-30T14:22:35.126011</dc:date>
    <dc:format>image/svg+xml</dc:format>
    <dc:creator>
     <cc:Agent>
      <dc:title>Matplotlib v3.5.1, https://matplotlib.org/</dc:title>
     </cc:Agent>
    </dc:creator>
   </cc:Work>
  </rdf:RDF>
 </metadata>
 <defs>
  <style type="text/css">*{stroke-linejoin: round; stroke-linecap: butt}</style>
 </defs>
 <g id="figure_1">
  <g id="patch_1">
   <path d="M 0 576 
L 576 576 
L 576 0 
L 0 0 
z
" style="fill: #ffffff"/>
  </g>
  <g id="axes_1">
   <g id="patch_2">
    <path d="M 72 512.64 
L 518.4 512.64 
L 518.4 69.12 
L 72 69.12 
z
" style="fill: #ffffff"/>
   </g>
   <g id="matplotlib.axis_1">
    <g id="xtick_1">
     <g id="line2d_1">
      <defs>
       <path id="ma495030aaf" d="M 0 0 
L 0 3.5 
" style="stroke: #000000; stroke-width: 0.8"/>
      </defs>
      <g>
       <use xlink:href="#ma495030aaf" x="92.290909" y="512.64" style="stroke: #000000; stroke-width: 0.8"/>
      </g>
     </g>
     <g id="text_1">
      <!-- 0 -->
      <g transform="translate(85.928409 534.836875)scale(0.2 -0.2)">
       <defs>
        <path id="DejaVuSans-30" d="M 2034 4250 
Q 1547 4250 1301 3770 
Q 1056 3291 1056 2328 
Q 1056 1369 1301 889 
Q 1547 409 2034 409 
Q 2525 409 2770 889 
Q 3016 1369 3016 2328 
Q 3016 3291 2770 3770 
Q 2525 4250 2034 4250 
z
M 2034 4750 
Q 2819 4750 3233 4129 
Q 3647 3509 3647 2328 
Q 3647 1150 3233 529 
Q 2819 -91 2034 -91 
Q 1250 -91 836 529 
Q 422 1150 422 2328 
Q 422 3509 836 4129 
Q 1250 4750 2034 4750 
z
" transform="scale(0.015625)"/>
       </defs>
       <use xlink:href="#DejaVuSans-30"/>
      </g>
     </g>
    </g>
    <g id="xtick_2">
     <g id="line2d_2">
      <g>
       <use xlink:href="#ma495030aaf" x="173.454545" y="512.64" style="stroke: #000000; stroke-width: 0.8"/>
      </g>
     </g>
     <g id="text_2">
      <!-- 2 -->
      <g transform="translate(167.092045 534.836875)scale(0.2 -0.2)">
       <defs>
        <path id="DejaVuSans-32" d="M 1228 531 
L 3431 531 
L 3431 0 
L 469 0 
L 469 531 
Q 828 903 1448 1529 
Q 2069 2156 2228 2338 
Q 2531 2678 2651 2914 
Q 2772 3150 2772 3378 
Q 2772 3750 2511 3984 
Q 2250 4219 1831 4219 
Q 1534 4219 1204 4116 
Q 875 4013 500 3803 
L 500 4441 
Q 881 4594 1212 4672 
Q 1544 4750 1819 4750 
Q 2544 4750 2975 4387 
Q 3406 4025 3406 3419 
Q 3406 3131 3298 2873 
Q 3191 2616 2906 2266 
Q 2828 2175 2409 1742 
Q 1991 1309 1228 531 
z
" transform="scale(0.015625)"/>
       </defs>
       <use xlink:href="#DejaVuSans-32"/>
      </g>
     </g>
    </g>
    <g id="xtick_3">
     <g id="line2d_3">
      <g>
       <use xlink:href="#ma495030aaf" x="254.618182" y="512.64" style="stroke: #000000; stroke-width: 0.8"/>
      </g>
     </g>
     <g id="text_3">
      <!-- 4 -->
      <g transform="translate(248.255682 534.836875)scale(0.2 -0.2)">
       <defs>
        <path id="DejaVuSans-34" d="M 2419 4116 
L 825 1625 
L 2419 1625 
L 2419 4116 
z
M 2253 4666 
L 3047 4666 
L 3047 1625 
L 3713 1625 
L 3713 1100 
L 3047 1100 
L 3047 0 
L 2419 0 
L 2419 1100 
L 313 1100 
L 313 1709 
L 2253 4666 
z
" transform="scale(0.015625)"/>
       </defs>
       <use xlink:href="#DejaVuSans-34"/>
      </g>
     </g>
    </g>
    <g id="xtick_4">
     <g id="line2d_4">
      <g>
       <use xlink:href="#ma495030aaf" x="335.781818" y="512.64" style="stroke: #000000; stroke-width: 0.8"/>
      </g>
     </g>
     <g id="text_4">
      <!-- 6 -->
      <g transform="translate(329.419318 534.836875)scale(0.2 -0.2)">
       <defs>
        <path id="DejaVuSans-36" d="M 2113 2584 
Q 1688 2584 1439 2293 
Q 1191 2003 1191 1497 
Q 1191 994 1439 701 
Q 1688 409 2113 409 
Q 2538 409 2786 701 
Q 3034 994 3034 1497 
Q 3034 2003 2786 2293 
Q 2538 2584 2113 2584 
z
M 3366 4563 
L 3366 3988 
Q 3128 4100 2886 4159 
Q 2644 4219 2406 4219 
Q 1781 4219 1451 3797 
Q 1122 3375 1075 2522 
Q 1259 2794 1537 2939 
Q 1816 3084 2150 3084 
Q 2853 3084 3261 2657 
Q 3669 2231 3669 1497 
Q 3669 778 3244 343 
Q 2819 -91 2113 -91 
Q 1303 -91 875 529 
Q 447 1150 447 2328 
Q 447 3434 972 4092 
Q 1497 4750 2381 4750 
Q 2619 4750 2861 4703 
Q 3103 4656 3366 4563 
z
" transform="scale(0.015625)"/>
       </defs>
       <use xlink:href="#DejaVuSans-36"/>
      </g>
     </g>
    </g>
    <g id="xtick_5">
     <g id="line2d_5">
      <g>
       <use xlink:href="#ma495030aaf" x="416.945455" y="512.64" style="stroke: #000000; stroke-width: 0.8"/>
      </g>
     </g>
     <g id="text_5">
      <!-- 8 -->
      <g transform="translate(410.582955 534.836875)scale(0.2 -0.2)">
       <defs>
        <path id="DejaVuSans-38" d="M 2034 2216 
Q 1584 2216 1326 1975 
Q 1069 1734 1069 1313 
Q 1069 891 1326 650 
Q 1584 409 2034 409 
Q 2484 409 2743 651 
Q 3003 894 3003 1313 
Q 3003 1734 2745 1975 
Q 2488 2216 2034 2216 
z
M 1403 2484 
Q 997 2584 770 2862 
Q 544 3141 544 3541 
Q 544 4100 942 4425 
Q 1341 4750 2034 4750 
Q 2731 4750 3128 4425 
Q 3525 4100 3525 3541 
Q 3525 3141 3298 2862 
Q 3072 2584 2669 2484 
Q 3125 2378 3379 2068 
Q 3634 1759 3634 1313 
Q 3634 634 3220 271 
Q 2806 -91 2034 -91 
Q 1263 -91 848 271 
Q 434 634 434 1313 
Q 434 1759 690 2068 
Q 947 2378 1403 2484 
z
M 1172 3481 
Q 1172 3119 1398 2916 
Q 1625 2713 2034 2713 
Q 2441 2713 2670 2916 
Q 2900 3119 2900 3481 
Q 2900 3844 2670 4047 
Q 2441 4250 2034 4250 
Q 1625 4250 1398 4047 
Q 1172 3844 1172 3481 
z
" transform="scale(0.015625)"/>
       </defs>
       <use xlink:href="#DejaVuSans-38"/>
      </g>
     </g>
    </g>
    <g id="xtick_6">
     <g id="line2d_6">
      <g>
       <use xlink:href="#ma495030aaf" x="498.109091" y="512.64" style="stroke: #000000; stroke-width: 0.8"/>
      </g>
     </g>
     <g id="text_6">
      <!-- 10 -->
      <g transform="translate(485.384091 534.836875)scale(0.2 -0.2)">
       <defs>
        <path id="DejaVuSans-31" d="M 794 531 
L 1825 531 
L 1825 4091 
L 703 3866 
L 703 4441 
L 1819 4666 
L 2450 4666 
L 2450 531 
L 3481 531 
L 3481 0 
L 794 0 
L 794 531 
z
" transform="scale(0.015625)"/>
       </defs>
       <use xlink:href="#DejaVuSans-31"/>
       <use xlink:href="#DejaVuSans-30" x="63.623047"/>
      </g>
     </g>
    </g>
    <g id="text_7">
     <!-- $\Delta$t / $\mu$s -->
     <g transform="translate(259.89 559.668125)scale(0.22 -0.22)">
      <defs>
       <path id="DejaVuSans-394" d="M 2188 4044 
L 906 525 
L 3472 525 
L 2188 4044 
z
M 50 0 
L 1831 4666 
L 2547 4666 
L 4325 0 
L 50 0 
z
" transform="scale(0.015625)"/>
       <path id="DejaVuSans-74" d="M 1172 4494 
L 1172 3500 
L 2356 3500 
L 2356 3053 
L 1172 3053 
L 1172 1153 
Q 1172 725 1289 603 
Q 1406 481 1766 481 
L 2356 481 
L 2356 0 
L 1766 0 
Q 1100 0 847 248 
Q 594 497 594 1153 
L 594 3053 
L 172 3053 
L 172 3500 
L 594 3500 
L 594 4494 
L 1172 4494 
z
" transform="scale(0.015625)"/>
       <path id="DejaVuSans-20" transform="scale(0.015625)"/>
       <path id="DejaVuSans-2f" d="M 1625 4666 
L 2156 4666 
L 531 -594 
L 0 -594 
L 1625 4666 
z
" transform="scale(0.015625)"/>
       <path id="DejaVuSans-Oblique-3bc" d="M -84 -1331 
L 856 3500 
L 1434 3500 
L 1009 1322 
Q 997 1256 987 1175 
Q 978 1094 978 1013 
Q 978 722 1161 565 
Q 1344 409 1684 409 
Q 2147 409 2431 671 
Q 2716 934 2816 1459 
L 3213 3500 
L 3788 3500 
L 3266 809 
Q 3253 750 3248 706 
Q 3244 663 3244 628 
Q 3244 531 3283 486 
Q 3322 441 3406 441 
Q 3438 441 3492 456 
Q 3547 472 3647 513 
L 3559 50 
Q 3422 -19 3297 -55 
Q 3172 -91 3053 -91 
Q 2847 -91 2730 40 
Q 2613 172 2613 403 
Q 2438 153 2195 31 
Q 1953 -91 1625 -91 
Q 1334 -91 1117 43 
Q 900 178 831 397 
L 494 -1331 
L -84 -1331 
z
" transform="scale(0.015625)"/>
       <path id="DejaVuSans-73" d="M 2834 3397 
L 2834 2853 
Q 2591 2978 2328 3040 
Q 2066 3103 1784 3103 
Q 1356 3103 1142 2972 
Q 928 2841 928 2578 
Q 928 2378 1081 2264 
Q 1234 2150 1697 2047 
L 1894 2003 
Q 2506 1872 2764 1633 
Q 3022 1394 3022 966 
Q 3022 478 2636 193 
Q 2250 -91 1575 -91 
Q 1294 -91 989 -36 
Q 684 19 347 128 
L 347 722 
Q 666 556 975 473 
Q 1284 391 1588 391 
Q 1994 391 2212 530 
Q 2431 669 2431 922 
Q 2431 1156 2273 1281 
Q 2116 1406 1581 1522 
L 1381 1569 
Q 847 1681 609 1914 
Q 372 2147 372 2553 
Q 372 3047 722 3315 
Q 1072 3584 1716 3584 
Q 2034 3584 2315 3537 
Q 2597 3491 2834 3397 
z
" transform="scale(0.015625)"/>
      </defs>
      <use xlink:href="#DejaVuSans-394" transform="translate(0 0.09375)"/>
      <use xlink:href="#DejaVuSans-74" transform="translate(68.408203 0.09375)"/>
      <use xlink:href="#DejaVuSans-20" transform="translate(107.617188 0.09375)"/>
      <use xlink:href="#DejaVuSans-2f" transform="translate(139.404297 0.09375)"/>
      <use xlink:href="#DejaVuSans-20" transform="translate(173.095703 0.09375)"/>
      <use xlink:href="#DejaVuSans-Oblique-3bc" transform="translate(204.882812 0.09375)"/>
      <use xlink:href="#DejaVuSans-73" transform="translate(268.505859 0.09375)"/>
     </g>
    </g>
   </g>
   <g id="matplotlib.axis_2">
    <g id="ytick_1">
     <g id="line2d_7">
      <defs>
       <path id="mffc1f2b539" d="M 0 0 
L -3.5 0 
" style="stroke: #000000; stroke-width: 0.8"/>
      </defs>
      <g>
       <use xlink:href="#mffc1f2b539" x="72" y="450.904183" style="stroke: #000000; stroke-width: 0.8"/>
      </g>
     </g>
     <g id="text_8">
      <!-- 4 -->
      <g transform="translate(52.275 458.50262)scale(0.2 -0.2)">
       <use xlink:href="#DejaVuSans-34"/>
      </g>
     </g>
    </g>
    <g id="ytick_2">
     <g id="line2d_8">
      <g>
       <use xlink:href="#mffc1f2b539" x="72" y="381.813218" style="stroke: #000000; stroke-width: 0.8"/>
      </g>
     </g>
     <g id="text_9">
      <!-- 5 -->
      <g transform="translate(52.275 389.411655)scale(0.2 -0.2)">
       <defs>
        <path id="DejaVuSans-35" d="M 691 4666 
L 3169 4666 
L 3169 4134 
L 1269 4134 
L 1269 2991 
Q 1406 3038 1543 3061 
Q 1681 3084 1819 3084 
Q 2600 3084 3056 2656 
Q 3513 2228 3513 1497 
Q 3513 744 3044 326 
Q 2575 -91 1722 -91 
Q 1428 -91 1123 -41 
Q 819 9 494 109 
L 494 744 
Q 775 591 1075 516 
Q 1375 441 1709 441 
Q 2250 441 2565 725 
Q 2881 1009 2881 1497 
Q 2881 1984 2565 2268 
Q 2250 2553 1709 2553 
Q 1456 2553 1204 2497 
Q 953 2441 691 2322 
L 691 4666 
z
" transform="scale(0.015625)"/>
       </defs>
       <use xlink:href="#DejaVuSans-35"/>
      </g>
     </g>
    </g>
    <g id="ytick_3">
     <g id="line2d_9">
      <g>
       <use xlink:href="#mffc1f2b539" x="72" y="312.722253" style="stroke: #000000; stroke-width: 0.8"/>
      </g>
     </g>
     <g id="text_10">
      <!-- 6 -->
      <g transform="translate(52.275 320.320691)scale(0.2 -0.2)">
       <use xlink:href="#DejaVuSans-36"/>
      </g>
     </g>
    </g>
    <g id="ytick_4">
     <g id="line2d_10">
      <g>
       <use xlink:href="#mffc1f2b539" x="72" y="243.631288" style="stroke: #000000; stroke-width: 0.8"/>
      </g>
     </g>
     <g id="text_11">
      <!-- 7 -->
      <g transform="translate(52.275 251.229726)scale(0.2 -0.2)">
       <defs>
        <path id="DejaVuSans-37" d="M 525 4666 
L 3525 4666 
L 3525 4397 
L 1831 0 
L 1172 0 
L 2766 4134 
L 525 4134 
L 525 4666 
z
" transform="scale(0.015625)"/>
       </defs>
       <use xlink:href="#DejaVuSans-37"/>
      </g>
     </g>
    </g>
    <g id="ytick_5">
     <g id="line2d_11">
      <g>
       <use xlink:href="#mffc1f2b539" x="72" y="174.540324" style="stroke: #000000; stroke-width: 0.8"/>
      </g>
     </g>
     <g id="text_12">
      <!-- 8 -->
      <g transform="translate(52.275 182.138761)scale(0.2 -0.2)">
       <use xlink:href="#DejaVuSans-38"/>
      </g>
     </g>
    </g>
    <g id="ytick_6">
     <g id="line2d_12">
      <g>
       <use xlink:href="#mffc1f2b539" x="72" y="105.449359" style="stroke: #000000; stroke-width: 0.8"/>
      </g>
     </g>
     <g id="text_13">
      <!-- 9 -->
      <g transform="translate(52.275 113.047796)scale(0.2 -0.2)">
       <defs>
        <path id="DejaVuSans-39" d="M 703 97 
L 703 672 
Q 941 559 1184 500 
Q 1428 441 1663 441 
Q 2288 441 2617 861 
Q 2947 1281 2994 2138 
Q 2813 1869 2534 1725 
Q 2256 1581 1919 1581 
Q 1219 1581 811 2004 
Q 403 2428 403 3163 
Q 403 3881 828 4315 
Q 1253 4750 1959 4750 
Q 2769 4750 3195 4129 
Q 3622 3509 3622 2328 
Q 3622 1225 3098 567 
Q 2575 -91 1691 -91 
Q 1453 -91 1209 -44 
Q 966 3 703 97 
z
M 1959 2075 
Q 2384 2075 2632 2365 
Q 2881 2656 2881 3163 
Q 2881 3666 2632 3958 
Q 2384 4250 1959 4250 
Q 1534 4250 1286 3958 
Q 1038 3666 1038 3163 
Q 1038 2656 1286 2365 
Q 1534 2075 1959 2075 
z
" transform="scale(0.015625)"/>
       </defs>
       <use xlink:href="#DejaVuSans-39"/>
      </g>
     </g>
    </g>
    <g id="text_14">
     <!-- Intensity / $1\times 10^7$ -->
     <g transform="translate(43.655 389.33)rotate(-90)scale(0.22 -0.22)">
      <defs>
       <path id="DejaVuSans-49" d="M 628 4666 
L 1259 4666 
L 1259 0 
L 628 0 
L 628 4666 
z
" transform="scale(0.015625)"/>
       <path id="DejaVuSans-6e" d="M 3513 2113 
L 3513 0 
L 2938 0 
L 2938 2094 
Q 2938 2591 2744 2837 
Q 2550 3084 2163 3084 
Q 1697 3084 1428 2787 
Q 1159 2491 1159 1978 
L 1159 0 
L 581 0 
L 581 3500 
L 1159 3500 
L 1159 2956 
Q 1366 3272 1645 3428 
Q 1925 3584 2291 3584 
Q 2894 3584 3203 3211 
Q 3513 2838 3513 2113 
z
" transform="scale(0.015625)"/>
       <path id="DejaVuSans-65" d="M 3597 1894 
L 3597 1613 
L 953 1613 
Q 991 1019 1311 708 
Q 1631 397 2203 397 
Q 2534 397 2845 478 
Q 3156 559 3463 722 
L 3463 178 
Q 3153 47 2828 -22 
Q 2503 -91 2169 -91 
Q 1331 -91 842 396 
Q 353 884 353 1716 
Q 353 2575 817 3079 
Q 1281 3584 2069 3584 
Q 2775 3584 3186 3129 
Q 3597 2675 3597 1894 
z
M 3022 2063 
Q 3016 2534 2758 2815 
Q 2500 3097 2075 3097 
Q 1594 3097 1305 2825 
Q 1016 2553 972 2059 
L 3022 2063 
z
" transform="scale(0.015625)"/>
       <path id="DejaVuSans-69" d="M 603 3500 
L 1178 3500 
L 1178 0 
L 603 0 
L 603 3500 
z
M 603 4863 
L 1178 4863 
L 1178 4134 
L 603 4134 
L 603 4863 
z
" transform="scale(0.015625)"/>
       <path id="DejaVuSans-79" d="M 2059 -325 
Q 1816 -950 1584 -1140 
Q 1353 -1331 966 -1331 
L 506 -1331 
L 506 -850 
L 844 -850 
Q 1081 -850 1212 -737 
Q 1344 -625 1503 -206 
L 1606 56 
L 191 3500 
L 800 3500 
L 1894 763 
L 2988 3500 
L 3597 3500 
L 2059 -325 
z
" transform="scale(0.015625)"/>
       <path id="DejaVuSans-d7" d="M 4488 3438 
L 3059 2003 
L 4488 575 
L 4116 197 
L 2681 1631 
L 1247 197 
L 878 575 
L 2303 2003 
L 878 3438 
L 1247 3816 
L 2681 2381 
L 4116 3816 
L 4488 3438 
z
" transform="scale(0.015625)"/>
      </defs>
      <use xlink:href="#DejaVuSans-49" transform="translate(0 0.684375)"/>
      <use xlink:href="#DejaVuSans-6e" transform="translate(29.492188 0.684375)"/>
      <use xlink:href="#DejaVuSans-74" transform="translate(92.871094 0.684375)"/>
      <use xlink:href="#DejaVuSans-65" transform="translate(132.080078 0.684375)"/>
      <use xlink:href="#DejaVuSans-6e" transform="translate(193.603516 0.684375)"/>
      <use xlink:href="#DejaVuSans-73" transform="translate(256.982422 0.684375)"/>
      <use xlink:href="#DejaVuSans-69" transform="translate(309.082031 0.684375)"/>
      <use xlink:href="#DejaVuSans-74" transform="translate(336.865234 0.684375)"/>
      <use xlink:href="#DejaVuSans-79" transform="translate(376.074219 0.684375)"/>
      <use xlink:href="#DejaVuSans-20" transform="translate(435.253906 0.684375)"/>
      <use xlink:href="#DejaVuSans-2f" transform="translate(467.041016 0.684375)"/>
      <use xlink:href="#DejaVuSans-20" transform="translate(500.732422 0.684375)"/>
      <use xlink:href="#DejaVuSans-31" transform="translate(532.519531 0.684375)"/>
      <use xlink:href="#DejaVuSans-d7" transform="translate(615.625 0.684375)"/>
      <use xlink:href="#DejaVuSans-31" transform="translate(718.896484 0.684375)"/>
      <use xlink:href="#DejaVuSans-30" transform="translate(782.519531 0.684375)"/>
      <use xlink:href="#DejaVuSans-37" transform="translate(847.099609 38.965625)scale(0.7)"/>
     </g>
    </g>
   </g>
   <g id="line2d_13">
    <defs>
     <path id="m63456bbb00" d="M -5 5 
L 5 5 
L 5 -5 
L -5 -5 
z
" style="stroke: #000000; stroke-linejoin: miter"/>
    </defs>
    <g clip-path="url(#pe171a74114)">
     <use xlink:href="#m63456bbb00" x="92.290909" y="488.79244" style="stroke: #000000; stroke-linejoin: miter"/>
     <use xlink:href="#m63456bbb00" x="100.489256" y="368.253444" style="stroke: #000000; stroke-linejoin: miter"/>
     <use xlink:href="#m63456bbb00" x="108.687603" y="292.881961" style="stroke: #000000; stroke-linejoin: miter"/>
     <use xlink:href="#m63456bbb00" x="116.88595" y="248.576438" style="stroke: #000000; stroke-linejoin: miter"/>
     <use xlink:href="#m63456bbb00" x="125.084298" y="218.800063" style="stroke: #000000; stroke-linejoin: miter"/>
     <use xlink:href="#m63456bbb00" x="133.282645" y="195.641393" style="stroke: #000000; stroke-linejoin: miter"/>
     <use xlink:href="#m63456bbb00" x="141.480992" y="178.683908" style="stroke: #000000; stroke-linejoin: miter"/>
     <use xlink:href="#m63456bbb00" x="149.679339" y="166.737019" style="stroke: #000000; stroke-linejoin: miter"/>
     <use xlink:href="#m63456bbb00" x="157.877686" y="155.513954" style="stroke: #000000; stroke-linejoin: miter"/>
     <use xlink:href="#m63456bbb00" x="166.076033" y="148.609565" style="stroke: #000000; stroke-linejoin: miter"/>
     <use xlink:href="#m63456bbb00" x="174.27438" y="140.252998" style="stroke: #000000; stroke-linejoin: miter"/>
     <use xlink:href="#m63456bbb00" x="182.472727" y="135.167754" style="stroke: #000000; stroke-linejoin: miter"/>
     <use xlink:href="#m63456bbb00" x="190.671074" y="131.657659" style="stroke: #000000; stroke-linejoin: miter"/>
     <use xlink:href="#m63456bbb00" x="198.869421" y="126.217727" style="stroke: #000000; stroke-linejoin: miter"/>
     <use xlink:href="#m63456bbb00" x="207.067769" y="128.152105" style="stroke: #000000; stroke-linejoin: miter"/>
     <use xlink:href="#m63456bbb00" x="215.266116" y="123.14937" style="stroke: #000000; stroke-linejoin: miter"/>
     <use xlink:href="#m63456bbb00" x="223.464463" y="120.144195" style="stroke: #000000; stroke-linejoin: miter"/>
     <use xlink:href="#m63456bbb00" x="231.66281" y="117.903714" style="stroke: #000000; stroke-linejoin: miter"/>
     <use xlink:href="#m63456bbb00" x="239.861157" y="113.688218" style="stroke: #000000; stroke-linejoin: miter"/>
     <use xlink:href="#m63456bbb00" x="248.059504" y="111.683118" style="stroke: #000000; stroke-linejoin: miter"/>
     <use xlink:href="#m63456bbb00" x="256.257851" y="110.650584" style="stroke: #000000; stroke-linejoin: miter"/>
     <use xlink:href="#m63456bbb00" x="264.456198" y="110.431161" style="stroke: #000000; stroke-linejoin: miter"/>
     <use xlink:href="#m63456bbb00" x="272.654545" y="111.019107" style="stroke: #000000; stroke-linejoin: miter"/>
     <use xlink:href="#m63456bbb00" x="280.852893" y="109.118886" style="stroke: #000000; stroke-linejoin: miter"/>
     <use xlink:href="#m63456bbb00" x="289.05124" y="106.875102" style="stroke: #000000; stroke-linejoin: miter"/>
     <use xlink:href="#m63456bbb00" x="297.249587" y="106.851444" style="stroke: #000000; stroke-linejoin: miter"/>
     <use xlink:href="#m63456bbb00" x="305.447934" y="104.778988" style="stroke: #000000; stroke-linejoin: miter"/>
     <use xlink:href="#m63456bbb00" x="313.646281" y="106.190159" style="stroke: #000000; stroke-linejoin: miter"/>
     <use xlink:href="#m63456bbb00" x="321.844628" y="105.143908" style="stroke: #000000; stroke-linejoin: miter"/>
     <use xlink:href="#m63456bbb00" x="330.042975" y="106.241016" style="stroke: #000000; stroke-linejoin: miter"/>
     <use xlink:href="#m63456bbb00" x="338.241322" y="105.649259" style="stroke: #000000; stroke-linejoin: miter"/>
     <use xlink:href="#m63456bbb00" x="346.439669" y="103.878102" style="stroke: #000000; stroke-linejoin: miter"/>
     <use xlink:href="#m63456bbb00" x="354.638017" y="102.784157" style="stroke: #000000; stroke-linejoin: miter"/>
     <use xlink:href="#m63456bbb00" x="362.836364" y="101.643839" style="stroke: #000000; stroke-linejoin: miter"/>
     <use xlink:href="#m63456bbb00" x="371.034711" y="103.597086" style="stroke: #000000; stroke-linejoin: miter"/>
     <use xlink:href="#m63456bbb00" x="379.233058" y="103.281608" style="stroke: #000000; stroke-linejoin: miter"/>
     <use xlink:href="#m63456bbb00" x="387.431405" y="99.429808" style="stroke: #000000; stroke-linejoin: miter"/>
     <use xlink:href="#m63456bbb00" x="395.629752" y="101.363095" style="stroke: #000000; stroke-linejoin: miter"/>
     <use xlink:href="#m63456bbb00" x="403.828099" y="101.364783" style="stroke: #000000; stroke-linejoin: miter"/>
     <use xlink:href="#m63456bbb00" x="412.026446" y="101.478103" style="stroke: #000000; stroke-linejoin: miter"/>
     <use xlink:href="#m63456bbb00" x="420.224793" y="102.727321" style="stroke: #000000; stroke-linejoin: miter"/>
     <use xlink:href="#m63456bbb00" x="428.42314" y="103.712008" style="stroke: #000000; stroke-linejoin: miter"/>
     <use xlink:href="#m63456bbb00" x="436.621488" y="100.639464" style="stroke: #000000; stroke-linejoin: miter"/>
     <use xlink:href="#m63456bbb00" x="444.819835" y="101.154799" style="stroke: #000000; stroke-linejoin: miter"/>
     <use xlink:href="#m63456bbb00" x="453.018182" y="102.475532" style="stroke: #000000; stroke-linejoin: miter"/>
     <use xlink:href="#m63456bbb00" x="461.216529" y="100.08233" style="stroke: #000000; stroke-linejoin: miter"/>
     <use xlink:href="#m63456bbb00" x="469.414876" y="101.399432" style="stroke: #000000; stroke-linejoin: miter"/>
     <use xlink:href="#m63456bbb00" x="477.613223" y="97.857739" style="stroke: #000000; stroke-linejoin: miter"/>
     <use xlink:href="#m63456bbb00" x="485.81157" y="100.62192" style="stroke: #000000; stroke-linejoin: miter"/>
     <use xlink:href="#m63456bbb00" x="494.009917" y="101.281481" style="stroke: #000000; stroke-linejoin: miter"/>
    </g>
   </g>
   <g id="line2d_14">
    <path d="M 92.290909 466.150685 
L 95.540704 428.813768 
L 98.7905 395.355639 
L 102.040295 365.373348 
L 105.29009 338.505801 
L 108.539885 314.429421 
L 111.789681 292.854244 
L 115.039476 273.520429 
L 118.289271 256.19513 
L 121.539066 240.669689 
L 124.788862 226.757128 
L 128.038657 214.289888 
L 131.288452 203.117823 
L 134.538247 193.10638 
L 137.788043 184.134988 
L 141.037838 176.0956 
L 144.287633 168.891392 
L 147.537428 162.435602 
L 150.787224 156.65048 
L 154.037019 151.466351 
L 157.286814 146.820782 
L 160.536609 142.657823 
L 163.786405 138.927338 
L 167.0362 135.584399 
L 170.285995 132.588745 
L 173.53579 129.904297 
L 176.785586 127.498727 
L 180.035381 125.343063 
L 183.285176 123.411342 
L 186.534971 121.6803 
L 189.784767 120.129089 
L 194.659459 118.099126 
L 199.534152 116.377127 
L 204.408845 114.916372 
L 209.283538 113.677226 
L 214.158231 112.62607 
L 220.657821 111.4683 
L 227.157412 110.538588 
L 235.2819 109.629585 
L 243.406388 108.938593 
L 253.155774 108.324476 
L 264.530057 107.822036 
L 279.154136 107.403804 
L 298.652907 107.087815 
L 326.276167 106.882045 
L 375.023096 106.774242 
L 535.887961 106.748582 
L 577 106.748497 
L 577 106.748497 
" clip-path="url(#pe171a74114)" style="fill: none; stroke: #000000; stroke-width: 3; stroke-linecap: square"/>
   </g>
   <g id="patch_3">
    <path d="M 72 512.64 
L 72 69.12 
" style="fill: none; stroke: #000000; stroke-width: 0.8; stroke-linejoin: miter; stroke-linecap: square"/>
   </g>
   <g id="patch_4">
    <path d="M 518.4 512.64 
L 518.4 69.12 
" style="fill: none; stroke: #000000; stroke-width: 0.8; stroke-linejoin: miter; stroke-linecap: square"/>
   </g>
   <g id="patch_5">
    <path d="M 72 512.64 
L 518.4 512.64 
" style="fill: none; stroke: #000000; stroke-width: 0.8; stroke-linejoin: miter; stroke-linecap: square"/>
   </g>
   <g id="patch_6">
    <path d="M 72 69.12 
L 518.4 69.12 
" style="fill: none; stroke: #000000; stroke-width: 0.8; stroke-linejoin: miter; stroke-linecap: square"/>
   </g>
   <g id="text_15">
    <!-- Determining the spin-lattice relaxation time $T_1$ -->
    <g transform="translate(2.7 63.12)scale(0.25 -0.25)">
     <defs>
      <path id="DejaVuSans-44" d="M 1259 4147 
L 1259 519 
L 2022 519 
Q 2988 519 3436 956 
Q 3884 1394 3884 2338 
Q 3884 3275 3436 3711 
Q 2988 4147 2022 4147 
L 1259 4147 
z
M 628 4666 
L 1925 4666 
Q 3281 4666 3915 4102 
Q 4550 3538 4550 2338 
Q 4550 1131 3912 565 
Q 3275 0 1925 0 
L 628 0 
L 628 4666 
z
" transform="scale(0.015625)"/>
      <path id="DejaVuSans-72" d="M 2631 2963 
Q 2534 3019 2420 3045 
Q 2306 3072 2169 3072 
Q 1681 3072 1420 2755 
Q 1159 2438 1159 1844 
L 1159 0 
L 581 0 
L 581 3500 
L 1159 3500 
L 1159 2956 
Q 1341 3275 1631 3429 
Q 1922 3584 2338 3584 
Q 2397 3584 2469 3576 
Q 2541 3569 2628 3553 
L 2631 2963 
z
" transform="scale(0.015625)"/>
      <path id="DejaVuSans-6d" d="M 3328 2828 
Q 3544 3216 3844 3400 
Q 4144 3584 4550 3584 
Q 5097 3584 5394 3201 
Q 5691 2819 5691 2113 
L 5691 0 
L 5113 0 
L 5113 2094 
Q 5113 2597 4934 2840 
Q 4756 3084 4391 3084 
Q 3944 3084 3684 2787 
Q 3425 2491 3425 1978 
L 3425 0 
L 2847 0 
L 2847 2094 
Q 2847 2600 2669 2842 
Q 2491 3084 2119 3084 
Q 1678 3084 1418 2786 
Q 1159 2488 1159 1978 
L 1159 0 
L 581 0 
L 581 3500 
L 1159 3500 
L 1159 2956 
Q 1356 3278 1631 3431 
Q 1906 3584 2284 3584 
Q 2666 3584 2933 3390 
Q 3200 3197 3328 2828 
z
" transform="scale(0.015625)"/>
      <path id="DejaVuSans-67" d="M 2906 1791 
Q 2906 2416 2648 2759 
Q 2391 3103 1925 3103 
Q 1463 3103 1205 2759 
Q 947 2416 947 1791 
Q 947 1169 1205 825 
Q 1463 481 1925 481 
Q 2391 481 2648 825 
Q 2906 1169 2906 1791 
z
M 3481 434 
Q 3481 -459 3084 -895 
Q 2688 -1331 1869 -1331 
Q 1566 -1331 1297 -1286 
Q 1028 -1241 775 -1147 
L 775 -588 
Q 1028 -725 1275 -790 
Q 1522 -856 1778 -856 
Q 2344 -856 2625 -561 
Q 2906 -266 2906 331 
L 2906 616 
Q 2728 306 2450 153 
Q 2172 0 1784 0 
Q 1141 0 747 490 
Q 353 981 353 1791 
Q 353 2603 747 3093 
Q 1141 3584 1784 3584 
Q 2172 3584 2450 3431 
Q 2728 3278 2906 2969 
L 2906 3500 
L 3481 3500 
L 3481 434 
z
" transform="scale(0.015625)"/>
      <path id="DejaVuSans-68" d="M 3513 2113 
L 3513 0 
L 2938 0 
L 2938 2094 
Q 2938 2591 2744 2837 
Q 2550 3084 2163 3084 
Q 1697 3084 1428 2787 
Q 1159 2491 1159 1978 
L 1159 0 
L 581 0 
L 581 4863 
L 1159 4863 
L 1159 2956 
Q 1366 3272 1645 3428 
Q 1925 3584 2291 3584 
Q 2894 3584 3203 3211 
Q 3513 2838 3513 2113 
z
" transform="scale(0.015625)"/>
      <path id="DejaVuSans-70" d="M 1159 525 
L 1159 -1331 
L 581 -1331 
L 581 3500 
L 1159 3500 
L 1159 2969 
Q 1341 3281 1617 3432 
Q 1894 3584 2278 3584 
Q 2916 3584 3314 3078 
Q 3713 2572 3713 1747 
Q 3713 922 3314 415 
Q 2916 -91 2278 -91 
Q 1894 -91 1617 61 
Q 1341 213 1159 525 
z
M 3116 1747 
Q 3116 2381 2855 2742 
Q 2594 3103 2138 3103 
Q 1681 3103 1420 2742 
Q 1159 2381 1159 1747 
Q 1159 1113 1420 752 
Q 1681 391 2138 391 
Q 2594 391 2855 752 
Q 3116 1113 3116 1747 
z
" transform="scale(0.015625)"/>
      <path id="DejaVuSans-2d" d="M 313 2009 
L 1997 2009 
L 1997 1497 
L 313 1497 
L 313 2009 
z
" transform="scale(0.015625)"/>
      <path id="DejaVuSans-6c" d="M 603 4863 
L 1178 4863 
L 1178 0 
L 603 0 
L 603 4863 
z
" transform="scale(0.015625)"/>
      <path id="DejaVuSans-61" d="M 2194 1759 
Q 1497 1759 1228 1600 
Q 959 1441 959 1056 
Q 959 750 1161 570 
Q 1363 391 1709 391 
Q 2188 391 2477 730 
Q 2766 1069 2766 1631 
L 2766 1759 
L 2194 1759 
z
M 3341 1997 
L 3341 0 
L 2766 0 
L 2766 531 
Q 2569 213 2275 61 
Q 1981 -91 1556 -91 
Q 1019 -91 701 211 
Q 384 513 384 1019 
Q 384 1609 779 1909 
Q 1175 2209 1959 2209 
L 2766 2209 
L 2766 2266 
Q 2766 2663 2505 2880 
Q 2244 3097 1772 3097 
Q 1472 3097 1187 3025 
Q 903 2953 641 2809 
L 641 3341 
Q 956 3463 1253 3523 
Q 1550 3584 1831 3584 
Q 2591 3584 2966 3190 
Q 3341 2797 3341 1997 
z
" transform="scale(0.015625)"/>
      <path id="DejaVuSans-63" d="M 3122 3366 
L 3122 2828 
Q 2878 2963 2633 3030 
Q 2388 3097 2138 3097 
Q 1578 3097 1268 2742 
Q 959 2388 959 1747 
Q 959 1106 1268 751 
Q 1578 397 2138 397 
Q 2388 397 2633 464 
Q 2878 531 3122 666 
L 3122 134 
Q 2881 22 2623 -34 
Q 2366 -91 2075 -91 
Q 1284 -91 818 406 
Q 353 903 353 1747 
Q 353 2603 823 3093 
Q 1294 3584 2113 3584 
Q 2378 3584 2631 3529 
Q 2884 3475 3122 3366 
z
" transform="scale(0.015625)"/>
      <path id="DejaVuSans-78" d="M 3513 3500 
L 2247 1797 
L 3578 0 
L 2900 0 
L 1881 1375 
L 863 0 
L 184 0 
L 1544 1831 
L 300 3500 
L 978 3500 
L 1906 2253 
L 2834 3500 
L 3513 3500 
z
" transform="scale(0.015625)"/>
      <path id="DejaVuSans-6f" d="M 1959 3097 
Q 1497 3097 1228 2736 
Q 959 2375 959 1747 
Q 959 1119 1226 758 
Q 1494 397 1959 397 
Q 2419 397 2687 759 
Q 2956 1122 2956 1747 
Q 2956 2369 2687 2733 
Q 2419 3097 1959 3097 
z
M 1959 3584 
Q 2709 3584 3137 3096 
Q 3566 2609 3566 1747 
Q 3566 888 3137 398 
Q 2709 -91 1959 -91 
Q 1206 -91 779 398 
Q 353 888 353 1747 
Q 353 2609 779 3096 
Q 1206 3584 1959 3584 
z
" transform="scale(0.015625)"/>
      <path id="DejaVuSans-Oblique-54" d="M 378 4666 
L 4325 4666 
L 4225 4134 
L 2559 4134 
L 1759 0 
L 1125 0 
L 1925 4134 
L 275 4134 
L 378 4666 
z
" transform="scale(0.015625)"/>
     </defs>
     <use xlink:href="#DejaVuSans-44" transform="translate(0 0.015625)"/>
     <use xlink:href="#DejaVuSans-65" transform="translate(77.001953 0.015625)"/>
     <use xlink:href="#DejaVuSans-74" transform="translate(138.525391 0.015625)"/>
     <use xlink:href="#DejaVuSans-65" transform="translate(177.734375 0.015625)"/>
     <use xlink:href="#DejaVuSans-72" transform="translate(239.257812 0.015625)"/>
     <use xlink:href="#DejaVuSans-6d" transform="translate(280.371094 0.015625)"/>
     <use xlink:href="#DejaVuSans-69" transform="translate(377.783203 0.015625)"/>
     <use xlink:href="#DejaVuSans-6e" transform="translate(405.566406 0.015625)"/>
     <use xlink:href="#DejaVuSans-69" transform="translate(468.945312 0.015625)"/>
     <use xlink:href="#DejaVuSans-6e" transform="translate(496.728516 0.015625)"/>
     <use xlink:href="#DejaVuSans-67" transform="translate(560.107422 0.015625)"/>
     <use xlink:href="#DejaVuSans-20" transform="translate(623.583984 0.015625)"/>
     <use xlink:href="#DejaVuSans-74" transform="translate(655.371094 0.015625)"/>
     <use xlink:href="#DejaVuSans-68" transform="translate(694.580078 0.015625)"/>
     <use xlink:href="#DejaVuSans-65" transform="translate(757.958984 0.015625)"/>
     <use xlink:href="#DejaVuSans-20" transform="translate(819.482422 0.015625)"/>
     <use xlink:href="#DejaVuSans-73" transform="translate(851.269531 0.015625)"/>
     <use xlink:href="#DejaVuSans-70" transform="translate(903.369141 0.015625)"/>
     <use xlink:href="#DejaVuSans-69" transform="translate(966.845703 0.015625)"/>
     <use xlink:href="#DejaVuSans-6e" transform="translate(994.628906 0.015625)"/>
     <use xlink:href="#DejaVuSans-2d" transform="translate(1058.007812 0.015625)"/>
     <use xlink:href="#DejaVuSans-6c" transform="translate(1094.091797 0.015625)"/>
     <use xlink:href="#DejaVuSans-61" transform="translate(1121.875 0.015625)"/>
     <use xlink:href="#DejaVuSans-74" transform="translate(1183.154297 0.015625)"/>
     <use xlink:href="#DejaVuSans-74" transform="translate(1222.363281 0.015625)"/>
     <use xlink:href="#DejaVuSans-69" transform="translate(1261.572266 0.015625)"/>
     <use xlink:href="#DejaVuSans-63" transform="translate(1289.355469 0.015625)"/>
     <use xlink:href="#DejaVuSans-65" transform="translate(1344.335938 0.015625)"/>
     <use xlink:href="#DejaVuSans-20" transform="translate(1405.859375 0.015625)"/>
     <use xlink:href="#DejaVuSans-72" transform="translate(1437.646484 0.015625)"/>
     <use xlink:href="#DejaVuSans-65" transform="translate(1478.759766 0.015625)"/>
     <use xlink:href="#DejaVuSans-6c" transform="translate(1540.283203 0.015625)"/>
     <use xlink:href="#DejaVuSans-61" transform="translate(1568.066406 0.015625)"/>
     <use xlink:href="#DejaVuSans-78" transform="translate(1629.345703 0.015625)"/>
     <use xlink:href="#DejaVuSans-61" transform="translate(1688.525391 0.015625)"/>
     <use xlink:href="#DejaVuSans-74" transform="translate(1749.804688 0.015625)"/>
     <use xlink:href="#DejaVuSans-69" transform="translate(1789.013672 0.015625)"/>
     <use xlink:href="#DejaVuSans-6f" transform="translate(1816.796875 0.015625)"/>
     <use xlink:href="#DejaVuSans-6e" transform="translate(1877.978516 0.015625)"/>
     <use xlink:href="#DejaVuSans-20" transform="translate(1941.357422 0.015625)"/>
     <use xlink:href="#DejaVuSans-74" transform="translate(1973.144531 0.015625)"/>
     <use xlink:href="#DejaVuSans-69" transform="translate(2012.353516 0.015625)"/>
     <use xlink:href="#DejaVuSans-6d" transform="translate(2040.136719 0.015625)"/>
     <use xlink:href="#DejaVuSans-65" transform="translate(2137.548828 0.015625)"/>
     <use xlink:href="#DejaVuSans-20" transform="translate(2199.072266 0.015625)"/>
     <use xlink:href="#DejaVuSans-Oblique-54" transform="translate(2230.859375 0.015625)"/>
     <use xlink:href="#DejaVuSans-31" transform="translate(2291.943359 -16.390625)scale(0.7)"/>
    </g>
   </g>
   <g id="legend_1">
    <g id="patch_7">
     <path d="M 376.771875 502.64 
L 504.4 502.64 
Q 508.4 502.64 508.4 498.64 
L 508.4 441.9275 
Q 508.4 437.9275 504.4 437.9275 
L 376.771875 437.9275 
Q 372.771875 437.9275 372.771875 441.9275 
L 372.771875 498.64 
Q 372.771875 502.64 376.771875 502.64 
z
" style="fill: #ffffff; opacity: 0.8; stroke: #cccccc; stroke-linejoin: miter"/>
    </g>
    <g id="line2d_15">
     <defs>
      <path id="me5dd60e5f7" d="M -10 10 
L 10 10 
L 10 -10 
L -10 -10 
z
" style="stroke: #000000; stroke-linejoin: miter"/>
     </defs>
     <g>
      <use xlink:href="#me5dd60e5f7" x="400.771875" y="454.124375" style="stroke: #000000; stroke-linejoin: miter"/>
     </g>
    </g>
    <g id="text_16">
     <!-- raw -->
     <g transform="translate(436.771875 461.124375)scale(0.2 -0.2)">
      <defs>
       <path id="DejaVuSans-77" d="M 269 3500 
L 844 3500 
L 1563 769 
L 2278 3500 
L 2956 3500 
L 3675 769 
L 4391 3500 
L 4966 3500 
L 4050 0 
L 3372 0 
L 2619 2869 
L 1863 0 
L 1184 0 
L 269 3500 
z
" transform="scale(0.015625)"/>
      </defs>
      <use xlink:href="#DejaVuSans-72"/>
      <use xlink:href="#DejaVuSans-61" x="41.113281"/>
      <use xlink:href="#DejaVuSans-77" x="102.392578"/>
     </g>
    </g>
    <g id="line2d_16">
     <path d="M 380.771875 483.480625 
L 400.771875 483.480625 
L 420.771875 483.480625 
" style="fill: none; stroke: #000000; stroke-width: 3; stroke-linecap: square"/>
    </g>
    <g id="text_17">
     <!-- fit raw -->
     <g transform="translate(436.771875 490.480625)scale(0.2 -0.2)">
      <defs>
       <path id="DejaVuSans-66" d="M 2375 4863 
L 2375 4384 
L 1825 4384 
Q 1516 4384 1395 4259 
Q 1275 4134 1275 3809 
L 1275 3500 
L 2222 3500 
L 2222 3053 
L 1275 3053 
L 1275 0 
L 697 0 
L 697 3053 
L 147 3053 
L 147 3500 
L 697 3500 
L 697 3744 
Q 697 4328 969 4595 
Q 1241 4863 1831 4863 
L 2375 4863 
z
" transform="scale(0.015625)"/>
      </defs>
      <use xlink:href="#DejaVuSans-66"/>
      <use xlink:href="#DejaVuSans-69" x="35.205078"/>
      <use xlink:href="#DejaVuSans-74" x="62.988281"/>
      <use xlink:href="#DejaVuSans-20" x="102.197266"/>
      <use xlink:href="#DejaVuSans-72" x="133.984375"/>
      <use xlink:href="#DejaVuSans-61" x="175.097656"/>
      <use xlink:href="#DejaVuSans-77" x="236.376953"/>
     </g>
    </g>
   </g>
  </g>
 </g>
 <defs>
  <clipPath id="pe171a74114">
   <rect x="72" y="69.12" width="446.4" height="443.52"/>
  </clipPath>
 </defs>
</svg>
