<?xml version="1.0" encoding="utf-8" standalone="no"?>
<!DOCTYPE svg PUBLIC "-//W3C//DTD SVG 1.1//EN"
  "http://www.w3.org/Graphics/SVG/1.1/DTD/svg11.dtd">
<!-- Created with matplotlib (https://matplotlib.org/) -->
<svg height="504pt" version="1.1" viewBox="0 0 720 504" width="720pt" xmlns="http://www.w3.org/2000/svg" xmlns:xlink="http://www.w3.org/1999/xlink">
 <defs>
  <style type="text/css">
*{stroke-linecap:butt;stroke-linejoin:round;}
  </style>
 </defs>
 <g id="figure_1">
  <g id="patch_1">
   <path d="M 0 504 
L 720 504 
L 720 0 
L 0 0 
z
" style="fill:#ffffff;"/>
  </g>
  <g id="axes_1">
   <g id="patch_2">
    <path d="M 90 441 
L 648 441 
L 648 60.48 
L 90 60.48 
z
" style="fill:#ffffff;"/>
   </g>
   <g id="matplotlib.axis_1">
    <g id="xtick_1">
     <g id="line2d_1">
      <defs>
       <path d="M 0 0 
L 0 3.5 
" id="md0510d81a7" style="stroke:#000000;stroke-width:0.8;"/>
      </defs>
      <g>
       <use style="stroke:#000000;stroke-width:0.8;" x="115.244625" xlink:href="#md0510d81a7" y="441"/>
      </g>
     </g>
     <g id="text_1">
      <!-- −10.0 -->
      <defs>
       <path d="M 10.59375 35.5 
L 73.1875 35.5 
L 73.1875 27.203125 
L 10.59375 27.203125 
z
" id="DejaVuSans-8722"/>
       <path d="M 12.40625 8.296875 
L 28.515625 8.296875 
L 28.515625 63.921875 
L 10.984375 60.40625 
L 10.984375 69.390625 
L 28.421875 72.90625 
L 38.28125 72.90625 
L 38.28125 8.296875 
L 54.390625 8.296875 
L 54.390625 0 
L 12.40625 0 
z
" id="DejaVuSans-49"/>
       <path d="M 31.78125 66.40625 
Q 24.171875 66.40625 20.328125 58.90625 
Q 16.5 51.421875 16.5 36.375 
Q 16.5 21.390625 20.328125 13.890625 
Q 24.171875 6.390625 31.78125 6.390625 
Q 39.453125 6.390625 43.28125 13.890625 
Q 47.125 21.390625 47.125 36.375 
Q 47.125 51.421875 43.28125 58.90625 
Q 39.453125 66.40625 31.78125 66.40625 
z
M 31.78125 74.21875 
Q 44.046875 74.21875 50.515625 64.515625 
Q 56.984375 54.828125 56.984375 36.375 
Q 56.984375 17.96875 50.515625 8.265625 
Q 44.046875 -1.421875 31.78125 -1.421875 
Q 19.53125 -1.421875 13.0625 8.265625 
Q 6.59375 17.96875 6.59375 36.375 
Q 6.59375 54.828125 13.0625 64.515625 
Q 19.53125 74.21875 31.78125 74.21875 
z
" id="DejaVuSans-48"/>
       <path d="M 10.6875 12.40625 
L 21 12.40625 
L 21 0 
L 10.6875 0 
z
" id="DejaVuSans-46"/>
      </defs>
      <g transform="translate(99.921969 455.598437)scale(0.1 -0.1)">
       <use xlink:href="#DejaVuSans-8722"/>
       <use x="83.789062" xlink:href="#DejaVuSans-49"/>
       <use x="147.412109" xlink:href="#DejaVuSans-48"/>
       <use x="211.035156" xlink:href="#DejaVuSans-46"/>
       <use x="242.822266" xlink:href="#DejaVuSans-48"/>
      </g>
     </g>
    </g>
    <g id="xtick_2">
     <g id="line2d_2">
      <g>
       <use style="stroke:#000000;stroke-width:0.8;" x="178.683469" xlink:href="#md0510d81a7" y="441"/>
      </g>
     </g>
     <g id="text_2">
      <!-- −7.5 -->
      <defs>
       <path d="M 8.203125 72.90625 
L 55.078125 72.90625 
L 55.078125 68.703125 
L 28.609375 0 
L 18.3125 0 
L 43.21875 64.59375 
L 8.203125 64.59375 
z
" id="DejaVuSans-55"/>
       <path d="M 10.796875 72.90625 
L 49.515625 72.90625 
L 49.515625 64.59375 
L 19.828125 64.59375 
L 19.828125 46.734375 
Q 21.96875 47.46875 24.109375 47.828125 
Q 26.265625 48.1875 28.421875 48.1875 
Q 40.625 48.1875 47.75 41.5 
Q 54.890625 34.8125 54.890625 23.390625 
Q 54.890625 11.625 47.5625 5.09375 
Q 40.234375 -1.421875 26.90625 -1.421875 
Q 22.3125 -1.421875 17.546875 -0.640625 
Q 12.796875 0.140625 7.71875 1.703125 
L 7.71875 11.625 
Q 12.109375 9.234375 16.796875 8.0625 
Q 21.484375 6.890625 26.703125 6.890625 
Q 35.15625 6.890625 40.078125 11.328125 
Q 45.015625 15.765625 45.015625 23.390625 
Q 45.015625 31 40.078125 35.4375 
Q 35.15625 39.890625 26.703125 39.890625 
Q 22.75 39.890625 18.8125 39.015625 
Q 14.890625 38.140625 10.796875 36.28125 
z
" id="DejaVuSans-53"/>
      </defs>
      <g transform="translate(166.542063 455.598437)scale(0.1 -0.1)">
       <use xlink:href="#DejaVuSans-8722"/>
       <use x="83.789062" xlink:href="#DejaVuSans-55"/>
       <use x="147.412109" xlink:href="#DejaVuSans-46"/>
       <use x="179.199219" xlink:href="#DejaVuSans-53"/>
      </g>
     </g>
    </g>
    <g id="xtick_3">
     <g id="line2d_3">
      <g>
       <use style="stroke:#000000;stroke-width:0.8;" x="242.122313" xlink:href="#md0510d81a7" y="441"/>
      </g>
     </g>
     <g id="text_3">
      <!-- −5.0 -->
      <g transform="translate(229.980906 455.598437)scale(0.1 -0.1)">
       <use xlink:href="#DejaVuSans-8722"/>
       <use x="83.789062" xlink:href="#DejaVuSans-53"/>
       <use x="147.412109" xlink:href="#DejaVuSans-46"/>
       <use x="179.199219" xlink:href="#DejaVuSans-48"/>
      </g>
     </g>
    </g>
    <g id="xtick_4">
     <g id="line2d_4">
      <g>
       <use style="stroke:#000000;stroke-width:0.8;" x="305.561156" xlink:href="#md0510d81a7" y="441"/>
      </g>
     </g>
     <g id="text_4">
      <!-- −2.5 -->
      <defs>
       <path d="M 19.1875 8.296875 
L 53.609375 8.296875 
L 53.609375 0 
L 7.328125 0 
L 7.328125 8.296875 
Q 12.9375 14.109375 22.625 23.890625 
Q 32.328125 33.6875 34.8125 36.53125 
Q 39.546875 41.84375 41.421875 45.53125 
Q 43.3125 49.21875 43.3125 52.78125 
Q 43.3125 58.59375 39.234375 62.25 
Q 35.15625 65.921875 28.609375 65.921875 
Q 23.96875 65.921875 18.8125 64.3125 
Q 13.671875 62.703125 7.8125 59.421875 
L 7.8125 69.390625 
Q 13.765625 71.78125 18.9375 73 
Q 24.125 74.21875 28.421875 74.21875 
Q 39.75 74.21875 46.484375 68.546875 
Q 53.21875 62.890625 53.21875 53.421875 
Q 53.21875 48.921875 51.53125 44.890625 
Q 49.859375 40.875 45.40625 35.40625 
Q 44.1875 33.984375 37.640625 27.21875 
Q 31.109375 20.453125 19.1875 8.296875 
z
" id="DejaVuSans-50"/>
      </defs>
      <g transform="translate(293.41975 455.598437)scale(0.1 -0.1)">
       <use xlink:href="#DejaVuSans-8722"/>
       <use x="83.789062" xlink:href="#DejaVuSans-50"/>
       <use x="147.412109" xlink:href="#DejaVuSans-46"/>
       <use x="179.199219" xlink:href="#DejaVuSans-53"/>
      </g>
     </g>
    </g>
    <g id="xtick_5">
     <g id="line2d_5">
      <g>
       <use style="stroke:#000000;stroke-width:0.8;" x="369" xlink:href="#md0510d81a7" y="441"/>
      </g>
     </g>
     <g id="text_5">
      <!-- 0.0 -->
      <g transform="translate(361.048437 455.598437)scale(0.1 -0.1)">
       <use xlink:href="#DejaVuSans-48"/>
       <use x="63.623047" xlink:href="#DejaVuSans-46"/>
       <use x="95.410156" xlink:href="#DejaVuSans-48"/>
      </g>
     </g>
    </g>
    <g id="xtick_6">
     <g id="line2d_6">
      <g>
       <use style="stroke:#000000;stroke-width:0.8;" x="432.438844" xlink:href="#md0510d81a7" y="441"/>
      </g>
     </g>
     <g id="text_6">
      <!-- 2.5 -->
      <g transform="translate(424.487281 455.598437)scale(0.1 -0.1)">
       <use xlink:href="#DejaVuSans-50"/>
       <use x="63.623047" xlink:href="#DejaVuSans-46"/>
       <use x="95.410156" xlink:href="#DejaVuSans-53"/>
      </g>
     </g>
    </g>
    <g id="xtick_7">
     <g id="line2d_7">
      <g>
       <use style="stroke:#000000;stroke-width:0.8;" x="495.877687" xlink:href="#md0510d81a7" y="441"/>
      </g>
     </g>
     <g id="text_7">
      <!-- 5.0 -->
      <g transform="translate(487.926125 455.598437)scale(0.1 -0.1)">
       <use xlink:href="#DejaVuSans-53"/>
       <use x="63.623047" xlink:href="#DejaVuSans-46"/>
       <use x="95.410156" xlink:href="#DejaVuSans-48"/>
      </g>
     </g>
    </g>
    <g id="xtick_8">
     <g id="line2d_8">
      <g>
       <use style="stroke:#000000;stroke-width:0.8;" x="559.316531" xlink:href="#md0510d81a7" y="441"/>
      </g>
     </g>
     <g id="text_8">
      <!-- 7.5 -->
      <g transform="translate(551.364969 455.598437)scale(0.1 -0.1)">
       <use xlink:href="#DejaVuSans-55"/>
       <use x="63.623047" xlink:href="#DejaVuSans-46"/>
       <use x="95.410156" xlink:href="#DejaVuSans-53"/>
      </g>
     </g>
    </g>
    <g id="xtick_9">
     <g id="line2d_9">
      <g>
       <use style="stroke:#000000;stroke-width:0.8;" x="622.755375" xlink:href="#md0510d81a7" y="441"/>
      </g>
     </g>
     <g id="text_9">
      <!-- 10.0 -->
      <g transform="translate(611.622562 455.598437)scale(0.1 -0.1)">
       <use xlink:href="#DejaVuSans-49"/>
       <use x="63.623047" xlink:href="#DejaVuSans-48"/>
       <use x="127.246094" xlink:href="#DejaVuSans-46"/>
       <use x="159.033203" xlink:href="#DejaVuSans-48"/>
      </g>
     </g>
    </g>
    <g id="text_10">
     <!-- v/mm$\cdot$s$^{-1}$ -->
     <defs>
      <path d="M 2.984375 54.6875 
L 12.5 54.6875 
L 29.59375 8.796875 
L 46.6875 54.6875 
L 56.203125 54.6875 
L 35.6875 0 
L 23.484375 0 
z
" id="DejaVuSans-118"/>
      <path d="M 25.390625 72.90625 
L 33.6875 72.90625 
L 8.296875 -9.28125 
L 0 -9.28125 
z
" id="DejaVuSans-47"/>
      <path d="M 52 44.1875 
Q 55.375 50.25 60.0625 53.125 
Q 64.75 56 71.09375 56 
Q 79.640625 56 84.28125 50.015625 
Q 88.921875 44.046875 88.921875 33.015625 
L 88.921875 0 
L 79.890625 0 
L 79.890625 32.71875 
Q 79.890625 40.578125 77.09375 44.375 
Q 74.3125 48.1875 68.609375 48.1875 
Q 61.625 48.1875 57.5625 43.546875 
Q 53.515625 38.921875 53.515625 30.90625 
L 53.515625 0 
L 44.484375 0 
L 44.484375 32.71875 
Q 44.484375 40.625 41.703125 44.40625 
Q 38.921875 48.1875 33.109375 48.1875 
Q 26.21875 48.1875 22.15625 43.53125 
Q 18.109375 38.875 18.109375 30.90625 
L 18.109375 0 
L 9.078125 0 
L 9.078125 54.6875 
L 18.109375 54.6875 
L 18.109375 46.1875 
Q 21.1875 51.21875 25.484375 53.609375 
Q 29.78125 56 35.6875 56 
Q 41.65625 56 45.828125 52.96875 
Q 50 49.953125 52 44.1875 
z
" id="DejaVuSans-109"/>
      <path d="M 10.6875 40.921875 
L 21 40.921875 
L 21 28.515625 
L 10.6875 28.515625 
z
" id="DejaVuSans-8901"/>
      <path d="M 44.28125 53.078125 
L 44.28125 44.578125 
Q 40.484375 46.53125 36.375 47.5 
Q 32.28125 48.484375 27.875 48.484375 
Q 21.1875 48.484375 17.84375 46.4375 
Q 14.5 44.390625 14.5 40.28125 
Q 14.5 37.15625 16.890625 35.375 
Q 19.28125 33.59375 26.515625 31.984375 
L 29.59375 31.296875 
Q 39.15625 29.25 43.1875 25.515625 
Q 47.21875 21.78125 47.21875 15.09375 
Q 47.21875 7.46875 41.1875 3.015625 
Q 35.15625 -1.421875 24.609375 -1.421875 
Q 20.21875 -1.421875 15.453125 -0.5625 
Q 10.6875 0.296875 5.421875 2 
L 5.421875 11.28125 
Q 10.40625 8.6875 15.234375 7.390625 
Q 20.0625 6.109375 24.8125 6.109375 
Q 31.15625 6.109375 34.5625 8.28125 
Q 37.984375 10.453125 37.984375 14.40625 
Q 37.984375 18.0625 35.515625 20.015625 
Q 33.0625 21.96875 24.703125 23.78125 
L 21.578125 24.515625 
Q 13.234375 26.265625 9.515625 29.90625 
Q 5.8125 33.546875 5.8125 39.890625 
Q 5.8125 47.609375 11.28125 51.796875 
Q 16.75 56 26.8125 56 
Q 31.78125 56 36.171875 55.265625 
Q 40.578125 54.546875 44.28125 53.078125 
z
" id="DejaVuSans-115"/>
     </defs>
     <g transform="translate(345.05 469.598437)scale(0.1 -0.1)">
      <use transform="translate(0 0.684375)" xlink:href="#DejaVuSans-118"/>
      <use transform="translate(59.179688 0.684375)" xlink:href="#DejaVuSans-47"/>
      <use transform="translate(92.871094 0.684375)" xlink:href="#DejaVuSans-109"/>
      <use transform="translate(190.283203 0.684375)" xlink:href="#DejaVuSans-109"/>
      <use transform="translate(287.695312 0.684375)" xlink:href="#DejaVuSans-8901"/>
      <use transform="translate(319.482422 0.684375)" xlink:href="#DejaVuSans-115"/>
      <use transform="translate(372.539062 38.965625)scale(0.7)" xlink:href="#DejaVuSans-8722"/>
      <use transform="translate(431.191406 38.965625)scale(0.7)" xlink:href="#DejaVuSans-49"/>
     </g>
    </g>
   </g>
   <g id="matplotlib.axis_2">
    <g id="ytick_1">
     <g id="line2d_10">
      <defs>
       <path d="M 0 0 
L -3.5 0 
" id="m4448bcd44c" style="stroke:#000000;stroke-width:0.8;"/>
      </defs>
      <g>
       <use style="stroke:#000000;stroke-width:0.8;" x="90" xlink:href="#m4448bcd44c" y="376.081327"/>
      </g>
     </g>
     <g id="text_11">
      <!-- 11000 -->
      <g transform="translate(51.1875 379.880546)scale(0.1 -0.1)">
       <use xlink:href="#DejaVuSans-49"/>
       <use x="63.623047" xlink:href="#DejaVuSans-49"/>
       <use x="127.246094" xlink:href="#DejaVuSans-48"/>
       <use x="190.869141" xlink:href="#DejaVuSans-48"/>
       <use x="254.492188" xlink:href="#DejaVuSans-48"/>
      </g>
     </g>
    </g>
    <g id="ytick_2">
     <g id="line2d_11">
      <g>
       <use style="stroke:#000000;stroke-width:0.8;" x="90" xlink:href="#m4448bcd44c" y="302.133641"/>
      </g>
     </g>
     <g id="text_12">
      <!-- 11500 -->
      <g transform="translate(51.1875 305.93286)scale(0.1 -0.1)">
       <use xlink:href="#DejaVuSans-49"/>
       <use x="63.623047" xlink:href="#DejaVuSans-49"/>
       <use x="127.246094" xlink:href="#DejaVuSans-53"/>
       <use x="190.869141" xlink:href="#DejaVuSans-48"/>
       <use x="254.492188" xlink:href="#DejaVuSans-48"/>
      </g>
     </g>
    </g>
    <g id="ytick_3">
     <g id="line2d_12">
      <g>
       <use style="stroke:#000000;stroke-width:0.8;" x="90" xlink:href="#m4448bcd44c" y="228.185956"/>
      </g>
     </g>
     <g id="text_13">
      <!-- 12000 -->
      <g transform="translate(51.1875 231.985175)scale(0.1 -0.1)">
       <use xlink:href="#DejaVuSans-49"/>
       <use x="63.623047" xlink:href="#DejaVuSans-50"/>
       <use x="127.246094" xlink:href="#DejaVuSans-48"/>
       <use x="190.869141" xlink:href="#DejaVuSans-48"/>
       <use x="254.492188" xlink:href="#DejaVuSans-48"/>
      </g>
     </g>
    </g>
    <g id="ytick_4">
     <g id="line2d_13">
      <g>
       <use style="stroke:#000000;stroke-width:0.8;" x="90" xlink:href="#m4448bcd44c" y="154.23827"/>
      </g>
     </g>
     <g id="text_14">
      <!-- 12500 -->
      <g transform="translate(51.1875 158.037489)scale(0.1 -0.1)">
       <use xlink:href="#DejaVuSans-49"/>
       <use x="63.623047" xlink:href="#DejaVuSans-50"/>
       <use x="127.246094" xlink:href="#DejaVuSans-53"/>
       <use x="190.869141" xlink:href="#DejaVuSans-48"/>
       <use x="254.492188" xlink:href="#DejaVuSans-48"/>
      </g>
     </g>
    </g>
    <g id="ytick_5">
     <g id="line2d_14">
      <g>
       <use style="stroke:#000000;stroke-width:0.8;" x="90" xlink:href="#m4448bcd44c" y="80.290585"/>
      </g>
     </g>
     <g id="text_15">
      <!-- 13000 -->
      <defs>
       <path d="M 40.578125 39.3125 
Q 47.65625 37.796875 51.625 33 
Q 55.609375 28.21875 55.609375 21.1875 
Q 55.609375 10.40625 48.1875 4.484375 
Q 40.765625 -1.421875 27.09375 -1.421875 
Q 22.515625 -1.421875 17.65625 -0.515625 
Q 12.796875 0.390625 7.625 2.203125 
L 7.625 11.71875 
Q 11.71875 9.328125 16.59375 8.109375 
Q 21.484375 6.890625 26.8125 6.890625 
Q 36.078125 6.890625 40.9375 10.546875 
Q 45.796875 14.203125 45.796875 21.1875 
Q 45.796875 27.640625 41.28125 31.265625 
Q 36.765625 34.90625 28.71875 34.90625 
L 20.21875 34.90625 
L 20.21875 43.015625 
L 29.109375 43.015625 
Q 36.375 43.015625 40.234375 45.921875 
Q 44.09375 48.828125 44.09375 54.296875 
Q 44.09375 59.90625 40.109375 62.90625 
Q 36.140625 65.921875 28.71875 65.921875 
Q 24.65625 65.921875 20.015625 65.03125 
Q 15.375 64.15625 9.8125 62.3125 
L 9.8125 71.09375 
Q 15.4375 72.65625 20.34375 73.4375 
Q 25.25 74.21875 29.59375 74.21875 
Q 40.828125 74.21875 47.359375 69.109375 
Q 53.90625 64.015625 53.90625 55.328125 
Q 53.90625 49.265625 50.4375 45.09375 
Q 46.96875 40.921875 40.578125 39.3125 
z
" id="DejaVuSans-51"/>
      </defs>
      <g transform="translate(51.1875 84.089804)scale(0.1 -0.1)">
       <use xlink:href="#DejaVuSans-49"/>
       <use x="63.623047" xlink:href="#DejaVuSans-51"/>
       <use x="127.246094" xlink:href="#DejaVuSans-48"/>
       <use x="190.869141" xlink:href="#DejaVuSans-48"/>
       <use x="254.492188" xlink:href="#DejaVuSans-48"/>
      </g>
     </g>
    </g>
    <g id="text_16">
     <!-- Impulszahl -->
     <defs>
      <path d="M 9.8125 72.90625 
L 19.671875 72.90625 
L 19.671875 0 
L 9.8125 0 
z
" id="DejaVuSans-73"/>
      <path d="M 18.109375 8.203125 
L 18.109375 -20.796875 
L 9.078125 -20.796875 
L 9.078125 54.6875 
L 18.109375 54.6875 
L 18.109375 46.390625 
Q 20.953125 51.265625 25.265625 53.625 
Q 29.59375 56 35.59375 56 
Q 45.5625 56 51.78125 48.09375 
Q 58.015625 40.1875 58.015625 27.296875 
Q 58.015625 14.40625 51.78125 6.484375 
Q 45.5625 -1.421875 35.59375 -1.421875 
Q 29.59375 -1.421875 25.265625 0.953125 
Q 20.953125 3.328125 18.109375 8.203125 
z
M 48.6875 27.296875 
Q 48.6875 37.203125 44.609375 42.84375 
Q 40.53125 48.484375 33.40625 48.484375 
Q 26.265625 48.484375 22.1875 42.84375 
Q 18.109375 37.203125 18.109375 27.296875 
Q 18.109375 17.390625 22.1875 11.75 
Q 26.265625 6.109375 33.40625 6.109375 
Q 40.53125 6.109375 44.609375 11.75 
Q 48.6875 17.390625 48.6875 27.296875 
z
" id="DejaVuSans-112"/>
      <path d="M 8.5 21.578125 
L 8.5 54.6875 
L 17.484375 54.6875 
L 17.484375 21.921875 
Q 17.484375 14.15625 20.5 10.265625 
Q 23.53125 6.390625 29.59375 6.390625 
Q 36.859375 6.390625 41.078125 11.03125 
Q 45.3125 15.671875 45.3125 23.6875 
L 45.3125 54.6875 
L 54.296875 54.6875 
L 54.296875 0 
L 45.3125 0 
L 45.3125 8.40625 
Q 42.046875 3.421875 37.71875 1 
Q 33.40625 -1.421875 27.6875 -1.421875 
Q 18.265625 -1.421875 13.375 4.4375 
Q 8.5 10.296875 8.5 21.578125 
z
M 31.109375 56 
z
" id="DejaVuSans-117"/>
      <path d="M 9.421875 75.984375 
L 18.40625 75.984375 
L 18.40625 0 
L 9.421875 0 
z
" id="DejaVuSans-108"/>
      <path d="M 5.515625 54.6875 
L 48.1875 54.6875 
L 48.1875 46.484375 
L 14.40625 7.171875 
L 48.1875 7.171875 
L 48.1875 0 
L 4.296875 0 
L 4.296875 8.203125 
L 38.09375 47.515625 
L 5.515625 47.515625 
z
" id="DejaVuSans-122"/>
      <path d="M 34.28125 27.484375 
Q 23.390625 27.484375 19.1875 25 
Q 14.984375 22.515625 14.984375 16.5 
Q 14.984375 11.71875 18.140625 8.90625 
Q 21.296875 6.109375 26.703125 6.109375 
Q 34.1875 6.109375 38.703125 11.40625 
Q 43.21875 16.703125 43.21875 25.484375 
L 43.21875 27.484375 
z
M 52.203125 31.203125 
L 52.203125 0 
L 43.21875 0 
L 43.21875 8.296875 
Q 40.140625 3.328125 35.546875 0.953125 
Q 30.953125 -1.421875 24.3125 -1.421875 
Q 15.921875 -1.421875 10.953125 3.296875 
Q 6 8.015625 6 15.921875 
Q 6 25.140625 12.171875 29.828125 
Q 18.359375 34.515625 30.609375 34.515625 
L 43.21875 34.515625 
L 43.21875 35.40625 
Q 43.21875 41.609375 39.140625 45 
Q 35.0625 48.390625 27.6875 48.390625 
Q 23 48.390625 18.546875 47.265625 
Q 14.109375 46.140625 10.015625 43.890625 
L 10.015625 52.203125 
Q 14.9375 54.109375 19.578125 55.046875 
Q 24.21875 56 28.609375 56 
Q 40.484375 56 46.34375 49.84375 
Q 52.203125 43.703125 52.203125 31.203125 
z
" id="DejaVuSans-97"/>
      <path d="M 54.890625 33.015625 
L 54.890625 0 
L 45.90625 0 
L 45.90625 32.71875 
Q 45.90625 40.484375 42.875 44.328125 
Q 39.84375 48.1875 33.796875 48.1875 
Q 26.515625 48.1875 22.3125 43.546875 
Q 18.109375 38.921875 18.109375 30.90625 
L 18.109375 0 
L 9.078125 0 
L 9.078125 75.984375 
L 18.109375 75.984375 
L 18.109375 46.1875 
Q 21.34375 51.125 25.703125 53.5625 
Q 30.078125 56 35.796875 56 
Q 45.21875 56 50.046875 50.171875 
Q 54.890625 44.34375 54.890625 33.015625 
z
" id="DejaVuSans-104"/>
     </defs>
     <g transform="translate(45.107812 277.668125)rotate(-90)scale(0.1 -0.1)">
      <use xlink:href="#DejaVuSans-73"/>
      <use x="29.492188" xlink:href="#DejaVuSans-109"/>
      <use x="126.904297" xlink:href="#DejaVuSans-112"/>
      <use x="190.380859" xlink:href="#DejaVuSans-117"/>
      <use x="253.759766" xlink:href="#DejaVuSans-108"/>
      <use x="281.542969" xlink:href="#DejaVuSans-115"/>
      <use x="333.642578" xlink:href="#DejaVuSans-122"/>
      <use x="386.132812" xlink:href="#DejaVuSans-97"/>
      <use x="447.412109" xlink:href="#DejaVuSans-104"/>
      <use x="510.791016" xlink:href="#DejaVuSans-108"/>
     </g>
    </g>
   </g>
   <g id="line2d_15">
    <defs>
     <path d="M 0 1.5 
C 0.397805 1.5 0.77937 1.341951 1.06066 1.06066 
C 1.341951 0.77937 1.5 0.397805 1.5 0 
C 1.5 -0.397805 1.341951 -0.77937 1.06066 -1.06066 
C 0.77937 -1.341951 0.397805 -1.5 0 -1.5 
C -0.397805 -1.5 -0.77937 -1.341951 -1.06066 -1.06066 
C -1.341951 -0.77937 -1.5 -0.397805 -1.5 0 
C -1.5 0.397805 -1.341951 0.77937 -1.06066 1.06066 
C -0.77937 1.341951 -0.397805 1.5 0 1.5 
z
" id="ma1720cf52d" style="stroke:#1e90ff;"/>
    </defs>
    <g clip-path="url(#p0ee10b00e5)">
     <use style="fill:#1e90ff;stroke:#1e90ff;" x="115.363636" xlink:href="#ma1720cf52d" y="128.06079"/>
     <use style="fill:#1e90ff;stroke:#1e90ff;" x="115.373025" xlink:href="#ma1720cf52d" y="101.439623"/>
     <use style="fill:#1e90ff;stroke:#1e90ff;" x="115.392311" xlink:href="#ma1720cf52d" y="128.652371"/>
     <use style="fill:#1e90ff;stroke:#1e90ff;" x="115.420731" xlink:href="#ma1720cf52d" y="139.448733"/>
     <use style="fill:#1e90ff;stroke:#1e90ff;" x="115.459048" xlink:href="#ma1720cf52d" y="140.336106"/>
     <use style="fill:#1e90ff;stroke:#1e90ff;" x="115.506754" xlink:href="#ma1720cf52d" y="123.623929"/>
     <use style="fill:#1e90ff;stroke:#1e90ff;" x="115.564103" xlink:href="#ma1720cf52d" y="123.919719"/>
     <use style="fill:#1e90ff;stroke:#1e90ff;" x="115.630841" xlink:href="#ma1720cf52d" y="113.567043"/>
     <use style="fill:#1e90ff;stroke:#1e90ff;" x="115.707221" xlink:href="#ma1720cf52d" y="94.488541"/>
     <use style="fill:#1e90ff;stroke:#1e90ff;" x="115.793244" xlink:href="#ma1720cf52d" y="133.089232"/>
     <use style="fill:#1e90ff;stroke:#1e90ff;" x="115.888656" xlink:href="#ma1720cf52d" y="102.031204"/>
     <use style="fill:#1e90ff;stroke:#1e90ff;" x="115.993457" xlink:href="#ma1720cf52d" y="92.27011"/>
     <use style="fill:#1e90ff;stroke:#1e90ff;" x="116.108155" xlink:href="#ma1720cf52d" y="143.885594"/>
     <use style="fill:#1e90ff;stroke:#1e90ff;" x="116.231987" xlink:href="#ma1720cf52d" y="105.876484"/>
     <use style="fill:#1e90ff;stroke:#1e90ff;" x="116.365463" xlink:href="#ma1720cf52d" y="108.390705"/>
     <use style="fill:#1e90ff;stroke:#1e90ff;" x="116.508581" xlink:href="#ma1720cf52d" y="105.137007"/>
     <use style="fill:#1e90ff;stroke:#1e90ff;" x="116.661088" xlink:href="#ma1720cf52d" y="89.607993"/>
     <use style="fill:#1e90ff;stroke:#1e90ff;" x="116.823237" xlink:href="#ma1720cf52d" y="110.904927"/>
     <use style="fill:#1e90ff;stroke:#1e90ff;" x="116.994776" xlink:href="#ma1720cf52d" y="133.089232"/>
     <use style="fill:#1e90ff;stroke:#1e90ff;" x="117.175703" xlink:href="#ma1720cf52d" y="141.223478"/>
     <use style="fill:#1e90ff;stroke:#1e90ff;" x="117.366274" xlink:href="#ma1720cf52d" y="121.553393"/>
     <use style="fill:#1e90ff;stroke:#1e90ff;" x="117.566233" xlink:href="#ma1720cf52d" y="96.559076"/>
     <use style="fill:#1e90ff;stroke:#1e90ff;" x="117.775835" xlink:href="#ma1720cf52d" y="110.757031"/>
     <use style="fill:#1e90ff;stroke:#1e90ff;" x="117.994572" xlink:href="#ma1720cf52d" y="111.940194"/>
     <use style="fill:#1e90ff;stroke:#1e90ff;" x="118.222952" xlink:href="#ma1720cf52d" y="132.793442"/>
     <use style="fill:#1e90ff;stroke:#1e90ff;" x="118.460721" xlink:href="#ma1720cf52d" y="94.488541"/>
     <use style="fill:#1e90ff;stroke:#1e90ff;" x="118.708132" xlink:href="#ma1720cf52d" y="120.813917"/>
     <use style="fill:#1e90ff;stroke:#1e90ff;" x="118.964679" xlink:href="#ma1720cf52d" y="119.482858"/>
     <use style="fill:#1e90ff;stroke:#1e90ff;" x="119.230615" xlink:href="#ma1720cf52d" y="123.623929"/>
     <use style="fill:#1e90ff;stroke:#1e90ff;" x="119.506193" xlink:href="#ma1720cf52d" y="114.750206"/>
     <use style="fill:#1e90ff;stroke:#1e90ff;" x="119.79116" xlink:href="#ma1720cf52d" y="97.890134"/>
     <use style="fill:#1e90ff;stroke:#1e90ff;" x="120.085263" xlink:href="#ma1720cf52d" y="104.841217"/>
     <use style="fill:#1e90ff;stroke:#1e90ff;" x="120.389008" xlink:href="#ma1720cf52d" y="117.856009"/>
     <use style="fill:#1e90ff;stroke:#1e90ff;" x="120.701888" xlink:href="#ma1720cf52d" y="108.834392"/>
     <use style="fill:#1e90ff;stroke:#1e90ff;" x="121.024158" xlink:href="#ma1720cf52d" y="132.053965"/>
     <use style="fill:#1e90ff;stroke:#1e90ff;" x="121.355816" xlink:href="#ma1720cf52d" y="116.820742"/>
     <use style="fill:#1e90ff;stroke:#1e90ff;" x="121.696863" xlink:href="#ma1720cf52d" y="88.720621"/>
     <use style="fill:#1e90ff;stroke:#1e90ff;" x="122.047045" xlink:href="#ma1720cf52d" y="136.638721"/>
     <use style="fill:#1e90ff;stroke:#1e90ff;" x="122.406871" xlink:href="#ma1720cf52d" y="117.264428"/>
     <use style="fill:#1e90ff;stroke:#1e90ff;" x="122.775577" xlink:href="#ma1720cf52d" y="115.933369"/>
     <use style="fill:#1e90ff;stroke:#1e90ff;" x="123.153926" xlink:href="#ma1720cf52d" y="125.250778"/>
     <use style="fill:#1e90ff;stroke:#1e90ff;" x="123.541157" xlink:href="#ma1720cf52d" y="108.24281"/>
     <use style="fill:#1e90ff;stroke:#1e90ff;" x="123.937777" xlink:href="#ma1720cf52d" y="128.800267"/>
     <use style="fill:#1e90ff;stroke:#1e90ff;" x="124.343785" xlink:href="#ma1720cf52d" y="102.031204"/>
     <use style="fill:#1e90ff;stroke:#1e90ff;" x="124.758929" xlink:href="#ma1720cf52d" y="94.784331"/>
     <use style="fill:#1e90ff;stroke:#1e90ff;" x="125.183208" xlink:href="#ma1720cf52d" y="120.813917"/>
     <use style="fill:#1e90ff;stroke:#1e90ff;" x="125.616622" xlink:href="#ma1720cf52d" y="130.427116"/>
     <use style="fill:#1e90ff;stroke:#1e90ff;" x="126.059172" xlink:href="#ma1720cf52d" y="127.764999"/>
     <use style="fill:#1e90ff;stroke:#1e90ff;" x="126.510856" xlink:href="#ma1720cf52d" y="141.519269"/>
     <use style="fill:#1e90ff;stroke:#1e90ff;" x="126.97193" xlink:href="#ma1720cf52d" y="128.652371"/>
     <use style="fill:#1e90ff;stroke:#1e90ff;" x="127.441885" xlink:href="#ma1720cf52d" y="119.482858"/>
     <use style="fill:#1e90ff;stroke:#1e90ff;" x="127.920975" xlink:href="#ma1720cf52d" y="123.919719"/>
     <use style="fill:#1e90ff;stroke:#1e90ff;" x="128.4092" xlink:href="#ma1720cf52d" y="153.94248"/>
     <use style="fill:#1e90ff;stroke:#1e90ff;" x="128.906307" xlink:href="#ma1720cf52d" y="148.618246"/>
     <use style="fill:#1e90ff;stroke:#1e90ff;" x="129.412549" xlink:href="#ma1720cf52d" y="98.925402"/>
     <use style="fill:#1e90ff;stroke:#1e90ff;" x="129.927926" xlink:href="#ma1720cf52d" y="117.708114"/>
     <use style="fill:#1e90ff;stroke:#1e90ff;" x="130.452185" xlink:href="#ma1720cf52d" y="123.328138"/>
     <use style="fill:#1e90ff;stroke:#1e90ff;" x="130.985579" xlink:href="#ma1720cf52d" y="138.413466"/>
     <use style="fill:#1e90ff;stroke:#1e90ff;" x="131.527854" xlink:href="#ma1720cf52d" y="98.925402"/>
     <use style="fill:#1e90ff;stroke:#1e90ff;" x="132.07901" xlink:href="#ma1720cf52d" y="128.356581"/>
     <use style="fill:#1e90ff;stroke:#1e90ff;" x="132.639049" xlink:href="#ma1720cf52d" y="148.026665"/>
     <use style="fill:#1e90ff;stroke:#1e90ff;" x="133.208222" xlink:href="#ma1720cf52d" y="137.378198"/>
     <use style="fill:#1e90ff;stroke:#1e90ff;" x="133.786023" xlink:href="#ma1720cf52d" y="136.04714"/>
     <use style="fill:#1e90ff;stroke:#1e90ff;" x="134.372705" xlink:href="#ma1720cf52d" y="138.413466"/>
     <use style="fill:#1e90ff;stroke:#1e90ff;" x="134.968269" xlink:href="#ma1720cf52d" y="130.575011"/>
     <use style="fill:#1e90ff;stroke:#1e90ff;" x="135.572714" xlink:href="#ma1720cf52d" y="127.912894"/>
     <use style="fill:#1e90ff;stroke:#1e90ff;" x="136.185787" xlink:href="#ma1720cf52d" y="114.158625"/>
     <use style="fill:#1e90ff;stroke:#1e90ff;" x="136.807742" xlink:href="#ma1720cf52d" y="120.666021"/>
     <use style="fill:#1e90ff;stroke:#1e90ff;" x="137.438324" xlink:href="#ma1720cf52d" y="99.369088"/>
     <use style="fill:#1e90ff;stroke:#1e90ff;" x="138.077787" xlink:href="#ma1720cf52d" y="107.503333"/>
     <use style="fill:#1e90ff;stroke:#1e90ff;" x="138.725879" xlink:href="#ma1720cf52d" y="125.546568"/>
     <use style="fill:#1e90ff;stroke:#1e90ff;" x="139.382598" xlink:href="#ma1720cf52d" y="105.580693"/>
     <use style="fill:#1e90ff;stroke:#1e90ff;" x="140.048198" xlink:href="#ma1720cf52d" y="123.180243"/>
     <use style="fill:#1e90ff;stroke:#1e90ff;" x="140.722172" xlink:href="#ma1720cf52d" y="110.904927"/>
     <use style="fill:#1e90ff;stroke:#1e90ff;" x="141.404774" xlink:href="#ma1720cf52d" y="119.482858"/>
     <use style="fill:#1e90ff;stroke:#1e90ff;" x="142.096004" xlink:href="#ma1720cf52d" y="139.596629"/>
     <use style="fill:#1e90ff;stroke:#1e90ff;" x="142.795607" xlink:href="#ma1720cf52d" y="141.223478"/>
     <use style="fill:#1e90ff;stroke:#1e90ff;" x="143.503839" xlink:href="#ma1720cf52d" y="127.025522"/>
     <use style="fill:#1e90ff;stroke:#1e90ff;" x="144.220698" xlink:href="#ma1720cf52d" y="123.623929"/>
     <use style="fill:#1e90ff;stroke:#1e90ff;" x="144.94593" xlink:href="#ma1720cf52d" y="116.524951"/>
     <use style="fill:#1e90ff;stroke:#1e90ff;" x="145.679537" xlink:href="#ma1720cf52d" y="160.154085"/>
     <use style="fill:#1e90ff;stroke:#1e90ff;" x="146.421518" xlink:href="#ma1720cf52d" y="119.187068"/>
     <use style="fill:#1e90ff;stroke:#1e90ff;" x="147.171873" xlink:href="#ma1720cf52d" y="141.962955"/>
     <use style="fill:#1e90ff;stroke:#1e90ff;" x="147.930601" xlink:href="#ma1720cf52d" y="136.490826"/>
     <use style="fill:#1e90ff;stroke:#1e90ff;" x="148.697704" xlink:href="#ma1720cf52d" y="139.892419"/>
     <use style="fill:#1e90ff;stroke:#1e90ff;" x="149.47318" xlink:href="#ma1720cf52d" y="169.175703"/>
     <use style="fill:#1e90ff;stroke:#1e90ff;" x="150.256777" xlink:href="#ma1720cf52d" y="179.380484"/>
     <use style="fill:#1e90ff;stroke:#1e90ff;" x="151.048747" xlink:href="#ma1720cf52d" y="167.400958"/>
     <use style="fill:#1e90ff;stroke:#1e90ff;" x="151.848838" xlink:href="#ma1720cf52d" y="150.245095"/>
     <use style="fill:#1e90ff;stroke:#1e90ff;" x="152.657049" xlink:href="#ma1720cf52d" y="170.506761"/>
     <use style="fill:#1e90ff;stroke:#1e90ff;" x="153.47338" xlink:href="#ma1720cf52d" y="165.626214"/>
     <use style="fill:#1e90ff;stroke:#1e90ff;" x="154.298085" xlink:href="#ma1720cf52d" y="224.784362"/>
     <use style="fill:#1e90ff;stroke:#1e90ff;" x="155.130656" xlink:href="#ma1720cf52d" y="218.424861"/>
     <use style="fill:#1e90ff;stroke:#1e90ff;" x="155.971348" xlink:href="#ma1720cf52d" y="268.265601"/>
     <use style="fill:#1e90ff;stroke:#1e90ff;" x="156.819906" xlink:href="#ma1720cf52d" y="289.41464"/>
     <use style="fill:#1e90ff;stroke:#1e90ff;" x="157.676584" xlink:href="#ma1720cf52d" y="302.873118"/>
     <use style="fill:#1e90ff;stroke:#1e90ff;" x="158.541382" xlink:href="#ma1720cf52d" y="357.44651"/>
     <use style="fill:#1e90ff;stroke:#1e90ff;" x="159.413793" xlink:href="#ma1720cf52d" y="369.573931"/>
     <use style="fill:#1e90ff;stroke:#1e90ff;" x="160.294324" xlink:href="#ma1720cf52d" y="368.538663"/>
     <use style="fill:#1e90ff;stroke:#1e90ff;" x="161.182722" xlink:href="#ma1720cf52d" y="392.201922"/>
     <use style="fill:#1e90ff;stroke:#1e90ff;" x="162.078732" xlink:href="#ma1720cf52d" y="384.807154"/>
     <use style="fill:#1e90ff;stroke:#1e90ff;" x="162.982609" xlink:href="#ma1720cf52d" y="384.511363"/>
     <use style="fill:#1e90ff;stroke:#1e90ff;" x="163.894352" xlink:href="#ma1720cf52d" y="335.4101"/>
     <use style="fill:#1e90ff;stroke:#1e90ff;" x="164.813708" xlink:href="#ma1720cf52d" y="349.312265"/>
     <use style="fill:#1e90ff;stroke:#1e90ff;" x="165.74093" xlink:href="#ma1720cf52d" y="359.812836"/>
     <use style="fill:#1e90ff;stroke:#1e90ff;" x="166.675511" xlink:href="#ma1720cf52d" y="305.831026"/>
     <use style="fill:#1e90ff;stroke:#1e90ff;" x="167.617958" xlink:href="#ma1720cf52d" y="333.931146"/>
     <use style="fill:#1e90ff;stroke:#1e90ff;" x="168.567765" xlink:href="#ma1720cf52d" y="292.964128"/>
     <use style="fill:#1e90ff;stroke:#1e90ff;" x="169.525437" xlink:href="#ma1720cf52d" y="302.133641"/>
     <use style="fill:#1e90ff;stroke:#1e90ff;" x="170.490469" xlink:href="#ma1720cf52d" y="285.125674"/>
     <use style="fill:#1e90ff;stroke:#1e90ff;" x="171.46286" xlink:href="#ma1720cf52d" y="275.66037"/>
     <use style="fill:#1e90ff;stroke:#1e90ff;" x="172.442609" xlink:href="#ma1720cf52d" y="211.473779"/>
     <use style="fill:#1e90ff;stroke:#1e90ff;" x="173.429971" xlink:href="#ma1720cf52d" y="260.870833"/>
     <use style="fill:#1e90ff;stroke:#1e90ff;" x="174.424692" xlink:href="#ma1720cf52d" y="248.447622"/>
     <use style="fill:#1e90ff;stroke:#1e90ff;" x="175.426772" xlink:href="#ma1720cf52d" y="223.305409"/>
     <use style="fill:#1e90ff;stroke:#1e90ff;" x="176.435957" xlink:href="#ma1720cf52d" y="203.043743"/>
     <use style="fill:#1e90ff;stroke:#1e90ff;" x="177.452501" xlink:href="#ma1720cf52d" y="177.753634"/>
     <use style="fill:#1e90ff;stroke:#1e90ff;" x="178.476151" xlink:href="#ma1720cf52d" y="174.05625"/>
     <use style="fill:#1e90ff;stroke:#1e90ff;" x="179.507159" xlink:href="#ma1720cf52d" y="151.132468"/>
     <use style="fill:#1e90ff;stroke:#1e90ff;" x="180.545272" xlink:href="#ma1720cf52d" y="133.385023"/>
     <use style="fill:#1e90ff;stroke:#1e90ff;" x="181.59049" xlink:href="#ma1720cf52d" y="180.859437"/>
     <use style="fill:#1e90ff;stroke:#1e90ff;" x="182.64256" xlink:href="#ma1720cf52d" y="130.131325"/>
     <use style="fill:#1e90ff;stroke:#1e90ff;" x="183.701735" xlink:href="#ma1720cf52d" y="139.005047"/>
     <use style="fill:#1e90ff;stroke:#1e90ff;" x="184.768015" xlink:href="#ma1720cf52d" y="143.885594"/>
     <use style="fill:#1e90ff;stroke:#1e90ff;" x="185.841147" xlink:href="#ma1720cf52d" y="149.653514"/>
     <use style="fill:#1e90ff;stroke:#1e90ff;" x="186.92113" xlink:href="#ma1720cf52d" y="127.025522"/>
     <use style="fill:#1e90ff;stroke:#1e90ff;" x="188.007964" xlink:href="#ma1720cf52d" y="111.792299"/>
     <use style="fill:#1e90ff;stroke:#1e90ff;" x="189.101649" xlink:href="#ma1720cf52d" y="159.710399"/>
     <use style="fill:#1e90ff;stroke:#1e90ff;" x="190.202187" xlink:href="#ma1720cf52d" y="111.052822"/>
     <use style="fill:#1e90ff;stroke:#1e90ff;" x="191.309321" xlink:href="#ma1720cf52d" y="114.30652"/>
     <use style="fill:#1e90ff;stroke:#1e90ff;" x="192.423307" xlink:href="#ma1720cf52d" y="115.637579"/>
     <use style="fill:#1e90ff;stroke:#1e90ff;" x="193.543891" xlink:href="#ma1720cf52d" y="128.800267"/>
     <use style="fill:#1e90ff;stroke:#1e90ff;" x="194.671072" xlink:href="#ma1720cf52d" y="125.842359"/>
     <use style="fill:#1e90ff;stroke:#1e90ff;" x="195.804598" xlink:href="#ma1720cf52d" y="133.976605"/>
     <use style="fill:#1e90ff;stroke:#1e90ff;" x="196.944974" xlink:href="#ma1720cf52d" y="123.180243"/>
     <use style="fill:#1e90ff;stroke:#1e90ff;" x="198.091695" xlink:href="#ma1720cf52d" y="125.398673"/>
     <use style="fill:#1e90ff;stroke:#1e90ff;" x="199.244759" xlink:href="#ma1720cf52d" y="126.286045"/>
     <use style="fill:#1e90ff;stroke:#1e90ff;" x="200.404168" xlink:href="#ma1720cf52d" y="153.203003"/>
     <use style="fill:#1e90ff;stroke:#1e90ff;" x="201.570174" xlink:href="#ma1720cf52d" y="121.405498"/>
     <use style="fill:#1e90ff;stroke:#1e90ff;" x="202.74227" xlink:href="#ma1720cf52d" y="116.820742"/>
     <use style="fill:#1e90ff;stroke:#1e90ff;" x="203.92071" xlink:href="#ma1720cf52d" y="103.066472"/>
     <use style="fill:#1e90ff;stroke:#1e90ff;" x="205.105493" xlink:href="#ma1720cf52d" y="101.439623"/>
     <use style="fill:#1e90ff;stroke:#1e90ff;" x="206.296367" xlink:href="#ma1720cf52d" y="109.425973"/>
     <use style="fill:#1e90ff;stroke:#1e90ff;" x="207.493332" xlink:href="#ma1720cf52d" y="116.820742"/>
     <use style="fill:#1e90ff;stroke:#1e90ff;" x="208.696132" xlink:href="#ma1720cf52d" y="133.828709"/>
     <use style="fill:#1e90ff;stroke:#1e90ff;" x="209.905276" xlink:href="#ma1720cf52d" y="163.259888"/>
     <use style="fill:#1e90ff;stroke:#1e90ff;" x="211.120257" xlink:href="#ma1720cf52d" y="110.461241"/>
     <use style="fill:#1e90ff;stroke:#1e90ff;" x="212.341328" xlink:href="#ma1720cf52d" y="122.144975"/>
     <use style="fill:#1e90ff;stroke:#1e90ff;" x="213.568235" xlink:href="#ma1720cf52d" y="96.854866"/>
     <use style="fill:#1e90ff;stroke:#1e90ff;" x="214.800979" xlink:href="#ma1720cf52d" y="114.454416"/>
     <use style="fill:#1e90ff;stroke:#1e90ff;" x="216.039559" xlink:href="#ma1720cf52d" y="131.610279"/>
     <use style="fill:#1e90ff;stroke:#1e90ff;" x="217.283975" xlink:href="#ma1720cf52d" y="140.18821"/>
     <use style="fill:#1e90ff;stroke:#1e90ff;" x="218.533974" xlink:href="#ma1720cf52d" y="124.954987"/>
     <use style="fill:#1e90ff;stroke:#1e90ff;" x="219.789556" xlink:href="#ma1720cf52d" y="133.976605"/>
     <use style="fill:#1e90ff;stroke:#1e90ff;" x="221.050974" xlink:href="#ma1720cf52d" y="124.363405"/>
     <use style="fill:#1e90ff;stroke:#1e90ff;" x="222.317974" xlink:href="#ma1720cf52d" y="102.770681"/>
     <use style="fill:#1e90ff;stroke:#1e90ff;" x="223.590304" xlink:href="#ma1720cf52d" y="117.560218"/>
     <use style="fill:#1e90ff;stroke:#1e90ff;" x="224.868216" xlink:href="#ma1720cf52d" y="115.933369"/>
     <use style="fill:#1e90ff;stroke:#1e90ff;" x="226.151457" xlink:href="#ma1720cf52d" y="107.799124"/>
     <use style="fill:#1e90ff;stroke:#1e90ff;" x="227.440027" xlink:href="#ma1720cf52d" y="139.596629"/>
     <use style="fill:#1e90ff;stroke:#1e90ff;" x="228.734179" xlink:href="#ma1720cf52d" y="121.701289"/>
     <use style="fill:#1e90ff;stroke:#1e90ff;" x="230.033406" xlink:href="#ma1720cf52d" y="120.222335"/>
     <use style="fill:#1e90ff;stroke:#1e90ff;" x="231.337963" xlink:href="#ma1720cf52d" y="101.439623"/>
     <use style="fill:#1e90ff;stroke:#1e90ff;" x="232.647594" xlink:href="#ma1720cf52d" y="113.862834"/>
     <use style="fill:#1e90ff;stroke:#1e90ff;" x="233.962555" xlink:href="#ma1720cf52d" y="92.565901"/>
     <use style="fill:#1e90ff;stroke:#1e90ff;" x="235.28259" xlink:href="#ma1720cf52d" y="125.842359"/>
     <use style="fill:#1e90ff;stroke:#1e90ff;" x="236.607447" xlink:href="#ma1720cf52d" y="120.961812"/>
     <use style="fill:#1e90ff;stroke:#1e90ff;" x="237.937379" xlink:href="#ma1720cf52d" y="156.604596"/>
     <use style="fill:#1e90ff;stroke:#1e90ff;" x="239.272386" xlink:href="#ma1720cf52d" y="123.032347"/>
     <use style="fill:#1e90ff;stroke:#1e90ff;" x="240.611961" xlink:href="#ma1720cf52d" y="145.808234"/>
     <use style="fill:#1e90ff;stroke:#1e90ff;" x="241.95661" xlink:href="#ma1720cf52d" y="134.420291"/>
     <use style="fill:#1e90ff;stroke:#1e90ff;" x="243.306081" xlink:href="#ma1720cf52d" y="159.858295"/>
     <use style="fill:#1e90ff;stroke:#1e90ff;" x="244.66012" xlink:href="#ma1720cf52d" y="137.673989"/>
     <use style="fill:#1e90ff;stroke:#1e90ff;" x="246.01898" xlink:href="#ma1720cf52d" y="196.980033"/>
     <use style="fill:#1e90ff;stroke:#1e90ff;" x="247.382408" xlink:href="#ma1720cf52d" y="226.707002"/>
     <use style="fill:#1e90ff;stroke:#1e90ff;" x="248.750403" xlink:href="#ma1720cf52d" y="213.544314"/>
     <use style="fill:#1e90ff;stroke:#1e90ff;" x="250.122966" xlink:href="#ma1720cf52d" y="278.026696"/>
     <use style="fill:#1e90ff;stroke:#1e90ff;" x="251.499842" xlink:href="#ma1720cf52d" y="320.620563"/>
     <use style="fill:#1e90ff;stroke:#1e90ff;" x="252.881287" xlink:href="#ma1720cf52d" y="300.358897"/>
     <use style="fill:#1e90ff;stroke:#1e90ff;" x="254.267045" xlink:href="#ma1720cf52d" y="335.4101"/>
     <use style="fill:#1e90ff;stroke:#1e90ff;" x="255.657117" xlink:href="#ma1720cf52d" y="313.077899"/>
     <use style="fill:#1e90ff;stroke:#1e90ff;" x="257.051503" xlink:href="#ma1720cf52d" y="327.867436"/>
     <use style="fill:#1e90ff;stroke:#1e90ff;" x="258.450202" xlink:href="#ma1720cf52d" y="292.076756"/>
     <use style="fill:#1e90ff;stroke:#1e90ff;" x="259.852962" xlink:href="#ma1720cf52d" y="299.767315"/>
     <use style="fill:#1e90ff;stroke:#1e90ff;" x="261.259782" xlink:href="#ma1720cf52d" y="230.256491"/>
     <use style="fill:#1e90ff;stroke:#1e90ff;" x="262.670915" xlink:href="#ma1720cf52d" y="228.038061"/>
     <use style="fill:#1e90ff;stroke:#1e90ff;" x="264.085855" xlink:href="#ma1720cf52d" y="192.099485"/>
     <use style="fill:#1e90ff;stroke:#1e90ff;" x="265.504602" xlink:href="#ma1720cf52d" y="197.275823"/>
     <use style="fill:#1e90ff;stroke:#1e90ff;" x="266.927408" xlink:href="#ma1720cf52d" y="190.176846"/>
     <use style="fill:#1e90ff;stroke:#1e90ff;" x="268.354021" xlink:href="#ma1720cf52d" y="132.349756"/>
     <use style="fill:#1e90ff;stroke:#1e90ff;" x="269.78444" xlink:href="#ma1720cf52d" y="148.17456"/>
     <use style="fill:#1e90ff;stroke:#1e90ff;" x="271.218665" xlink:href="#ma1720cf52d" y="136.490826"/>
     <use style="fill:#1e90ff;stroke:#1e90ff;" x="272.656443" xlink:href="#ma1720cf52d" y="120.07444"/>
     <use style="fill:#1e90ff;stroke:#1e90ff;" x="274.098027" xlink:href="#ma1720cf52d" y="119.039172"/>
     <use style="fill:#1e90ff;stroke:#1e90ff;" x="275.54291" xlink:href="#ma1720cf52d" y="135.751349"/>
     <use style="fill:#1e90ff;stroke:#1e90ff;" x="276.9916" xlink:href="#ma1720cf52d" y="134.1245"/>
     <use style="fill:#1e90ff;stroke:#1e90ff;" x="278.443588" xlink:href="#ma1720cf52d" y="118.299695"/>
     <use style="fill:#1e90ff;stroke:#1e90ff;" x="279.898875" xlink:href="#ma1720cf52d" y="124.659196"/>
     <use style="fill:#1e90ff;stroke:#1e90ff;" x="281.357715" xlink:href="#ma1720cf52d" y="144.625071"/>
     <use style="fill:#1e90ff;stroke:#1e90ff;" x="282.819853" xlink:href="#ma1720cf52d" y="97.150657"/>
     <use style="fill:#1e90ff;stroke:#1e90ff;" x="284.285037" xlink:href="#ma1720cf52d" y="144.329281"/>
     <use style="fill:#1e90ff;stroke:#1e90ff;" x="285.753519" xlink:href="#ma1720cf52d" y="109.721764"/>
     <use style="fill:#1e90ff;stroke:#1e90ff;" x="287.2253" xlink:href="#ma1720cf52d" y="94.340645"/>
     <use style="fill:#1e90ff;stroke:#1e90ff;" x="288.700127" xlink:href="#ma1720cf52d" y="116.22916"/>
     <use style="fill:#1e90ff;stroke:#1e90ff;" x="290.177744" xlink:href="#ma1720cf52d" y="122.144975"/>
     <use style="fill:#1e90ff;stroke:#1e90ff;" x="291.658407" xlink:href="#ma1720cf52d" y="117.116532"/>
     <use style="fill:#1e90ff;stroke:#1e90ff;" x="293.142114" xlink:href="#ma1720cf52d" y="96.854866"/>
     <use style="fill:#1e90ff;stroke:#1e90ff;" x="294.628613" xlink:href="#ma1720cf52d" y="127.617104"/>
     <use style="fill:#1e90ff;stroke:#1e90ff;" x="296.117904" xlink:href="#ma1720cf52d" y="132.941337"/>
     <use style="fill:#1e90ff;stroke:#1e90ff;" x="297.609985" xlink:href="#ma1720cf52d" y="114.454416"/>
     <use style="fill:#1e90ff;stroke:#1e90ff;" x="299.104605" xlink:href="#ma1720cf52d" y="138.117675"/>
     <use style="fill:#1e90ff;stroke:#1e90ff;" x="300.602015" xlink:href="#ma1720cf52d" y="108.538601"/>
     <use style="fill:#1e90ff;stroke:#1e90ff;" x="302.101963" xlink:href="#ma1720cf52d" y="112.827567"/>
     <use style="fill:#1e90ff;stroke:#1e90ff;" x="303.604195" xlink:href="#ma1720cf52d" y="113.271253"/>
     <use style="fill:#1e90ff;stroke:#1e90ff;" x="305.109218" xlink:href="#ma1720cf52d" y="121.257603"/>
     <use style="fill:#1e90ff;stroke:#1e90ff;" x="306.616525" xlink:href="#ma1720cf52d" y="121.109707"/>
     <use style="fill:#1e90ff;stroke:#1e90ff;" x="308.126116" xlink:href="#ma1720cf52d" y="119.926544"/>
     <use style="fill:#1e90ff;stroke:#1e90ff;" x="309.638244" xlink:href="#ma1720cf52d" y="114.158625"/>
     <use style="fill:#1e90ff;stroke:#1e90ff;" x="311.152402" xlink:href="#ma1720cf52d" y="114.454416"/>
     <use style="fill:#1e90ff;stroke:#1e90ff;" x="312.668591" xlink:href="#ma1720cf52d" y="109.869659"/>
     <use style="fill:#1e90ff;stroke:#1e90ff;" x="314.187316" xlink:href="#ma1720cf52d" y="130.870802"/>
     <use style="fill:#1e90ff;stroke:#1e90ff;" x="315.707819" xlink:href="#ma1720cf52d" y="121.99708"/>
     <use style="fill:#1e90ff;stroke:#1e90ff;" x="317.230351" xlink:href="#ma1720cf52d" y="151.280363"/>
     <use style="fill:#1e90ff;stroke:#1e90ff;" x="318.754913" xlink:href="#ma1720cf52d" y="150.836677"/>
     <use style="fill:#1e90ff;stroke:#1e90ff;" x="320.281252" xlink:href="#ma1720cf52d" y="100.108565"/>
     <use style="fill:#1e90ff;stroke:#1e90ff;" x="321.809367" xlink:href="#ma1720cf52d" y="161.485144"/>
     <use style="fill:#1e90ff;stroke:#1e90ff;" x="323.339512" xlink:href="#ma1720cf52d" y="115.045997"/>
     <use style="fill:#1e90ff;stroke:#1e90ff;" x="324.871179" xlink:href="#ma1720cf52d" y="88.868516"/>
     <use style="fill:#1e90ff;stroke:#1e90ff;" x="326.404623" xlink:href="#ma1720cf52d" y="141.371373"/>
     <use style="fill:#1e90ff;stroke:#1e90ff;" x="327.939589" xlink:href="#ma1720cf52d" y="112.531776"/>
     <use style="fill:#1e90ff;stroke:#1e90ff;" x="329.476078" xlink:href="#ma1720cf52d" y="137.526094"/>
     <use style="fill:#1e90ff;stroke:#1e90ff;" x="331.014089" xlink:href="#ma1720cf52d" y="142.998222"/>
     <use style="fill:#1e90ff;stroke:#1e90ff;" x="332.553623" xlink:href="#ma1720cf52d" y="131.906069"/>
     <use style="fill:#1e90ff;stroke:#1e90ff;" x="334.094426" xlink:href="#ma1720cf52d" y="171.689924"/>
     <use style="fill:#1e90ff;stroke:#1e90ff;" x="335.636497" xlink:href="#ma1720cf52d" y="176.718367"/>
     <use style="fill:#1e90ff;stroke:#1e90ff;" x="337.179837" xlink:href="#ma1720cf52d" y="179.084693"/>
     <use style="fill:#1e90ff;stroke:#1e90ff;" x="338.724446" xlink:href="#ma1720cf52d" y="217.093803"/>
     <use style="fill:#1e90ff;stroke:#1e90ff;" x="340.270324" xlink:href="#ma1720cf52d" y="229.66491"/>
     <use style="fill:#1e90ff;stroke:#1e90ff;" x="341.816963" xlink:href="#ma1720cf52d" y="253.91975"/>
     <use style="fill:#1e90ff;stroke:#1e90ff;" x="343.364871" xlink:href="#ma1720cf52d" y="250.074471"/>
     <use style="fill:#1e90ff;stroke:#1e90ff;" x="344.913692" xlink:href="#ma1720cf52d" y="240.165481"/>
     <use style="fill:#1e90ff;stroke:#1e90ff;" x="346.463402" xlink:href="#ma1720cf52d" y="240.757062"/>
     <use style="fill:#1e90ff;stroke:#1e90ff;" x="348.013948" xlink:href="#ma1720cf52d" y="218.868548"/>
     <use style="fill:#1e90ff;stroke:#1e90ff;" x="349.565307" xlink:href="#ma1720cf52d" y="194.465811"/>
     <use style="fill:#1e90ff;stroke:#1e90ff;" x="351.117377" xlink:href="#ma1720cf52d" y="156.900387"/>
     <use style="fill:#1e90ff;stroke:#1e90ff;" x="352.670131" xlink:href="#ma1720cf52d" y="160.154085"/>
     <use style="fill:#1e90ff;stroke:#1e90ff;" x="354.22352" xlink:href="#ma1720cf52d" y="128.356581"/>
     <use style="fill:#1e90ff;stroke:#1e90ff;" x="355.777442" xlink:href="#ma1720cf52d" y="148.17456"/>
     <use style="fill:#1e90ff;stroke:#1e90ff;" x="357.331871" xlink:href="#ma1720cf52d" y="130.575011"/>
     <use style="fill:#1e90ff;stroke:#1e90ff;" x="358.886732" xlink:href="#ma1720cf52d" y="118.003905"/>
     <use style="fill:#1e90ff;stroke:#1e90ff;" x="360.441973" xlink:href="#ma1720cf52d" y="123.919719"/>
     <use style="fill:#1e90ff;stroke:#1e90ff;" x="361.997544" xlink:href="#ma1720cf52d" y="136.195035"/>
     <use style="fill:#1e90ff;stroke:#1e90ff;" x="363.553369" xlink:href="#ma1720cf52d" y="131.610279"/>
     <use style="fill:#1e90ff;stroke:#1e90ff;" x="365.109397" xlink:href="#ma1720cf52d" y="144.625071"/>
     <use style="fill:#1e90ff;stroke:#1e90ff;" x="366.665577" xlink:href="#ma1720cf52d" y="133.385023"/>
     <use style="fill:#1e90ff;stroke:#1e90ff;" x="368.221859" xlink:href="#ma1720cf52d" y="111.496508"/>
     <use style="fill:#1e90ff;stroke:#1e90ff;" x="369.778141" xlink:href="#ma1720cf52d" y="138.561361"/>
     <use style="fill:#1e90ff;stroke:#1e90ff;" x="371.334423" xlink:href="#ma1720cf52d" y="118.595486"/>
     <use style="fill:#1e90ff;stroke:#1e90ff;" x="372.890603" xlink:href="#ma1720cf52d" y="125.398673"/>
     <use style="fill:#1e90ff;stroke:#1e90ff;" x="374.446631" xlink:href="#ma1720cf52d" y="109.278078"/>
     <use style="fill:#1e90ff;stroke:#1e90ff;" x="376.002456" xlink:href="#ma1720cf52d" y="129.98343"/>
     <use style="fill:#1e90ff;stroke:#1e90ff;" x="377.558027" xlink:href="#ma1720cf52d" y="110.904927"/>
     <use style="fill:#1e90ff;stroke:#1e90ff;" x="379.113268" xlink:href="#ma1720cf52d" y="137.230303"/>
     <use style="fill:#1e90ff;stroke:#1e90ff;" x="380.668129" xlink:href="#ma1720cf52d" y="103.214367"/>
     <use style="fill:#1e90ff;stroke:#1e90ff;" x="382.222558" xlink:href="#ma1720cf52d" y="99.812774"/>
     <use style="fill:#1e90ff;stroke:#1e90ff;" x="383.77648" xlink:href="#ma1720cf52d" y="133.532918"/>
     <use style="fill:#1e90ff;stroke:#1e90ff;" x="385.329869" xlink:href="#ma1720cf52d" y="103.805949"/>
     <use style="fill:#1e90ff;stroke:#1e90ff;" x="386.882623" xlink:href="#ma1720cf52d" y="78.367945"/>
     <use style="fill:#1e90ff;stroke:#1e90ff;" x="388.434693" xlink:href="#ma1720cf52d" y="132.349756"/>
     <use style="fill:#1e90ff;stroke:#1e90ff;" x="389.986052" xlink:href="#ma1720cf52d" y="107.355438"/>
     <use style="fill:#1e90ff;stroke:#1e90ff;" x="391.536598" xlink:href="#ma1720cf52d" y="115.933369"/>
     <use style="fill:#1e90ff;stroke:#1e90ff;" x="393.086308" xlink:href="#ma1720cf52d" y="117.708114"/>
     <use style="fill:#1e90ff;stroke:#1e90ff;" x="394.635129" xlink:href="#ma1720cf52d" y="114.750206"/>
     <use style="fill:#1e90ff;stroke:#1e90ff;" x="396.183037" xlink:href="#ma1720cf52d" y="116.968637"/>
     <use style="fill:#1e90ff;stroke:#1e90ff;" x="397.729676" xlink:href="#ma1720cf52d" y="162.668307"/>
     <use style="fill:#1e90ff;stroke:#1e90ff;" x="399.275554" xlink:href="#ma1720cf52d" y="169.323598"/>
     <use style="fill:#1e90ff;stroke:#1e90ff;" x="400.820163" xlink:href="#ma1720cf52d" y="146.104025"/>
     <use style="fill:#1e90ff;stroke:#1e90ff;" x="402.363503" xlink:href="#ma1720cf52d" y="170.358866"/>
     <use style="fill:#1e90ff;stroke:#1e90ff;" x="403.905574" xlink:href="#ma1720cf52d" y="206.889023"/>
     <use style="fill:#1e90ff;stroke:#1e90ff;" x="405.446377" xlink:href="#ma1720cf52d" y="209.107453"/>
     <use style="fill:#1e90ff;stroke:#1e90ff;" x="406.985911" xlink:href="#ma1720cf52d" y="230.256491"/>
     <use style="fill:#1e90ff;stroke:#1e90ff;" x="408.523922" xlink:href="#ma1720cf52d" y="268.857183"/>
     <use style="fill:#1e90ff;stroke:#1e90ff;" x="410.060411" xlink:href="#ma1720cf52d" y="236.763887"/>
     <use style="fill:#1e90ff;stroke:#1e90ff;" x="411.595377" xlink:href="#ma1720cf52d" y="223.157513"/>
     <use style="fill:#1e90ff;stroke:#1e90ff;" x="413.128821" xlink:href="#ma1720cf52d" y="205.853755"/>
     <use style="fill:#1e90ff;stroke:#1e90ff;" x="414.660488" xlink:href="#ma1720cf52d" y="218.868548"/>
     <use style="fill:#1e90ff;stroke:#1e90ff;" x="416.190633" xlink:href="#ma1720cf52d" y="190.768427"/>
     <use style="fill:#1e90ff;stroke:#1e90ff;" x="417.718748" xlink:href="#ma1720cf52d" y="177.309948"/>
     <use style="fill:#1e90ff;stroke:#1e90ff;" x="419.245087" xlink:href="#ma1720cf52d" y="155.86512"/>
     <use style="fill:#1e90ff;stroke:#1e90ff;" x="420.769649" xlink:href="#ma1720cf52d" y="139.448733"/>
     <use style="fill:#1e90ff;stroke:#1e90ff;" x="422.292181" xlink:href="#ma1720cf52d" y="87.389563"/>
     <use style="fill:#1e90ff;stroke:#1e90ff;" x="423.812684" xlink:href="#ma1720cf52d" y="112.531776"/>
     <use style="fill:#1e90ff;stroke:#1e90ff;" x="425.331409" xlink:href="#ma1720cf52d" y="119.187068"/>
     <use style="fill:#1e90ff;stroke:#1e90ff;" x="426.847598" xlink:href="#ma1720cf52d" y="153.055107"/>
     <use style="fill:#1e90ff;stroke:#1e90ff;" x="428.361756" xlink:href="#ma1720cf52d" y="99.664879"/>
     <use style="fill:#1e90ff;stroke:#1e90ff;" x="429.873884" xlink:href="#ma1720cf52d" y="125.102882"/>
     <use style="fill:#1e90ff;stroke:#1e90ff;" x="431.383475" xlink:href="#ma1720cf52d" y="108.686496"/>
     <use style="fill:#1e90ff;stroke:#1e90ff;" x="432.890782" xlink:href="#ma1720cf52d" y="149.357723"/>
     <use style="fill:#1e90ff;stroke:#1e90ff;" x="434.395805" xlink:href="#ma1720cf52d" y="135.011872"/>
     <use style="fill:#1e90ff;stroke:#1e90ff;" x="435.898037" xlink:href="#ma1720cf52d" y="156.16091"/>
     <use style="fill:#1e90ff;stroke:#1e90ff;" x="437.397985" xlink:href="#ma1720cf52d" y="127.025522"/>
     <use style="fill:#1e90ff;stroke:#1e90ff;" x="438.895395" xlink:href="#ma1720cf52d" y="101.587518"/>
     <use style="fill:#1e90ff;stroke:#1e90ff;" x="440.390015" xlink:href="#ma1720cf52d" y="100.700146"/>
     <use style="fill:#1e90ff;stroke:#1e90ff;" x="441.882096" xlink:href="#ma1720cf52d" y="111.644404"/>
     <use style="fill:#1e90ff;stroke:#1e90ff;" x="443.371387" xlink:href="#ma1720cf52d" y="135.159768"/>
     <use style="fill:#1e90ff;stroke:#1e90ff;" x="444.857886" xlink:href="#ma1720cf52d" y="85.319028"/>
     <use style="fill:#1e90ff;stroke:#1e90ff;" x="446.341593" xlink:href="#ma1720cf52d" y="124.21551"/>
     <use style="fill:#1e90ff;stroke:#1e90ff;" x="447.822256" xlink:href="#ma1720cf52d" y="142.258745"/>
     <use style="fill:#1e90ff;stroke:#1e90ff;" x="449.299873" xlink:href="#ma1720cf52d" y="117.264428"/>
     <use style="fill:#1e90ff;stroke:#1e90ff;" x="450.7747" xlink:href="#ma1720cf52d" y="102.622786"/>
     <use style="fill:#1e90ff;stroke:#1e90ff;" x="452.246481" xlink:href="#ma1720cf52d" y="151.871944"/>
     <use style="fill:#1e90ff;stroke:#1e90ff;" x="453.714963" xlink:href="#ma1720cf52d" y="131.018697"/>
     <use style="fill:#1e90ff;stroke:#1e90ff;" x="455.180147" xlink:href="#ma1720cf52d" y="128.208685"/>
     <use style="fill:#1e90ff;stroke:#1e90ff;" x="456.642285" xlink:href="#ma1720cf52d" y="123.328138"/>
     <use style="fill:#1e90ff;stroke:#1e90ff;" x="458.101125" xlink:href="#ma1720cf52d" y="128.208685"/>
     <use style="fill:#1e90ff;stroke:#1e90ff;" x="459.556412" xlink:href="#ma1720cf52d" y="143.737699"/>
     <use style="fill:#1e90ff;stroke:#1e90ff;" x="461.0084" xlink:href="#ma1720cf52d" y="131.314488"/>
     <use style="fill:#1e90ff;stroke:#1e90ff;" x="462.45709" xlink:href="#ma1720cf52d" y="100.848042"/>
     <use style="fill:#1e90ff;stroke:#1e90ff;" x="463.901973" xlink:href="#ma1720cf52d" y="111.792299"/>
     <use style="fill:#1e90ff;stroke:#1e90ff;" x="465.343557" xlink:href="#ma1720cf52d" y="137.082407"/>
     <use style="fill:#1e90ff;stroke:#1e90ff;" x="466.781335" xlink:href="#ma1720cf52d" y="126.286045"/>
     <use style="fill:#1e90ff;stroke:#1e90ff;" x="468.21556" xlink:href="#ma1720cf52d" y="139.744524"/>
     <use style="fill:#1e90ff;stroke:#1e90ff;" x="469.645979" xlink:href="#ma1720cf52d" y="131.610279"/>
     <use style="fill:#1e90ff;stroke:#1e90ff;" x="471.072592" xlink:href="#ma1720cf52d" y="115.637579"/>
     <use style="fill:#1e90ff;stroke:#1e90ff;" x="472.495398" xlink:href="#ma1720cf52d" y="98.481716"/>
     <use style="fill:#1e90ff;stroke:#1e90ff;" x="473.914145" xlink:href="#ma1720cf52d" y="121.849184"/>
     <use style="fill:#1e90ff;stroke:#1e90ff;" x="475.329085" xlink:href="#ma1720cf52d" y="134.716081"/>
     <use style="fill:#1e90ff;stroke:#1e90ff;" x="476.740218" xlink:href="#ma1720cf52d" y="136.786617"/>
     <use style="fill:#1e90ff;stroke:#1e90ff;" x="478.147038" xlink:href="#ma1720cf52d" y="125.250778"/>
     <use style="fill:#1e90ff;stroke:#1e90ff;" x="479.549798" xlink:href="#ma1720cf52d" y="149.505619"/>
     <use style="fill:#1e90ff;stroke:#1e90ff;" x="480.948497" xlink:href="#ma1720cf52d" y="140.484001"/>
     <use style="fill:#1e90ff;stroke:#1e90ff;" x="482.342883" xlink:href="#ma1720cf52d" y="156.604596"/>
     <use style="fill:#1e90ff;stroke:#1e90ff;" x="483.732955" xlink:href="#ma1720cf52d" y="139.005047"/>
     <use style="fill:#1e90ff;stroke:#1e90ff;" x="485.118713" xlink:href="#ma1720cf52d" y="179.676274"/>
     <use style="fill:#1e90ff;stroke:#1e90ff;" x="486.500158" xlink:href="#ma1720cf52d" y="192.099485"/>
     <use style="fill:#1e90ff;stroke:#1e90ff;" x="487.877034" xlink:href="#ma1720cf52d" y="183.373659"/>
     <use style="fill:#1e90ff;stroke:#1e90ff;" x="489.249597" xlink:href="#ma1720cf52d" y="203.78322"/>
     <use style="fill:#1e90ff;stroke:#1e90ff;" x="490.617592" xlink:href="#ma1720cf52d" y="207.776395"/>
     <use style="fill:#1e90ff;stroke:#1e90ff;" x="491.98102" xlink:href="#ma1720cf52d" y="236.468097"/>
     <use style="fill:#1e90ff;stroke:#1e90ff;" x="493.33988" xlink:href="#ma1720cf52d" y="265.603485"/>
     <use style="fill:#1e90ff;stroke:#1e90ff;" x="494.693919" xlink:href="#ma1720cf52d" y="251.70132"/>
     <use style="fill:#1e90ff;stroke:#1e90ff;" x="496.04339" xlink:href="#ma1720cf52d" y="297.105199"/>
     <use style="fill:#1e90ff;stroke:#1e90ff;" x="497.388039" xlink:href="#ma1720cf52d" y="295.034664"/>
     <use style="fill:#1e90ff;stroke:#1e90ff;" x="498.727614" xlink:href="#ma1720cf52d" y="321.65583"/>
     <use style="fill:#1e90ff;stroke:#1e90ff;" x="500.062621" xlink:href="#ma1720cf52d" y="302.873118"/>
     <use style="fill:#1e90ff;stroke:#1e90ff;" x="501.392553" xlink:href="#ma1720cf52d" y="283.350929"/>
     <use style="fill:#1e90ff;stroke:#1e90ff;" x="502.71741" xlink:href="#ma1720cf52d" y="296.809408"/>
     <use style="fill:#1e90ff;stroke:#1e90ff;" x="504.037445" xlink:href="#ma1720cf52d" y="280.540917"/>
     <use style="fill:#1e90ff;stroke:#1e90ff;" x="505.352406" xlink:href="#ma1720cf52d" y="241.644435"/>
     <use style="fill:#1e90ff;stroke:#1e90ff;" x="506.662037" xlink:href="#ma1720cf52d" y="194.761602"/>
     <use style="fill:#1e90ff;stroke:#1e90ff;" x="507.966594" xlink:href="#ma1720cf52d" y="196.980033"/>
     <use style="fill:#1e90ff;stroke:#1e90ff;" x="509.265821" xlink:href="#ma1720cf52d" y="182.929972"/>
     <use style="fill:#1e90ff;stroke:#1e90ff;" x="510.559973" xlink:href="#ma1720cf52d" y="134.716081"/>
     <use style="fill:#1e90ff;stroke:#1e90ff;" x="511.848543" xlink:href="#ma1720cf52d" y="128.948162"/>
     <use style="fill:#1e90ff;stroke:#1e90ff;" x="513.131784" xlink:href="#ma1720cf52d" y="163.703574"/>
     <use style="fill:#1e90ff;stroke:#1e90ff;" x="514.409696" xlink:href="#ma1720cf52d" y="103.066472"/>
     <use style="fill:#1e90ff;stroke:#1e90ff;" x="515.682026" xlink:href="#ma1720cf52d" y="121.99708"/>
     <use style="fill:#1e90ff;stroke:#1e90ff;" x="516.949026" xlink:href="#ma1720cf52d" y="136.342931"/>
     <use style="fill:#1e90ff;stroke:#1e90ff;" x="518.210444" xlink:href="#ma1720cf52d" y="135.603454"/>
     <use style="fill:#1e90ff;stroke:#1e90ff;" x="519.466026" xlink:href="#ma1720cf52d" y="100.552251"/>
     <use style="fill:#1e90ff;stroke:#1e90ff;" x="520.716025" xlink:href="#ma1720cf52d" y="113.714939"/>
     <use style="fill:#1e90ff;stroke:#1e90ff;" x="521.960441" xlink:href="#ma1720cf52d" y="114.30652"/>
     <use style="fill:#1e90ff;stroke:#1e90ff;" x="523.199021" xlink:href="#ma1720cf52d" y="138.26557"/>
     <use style="fill:#1e90ff;stroke:#1e90ff;" x="524.431765" xlink:href="#ma1720cf52d" y="152.759317"/>
     <use style="fill:#1e90ff;stroke:#1e90ff;" x="525.658672" xlink:href="#ma1720cf52d" y="147.287188"/>
     <use style="fill:#1e90ff;stroke:#1e90ff;" x="526.879743" xlink:href="#ma1720cf52d" y="108.982287"/>
     <use style="fill:#1e90ff;stroke:#1e90ff;" x="528.094724" xlink:href="#ma1720cf52d" y="80.734271"/>
     <use style="fill:#1e90ff;stroke:#1e90ff;" x="529.303868" xlink:href="#ma1720cf52d" y="107.503333"/>
     <use style="fill:#1e90ff;stroke:#1e90ff;" x="530.506668" xlink:href="#ma1720cf52d" y="128.208685"/>
     <use style="fill:#1e90ff;stroke:#1e90ff;" x="531.703633" xlink:href="#ma1720cf52d" y="137.821884"/>
     <use style="fill:#1e90ff;stroke:#1e90ff;" x="532.894507" xlink:href="#ma1720cf52d" y="124.511301"/>
     <use style="fill:#1e90ff;stroke:#1e90ff;" x="534.07929" xlink:href="#ma1720cf52d" y="139.596629"/>
     <use style="fill:#1e90ff;stroke:#1e90ff;" x="535.25773" xlink:href="#ma1720cf52d" y="95.523808"/>
     <use style="fill:#1e90ff;stroke:#1e90ff;" x="536.429826" xlink:href="#ma1720cf52d" y="141.371373"/>
     <use style="fill:#1e90ff;stroke:#1e90ff;" x="537.595832" xlink:href="#ma1720cf52d" y="121.99708"/>
     <use style="fill:#1e90ff;stroke:#1e90ff;" x="538.755241" xlink:href="#ma1720cf52d" y="139.744524"/>
     <use style="fill:#1e90ff;stroke:#1e90ff;" x="539.908305" xlink:href="#ma1720cf52d" y="148.914037"/>
     <use style="fill:#1e90ff;stroke:#1e90ff;" x="541.055026" xlink:href="#ma1720cf52d" y="133.976605"/>
     <use style="fill:#1e90ff;stroke:#1e90ff;" x="542.195402" xlink:href="#ma1720cf52d" y="131.018697"/>
     <use style="fill:#1e90ff;stroke:#1e90ff;" x="543.328928" xlink:href="#ma1720cf52d" y="123.771824"/>
     <use style="fill:#1e90ff;stroke:#1e90ff;" x="544.456109" xlink:href="#ma1720cf52d" y="148.17456"/>
     <use style="fill:#1e90ff;stroke:#1e90ff;" x="545.576693" xlink:href="#ma1720cf52d" y="141.962955"/>
     <use style="fill:#1e90ff;stroke:#1e90ff;" x="546.690679" xlink:href="#ma1720cf52d" y="110.313345"/>
     <use style="fill:#1e90ff;stroke:#1e90ff;" x="547.797813" xlink:href="#ma1720cf52d" y="126.433941"/>
     <use style="fill:#1e90ff;stroke:#1e90ff;" x="548.898351" xlink:href="#ma1720cf52d" y="122.588661"/>
     <use style="fill:#1e90ff;stroke:#1e90ff;" x="549.992036" xlink:href="#ma1720cf52d" y="140.484001"/>
     <use style="fill:#1e90ff;stroke:#1e90ff;" x="551.07887" xlink:href="#ma1720cf52d" y="143.589804"/>
     <use style="fill:#1e90ff;stroke:#1e90ff;" x="552.158853" xlink:href="#ma1720cf52d" y="105.728589"/>
     <use style="fill:#1e90ff;stroke:#1e90ff;" x="553.231985" xlink:href="#ma1720cf52d" y="121.849184"/>
     <use style="fill:#1e90ff;stroke:#1e90ff;" x="554.298265" xlink:href="#ma1720cf52d" y="133.976605"/>
     <use style="fill:#1e90ff;stroke:#1e90ff;" x="555.35744" xlink:href="#ma1720cf52d" y="114.898102"/>
     <use style="fill:#1e90ff;stroke:#1e90ff;" x="556.40951" xlink:href="#ma1720cf52d" y="115.341788"/>
     <use style="fill:#1e90ff;stroke:#1e90ff;" x="557.454728" xlink:href="#ma1720cf52d" y="126.877627"/>
     <use style="fill:#1e90ff;stroke:#1e90ff;" x="558.492841" xlink:href="#ma1720cf52d" y="118.003905"/>
     <use style="fill:#1e90ff;stroke:#1e90ff;" x="559.523849" xlink:href="#ma1720cf52d" y="166.809377"/>
     <use style="fill:#1e90ff;stroke:#1e90ff;" x="560.547499" xlink:href="#ma1720cf52d" y="143.294013"/>
     <use style="fill:#1e90ff;stroke:#1e90ff;" x="561.564043" xlink:href="#ma1720cf52d" y="125.250778"/>
     <use style="fill:#1e90ff;stroke:#1e90ff;" x="562.573228" xlink:href="#ma1720cf52d" y="137.378198"/>
     <use style="fill:#1e90ff;stroke:#1e90ff;" x="563.575308" xlink:href="#ma1720cf52d" y="181.155228"/>
     <use style="fill:#1e90ff;stroke:#1e90ff;" x="564.570029" xlink:href="#ma1720cf52d" y="136.934512"/>
     <use style="fill:#1e90ff;stroke:#1e90ff;" x="565.557391" xlink:href="#ma1720cf52d" y="180.711542"/>
     <use style="fill:#1e90ff;stroke:#1e90ff;" x="566.53714" xlink:href="#ma1720cf52d" y="146.104025"/>
     <use style="fill:#1e90ff;stroke:#1e90ff;" x="567.509531" xlink:href="#ma1720cf52d" y="178.788902"/>
     <use style="fill:#1e90ff;stroke:#1e90ff;" x="568.474563" xlink:href="#ma1720cf52d" y="142.702431"/>
     <use style="fill:#1e90ff;stroke:#1e90ff;" x="569.432235" xlink:href="#ma1720cf52d" y="177.605739"/>
     <use style="fill:#1e90ff;stroke:#1e90ff;" x="570.382042" xlink:href="#ma1720cf52d" y="208.811662"/>
     <use style="fill:#1e90ff;stroke:#1e90ff;" x="571.324489" xlink:href="#ma1720cf52d" y="176.570471"/>
     <use style="fill:#1e90ff;stroke:#1e90ff;" x="572.25907" xlink:href="#ma1720cf52d" y="237.503364"/>
     <use style="fill:#1e90ff;stroke:#1e90ff;" x="573.186292" xlink:href="#ma1720cf52d" y="232.474922"/>
     <use style="fill:#1e90ff;stroke:#1e90ff;" x="574.105648" xlink:href="#ma1720cf52d" y="209.403244"/>
     <use style="fill:#1e90ff;stroke:#1e90ff;" x="575.017391" xlink:href="#ma1720cf52d" y="234.841248"/>
     <use style="fill:#1e90ff;stroke:#1e90ff;" x="575.921268" xlink:href="#ma1720cf52d" y="208.959558"/>
     <use style="fill:#1e90ff;stroke:#1e90ff;" x="576.817278" xlink:href="#ma1720cf52d" y="253.62396"/>
     <use style="fill:#1e90ff;stroke:#1e90ff;" x="577.705676" xlink:href="#ma1720cf52d" y="276.843533"/>
     <use style="fill:#1e90ff;stroke:#1e90ff;" x="578.586207" xlink:href="#ma1720cf52d" y="308.197352"/>
     <use style="fill:#1e90ff;stroke:#1e90ff;" x="579.458618" xlink:href="#ma1720cf52d" y="343.988031"/>
     <use style="fill:#1e90ff;stroke:#1e90ff;" x="580.323416" xlink:href="#ma1720cf52d" y="316.331597"/>
     <use style="fill:#1e90ff;stroke:#1e90ff;" x="581.180094" xlink:href="#ma1720cf52d" y="345.31909"/>
     <use style="fill:#1e90ff;stroke:#1e90ff;" x="582.028652" xlink:href="#ma1720cf52d" y="390.870864"/>
     <use style="fill:#1e90ff;stroke:#1e90ff;" x="582.869344" xlink:href="#ma1720cf52d" y="381.553456"/>
     <use style="fill:#1e90ff;stroke:#1e90ff;" x="583.701915" xlink:href="#ma1720cf52d" y="382.292932"/>
     <use style="fill:#1e90ff;stroke:#1e90ff;" x="584.52662" xlink:href="#ma1720cf52d" y="423.703636"/>
     <use style="fill:#1e90ff;stroke:#1e90ff;" x="585.342951" xlink:href="#ma1720cf52d" y="397.230365"/>
     <use style="fill:#1e90ff;stroke:#1e90ff;" x="586.151162" xlink:href="#ma1720cf52d" y="405.512506"/>
     <use style="fill:#1e90ff;stroke:#1e90ff;" x="586.951253" xlink:href="#ma1720cf52d" y="401.815121"/>
     <use style="fill:#1e90ff;stroke:#1e90ff;" x="587.743223" xlink:href="#ma1720cf52d" y="385.102945"/>
     <use style="fill:#1e90ff;stroke:#1e90ff;" x="588.52682" xlink:href="#ma1720cf52d" y="349.016474"/>
     <use style="fill:#1e90ff;stroke:#1e90ff;" x="589.302296" xlink:href="#ma1720cf52d" y="310.267887"/>
     <use style="fill:#1e90ff;stroke:#1e90ff;" x="590.069399" xlink:href="#ma1720cf52d" y="294.738873"/>
     <use style="fill:#1e90ff;stroke:#1e90ff;" x="590.828127" xlink:href="#ma1720cf52d" y="272.110881"/>
     <use style="fill:#1e90ff;stroke:#1e90ff;" x="591.578482" xlink:href="#ma1720cf52d" y="244.454447"/>
     <use style="fill:#1e90ff;stroke:#1e90ff;" x="592.320463" xlink:href="#ma1720cf52d" y="219.164338"/>
     <use style="fill:#1e90ff;stroke:#1e90ff;" x="593.05407" xlink:href="#ma1720cf52d" y="217.83328"/>
     <use style="fill:#1e90ff;stroke:#1e90ff;" x="593.779302" xlink:href="#ma1720cf52d" y="200.973208"/>
     <use style="fill:#1e90ff;stroke:#1e90ff;" x="594.496161" xlink:href="#ma1720cf52d" y="208.220081"/>
     <use style="fill:#1e90ff;stroke:#1e90ff;" x="595.204393" xlink:href="#ma1720cf52d" y="146.104025"/>
     <use style="fill:#1e90ff;stroke:#1e90ff;" x="595.903996" xlink:href="#ma1720cf52d" y="203.339534"/>
     <use style="fill:#1e90ff;stroke:#1e90ff;" x="596.595226" xlink:href="#ma1720cf52d" y="163.85147"/>
     <use style="fill:#1e90ff;stroke:#1e90ff;" x="597.277828" xlink:href="#ma1720cf52d" y="154.090375"/>
     <use style="fill:#1e90ff;stroke:#1e90ff;" x="597.951802" xlink:href="#ma1720cf52d" y="143.885594"/>
     <use style="fill:#1e90ff;stroke:#1e90ff;" x="598.617402" xlink:href="#ma1720cf52d" y="136.638721"/>
     <use style="fill:#1e90ff;stroke:#1e90ff;" x="599.274121" xlink:href="#ma1720cf52d" y="162.372516"/>
     <use style="fill:#1e90ff;stroke:#1e90ff;" x="599.922213" xlink:href="#ma1720cf52d" y="134.420291"/>
     <use style="fill:#1e90ff;stroke:#1e90ff;" x="600.561676" xlink:href="#ma1720cf52d" y="119.187068"/>
     <use style="fill:#1e90ff;stroke:#1e90ff;" x="601.192258" xlink:href="#ma1720cf52d" y="132.349756"/>
     <use style="fill:#1e90ff;stroke:#1e90ff;" x="601.814213" xlink:href="#ma1720cf52d" y="102.1791"/>
     <use style="fill:#1e90ff;stroke:#1e90ff;" x="602.427286" xlink:href="#ma1720cf52d" y="135.899244"/>
     <use style="fill:#1e90ff;stroke:#1e90ff;" x="603.031731" xlink:href="#ma1720cf52d" y="133.532918"/>
     <use style="fill:#1e90ff;stroke:#1e90ff;" x="603.627295" xlink:href="#ma1720cf52d" y="121.405498"/>
     <use style="fill:#1e90ff;stroke:#1e90ff;" x="604.213977" xlink:href="#ma1720cf52d" y="157.048282"/>
     <use style="fill:#1e90ff;stroke:#1e90ff;" x="604.791778" xlink:href="#ma1720cf52d" y="102.918577"/>
     <use style="fill:#1e90ff;stroke:#1e90ff;" x="605.360951" xlink:href="#ma1720cf52d" y="140.336106"/>
     <use style="fill:#1e90ff;stroke:#1e90ff;" x="605.92099" xlink:href="#ma1720cf52d" y="111.792299"/>
     <use style="fill:#1e90ff;stroke:#1e90ff;" x="606.472146" xlink:href="#ma1720cf52d" y="118.743381"/>
     <use style="fill:#1e90ff;stroke:#1e90ff;" x="607.014421" xlink:href="#ma1720cf52d" y="133.680814"/>
     <use style="fill:#1e90ff;stroke:#1e90ff;" x="607.547815" xlink:href="#ma1720cf52d" y="153.055107"/>
     <use style="fill:#1e90ff;stroke:#1e90ff;" x="608.072074" xlink:href="#ma1720cf52d" y="107.947019"/>
     <use style="fill:#1e90ff;stroke:#1e90ff;" x="608.587451" xlink:href="#ma1720cf52d" y="143.146118"/>
     <use style="fill:#1e90ff;stroke:#1e90ff;" x="609.093693" xlink:href="#ma1720cf52d" y="115.785474"/>
     <use style="fill:#1e90ff;stroke:#1e90ff;" x="609.5908" xlink:href="#ma1720cf52d" y="132.793442"/>
     <use style="fill:#1e90ff;stroke:#1e90ff;" x="610.079025" xlink:href="#ma1720cf52d" y="140.484001"/>
     <use style="fill:#1e90ff;stroke:#1e90ff;" x="610.558115" xlink:href="#ma1720cf52d" y="110.609136"/>
     <use style="fill:#1e90ff;stroke:#1e90ff;" x="611.02807" xlink:href="#ma1720cf52d" y="134.863977"/>
     <use style="fill:#1e90ff;stroke:#1e90ff;" x="611.489144" xlink:href="#ma1720cf52d" y="119.039172"/>
     <use style="fill:#1e90ff;stroke:#1e90ff;" x="611.940828" xlink:href="#ma1720cf52d" y="168.879912"/>
     <use style="fill:#1e90ff;stroke:#1e90ff;" x="612.383378" xlink:href="#ma1720cf52d" y="120.518126"/>
     <use style="fill:#1e90ff;stroke:#1e90ff;" x="612.816792" xlink:href="#ma1720cf52d" y="102.622786"/>
     <use style="fill:#1e90ff;stroke:#1e90ff;" x="613.241071" xlink:href="#ma1720cf52d" y="96.854866"/>
     <use style="fill:#1e90ff;stroke:#1e90ff;" x="613.656215" xlink:href="#ma1720cf52d" y="95.523808"/>
     <use style="fill:#1e90ff;stroke:#1e90ff;" x="614.062223" xlink:href="#ma1720cf52d" y="77.776364"/>
     <use style="fill:#1e90ff;stroke:#1e90ff;" x="614.458843" xlink:href="#ma1720cf52d" y="143.885594"/>
     <use style="fill:#1e90ff;stroke:#1e90ff;" x="614.846074" xlink:href="#ma1720cf52d" y="122.884452"/>
     <use style="fill:#1e90ff;stroke:#1e90ff;" x="615.224423" xlink:href="#ma1720cf52d" y="93.896959"/>
     <use style="fill:#1e90ff;stroke:#1e90ff;" x="615.593129" xlink:href="#ma1720cf52d" y="113.567043"/>
     <use style="fill:#1e90ff;stroke:#1e90ff;" x="615.952955" xlink:href="#ma1720cf52d" y="128.800267"/>
     <use style="fill:#1e90ff;stroke:#1e90ff;" x="616.303137" xlink:href="#ma1720cf52d" y="111.496508"/>
     <use style="fill:#1e90ff;stroke:#1e90ff;" x="616.644184" xlink:href="#ma1720cf52d" y="119.630754"/>
     <use style="fill:#1e90ff;stroke:#1e90ff;" x="616.975842" xlink:href="#ma1720cf52d" y="146.843502"/>
     <use style="fill:#1e90ff;stroke:#1e90ff;" x="617.298112" xlink:href="#ma1720cf52d" y="96.706971"/>
     <use style="fill:#1e90ff;stroke:#1e90ff;" x="617.610992" xlink:href="#ma1720cf52d" y="100.995937"/>
     <use style="fill:#1e90ff;stroke:#1e90ff;" x="617.914737" xlink:href="#ma1720cf52d" y="99.221192"/>
     <use style="fill:#1e90ff;stroke:#1e90ff;" x="618.20884" xlink:href="#ma1720cf52d" y="140.631896"/>
     <use style="fill:#1e90ff;stroke:#1e90ff;" x="618.493807" xlink:href="#ma1720cf52d" y="105.876484"/>
     <use style="fill:#1e90ff;stroke:#1e90ff;" x="618.769385" xlink:href="#ma1720cf52d" y="118.447591"/>
     <use style="fill:#1e90ff;stroke:#1e90ff;" x="619.035321" xlink:href="#ma1720cf52d" y="89.755889"/>
     <use style="fill:#1e90ff;stroke:#1e90ff;" x="619.291868" xlink:href="#ma1720cf52d" y="93.305378"/>
     <use style="fill:#1e90ff;stroke:#1e90ff;" x="619.539279" xlink:href="#ma1720cf52d" y="115.045997"/>
     <use style="fill:#1e90ff;stroke:#1e90ff;" x="619.777048" xlink:href="#ma1720cf52d" y="84.727446"/>
     <use style="fill:#1e90ff;stroke:#1e90ff;" x="620.005428" xlink:href="#ma1720cf52d" y="100.700146"/>
     <use style="fill:#1e90ff;stroke:#1e90ff;" x="620.224165" xlink:href="#ma1720cf52d" y="119.187068"/>
     <use style="fill:#1e90ff;stroke:#1e90ff;" x="620.433767" xlink:href="#ma1720cf52d" y="138.709256"/>
     <use style="fill:#1e90ff;stroke:#1e90ff;" x="620.633726" xlink:href="#ma1720cf52d" y="98.777506"/>
     <use style="fill:#1e90ff;stroke:#1e90ff;" x="620.824297" xlink:href="#ma1720cf52d" y="106.911752"/>
     <use style="fill:#1e90ff;stroke:#1e90ff;" x="621.005224" xlink:href="#ma1720cf52d" y="128.208685"/>
     <use style="fill:#1e90ff;stroke:#1e90ff;" x="621.176763" xlink:href="#ma1720cf52d" y="126.581836"/>
     <use style="fill:#1e90ff;stroke:#1e90ff;" x="621.338912" xlink:href="#ma1720cf52d" y="81.621643"/>
     <use style="fill:#1e90ff;stroke:#1e90ff;" x="621.491419" xlink:href="#ma1720cf52d" y="133.089232"/>
     <use style="fill:#1e90ff;stroke:#1e90ff;" x="621.634537" xlink:href="#ma1720cf52d" y="108.982287"/>
     <use style="fill:#1e90ff;stroke:#1e90ff;" x="621.768013" xlink:href="#ma1720cf52d" y="112.38388"/>
     <use style="fill:#1e90ff;stroke:#1e90ff;" x="621.891845" xlink:href="#ma1720cf52d" y="123.032347"/>
     <use style="fill:#1e90ff;stroke:#1e90ff;" x="622.006543" xlink:href="#ma1720cf52d" y="106.763856"/>
     <use style="fill:#1e90ff;stroke:#1e90ff;" x="622.111344" xlink:href="#ma1720cf52d" y="107.947019"/>
     <use style="fill:#1e90ff;stroke:#1e90ff;" x="622.206756" xlink:href="#ma1720cf52d" y="134.1245"/>
     <use style="fill:#1e90ff;stroke:#1e90ff;" x="622.292779" xlink:href="#ma1720cf52d" y="89.460098"/>
     <use style="fill:#1e90ff;stroke:#1e90ff;" x="622.369159" xlink:href="#ma1720cf52d" y="139.152943"/>
     <use style="fill:#1e90ff;stroke:#1e90ff;" x="622.435897" xlink:href="#ma1720cf52d" y="109.278078"/>
     <use style="fill:#1e90ff;stroke:#1e90ff;" x="622.493246" xlink:href="#ma1720cf52d" y="108.982287"/>
     <use style="fill:#1e90ff;stroke:#1e90ff;" x="622.540952" xlink:href="#ma1720cf52d" y="111.348613"/>
     <use style="fill:#1e90ff;stroke:#1e90ff;" x="622.579269" xlink:href="#ma1720cf52d" y="100.552251"/>
     <use style="fill:#1e90ff;stroke:#1e90ff;" x="622.607689" xlink:href="#ma1720cf52d" y="112.38388"/>
     <use style="fill:#1e90ff;stroke:#1e90ff;" x="622.626975" xlink:href="#ma1720cf52d" y="135.751349"/>
     <use style="fill:#1e90ff;stroke:#1e90ff;" x="622.636364" xlink:href="#ma1720cf52d" y="128.504476"/>
    </g>
   </g>
   <g id="line2d_16">
    <path clip-path="url(#p0ee10b00e5)" d="M 115.363636 113.951571 
L 115.707221 114.055098 
L 116.508581 114.291731 
L 119.230615 115.179103 
L 122.775577 116.613688 
L 125.616622 118.048273 
L 127.920975 119.453279 
L 129.927926 120.902654 
L 131.527854 122.233712 
L 133.786023 124.481722 
L 135.572714 126.626205 
L 136.807742 128.327001 
L 138.077787 130.323589 
L 139.382598 132.675125 
L 140.722172 135.470348 
L 142.096004 138.827573 
L 143.503839 142.894695 
L 144.94593 147.878769 
L 146.421518 154.090375 
L 147.930601 161.91404 
L 149.47318 171.926557 
L 151.048747 184.941349 
L 151.848838 192.89812 
L 152.657049 202.067633 
L 153.47338 212.627363 
L 154.298085 224.828731 
L 155.130656 238.864002 
L 156.819906 273.294044 
L 158.541382 316.22807 
L 160.294324 363.155271 
L 161.182722 384.215572 
L 162.078732 400.365747 
L 162.982609 409.032416 
L 163.894352 408.544361 
L 164.813708 398.768477 
L 165.74093 381.183717 
L 167.617958 333.191669 
L 169.525437 283.809405 
L 170.490469 262.024417 
L 171.46286 242.76844 
L 172.442609 226.011894 
L 173.429971 211.592095 
L 174.424692 199.213253 
L 175.426772 188.638734 
L 176.435957 179.587537 
L 177.452501 171.82303 
L 178.476151 165.152949 
L 179.507159 159.399819 
L 180.545272 154.430534 
L 181.59049 150.0972 
L 182.64256 146.340658 
L 183.701735 143.042591 
L 184.768015 140.158631 
L 185.841147 137.614831 
L 186.92113 135.366821 
L 188.007964 133.385023 
L 190.202187 130.057377 
L 192.423307 127.42484 
L 194.671072 125.339515 
L 196.944974 123.683087 
L 199.244759 122.366818 
L 201.570174 121.361129 
L 203.92071 120.592074 
L 206.296367 120.044861 
L 208.696132 119.719491 
L 211.120257 119.586385 
L 213.568235 119.645543 
L 216.039559 119.926544 
L 218.533974 120.458968 
L 221.050974 121.257603 
L 223.590304 122.411187 
L 226.151457 124.008457 
L 227.440027 125.014145 
L 228.734179 126.197308 
L 230.033406 127.587525 
L 231.337963 129.214374 
L 232.647594 131.122224 
L 233.962555 133.399813 
L 235.28259 136.106298 
L 236.607447 139.345207 
L 237.937379 143.249644 
L 239.272386 148.011875 
L 240.611961 153.838953 
L 241.95661 161.026668 
L 243.306081 169.989127 
L 244.66012 181.184807 
L 246.01898 195.220078 
L 247.382408 212.701311 
L 248.750403 234.072192 
L 252.881287 310.105202 
L 254.267045 325.382794 
L 255.657117 326.107481 
L 257.051503 311.850367 
L 258.450202 287.728632 
L 261.259782 234.589825 
L 262.670915 212.435099 
L 264.085855 194.288337 
L 265.504602 179.750222 
L 266.927408 168.184804 
L 268.354021 158.985712 
L 269.78444 151.605733 
L 271.218665 145.645549 
L 272.656443 140.809371 
L 274.098027 136.830985 
L 275.54291 133.532918 
L 276.9916 130.782065 
L 278.443588 128.474897 
L 279.898875 126.522678 
L 281.357715 124.86625 
L 282.819853 123.446454 
L 284.285037 122.233712 
L 285.753519 121.183655 
L 288.700127 119.497648 
L 291.658407 118.240537 
L 294.628613 117.308796 
L 297.609985 116.658057 
L 300.602015 116.24395 
L 303.604195 116.036896 
L 306.616525 116.036896 
L 309.638244 116.258739 
L 312.668591 116.746794 
L 315.707819 117.560218 
L 317.230351 118.122221 
L 318.754913 118.832119 
L 320.281252 119.689912 
L 321.809367 120.739969 
L 323.339512 122.026659 
L 324.871179 123.623929 
L 326.404623 125.620516 
L 327.939589 128.105158 
L 329.476078 131.25533 
L 331.014089 135.278084 
L 332.553623 140.439632 
L 334.094426 147.094924 
L 335.636497 155.643276 
L 337.179837 166.39527 
L 341.816963 204.685381 
L 343.364871 210.15751 
L 344.913692 206.918602 
L 346.463402 196.462399 
L 349.565307 169.57502 
L 351.117377 158.201866 
L 352.670131 149.106301 
L 354.22352 141.992534 
L 355.777442 136.490826 
L 357.331871 132.246229 
L 358.886732 128.918583 
L 360.441973 126.315624 
L 361.997544 124.259879 
L 363.553369 122.63303 
L 365.109397 121.33155 
L 366.665577 120.296283 
L 368.221859 119.482858 
L 369.778141 118.846908 
L 371.334423 118.358853 
L 372.890603 118.018694 
L 374.446631 117.796851 
L 377.558027 117.693324 
L 379.113268 117.796851 
L 380.668129 118.018694 
L 382.222558 118.358853 
L 383.77648 118.832119 
L 385.329869 119.468069 
L 386.882623 120.281493 
L 388.434693 121.301971 
L 389.986052 122.588661 
L 391.536598 124.185931 
L 393.086308 126.212098 
L 394.635129 128.770688 
L 396.183037 132.024386 
L 397.729676 136.180246 
L 399.275554 141.548848 
L 400.820163 148.455561 
L 402.363503 157.314494 
L 403.905574 168.406647 
L 406.985911 195.279236 
L 408.523922 206.519284 
L 410.060411 211.163199 
L 411.595377 207.096076 
L 413.128821 196.210977 
L 416.190633 169.397546 
L 417.718748 158.187077 
L 419.245087 149.195038 
L 420.769649 142.155219 
L 422.292181 136.68309 
L 423.812684 132.423703 
L 425.331409 129.081268 
L 426.847598 126.433941 
L 428.361756 124.319037 
L 429.873884 122.61824 
L 431.383475 121.242813 
L 432.890782 120.133598 
L 434.395805 119.216647 
L 435.898037 118.47717 
L 438.895395 117.367954 
L 441.882096 116.672846 
L 444.857886 116.258739 
L 447.822256 116.096054 
L 450.7747 116.155212 
L 453.714963 116.406635 
L 456.642285 116.86511 
L 459.556412 117.545429 
L 462.45709 118.506749 
L 465.343557 119.778649 
L 468.21556 121.479446 
L 469.645979 122.544292 
L 471.072592 123.757034 
L 472.495398 125.17683 
L 473.914145 126.818469 
L 475.329085 128.741108 
L 476.740218 131.003908 
L 478.147038 133.695603 
L 479.549798 136.890143 
L 480.948497 140.720634 
L 482.342883 145.364548 
L 483.732955 151.014151 
L 485.118713 157.965234 
L 486.500158 166.557955 
L 487.877034 177.25079 
L 489.249597 190.590953 
L 490.617592 207.170024 
L 491.98102 227.40211 
L 493.33988 251.272423 
L 496.04339 302.725223 
L 497.388039 321.463566 
L 498.727614 328.000542 
L 500.062621 320.102929 
L 501.392553 300.743425 
L 505.352406 227.461269 
L 506.662037 208.086975 
L 507.966594 192.217802 
L 509.265821 179.395273 
L 510.559973 169.072176 
L 511.848543 160.760456 
L 513.131784 154.001638 
L 514.409696 148.49993 
L 515.682026 143.974332 
L 516.949026 140.232579 
L 518.210444 137.111986 
L 519.466026 134.494238 
L 520.716025 132.290597 
L 521.960441 130.412326 
L 523.199021 128.829846 
L 524.431765 127.483998 
L 525.658672 126.330414 
L 526.879743 125.354304 
L 529.303868 123.816193 
L 531.703633 122.736556 
L 534.07929 121.99708 
L 536.429826 121.582973 
L 538.755241 121.405498 
L 541.055026 121.479446 
L 543.328928 121.790026 
L 545.576693 122.322449 
L 547.797813 123.121084 
L 549.992036 124.185931 
L 552.158853 125.561358 
L 554.298265 127.321313 
L 556.40951 129.524954 
L 558.492841 132.305387 
L 560.547499 135.780928 
L 561.564043 137.851463 
L 562.573228 140.18821 
L 563.575308 142.805958 
L 564.570029 145.778655 
L 565.557391 149.13588 
L 566.53714 152.951581 
L 567.509531 157.299705 
L 568.474563 162.268989 
L 569.432235 167.962961 
L 570.382042 174.499936 
L 571.324489 182.013021 
L 572.25907 190.67969 
L 573.186292 200.692206 
L 574.105648 212.228045 
L 575.017391 225.523839 
L 575.921268 240.757062 
L 576.817278 258.0904 
L 578.586207 298.894733 
L 582.028652 386.596688 
L 582.869344 400.91296 
L 583.701915 408.426045 
L 584.52662 408.24857 
L 585.342951 400.617169 
L 586.151162 386.788952 
L 586.951253 368.671769 
L 590.828127 269.360027 
L 592.320463 239.307688 
L 593.779302 215.777534 
L 595.204393 197.571614 
L 596.595226 183.418027 
L 597.951802 172.340664 
L 599.274121 163.555679 
L 600.561676 156.515859 
L 601.814213 150.792308 
L 603.031731 146.104025 
L 604.213977 142.199587 
L 605.92099 137.496514 
L 607.547815 133.828709 
L 609.093693 130.91517 
L 610.558115 128.548844 
L 612.383378 126.064202 
L 614.458843 123.727455 
L 616.644184 121.701289 
L 618.769385 120.044861 
L 621.891845 118.092642 
L 622.636364 117.678535 
L 622.636364 117.678535 
" style="fill:none;stroke:#000000;stroke-linecap:square;stroke-width:1.5;"/>
   </g>
   <g id="patch_3">
    <path d="M 90 441 
L 90 60.48 
" style="fill:none;stroke:#000000;stroke-linecap:square;stroke-linejoin:miter;stroke-width:0.8;"/>
   </g>
   <g id="patch_4">
    <path d="M 648 441 
L 648 60.48 
" style="fill:none;stroke:#000000;stroke-linecap:square;stroke-linejoin:miter;stroke-width:0.8;"/>
   </g>
   <g id="patch_5">
    <path d="M 90 441 
L 648 441 
" style="fill:none;stroke:#000000;stroke-linecap:square;stroke-linejoin:miter;stroke-width:0.8;"/>
   </g>
   <g id="patch_6">
    <path d="M 90 60.48 
L 648 60.48 
" style="fill:none;stroke:#000000;stroke-linecap:square;stroke-linejoin:miter;stroke-width:0.8;"/>
   </g>
   <g id="text_17">
    <!-- Mößbauereffekt in unbekannter Probe -->
    <defs>
     <path d="M 9.8125 72.90625 
L 24.515625 72.90625 
L 43.109375 23.296875 
L 61.8125 72.90625 
L 76.515625 72.90625 
L 76.515625 0 
L 66.890625 0 
L 66.890625 64.015625 
L 48.09375 14.015625 
L 38.1875 14.015625 
L 19.390625 64.015625 
L 19.390625 0 
L 9.8125 0 
z
" id="DejaVuSans-77"/>
     <path d="M 30.609375 48.390625 
Q 23.390625 48.390625 19.1875 42.75 
Q 14.984375 37.109375 14.984375 27.296875 
Q 14.984375 17.484375 19.15625 11.84375 
Q 23.34375 6.203125 30.609375 6.203125 
Q 37.796875 6.203125 41.984375 11.859375 
Q 46.1875 17.53125 46.1875 27.296875 
Q 46.1875 37.015625 41.984375 42.703125 
Q 37.796875 48.390625 30.609375 48.390625 
z
M 30.609375 56 
Q 42.328125 56 49.015625 48.375 
Q 55.71875 40.765625 55.71875 27.296875 
Q 55.71875 13.875 49.015625 6.21875 
Q 42.328125 -1.421875 30.609375 -1.421875 
Q 18.84375 -1.421875 12.171875 6.21875 
Q 5.515625 13.875 5.515625 27.296875 
Q 5.515625 40.765625 12.171875 48.375 
Q 18.84375 56 30.609375 56 
z
M 35.203125 75.78125 
L 45.125 75.78125 
L 45.125 65.921875 
L 35.203125 65.921875 
z
M 16.109375 75.78125 
L 26.03125 75.78125 
L 26.03125 65.921875 
L 16.109375 65.921875 
z
" id="DejaVuSans-246"/>
     <path d="M 9.078125 55.515625 
Q 9.078125 65.28125 14.90625 70.625 
Q 20.75 75.984375 31.390625 75.984375 
Q 41.546875 75.984375 46.890625 70.3125 
Q 52.25 64.65625 52.390625 53.71875 
Q 45.015625 53.328125 40.90625 50.515625 
Q 36.8125 47.703125 36.8125 43.015625 
Q 36.8125 40.71875 38.234375 38.734375 
Q 39.65625 36.765625 42.828125 34.71875 
L 45.609375 32.90625 
Q 53.71875 27.734375 56.0625 24.265625 
Q 58.40625 20.796875 58.40625 15.921875 
Q 58.40625 7.515625 52.90625 3.046875 
Q 47.40625 -1.421875 37.109375 -1.421875 
Q 33.984375 -1.421875 30.65625 -0.8125 
Q 27.34375 -0.203125 23.78125 0.984375 
L 23.78125 8.984375 
Q 27.6875 7.515625 31.09375 6.8125 
Q 34.515625 6.109375 37.703125 6.109375 
Q 43.359375 6.109375 46.28125 8.421875 
Q 49.21875 10.75 49.21875 15.1875 
Q 49.21875 18.265625 47.78125 20.3125 
Q 46.34375 22.359375 41.40625 25.390625 
L 36.921875 28.078125 
Q 32.234375 30.953125 30.109375 34.25 
Q 27.984375 37.546875 27.984375 42 
Q 27.984375 48.1875 32.0625 52.390625 
Q 36.140625 56.59375 43.5 58.015625 
Q 43.109375 63.03125 39.90625 65.765625 
Q 36.71875 68.5 31.203125 68.5 
Q 24.859375 68.5 21.53125 65.109375 
Q 18.21875 61.71875 18.21875 55.328125 
L 18.21875 0 
L 9.078125 0 
z
" id="DejaVuSans-223"/>
     <path d="M 48.6875 27.296875 
Q 48.6875 37.203125 44.609375 42.84375 
Q 40.53125 48.484375 33.40625 48.484375 
Q 26.265625 48.484375 22.1875 42.84375 
Q 18.109375 37.203125 18.109375 27.296875 
Q 18.109375 17.390625 22.1875 11.75 
Q 26.265625 6.109375 33.40625 6.109375 
Q 40.53125 6.109375 44.609375 11.75 
Q 48.6875 17.390625 48.6875 27.296875 
z
M 18.109375 46.390625 
Q 20.953125 51.265625 25.265625 53.625 
Q 29.59375 56 35.59375 56 
Q 45.5625 56 51.78125 48.09375 
Q 58.015625 40.1875 58.015625 27.296875 
Q 58.015625 14.40625 51.78125 6.484375 
Q 45.5625 -1.421875 35.59375 -1.421875 
Q 29.59375 -1.421875 25.265625 0.953125 
Q 20.953125 3.328125 18.109375 8.203125 
L 18.109375 0 
L 9.078125 0 
L 9.078125 75.984375 
L 18.109375 75.984375 
z
" id="DejaVuSans-98"/>
     <path d="M 56.203125 29.59375 
L 56.203125 25.203125 
L 14.890625 25.203125 
Q 15.484375 15.921875 20.484375 11.0625 
Q 25.484375 6.203125 34.421875 6.203125 
Q 39.59375 6.203125 44.453125 7.46875 
Q 49.3125 8.734375 54.109375 11.28125 
L 54.109375 2.78125 
Q 49.265625 0.734375 44.1875 -0.34375 
Q 39.109375 -1.421875 33.890625 -1.421875 
Q 20.796875 -1.421875 13.15625 6.1875 
Q 5.515625 13.8125 5.515625 26.8125 
Q 5.515625 40.234375 12.765625 48.109375 
Q 20.015625 56 32.328125 56 
Q 43.359375 56 49.78125 48.890625 
Q 56.203125 41.796875 56.203125 29.59375 
z
M 47.21875 32.234375 
Q 47.125 39.59375 43.09375 43.984375 
Q 39.0625 48.390625 32.421875 48.390625 
Q 24.90625 48.390625 20.390625 44.140625 
Q 15.875 39.890625 15.1875 32.171875 
z
" id="DejaVuSans-101"/>
     <path d="M 41.109375 46.296875 
Q 39.59375 47.171875 37.8125 47.578125 
Q 36.03125 48 33.890625 48 
Q 26.265625 48 22.1875 43.046875 
Q 18.109375 38.09375 18.109375 28.8125 
L 18.109375 0 
L 9.078125 0 
L 9.078125 54.6875 
L 18.109375 54.6875 
L 18.109375 46.1875 
Q 20.953125 51.171875 25.484375 53.578125 
Q 30.03125 56 36.53125 56 
Q 37.453125 56 38.578125 55.875 
Q 39.703125 55.765625 41.0625 55.515625 
z
" id="DejaVuSans-114"/>
     <path d="M 37.109375 75.984375 
L 37.109375 68.5 
L 28.515625 68.5 
Q 23.6875 68.5 21.796875 66.546875 
Q 19.921875 64.59375 19.921875 59.515625 
L 19.921875 54.6875 
L 34.71875 54.6875 
L 34.71875 47.703125 
L 19.921875 47.703125 
L 19.921875 0 
L 10.890625 0 
L 10.890625 47.703125 
L 2.296875 47.703125 
L 2.296875 54.6875 
L 10.890625 54.6875 
L 10.890625 58.5 
Q 10.890625 67.625 15.140625 71.796875 
Q 19.390625 75.984375 28.609375 75.984375 
z
" id="DejaVuSans-102"/>
     <path d="M 9.078125 75.984375 
L 18.109375 75.984375 
L 18.109375 31.109375 
L 44.921875 54.6875 
L 56.390625 54.6875 
L 27.390625 29.109375 
L 57.625 0 
L 45.90625 0 
L 18.109375 26.703125 
L 18.109375 0 
L 9.078125 0 
z
" id="DejaVuSans-107"/>
     <path d="M 18.3125 70.21875 
L 18.3125 54.6875 
L 36.8125 54.6875 
L 36.8125 47.703125 
L 18.3125 47.703125 
L 18.3125 18.015625 
Q 18.3125 11.328125 20.140625 9.421875 
Q 21.96875 7.515625 27.59375 7.515625 
L 36.8125 7.515625 
L 36.8125 0 
L 27.59375 0 
Q 17.1875 0 13.234375 3.875 
Q 9.28125 7.765625 9.28125 18.015625 
L 9.28125 47.703125 
L 2.6875 47.703125 
L 2.6875 54.6875 
L 9.28125 54.6875 
L 9.28125 70.21875 
z
" id="DejaVuSans-116"/>
     <path id="DejaVuSans-32"/>
     <path d="M 9.421875 54.6875 
L 18.40625 54.6875 
L 18.40625 0 
L 9.421875 0 
z
M 9.421875 75.984375 
L 18.40625 75.984375 
L 18.40625 64.59375 
L 9.421875 64.59375 
z
" id="DejaVuSans-105"/>
     <path d="M 54.890625 33.015625 
L 54.890625 0 
L 45.90625 0 
L 45.90625 32.71875 
Q 45.90625 40.484375 42.875 44.328125 
Q 39.84375 48.1875 33.796875 48.1875 
Q 26.515625 48.1875 22.3125 43.546875 
Q 18.109375 38.921875 18.109375 30.90625 
L 18.109375 0 
L 9.078125 0 
L 9.078125 54.6875 
L 18.109375 54.6875 
L 18.109375 46.1875 
Q 21.34375 51.125 25.703125 53.5625 
Q 30.078125 56 35.796875 56 
Q 45.21875 56 50.046875 50.171875 
Q 54.890625 44.34375 54.890625 33.015625 
z
" id="DejaVuSans-110"/>
     <path d="M 19.671875 64.796875 
L 19.671875 37.40625 
L 32.078125 37.40625 
Q 38.96875 37.40625 42.71875 40.96875 
Q 46.484375 44.53125 46.484375 51.125 
Q 46.484375 57.671875 42.71875 61.234375 
Q 38.96875 64.796875 32.078125 64.796875 
z
M 9.8125 72.90625 
L 32.078125 72.90625 
Q 44.34375 72.90625 50.609375 67.359375 
Q 56.890625 61.8125 56.890625 51.125 
Q 56.890625 40.328125 50.609375 34.8125 
Q 44.34375 29.296875 32.078125 29.296875 
L 19.671875 29.296875 
L 19.671875 0 
L 9.8125 0 
z
" id="DejaVuSans-80"/>
     <path d="M 30.609375 48.390625 
Q 23.390625 48.390625 19.1875 42.75 
Q 14.984375 37.109375 14.984375 27.296875 
Q 14.984375 17.484375 19.15625 11.84375 
Q 23.34375 6.203125 30.609375 6.203125 
Q 37.796875 6.203125 41.984375 11.859375 
Q 46.1875 17.53125 46.1875 27.296875 
Q 46.1875 37.015625 41.984375 42.703125 
Q 37.796875 48.390625 30.609375 48.390625 
z
M 30.609375 56 
Q 42.328125 56 49.015625 48.375 
Q 55.71875 40.765625 55.71875 27.296875 
Q 55.71875 13.875 49.015625 6.21875 
Q 42.328125 -1.421875 30.609375 -1.421875 
Q 18.84375 -1.421875 12.171875 6.21875 
Q 5.515625 13.875 5.515625 27.296875 
Q 5.515625 40.765625 12.171875 48.375 
Q 18.84375 56 30.609375 56 
z
" id="DejaVuSans-111"/>
    </defs>
    <g transform="translate(255.151875 54.48)scale(0.12 -0.12)">
     <use xlink:href="#DejaVuSans-77"/>
     <use x="86.279297" xlink:href="#DejaVuSans-246"/>
     <use x="147.460938" xlink:href="#DejaVuSans-223"/>
     <use x="210.449219" xlink:href="#DejaVuSans-98"/>
     <use x="273.925781" xlink:href="#DejaVuSans-97"/>
     <use x="335.205078" xlink:href="#DejaVuSans-117"/>
     <use x="398.583984" xlink:href="#DejaVuSans-101"/>
     <use x="460.107422" xlink:href="#DejaVuSans-114"/>
     <use x="498.970703" xlink:href="#DejaVuSans-101"/>
     <use x="560.494141" xlink:href="#DejaVuSans-102"/>
     <use x="595.699219" xlink:href="#DejaVuSans-102"/>
     <use x="630.904297" xlink:href="#DejaVuSans-101"/>
     <use x="692.427734" xlink:href="#DejaVuSans-107"/>
     <use x="750.337891" xlink:href="#DejaVuSans-116"/>
     <use x="789.546875" xlink:href="#DejaVuSans-32"/>
     <use x="821.333984" xlink:href="#DejaVuSans-105"/>
     <use x="849.117188" xlink:href="#DejaVuSans-110"/>
     <use x="912.496094" xlink:href="#DejaVuSans-32"/>
     <use x="944.283203" xlink:href="#DejaVuSans-117"/>
     <use x="1007.662109" xlink:href="#DejaVuSans-110"/>
     <use x="1071.041016" xlink:href="#DejaVuSans-98"/>
     <use x="1134.517578" xlink:href="#DejaVuSans-101"/>
     <use x="1196.041016" xlink:href="#DejaVuSans-107"/>
     <use x="1252.201172" xlink:href="#DejaVuSans-97"/>
     <use x="1313.480469" xlink:href="#DejaVuSans-110"/>
     <use x="1376.859375" xlink:href="#DejaVuSans-110"/>
     <use x="1440.238281" xlink:href="#DejaVuSans-116"/>
     <use x="1479.447266" xlink:href="#DejaVuSans-101"/>
     <use x="1540.970703" xlink:href="#DejaVuSans-114"/>
     <use x="1582.083984" xlink:href="#DejaVuSans-32"/>
     <use x="1613.871094" xlink:href="#DejaVuSans-80"/>
     <use x="1672.423828" xlink:href="#DejaVuSans-114"/>
     <use x="1711.287109" xlink:href="#DejaVuSans-111"/>
     <use x="1772.46875" xlink:href="#DejaVuSans-98"/>
     <use x="1835.945312" xlink:href="#DejaVuSans-101"/>
    </g>
   </g>
   <g id="legend_1">
    <g id="patch_7">
     <path d="M 303.191406 436 
L 434.808594 436 
Q 436.808594 436 436.808594 434 
L 436.808594 405.64375 
Q 436.808594 403.64375 434.808594 403.64375 
L 303.191406 403.64375 
Q 301.191406 403.64375 301.191406 405.64375 
L 301.191406 434 
Q 301.191406 436 303.191406 436 
z
" style="fill:#ffffff;opacity:0.8;stroke:#cccccc;stroke-linejoin:miter;"/>
    </g>
    <g id="line2d_17"/>
    <g id="line2d_18">
     <g>
      <use style="fill:#1e90ff;stroke:#1e90ff;" x="315.191406" xlink:href="#ma1720cf52d" y="411.742188"/>
     </g>
    </g>
    <g id="text_18">
     <!-- Histogramm-Punkte -->
     <defs>
      <path d="M 9.8125 72.90625 
L 19.671875 72.90625 
L 19.671875 43.015625 
L 55.515625 43.015625 
L 55.515625 72.90625 
L 65.375 72.90625 
L 65.375 0 
L 55.515625 0 
L 55.515625 34.71875 
L 19.671875 34.71875 
L 19.671875 0 
L 9.8125 0 
z
" id="DejaVuSans-72"/>
      <path d="M 45.40625 27.984375 
Q 45.40625 37.75 41.375 43.109375 
Q 37.359375 48.484375 30.078125 48.484375 
Q 22.859375 48.484375 18.828125 43.109375 
Q 14.796875 37.75 14.796875 27.984375 
Q 14.796875 18.265625 18.828125 12.890625 
Q 22.859375 7.515625 30.078125 7.515625 
Q 37.359375 7.515625 41.375 12.890625 
Q 45.40625 18.265625 45.40625 27.984375 
z
M 54.390625 6.78125 
Q 54.390625 -7.171875 48.1875 -13.984375 
Q 42 -20.796875 29.203125 -20.796875 
Q 24.46875 -20.796875 20.265625 -20.09375 
Q 16.0625 -19.390625 12.109375 -17.921875 
L 12.109375 -9.1875 
Q 16.0625 -11.328125 19.921875 -12.34375 
Q 23.78125 -13.375 27.78125 -13.375 
Q 36.625 -13.375 41.015625 -8.765625 
Q 45.40625 -4.15625 45.40625 5.171875 
L 45.40625 9.625 
Q 42.625 4.78125 38.28125 2.390625 
Q 33.9375 0 27.875 0 
Q 17.828125 0 11.671875 7.65625 
Q 5.515625 15.328125 5.515625 27.984375 
Q 5.515625 40.671875 11.671875 48.328125 
Q 17.828125 56 27.875 56 
Q 33.9375 56 38.28125 53.609375 
Q 42.625 51.21875 45.40625 46.390625 
L 45.40625 54.6875 
L 54.390625 54.6875 
z
" id="DejaVuSans-103"/>
      <path d="M 4.890625 31.390625 
L 31.203125 31.390625 
L 31.203125 23.390625 
L 4.890625 23.390625 
z
" id="DejaVuSans-45"/>
     </defs>
     <g transform="translate(333.191406 415.242188)scale(0.1 -0.1)">
      <use xlink:href="#DejaVuSans-72"/>
      <use x="75.195312" xlink:href="#DejaVuSans-105"/>
      <use x="102.978516" xlink:href="#DejaVuSans-115"/>
      <use x="155.078125" xlink:href="#DejaVuSans-116"/>
      <use x="194.287109" xlink:href="#DejaVuSans-111"/>
      <use x="255.46875" xlink:href="#DejaVuSans-103"/>
      <use x="318.945312" xlink:href="#DejaVuSans-114"/>
      <use x="360.058594" xlink:href="#DejaVuSans-97"/>
      <use x="421.337891" xlink:href="#DejaVuSans-109"/>
      <use x="518.75" xlink:href="#DejaVuSans-109"/>
      <use x="616.162109" xlink:href="#DejaVuSans-45"/>
      <use x="652.246094" xlink:href="#DejaVuSans-80"/>
      <use x="710.798828" xlink:href="#DejaVuSans-117"/>
      <use x="774.177734" xlink:href="#DejaVuSans-110"/>
      <use x="837.556641" xlink:href="#DejaVuSans-107"/>
      <use x="895.466797" xlink:href="#DejaVuSans-116"/>
      <use x="934.675781" xlink:href="#DejaVuSans-101"/>
     </g>
    </g>
    <g id="line2d_19">
     <path d="M 305.191406 426.420313 
L 325.191406 426.420313 
" style="fill:none;stroke:#000000;stroke-linecap:square;stroke-width:1.5;"/>
    </g>
    <g id="line2d_20"/>
    <g id="text_19">
     <!-- Mößbauer-fit -->
     <g transform="translate(333.191406 429.920313)scale(0.1 -0.1)">
      <use xlink:href="#DejaVuSans-77"/>
      <use x="86.279297" xlink:href="#DejaVuSans-246"/>
      <use x="147.460938" xlink:href="#DejaVuSans-223"/>
      <use x="210.449219" xlink:href="#DejaVuSans-98"/>
      <use x="273.925781" xlink:href="#DejaVuSans-97"/>
      <use x="335.205078" xlink:href="#DejaVuSans-117"/>
      <use x="398.583984" xlink:href="#DejaVuSans-101"/>
      <use x="460.107422" xlink:href="#DejaVuSans-114"/>
      <use x="494.845703" xlink:href="#DejaVuSans-45"/>
      <use x="530.929688" xlink:href="#DejaVuSans-102"/>
      <use x="566.134766" xlink:href="#DejaVuSans-105"/>
      <use x="593.917969" xlink:href="#DejaVuSans-116"/>
     </g>
    </g>
   </g>
  </g>
 </g>
 <defs>
  <clipPath id="p0ee10b00e5">
   <rect height="380.52" width="558" x="90" y="60.48"/>
  </clipPath>
 </defs>
</svg>
