<?xml version="1.0" encoding="utf-8" standalone="no"?>
<!DOCTYPE svg PUBLIC "-//W3C//DTD SVG 1.1//EN"
  "http://www.w3.org/Graphics/SVG/1.1/DTD/svg11.dtd">
<!-- Created with matplotlib (https://matplotlib.org/) -->
<svg height="504pt" version="1.1" viewBox="0 0 720 504" width="720pt" xmlns="http://www.w3.org/2000/svg" xmlns:xlink="http://www.w3.org/1999/xlink">
 <defs>
  <style type="text/css">
*{stroke-linecap:butt;stroke-linejoin:round;}
  </style>
 </defs>
 <g id="figure_1">
  <g id="patch_1">
   <path d="M 0 504 
L 720 504 
L 720 0 
L 0 0 
z
" style="fill:#ffffff;"/>
  </g>
  <g id="axes_1">
   <g id="patch_2">
    <path d="M 90 441 
L 648 441 
L 648 60.48 
L 90 60.48 
z
" style="fill:#ffffff;"/>
   </g>
   <g id="matplotlib.axis_1">
    <g id="xtick_1">
     <g id="line2d_1">
      <defs>
       <path d="M 0 0 
L 0 3.5 
" id="mc191c144ab" style="stroke:#000000;stroke-width:0.8;"/>
      </defs>
      <g>
       <use style="stroke:#000000;stroke-width:0.8;" x="102.433845" xlink:href="#mc191c144ab" y="441"/>
      </g>
     </g>
     <g id="text_1">
      <!-- −4 -->
      <defs>
       <path d="M 10.59375 35.5 
L 73.1875 35.5 
L 73.1875 27.203125 
L 10.59375 27.203125 
z
" id="DejaVuSans-8722"/>
       <path d="M 37.796875 64.3125 
L 12.890625 25.390625 
L 37.796875 25.390625 
z
M 35.203125 72.90625 
L 47.609375 72.90625 
L 47.609375 25.390625 
L 58.015625 25.390625 
L 58.015625 17.1875 
L 47.609375 17.1875 
L 47.609375 0 
L 37.796875 0 
L 37.796875 17.1875 
L 4.890625 17.1875 
L 4.890625 26.703125 
z
" id="DejaVuSans-52"/>
      </defs>
      <g transform="translate(95.062751 455.598437)scale(0.1 -0.1)">
       <use xlink:href="#DejaVuSans-8722"/>
       <use x="83.789062" xlink:href="#DejaVuSans-52"/>
      </g>
     </g>
    </g>
    <g id="xtick_2">
     <g id="line2d_2">
      <g>
       <use style="stroke:#000000;stroke-width:0.8;" x="169.075384" xlink:href="#mc191c144ab" y="441"/>
      </g>
     </g>
     <g id="text_2">
      <!-- −3 -->
      <defs>
       <path d="M 40.578125 39.3125 
Q 47.65625 37.796875 51.625 33 
Q 55.609375 28.21875 55.609375 21.1875 
Q 55.609375 10.40625 48.1875 4.484375 
Q 40.765625 -1.421875 27.09375 -1.421875 
Q 22.515625 -1.421875 17.65625 -0.515625 
Q 12.796875 0.390625 7.625 2.203125 
L 7.625 11.71875 
Q 11.71875 9.328125 16.59375 8.109375 
Q 21.484375 6.890625 26.8125 6.890625 
Q 36.078125 6.890625 40.9375 10.546875 
Q 45.796875 14.203125 45.796875 21.1875 
Q 45.796875 27.640625 41.28125 31.265625 
Q 36.765625 34.90625 28.71875 34.90625 
L 20.21875 34.90625 
L 20.21875 43.015625 
L 29.109375 43.015625 
Q 36.375 43.015625 40.234375 45.921875 
Q 44.09375 48.828125 44.09375 54.296875 
Q 44.09375 59.90625 40.109375 62.90625 
Q 36.140625 65.921875 28.71875 65.921875 
Q 24.65625 65.921875 20.015625 65.03125 
Q 15.375 64.15625 9.8125 62.3125 
L 9.8125 71.09375 
Q 15.4375 72.65625 20.34375 73.4375 
Q 25.25 74.21875 29.59375 74.21875 
Q 40.828125 74.21875 47.359375 69.109375 
Q 53.90625 64.015625 53.90625 55.328125 
Q 53.90625 49.265625 50.4375 45.09375 
Q 46.96875 40.921875 40.578125 39.3125 
z
" id="DejaVuSans-51"/>
      </defs>
      <g transform="translate(161.70429 455.598437)scale(0.1 -0.1)">
       <use xlink:href="#DejaVuSans-8722"/>
       <use x="83.789062" xlink:href="#DejaVuSans-51"/>
      </g>
     </g>
    </g>
    <g id="xtick_3">
     <g id="line2d_3">
      <g>
       <use style="stroke:#000000;stroke-width:0.8;" x="235.716923" xlink:href="#mc191c144ab" y="441"/>
      </g>
     </g>
     <g id="text_3">
      <!-- −2 -->
      <defs>
       <path d="M 19.1875 8.296875 
L 53.609375 8.296875 
L 53.609375 0 
L 7.328125 0 
L 7.328125 8.296875 
Q 12.9375 14.109375 22.625 23.890625 
Q 32.328125 33.6875 34.8125 36.53125 
Q 39.546875 41.84375 41.421875 45.53125 
Q 43.3125 49.21875 43.3125 52.78125 
Q 43.3125 58.59375 39.234375 62.25 
Q 35.15625 65.921875 28.609375 65.921875 
Q 23.96875 65.921875 18.8125 64.3125 
Q 13.671875 62.703125 7.8125 59.421875 
L 7.8125 69.390625 
Q 13.765625 71.78125 18.9375 73 
Q 24.125 74.21875 28.421875 74.21875 
Q 39.75 74.21875 46.484375 68.546875 
Q 53.21875 62.890625 53.21875 53.421875 
Q 53.21875 48.921875 51.53125 44.890625 
Q 49.859375 40.875 45.40625 35.40625 
Q 44.1875 33.984375 37.640625 27.21875 
Q 31.109375 20.453125 19.1875 8.296875 
z
" id="DejaVuSans-50"/>
      </defs>
      <g transform="translate(228.345829 455.598437)scale(0.1 -0.1)">
       <use xlink:href="#DejaVuSans-8722"/>
       <use x="83.789062" xlink:href="#DejaVuSans-50"/>
      </g>
     </g>
    </g>
    <g id="xtick_4">
     <g id="line2d_4">
      <g>
       <use style="stroke:#000000;stroke-width:0.8;" x="302.358461" xlink:href="#mc191c144ab" y="441"/>
      </g>
     </g>
     <g id="text_4">
      <!-- −1 -->
      <defs>
       <path d="M 12.40625 8.296875 
L 28.515625 8.296875 
L 28.515625 63.921875 
L 10.984375 60.40625 
L 10.984375 69.390625 
L 28.421875 72.90625 
L 38.28125 72.90625 
L 38.28125 8.296875 
L 54.390625 8.296875 
L 54.390625 0 
L 12.40625 0 
z
" id="DejaVuSans-49"/>
      </defs>
      <g transform="translate(294.987368 455.598437)scale(0.1 -0.1)">
       <use xlink:href="#DejaVuSans-8722"/>
       <use x="83.789062" xlink:href="#DejaVuSans-49"/>
      </g>
     </g>
    </g>
    <g id="xtick_5">
     <g id="line2d_5">
      <g>
       <use style="stroke:#000000;stroke-width:0.8;" x="369" xlink:href="#mc191c144ab" y="441"/>
      </g>
     </g>
     <g id="text_5">
      <!-- 0 -->
      <defs>
       <path d="M 31.78125 66.40625 
Q 24.171875 66.40625 20.328125 58.90625 
Q 16.5 51.421875 16.5 36.375 
Q 16.5 21.390625 20.328125 13.890625 
Q 24.171875 6.390625 31.78125 6.390625 
Q 39.453125 6.390625 43.28125 13.890625 
Q 47.125 21.390625 47.125 36.375 
Q 47.125 51.421875 43.28125 58.90625 
Q 39.453125 66.40625 31.78125 66.40625 
z
M 31.78125 74.21875 
Q 44.046875 74.21875 50.515625 64.515625 
Q 56.984375 54.828125 56.984375 36.375 
Q 56.984375 17.96875 50.515625 8.265625 
Q 44.046875 -1.421875 31.78125 -1.421875 
Q 19.53125 -1.421875 13.0625 8.265625 
Q 6.59375 17.96875 6.59375 36.375 
Q 6.59375 54.828125 13.0625 64.515625 
Q 19.53125 74.21875 31.78125 74.21875 
z
" id="DejaVuSans-48"/>
      </defs>
      <g transform="translate(365.81875 455.598437)scale(0.1 -0.1)">
       <use xlink:href="#DejaVuSans-48"/>
      </g>
     </g>
    </g>
    <g id="xtick_6">
     <g id="line2d_6">
      <g>
       <use style="stroke:#000000;stroke-width:0.8;" x="435.641539" xlink:href="#mc191c144ab" y="441"/>
      </g>
     </g>
     <g id="text_6">
      <!-- 1 -->
      <g transform="translate(432.460289 455.598437)scale(0.1 -0.1)">
       <use xlink:href="#DejaVuSans-49"/>
      </g>
     </g>
    </g>
    <g id="xtick_7">
     <g id="line2d_7">
      <g>
       <use style="stroke:#000000;stroke-width:0.8;" x="502.283077" xlink:href="#mc191c144ab" y="441"/>
      </g>
     </g>
     <g id="text_7">
      <!-- 2 -->
      <g transform="translate(499.101827 455.598437)scale(0.1 -0.1)">
       <use xlink:href="#DejaVuSans-50"/>
      </g>
     </g>
    </g>
    <g id="xtick_8">
     <g id="line2d_8">
      <g>
       <use style="stroke:#000000;stroke-width:0.8;" x="568.924616" xlink:href="#mc191c144ab" y="441"/>
      </g>
     </g>
     <g id="text_8">
      <!-- 3 -->
      <g transform="translate(565.743366 455.598437)scale(0.1 -0.1)">
       <use xlink:href="#DejaVuSans-51"/>
      </g>
     </g>
    </g>
    <g id="xtick_9">
     <g id="line2d_9">
      <g>
       <use style="stroke:#000000;stroke-width:0.8;" x="635.566155" xlink:href="#mc191c144ab" y="441"/>
      </g>
     </g>
     <g id="text_9">
      <!-- 4 -->
      <g transform="translate(632.384905 455.598437)scale(0.1 -0.1)">
       <use xlink:href="#DejaVuSans-52"/>
      </g>
     </g>
    </g>
    <g id="text_10">
     <!-- v/mm$\cdot$s$^{-1}$ -->
     <defs>
      <path d="M 2.984375 54.6875 
L 12.5 54.6875 
L 29.59375 8.796875 
L 46.6875 54.6875 
L 56.203125 54.6875 
L 35.6875 0 
L 23.484375 0 
z
" id="DejaVuSans-118"/>
      <path d="M 25.390625 72.90625 
L 33.6875 72.90625 
L 8.296875 -9.28125 
L 0 -9.28125 
z
" id="DejaVuSans-47"/>
      <path d="M 52 44.1875 
Q 55.375 50.25 60.0625 53.125 
Q 64.75 56 71.09375 56 
Q 79.640625 56 84.28125 50.015625 
Q 88.921875 44.046875 88.921875 33.015625 
L 88.921875 0 
L 79.890625 0 
L 79.890625 32.71875 
Q 79.890625 40.578125 77.09375 44.375 
Q 74.3125 48.1875 68.609375 48.1875 
Q 61.625 48.1875 57.5625 43.546875 
Q 53.515625 38.921875 53.515625 30.90625 
L 53.515625 0 
L 44.484375 0 
L 44.484375 32.71875 
Q 44.484375 40.625 41.703125 44.40625 
Q 38.921875 48.1875 33.109375 48.1875 
Q 26.21875 48.1875 22.15625 43.53125 
Q 18.109375 38.875 18.109375 30.90625 
L 18.109375 0 
L 9.078125 0 
L 9.078125 54.6875 
L 18.109375 54.6875 
L 18.109375 46.1875 
Q 21.1875 51.21875 25.484375 53.609375 
Q 29.78125 56 35.6875 56 
Q 41.65625 56 45.828125 52.96875 
Q 50 49.953125 52 44.1875 
z
" id="DejaVuSans-109"/>
      <path d="M 10.6875 40.921875 
L 21 40.921875 
L 21 28.515625 
L 10.6875 28.515625 
z
" id="DejaVuSans-8901"/>
      <path d="M 44.28125 53.078125 
L 44.28125 44.578125 
Q 40.484375 46.53125 36.375 47.5 
Q 32.28125 48.484375 27.875 48.484375 
Q 21.1875 48.484375 17.84375 46.4375 
Q 14.5 44.390625 14.5 40.28125 
Q 14.5 37.15625 16.890625 35.375 
Q 19.28125 33.59375 26.515625 31.984375 
L 29.59375 31.296875 
Q 39.15625 29.25 43.1875 25.515625 
Q 47.21875 21.78125 47.21875 15.09375 
Q 47.21875 7.46875 41.1875 3.015625 
Q 35.15625 -1.421875 24.609375 -1.421875 
Q 20.21875 -1.421875 15.453125 -0.5625 
Q 10.6875 0.296875 5.421875 2 
L 5.421875 11.28125 
Q 10.40625 8.6875 15.234375 7.390625 
Q 20.0625 6.109375 24.8125 6.109375 
Q 31.15625 6.109375 34.5625 8.28125 
Q 37.984375 10.453125 37.984375 14.40625 
Q 37.984375 18.0625 35.515625 20.015625 
Q 33.0625 21.96875 24.703125 23.78125 
L 21.578125 24.515625 
Q 13.234375 26.265625 9.515625 29.90625 
Q 5.8125 33.546875 5.8125 39.890625 
Q 5.8125 47.609375 11.28125 51.796875 
Q 16.75 56 26.8125 56 
Q 31.78125 56 36.171875 55.265625 
Q 40.578125 54.546875 44.28125 53.078125 
z
" id="DejaVuSans-115"/>
     </defs>
     <g transform="translate(345.05 469.598437)scale(0.1 -0.1)">
      <use transform="translate(0 0.684375)" xlink:href="#DejaVuSans-118"/>
      <use transform="translate(59.179688 0.684375)" xlink:href="#DejaVuSans-47"/>
      <use transform="translate(92.871094 0.684375)" xlink:href="#DejaVuSans-109"/>
      <use transform="translate(190.283203 0.684375)" xlink:href="#DejaVuSans-109"/>
      <use transform="translate(287.695312 0.684375)" xlink:href="#DejaVuSans-8901"/>
      <use transform="translate(319.482422 0.684375)" xlink:href="#DejaVuSans-115"/>
      <use transform="translate(372.539062 38.965625)scale(0.7)" xlink:href="#DejaVuSans-8722"/>
      <use transform="translate(431.191406 38.965625)scale(0.7)" xlink:href="#DejaVuSans-49"/>
     </g>
    </g>
   </g>
   <g id="matplotlib.axis_2">
    <g id="ytick_1">
     <g id="line2d_10">
      <defs>
       <path d="M 0 0 
L -3.5 0 
" id="m71c869c92e" style="stroke:#000000;stroke-width:0.8;"/>
      </defs>
      <g>
       <use style="stroke:#000000;stroke-width:0.8;" x="90" xlink:href="#m71c869c92e" y="395.586062"/>
      </g>
     </g>
     <g id="text_11">
      <!-- 38000 -->
      <defs>
       <path d="M 31.78125 34.625 
Q 24.75 34.625 20.71875 30.859375 
Q 16.703125 27.09375 16.703125 20.515625 
Q 16.703125 13.921875 20.71875 10.15625 
Q 24.75 6.390625 31.78125 6.390625 
Q 38.8125 6.390625 42.859375 10.171875 
Q 46.921875 13.96875 46.921875 20.515625 
Q 46.921875 27.09375 42.890625 30.859375 
Q 38.875 34.625 31.78125 34.625 
z
M 21.921875 38.8125 
Q 15.578125 40.375 12.03125 44.71875 
Q 8.5 49.078125 8.5 55.328125 
Q 8.5 64.0625 14.71875 69.140625 
Q 20.953125 74.21875 31.78125 74.21875 
Q 42.671875 74.21875 48.875 69.140625 
Q 55.078125 64.0625 55.078125 55.328125 
Q 55.078125 49.078125 51.53125 44.71875 
Q 48 40.375 41.703125 38.8125 
Q 48.828125 37.15625 52.796875 32.3125 
Q 56.78125 27.484375 56.78125 20.515625 
Q 56.78125 9.90625 50.3125 4.234375 
Q 43.84375 -1.421875 31.78125 -1.421875 
Q 19.734375 -1.421875 13.25 4.234375 
Q 6.78125 9.90625 6.78125 20.515625 
Q 6.78125 27.484375 10.78125 32.3125 
Q 14.796875 37.15625 21.921875 38.8125 
z
M 18.3125 54.390625 
Q 18.3125 48.734375 21.84375 45.5625 
Q 25.390625 42.390625 31.78125 42.390625 
Q 38.140625 42.390625 41.71875 45.5625 
Q 45.3125 48.734375 45.3125 54.390625 
Q 45.3125 60.0625 41.71875 63.234375 
Q 38.140625 66.40625 31.78125 66.40625 
Q 25.390625 66.40625 21.84375 63.234375 
Q 18.3125 60.0625 18.3125 54.390625 
z
" id="DejaVuSans-56"/>
      </defs>
      <g transform="translate(51.1875 399.385281)scale(0.1 -0.1)">
       <use xlink:href="#DejaVuSans-51"/>
       <use x="63.623047" xlink:href="#DejaVuSans-56"/>
       <use x="127.246094" xlink:href="#DejaVuSans-48"/>
       <use x="190.869141" xlink:href="#DejaVuSans-48"/>
       <use x="254.492188" xlink:href="#DejaVuSans-48"/>
      </g>
     </g>
    </g>
    <g id="ytick_2">
     <g id="line2d_11">
      <g>
       <use style="stroke:#000000;stroke-width:0.8;" x="90" xlink:href="#m71c869c92e" y="327.995739"/>
      </g>
     </g>
     <g id="text_12">
      <!-- 38500 -->
      <defs>
       <path d="M 10.796875 72.90625 
L 49.515625 72.90625 
L 49.515625 64.59375 
L 19.828125 64.59375 
L 19.828125 46.734375 
Q 21.96875 47.46875 24.109375 47.828125 
Q 26.265625 48.1875 28.421875 48.1875 
Q 40.625 48.1875 47.75 41.5 
Q 54.890625 34.8125 54.890625 23.390625 
Q 54.890625 11.625 47.5625 5.09375 
Q 40.234375 -1.421875 26.90625 -1.421875 
Q 22.3125 -1.421875 17.546875 -0.640625 
Q 12.796875 0.140625 7.71875 1.703125 
L 7.71875 11.625 
Q 12.109375 9.234375 16.796875 8.0625 
Q 21.484375 6.890625 26.703125 6.890625 
Q 35.15625 6.890625 40.078125 11.328125 
Q 45.015625 15.765625 45.015625 23.390625 
Q 45.015625 31 40.078125 35.4375 
Q 35.15625 39.890625 26.703125 39.890625 
Q 22.75 39.890625 18.8125 39.015625 
Q 14.890625 38.140625 10.796875 36.28125 
z
" id="DejaVuSans-53"/>
      </defs>
      <g transform="translate(51.1875 331.794958)scale(0.1 -0.1)">
       <use xlink:href="#DejaVuSans-51"/>
       <use x="63.623047" xlink:href="#DejaVuSans-56"/>
       <use x="127.246094" xlink:href="#DejaVuSans-53"/>
       <use x="190.869141" xlink:href="#DejaVuSans-48"/>
       <use x="254.492188" xlink:href="#DejaVuSans-48"/>
      </g>
     </g>
    </g>
    <g id="ytick_3">
     <g id="line2d_12">
      <g>
       <use style="stroke:#000000;stroke-width:0.8;" x="90" xlink:href="#m71c869c92e" y="260.405416"/>
      </g>
     </g>
     <g id="text_13">
      <!-- 39000 -->
      <defs>
       <path d="M 10.984375 1.515625 
L 10.984375 10.5 
Q 14.703125 8.734375 18.5 7.8125 
Q 22.3125 6.890625 25.984375 6.890625 
Q 35.75 6.890625 40.890625 13.453125 
Q 46.046875 20.015625 46.78125 33.40625 
Q 43.953125 29.203125 39.59375 26.953125 
Q 35.25 24.703125 29.984375 24.703125 
Q 19.046875 24.703125 12.671875 31.3125 
Q 6.296875 37.9375 6.296875 49.421875 
Q 6.296875 60.640625 12.9375 67.421875 
Q 19.578125 74.21875 30.609375 74.21875 
Q 43.265625 74.21875 49.921875 64.515625 
Q 56.59375 54.828125 56.59375 36.375 
Q 56.59375 19.140625 48.40625 8.859375 
Q 40.234375 -1.421875 26.421875 -1.421875 
Q 22.703125 -1.421875 18.890625 -0.6875 
Q 15.09375 0.046875 10.984375 1.515625 
z
M 30.609375 32.421875 
Q 37.25 32.421875 41.125 36.953125 
Q 45.015625 41.5 45.015625 49.421875 
Q 45.015625 57.28125 41.125 61.84375 
Q 37.25 66.40625 30.609375 66.40625 
Q 23.96875 66.40625 20.09375 61.84375 
Q 16.21875 57.28125 16.21875 49.421875 
Q 16.21875 41.5 20.09375 36.953125 
Q 23.96875 32.421875 30.609375 32.421875 
z
" id="DejaVuSans-57"/>
      </defs>
      <g transform="translate(51.1875 264.204635)scale(0.1 -0.1)">
       <use xlink:href="#DejaVuSans-51"/>
       <use x="63.623047" xlink:href="#DejaVuSans-57"/>
       <use x="127.246094" xlink:href="#DejaVuSans-48"/>
       <use x="190.869141" xlink:href="#DejaVuSans-48"/>
       <use x="254.492188" xlink:href="#DejaVuSans-48"/>
      </g>
     </g>
    </g>
    <g id="ytick_4">
     <g id="line2d_13">
      <g>
       <use style="stroke:#000000;stroke-width:0.8;" x="90" xlink:href="#m71c869c92e" y="192.815093"/>
      </g>
     </g>
     <g id="text_14">
      <!-- 39500 -->
      <g transform="translate(51.1875 196.614312)scale(0.1 -0.1)">
       <use xlink:href="#DejaVuSans-51"/>
       <use x="63.623047" xlink:href="#DejaVuSans-57"/>
       <use x="127.246094" xlink:href="#DejaVuSans-53"/>
       <use x="190.869141" xlink:href="#DejaVuSans-48"/>
       <use x="254.492188" xlink:href="#DejaVuSans-48"/>
      </g>
     </g>
    </g>
    <g id="ytick_5">
     <g id="line2d_14">
      <g>
       <use style="stroke:#000000;stroke-width:0.8;" x="90" xlink:href="#m71c869c92e" y="125.22477"/>
      </g>
     </g>
     <g id="text_15">
      <!-- 40000 -->
      <g transform="translate(51.1875 129.023989)scale(0.1 -0.1)">
       <use xlink:href="#DejaVuSans-52"/>
       <use x="63.623047" xlink:href="#DejaVuSans-48"/>
       <use x="127.246094" xlink:href="#DejaVuSans-48"/>
       <use x="190.869141" xlink:href="#DejaVuSans-48"/>
       <use x="254.492188" xlink:href="#DejaVuSans-48"/>
      </g>
     </g>
    </g>
    <g id="text_16">
     <!-- Impulszahl -->
     <defs>
      <path d="M 9.8125 72.90625 
L 19.671875 72.90625 
L 19.671875 0 
L 9.8125 0 
z
" id="DejaVuSans-73"/>
      <path d="M 18.109375 8.203125 
L 18.109375 -20.796875 
L 9.078125 -20.796875 
L 9.078125 54.6875 
L 18.109375 54.6875 
L 18.109375 46.390625 
Q 20.953125 51.265625 25.265625 53.625 
Q 29.59375 56 35.59375 56 
Q 45.5625 56 51.78125 48.09375 
Q 58.015625 40.1875 58.015625 27.296875 
Q 58.015625 14.40625 51.78125 6.484375 
Q 45.5625 -1.421875 35.59375 -1.421875 
Q 29.59375 -1.421875 25.265625 0.953125 
Q 20.953125 3.328125 18.109375 8.203125 
z
M 48.6875 27.296875 
Q 48.6875 37.203125 44.609375 42.84375 
Q 40.53125 48.484375 33.40625 48.484375 
Q 26.265625 48.484375 22.1875 42.84375 
Q 18.109375 37.203125 18.109375 27.296875 
Q 18.109375 17.390625 22.1875 11.75 
Q 26.265625 6.109375 33.40625 6.109375 
Q 40.53125 6.109375 44.609375 11.75 
Q 48.6875 17.390625 48.6875 27.296875 
z
" id="DejaVuSans-112"/>
      <path d="M 8.5 21.578125 
L 8.5 54.6875 
L 17.484375 54.6875 
L 17.484375 21.921875 
Q 17.484375 14.15625 20.5 10.265625 
Q 23.53125 6.390625 29.59375 6.390625 
Q 36.859375 6.390625 41.078125 11.03125 
Q 45.3125 15.671875 45.3125 23.6875 
L 45.3125 54.6875 
L 54.296875 54.6875 
L 54.296875 0 
L 45.3125 0 
L 45.3125 8.40625 
Q 42.046875 3.421875 37.71875 1 
Q 33.40625 -1.421875 27.6875 -1.421875 
Q 18.265625 -1.421875 13.375 4.4375 
Q 8.5 10.296875 8.5 21.578125 
z
M 31.109375 56 
z
" id="DejaVuSans-117"/>
      <path d="M 9.421875 75.984375 
L 18.40625 75.984375 
L 18.40625 0 
L 9.421875 0 
z
" id="DejaVuSans-108"/>
      <path d="M 5.515625 54.6875 
L 48.1875 54.6875 
L 48.1875 46.484375 
L 14.40625 7.171875 
L 48.1875 7.171875 
L 48.1875 0 
L 4.296875 0 
L 4.296875 8.203125 
L 38.09375 47.515625 
L 5.515625 47.515625 
z
" id="DejaVuSans-122"/>
      <path d="M 34.28125 27.484375 
Q 23.390625 27.484375 19.1875 25 
Q 14.984375 22.515625 14.984375 16.5 
Q 14.984375 11.71875 18.140625 8.90625 
Q 21.296875 6.109375 26.703125 6.109375 
Q 34.1875 6.109375 38.703125 11.40625 
Q 43.21875 16.703125 43.21875 25.484375 
L 43.21875 27.484375 
z
M 52.203125 31.203125 
L 52.203125 0 
L 43.21875 0 
L 43.21875 8.296875 
Q 40.140625 3.328125 35.546875 0.953125 
Q 30.953125 -1.421875 24.3125 -1.421875 
Q 15.921875 -1.421875 10.953125 3.296875 
Q 6 8.015625 6 15.921875 
Q 6 25.140625 12.171875 29.828125 
Q 18.359375 34.515625 30.609375 34.515625 
L 43.21875 34.515625 
L 43.21875 35.40625 
Q 43.21875 41.609375 39.140625 45 
Q 35.0625 48.390625 27.6875 48.390625 
Q 23 48.390625 18.546875 47.265625 
Q 14.109375 46.140625 10.015625 43.890625 
L 10.015625 52.203125 
Q 14.9375 54.109375 19.578125 55.046875 
Q 24.21875 56 28.609375 56 
Q 40.484375 56 46.34375 49.84375 
Q 52.203125 43.703125 52.203125 31.203125 
z
" id="DejaVuSans-97"/>
      <path d="M 54.890625 33.015625 
L 54.890625 0 
L 45.90625 0 
L 45.90625 32.71875 
Q 45.90625 40.484375 42.875 44.328125 
Q 39.84375 48.1875 33.796875 48.1875 
Q 26.515625 48.1875 22.3125 43.546875 
Q 18.109375 38.921875 18.109375 30.90625 
L 18.109375 0 
L 9.078125 0 
L 9.078125 75.984375 
L 18.109375 75.984375 
L 18.109375 46.1875 
Q 21.34375 51.125 25.703125 53.5625 
Q 30.078125 56 35.796875 56 
Q 45.21875 56 50.046875 50.171875 
Q 54.890625 44.34375 54.890625 33.015625 
z
" id="DejaVuSans-104"/>
     </defs>
     <g transform="translate(45.107812 277.668125)rotate(-90)scale(0.1 -0.1)">
      <use xlink:href="#DejaVuSans-73"/>
      <use x="29.492188" xlink:href="#DejaVuSans-109"/>
      <use x="126.904297" xlink:href="#DejaVuSans-112"/>
      <use x="190.380859" xlink:href="#DejaVuSans-117"/>
      <use x="253.759766" xlink:href="#DejaVuSans-108"/>
      <use x="281.542969" xlink:href="#DejaVuSans-115"/>
      <use x="333.642578" xlink:href="#DejaVuSans-122"/>
      <use x="386.132812" xlink:href="#DejaVuSans-97"/>
      <use x="447.412109" xlink:href="#DejaVuSans-104"/>
      <use x="510.791016" xlink:href="#DejaVuSans-108"/>
     </g>
    </g>
   </g>
   <g id="line2d_15">
    <defs>
     <path d="M 0 1.5 
C 0.397805 1.5 0.77937 1.341951 1.06066 1.06066 
C 1.341951 0.77937 1.5 0.397805 1.5 0 
C 1.5 -0.397805 1.341951 -0.77937 1.06066 -1.06066 
C 0.77937 -1.341951 0.397805 -1.5 0 -1.5 
C -0.397805 -1.5 -0.77937 -1.341951 -1.06066 -1.06066 
C -1.341951 -0.77937 -1.5 -0.397805 -1.5 0 
C -1.5 0.397805 -1.341951 0.77937 -1.06066 1.06066 
C -0.77937 1.341951 -0.397805 1.5 0 1.5 
z
" id="m6ba20e8765" style="stroke:#1e90ff;"/>
    </defs>
    <g clip-path="url(#p2d1ec8b9b8)">
     <use style="fill:#1e90ff;stroke:#1e90ff;" x="115.363636" xlink:href="#m6ba20e8765" y="181.189558"/>
     <use style="fill:#1e90ff;stroke:#1e90ff;" x="115.372966" xlink:href="#m6ba20e8765" y="157.803306"/>
     <use style="fill:#1e90ff;stroke:#1e90ff;" x="115.392292" xlink:href="#m6ba20e8765" y="187.002325"/>
     <use style="fill:#1e90ff;stroke:#1e90ff;" x="115.420948" xlink:href="#m6ba20e8765" y="147.259216"/>
     <use style="fill:#1e90ff;stroke:#1e90ff;" x="115.458934" xlink:href="#m6ba20e8765" y="116.302848"/>
     <use style="fill:#1e90ff;stroke:#1e90ff;" x="115.506916" xlink:href="#m6ba20e8765" y="150.503551"/>
     <use style="fill:#1e90ff;stroke:#1e90ff;" x="115.564227" xlink:href="#m6ba20e8765" y="172.808358"/>
     <use style="fill:#1e90ff;stroke:#1e90ff;" x="115.630869" xlink:href="#m6ba20e8765" y="184.974616"/>
     <use style="fill:#1e90ff;stroke:#1e90ff;" x="115.70684" xlink:href="#m6ba20e8765" y="162.129087"/>
     <use style="fill:#1e90ff;stroke:#1e90ff;" x="115.792808" xlink:href="#m6ba20e8765" y="163.751254"/>
     <use style="fill:#1e90ff;stroke:#1e90ff;" x="115.888772" xlink:href="#m6ba20e8765" y="136.850306"/>
     <use style="fill:#1e90ff;stroke:#1e90ff;" x="115.993399" xlink:href="#m6ba20e8765" y="161.723545"/>
     <use style="fill:#1e90ff;stroke:#1e90ff;" x="116.108022" xlink:href="#m6ba20e8765" y="129.009828"/>
     <use style="fill:#1e90ff;stroke:#1e90ff;" x="116.231976" xlink:href="#m6ba20e8765" y="124.278506"/>
     <use style="fill:#1e90ff;stroke:#1e90ff;" x="116.365259" xlink:href="#m6ba20e8765" y="160.101377"/>
     <use style="fill:#1e90ff;stroke:#1e90ff;" x="116.508538" xlink:href="#m6ba20e8765" y="134.687416"/>
     <use style="fill:#1e90ff;stroke:#1e90ff;" x="116.661147" xlink:href="#m6ba20e8765" y="165.643783"/>
     <use style="fill:#1e90ff;stroke:#1e90ff;" x="116.823086" xlink:href="#m6ba20e8765" y="182.135822"/>
     <use style="fill:#1e90ff;stroke:#1e90ff;" x="116.994355" xlink:href="#m6ba20e8765" y="140.635364"/>
     <use style="fill:#1e90ff;stroke:#1e90ff;" x="117.17562" xlink:href="#m6ba20e8765" y="116.032486"/>
     <use style="fill:#1e90ff;stroke:#1e90ff;" x="117.366215" xlink:href="#m6ba20e8765" y="151.044274"/>
     <use style="fill:#1e90ff;stroke:#1e90ff;" x="117.566139" xlink:href="#m6ba20e8765" y="142.663074"/>
     <use style="fill:#1e90ff;stroke:#1e90ff;" x="117.775394" xlink:href="#m6ba20e8765" y="144.285241"/>
     <use style="fill:#1e90ff;stroke:#1e90ff;" x="117.994644" xlink:href="#m6ba20e8765" y="137.120667"/>
     <use style="fill:#1e90ff;stroke:#1e90ff;" x="118.222558" xlink:href="#m6ba20e8765" y="146.04259"/>
     <use style="fill:#1e90ff;stroke:#1e90ff;" x="118.460469" xlink:href="#m6ba20e8765" y="204.035087"/>
     <use style="fill:#1e90ff;stroke:#1e90ff;" x="118.707709" xlink:href="#m6ba20e8765" y="138.742835"/>
     <use style="fill:#1e90ff;stroke:#1e90ff;" x="118.964279" xlink:href="#m6ba20e8765" y="150.36837"/>
     <use style="fill:#1e90ff;stroke:#1e90ff;" x="119.230845" xlink:href="#m6ba20e8765" y="78.857809"/>
     <use style="fill:#1e90ff;stroke:#1e90ff;" x="119.506074" xlink:href="#m6ba20e8765" y="117.113932"/>
     <use style="fill:#1e90ff;stroke:#1e90ff;" x="119.790634" xlink:href="#m6ba20e8765" y="149.151745"/>
     <use style="fill:#1e90ff;stroke:#1e90ff;" x="120.085189" xlink:href="#m6ba20e8765" y="146.448132"/>
     <use style="fill:#1e90ff;stroke:#1e90ff;" x="120.389075" xlink:href="#m6ba20e8765" y="117.384293"/>
     <use style="fill:#1e90ff;stroke:#1e90ff;" x="120.701624" xlink:href="#m6ba20e8765" y="176.187874"/>
     <use style="fill:#1e90ff;stroke:#1e90ff;" x="121.024169" xlink:href="#m6ba20e8765" y="181.054377"/>
     <use style="fill:#1e90ff;stroke:#1e90ff;" x="121.356044" xlink:href="#m6ba20e8765" y="110.49008"/>
     <use style="fill:#1e90ff;stroke:#1e90ff;" x="121.696582" xlink:href="#m6ba20e8765" y="155.640416"/>
     <use style="fill:#1e90ff;stroke:#1e90ff;" x="122.047116" xlink:href="#m6ba20e8765" y="184.974616"/>
     <use style="fill:#1e90ff;stroke:#1e90ff;" x="122.406981" xlink:href="#m6ba20e8765" y="136.174403"/>
     <use style="fill:#1e90ff;stroke:#1e90ff;" x="122.775508" xlink:href="#m6ba20e8765" y="139.148377"/>
     <use style="fill:#1e90ff;stroke:#1e90ff;" x="123.154032" xlink:href="#m6ba20e8765" y="89.401899"/>
     <use style="fill:#1e90ff;stroke:#1e90ff;" x="123.54122" xlink:href="#m6ba20e8765" y="142.527893"/>
     <use style="fill:#1e90ff;stroke:#1e90ff;" x="123.937737" xlink:href="#m6ba20e8765" y="149.422106"/>
     <use style="fill:#1e90ff;stroke:#1e90ff;" x="124.343584" xlink:href="#m6ba20e8765" y="131.578261"/>
     <use style="fill:#1e90ff;stroke:#1e90ff;" x="124.75876" xlink:href="#m6ba20e8765" y="152.531261"/>
     <use style="fill:#1e90ff;stroke:#1e90ff;" x="125.183267" xlink:href="#m6ba20e8765" y="111.571525"/>
     <use style="fill:#1e90ff;stroke:#1e90ff;" x="125.616437" xlink:href="#m6ba20e8765" y="157.803306"/>
     <use style="fill:#1e90ff;stroke:#1e90ff;" x="126.058937" xlink:href="#m6ba20e8765" y="174.024983"/>
     <use style="fill:#1e90ff;stroke:#1e90ff;" x="126.510767" xlink:href="#m6ba20e8765" y="103.595867"/>
     <use style="fill:#1e90ff;stroke:#1e90ff;" x="126.971926" xlink:href="#m6ba20e8765" y="199.844487"/>
     <use style="fill:#1e90ff;stroke:#1e90ff;" x="127.441749" xlink:href="#m6ba20e8765" y="173.619442"/>
     <use style="fill:#1e90ff;stroke:#1e90ff;" x="127.920902" xlink:href="#m6ba20e8765" y="159.019932"/>
     <use style="fill:#1e90ff;stroke:#1e90ff;" x="128.409384" xlink:href="#m6ba20e8765" y="214.038455"/>
     <use style="fill:#1e90ff;stroke:#1e90ff;" x="128.90653" xlink:href="#m6ba20e8765" y="126.576577"/>
     <use style="fill:#1e90ff;stroke:#1e90ff;" x="129.412339" xlink:href="#m6ba20e8765" y="158.61439"/>
     <use style="fill:#1e90ff;stroke:#1e90ff;" x="129.928145" xlink:href="#m6ba20e8765" y="137.931751"/>
     <use style="fill:#1e90ff;stroke:#1e90ff;" x="130.451947" xlink:href="#m6ba20e8765" y="119.817544"/>
     <use style="fill:#1e90ff;stroke:#1e90ff;" x="130.985746" xlink:href="#m6ba20e8765" y="166.590048"/>
     <use style="fill:#1e90ff;stroke:#1e90ff;" x="131.527542" xlink:href="#m6ba20e8765" y="142.122351"/>
     <use style="fill:#1e90ff;stroke:#1e90ff;" x="132.078667" xlink:href="#m6ba20e8765" y="161.993906"/>
     <use style="fill:#1e90ff;stroke:#1e90ff;" x="132.639122" xlink:href="#m6ba20e8765" y="106.840202"/>
     <use style="fill:#1e90ff;stroke:#1e90ff;" x="133.208241" xlink:href="#m6ba20e8765" y="215.1199"/>
     <use style="fill:#1e90ff;stroke:#1e90ff;" x="133.786023" xlink:href="#m6ba20e8765" y="145.501867"/>
     <use style="fill:#1e90ff;stroke:#1e90ff;" x="134.372469" xlink:href="#m6ba20e8765" y="92.511054"/>
     <use style="fill:#1e90ff;stroke:#1e90ff;" x="134.968244" xlink:href="#m6ba20e8765" y="118.87128"/>
     <use style="fill:#1e90ff;stroke:#1e90ff;" x="135.572683" xlink:href="#m6ba20e8765" y="153.207164"/>
     <use style="fill:#1e90ff;stroke:#1e90ff;" x="136.185785" xlink:href="#m6ba20e8765" y="121.304532"/>
     <use style="fill:#1e90ff;stroke:#1e90ff;" x="136.807551" xlink:href="#m6ba20e8765" y="130.226454"/>
     <use style="fill:#1e90ff;stroke:#1e90ff;" x="137.438646" xlink:href="#m6ba20e8765" y="161.858725"/>
     <use style="fill:#1e90ff;stroke:#1e90ff;" x="138.077738" xlink:href="#m6ba20e8765" y="204.305448"/>
     <use style="fill:#1e90ff;stroke:#1e90ff;" x="138.726161" xlink:href="#m6ba20e8765" y="148.475841"/>
     <use style="fill:#1e90ff;stroke:#1e90ff;" x="139.38258" xlink:href="#m6ba20e8765" y="128.739467"/>
     <use style="fill:#1e90ff;stroke:#1e90ff;" x="140.047662" xlink:href="#m6ba20e8765" y="144.420422"/>
     <use style="fill:#1e90ff;stroke:#1e90ff;" x="140.722075" xlink:href="#m6ba20e8765" y="185.7857"/>
     <use style="fill:#1e90ff;stroke:#1e90ff;" x="141.404484" xlink:href="#m6ba20e8765" y="196.600151"/>
     <use style="fill:#1e90ff;stroke:#1e90ff;" x="142.095557" xlink:href="#m6ba20e8765" y="168.212216"/>
     <use style="fill:#1e90ff;stroke:#1e90ff;" x="142.795293" xlink:href="#m6ba20e8765" y="169.834383"/>
     <use style="fill:#1e90ff;stroke:#1e90ff;" x="143.503693" xlink:href="#m6ba20e8765" y="144.150061"/>
     <use style="fill:#1e90ff;stroke:#1e90ff;" x="144.220755" xlink:href="#m6ba20e8765" y="132.930067"/>
     <use style="fill:#1e90ff;stroke:#1e90ff;" x="144.945815" xlink:href="#m6ba20e8765" y="198.49268"/>
     <use style="fill:#1e90ff;stroke:#1e90ff;" x="145.679539" xlink:href="#m6ba20e8765" y="78.046725"/>
     <use style="fill:#1e90ff;stroke:#1e90ff;" x="146.421259" xlink:href="#m6ba20e8765" y="182.811725"/>
     <use style="fill:#1e90ff;stroke:#1e90ff;" x="147.171643" xlink:href="#m6ba20e8765" y="136.579945"/>
     <use style="fill:#1e90ff;stroke:#1e90ff;" x="147.93069" xlink:href="#m6ba20e8765" y="125.900674"/>
     <use style="fill:#1e90ff;stroke:#1e90ff;" x="148.697734" xlink:href="#m6ba20e8765" y="143.474158"/>
     <use style="fill:#1e90ff;stroke:#1e90ff;" x="149.473442" xlink:href="#m6ba20e8765" y="163.751254"/>
     <use style="fill:#1e90ff;stroke:#1e90ff;" x="150.25648" xlink:href="#m6ba20e8765" y="126.982119"/>
     <use style="fill:#1e90ff;stroke:#1e90ff;" x="151.048848" xlink:href="#m6ba20e8765" y="157.938487"/>
     <use style="fill:#1e90ff;stroke:#1e90ff;" x="151.848546" xlink:href="#m6ba20e8765" y="150.503551"/>
     <use style="fill:#1e90ff;stroke:#1e90ff;" x="152.656908" xlink:href="#m6ba20e8765" y="168.617758"/>
     <use style="fill:#1e90ff;stroke:#1e90ff;" x="153.473267" xlink:href="#m6ba20e8765" y="172.673177"/>
     <use style="fill:#1e90ff;stroke:#1e90ff;" x="154.298289" xlink:href="#m6ba20e8765" y="185.650519"/>
     <use style="fill:#1e90ff;stroke:#1e90ff;" x="155.130642" xlink:href="#m6ba20e8765" y="132.524525"/>
     <use style="fill:#1e90ff;stroke:#1e90ff;" x="155.970992" xlink:href="#m6ba20e8765" y="140.229822"/>
     <use style="fill:#1e90ff;stroke:#1e90ff;" x="156.820005" xlink:href="#m6ba20e8765" y="144.825964"/>
     <use style="fill:#1e90ff;stroke:#1e90ff;" x="157.676349" xlink:href="#m6ba20e8765" y="193.490996"/>
     <use style="fill:#1e90ff;stroke:#1e90ff;" x="158.541356" xlink:href="#m6ba20e8765" y="133.60597"/>
     <use style="fill:#1e90ff;stroke:#1e90ff;" x="159.413693" xlink:href="#m6ba20e8765" y="165.373422"/>
     <use style="fill:#1e90ff;stroke:#1e90ff;" x="160.294028" xlink:href="#m6ba20e8765" y="178.215584"/>
     <use style="fill:#1e90ff;stroke:#1e90ff;" x="161.18236" xlink:href="#m6ba20e8765" y="167.806674"/>
     <use style="fill:#1e90ff;stroke:#1e90ff;" x="162.078689" xlink:href="#m6ba20e8765" y="141.581628"/>
     <use style="fill:#1e90ff;stroke:#1e90ff;" x="162.982348" xlink:href="#m6ba20e8765" y="176.052693"/>
     <use style="fill:#1e90ff;stroke:#1e90ff;" x="163.894004" xlink:href="#m6ba20e8765" y="199.709306"/>
     <use style="fill:#1e90ff;stroke:#1e90ff;" x="164.813657" xlink:href="#m6ba20e8765" y="162.129087"/>
     <use style="fill:#1e90ff;stroke:#1e90ff;" x="165.740641" xlink:href="#m6ba20e8765" y="157.532945"/>
     <use style="fill:#1e90ff;stroke:#1e90ff;" x="166.675622" xlink:href="#m6ba20e8765" y="159.155112"/>
     <use style="fill:#1e90ff;stroke:#1e90ff;" x="167.617933" xlink:href="#m6ba20e8765" y="144.825964"/>
     <use style="fill:#1e90ff;stroke:#1e90ff;" x="168.567575" xlink:href="#m6ba20e8765" y="115.762125"/>
     <use style="fill:#1e90ff;stroke:#1e90ff;" x="169.525214" xlink:href="#m6ba20e8765" y="136.444764"/>
     <use style="fill:#1e90ff;stroke:#1e90ff;" x="170.490184" xlink:href="#m6ba20e8765" y="123.467422"/>
     <use style="fill:#1e90ff;stroke:#1e90ff;" x="171.462484" xlink:href="#m6ba20e8765" y="118.330557"/>
     <use style="fill:#1e90ff;stroke:#1e90ff;" x="172.442781" xlink:href="#m6ba20e8765" y="141.446448"/>
     <use style="fill:#1e90ff;stroke:#1e90ff;" x="173.429742" xlink:href="#m6ba20e8765" y="159.831016"/>
     <use style="fill:#1e90ff;stroke:#1e90ff;" x="174.4247" xlink:href="#m6ba20e8765" y="181.459919"/>
     <use style="fill:#1e90ff;stroke:#1e90ff;" x="175.426989" xlink:href="#m6ba20e8765" y="145.231506"/>
     <use style="fill:#1e90ff;stroke:#1e90ff;" x="176.435942" xlink:href="#m6ba20e8765" y="200.925932"/>
     <use style="fill:#1e90ff;stroke:#1e90ff;" x="177.452225" xlink:href="#m6ba20e8765" y="156.181138"/>
     <use style="fill:#1e90ff;stroke:#1e90ff;" x="178.476506" xlink:href="#m6ba20e8765" y="88.590815"/>
     <use style="fill:#1e90ff;stroke:#1e90ff;" x="179.506784" xlink:href="#m6ba20e8765" y="131.983803"/>
     <use style="fill:#1e90ff;stroke:#1e90ff;" x="180.545059" xlink:href="#m6ba20e8765" y="141.446448"/>
     <use style="fill:#1e90ff;stroke:#1e90ff;" x="181.589998" xlink:href="#m6ba20e8765" y="171.997274"/>
     <use style="fill:#1e90ff;stroke:#1e90ff;" x="182.642268" xlink:href="#m6ba20e8765" y="124.143325"/>
     <use style="fill:#1e90ff;stroke:#1e90ff;" x="183.701869" xlink:href="#m6ba20e8765" y="165.914145"/>
     <use style="fill:#1e90ff;stroke:#1e90ff;" x="184.768133" xlink:href="#m6ba20e8765" y="133.065248"/>
     <use style="fill:#1e90ff;stroke:#1e90ff;" x="185.841062" xlink:href="#m6ba20e8765" y="127.387661"/>
     <use style="fill:#1e90ff;stroke:#1e90ff;" x="186.921321" xlink:href="#m6ba20e8765" y="137.120667"/>
     <use style="fill:#1e90ff;stroke:#1e90ff;" x="188.008245" xlink:href="#m6ba20e8765" y="143.879699"/>
     <use style="fill:#1e90ff;stroke:#1e90ff;" x="189.101833" xlink:href="#m6ba20e8765" y="171.862093"/>
     <use style="fill:#1e90ff;stroke:#1e90ff;" x="190.202084" xlink:href="#m6ba20e8765" y="160.77728"/>
     <use style="fill:#1e90ff;stroke:#1e90ff;" x="191.309667" xlink:href="#m6ba20e8765" y="99.94599"/>
     <use style="fill:#1e90ff;stroke:#1e90ff;" x="192.423247" xlink:href="#m6ba20e8765" y="192.409551"/>
     <use style="fill:#1e90ff;stroke:#1e90ff;" x="193.543491" xlink:href="#m6ba20e8765" y="174.160164"/>
     <use style="fill:#1e90ff;stroke:#1e90ff;" x="194.671066" xlink:href="#m6ba20e8765" y="145.096325"/>
     <use style="fill:#1e90ff;stroke:#1e90ff;" x="195.804639" xlink:href="#m6ba20e8765" y="169.293661"/>
     <use style="fill:#1e90ff;stroke:#1e90ff;" x="196.944875" xlink:href="#m6ba20e8765" y="116.302848"/>
     <use style="fill:#1e90ff;stroke:#1e90ff;" x="198.091776" xlink:href="#m6ba20e8765" y="146.312951"/>
     <use style="fill:#1e90ff;stroke:#1e90ff;" x="199.244675" xlink:href="#m6ba20e8765" y="157.397764"/>
     <use style="fill:#1e90ff;stroke:#1e90ff;" x="200.404238" xlink:href="#m6ba20e8765" y="115.626944"/>
     <use style="fill:#1e90ff;stroke:#1e90ff;" x="201.569798" xlink:href="#m6ba20e8765" y="149.692467"/>
     <use style="fill:#1e90ff;stroke:#1e90ff;" x="202.742023" xlink:href="#m6ba20e8765" y="161.047641"/>
     <use style="fill:#1e90ff;stroke:#1e90ff;" x="203.920912" xlink:href="#m6ba20e8765" y="210.9293"/>
     <use style="fill:#1e90ff;stroke:#1e90ff;" x="205.105132" xlink:href="#m6ba20e8765" y="169.699203"/>
     <use style="fill:#1e90ff;stroke:#1e90ff;" x="206.296016" xlink:href="#m6ba20e8765" y="143.068616"/>
     <use style="fill:#1e90ff;stroke:#1e90ff;" x="207.492898" xlink:href="#m6ba20e8765" y="130.361635"/>
     <use style="fill:#1e90ff;stroke:#1e90ff;" x="208.696444" xlink:href="#m6ba20e8765" y="158.073667"/>
     <use style="fill:#1e90ff;stroke:#1e90ff;" x="209.905322" xlink:href="#m6ba20e8765" y="182.946906"/>
     <use style="fill:#1e90ff;stroke:#1e90ff;" x="211.120197" xlink:href="#m6ba20e8765" y="157.532945"/>
     <use style="fill:#1e90ff;stroke:#1e90ff;" x="212.34107" xlink:href="#m6ba20e8765" y="174.430525"/>
     <use style="fill:#1e90ff;stroke:#1e90ff;" x="213.567941" xlink:href="#m6ba20e8765" y="101.703338"/>
     <use style="fill:#1e90ff;stroke:#1e90ff;" x="214.800809" xlink:href="#m6ba20e8765" y="173.2139"/>
     <use style="fill:#1e90ff;stroke:#1e90ff;" x="216.039675" xlink:href="#m6ba20e8765" y="156.721861"/>
     <use style="fill:#1e90ff;stroke:#1e90ff;" x="217.283873" xlink:href="#m6ba20e8765" y="186.326422"/>
     <use style="fill:#1e90ff;stroke:#1e90ff;" x="218.534068" xlink:href="#m6ba20e8765" y="108.056828"/>
     <use style="fill:#1e90ff;stroke:#1e90ff;" x="219.789595" xlink:href="#m6ba20e8765" y="137.255848"/>
     <use style="fill:#1e90ff;stroke:#1e90ff;" x="221.051119" xlink:href="#m6ba20e8765" y="121.574893"/>
     <use style="fill:#1e90ff;stroke:#1e90ff;" x="222.317975" xlink:href="#m6ba20e8765" y="160.77728"/>
     <use style="fill:#1e90ff;stroke:#1e90ff;" x="223.590162" xlink:href="#m6ba20e8765" y="126.035854"/>
     <use style="fill:#1e90ff;stroke:#1e90ff;" x="224.868346" xlink:href="#m6ba20e8765" y="201.872197"/>
     <use style="fill:#1e90ff;stroke:#1e90ff;" x="226.151196" xlink:href="#m6ba20e8765" y="134.957777"/>
     <use style="fill:#1e90ff;stroke:#1e90ff;" x="227.440043" xlink:href="#m6ba20e8765" y="253.781565"/>
     <use style="fill:#1e90ff;stroke:#1e90ff;" x="228.734222" xlink:href="#m6ba20e8765" y="134.417054"/>
     <use style="fill:#1e90ff;stroke:#1e90ff;" x="230.033732" xlink:href="#m6ba20e8765" y="172.808358"/>
     <use style="fill:#1e90ff;stroke:#1e90ff;" x="231.337907" xlink:href="#m6ba20e8765" y="173.889803"/>
     <use style="fill:#1e90ff;stroke:#1e90ff;" x="232.647413" xlink:href="#m6ba20e8765" y="190.652203"/>
     <use style="fill:#1e90ff;stroke:#1e90ff;" x="233.962251" xlink:href="#m6ba20e8765" y="161.588364"/>
     <use style="fill:#1e90ff;stroke:#1e90ff;" x="235.28242" xlink:href="#m6ba20e8765" y="170.104745"/>
     <use style="fill:#1e90ff;stroke:#1e90ff;" x="236.607253" xlink:href="#m6ba20e8765" y="153.342345"/>
     <use style="fill:#1e90ff;stroke:#1e90ff;" x="237.937419" xlink:href="#m6ba20e8765" y="147.124035"/>
     <use style="fill:#1e90ff;stroke:#1e90ff;" x="239.272249" xlink:href="#m6ba20e8765" y="163.480893"/>
     <use style="fill:#1e90ff;stroke:#1e90ff;" x="240.611744" xlink:href="#m6ba20e8765" y="77.776364"/>
     <use style="fill:#1e90ff;stroke:#1e90ff;" x="241.95657" xlink:href="#m6ba20e8765" y="153.612706"/>
     <use style="fill:#1e90ff;stroke:#1e90ff;" x="243.306061" xlink:href="#m6ba20e8765" y="194.572442"/>
     <use style="fill:#1e90ff;stroke:#1e90ff;" x="244.660217" xlink:href="#m6ba20e8765" y="123.467422"/>
     <use style="fill:#1e90ff;stroke:#1e90ff;" x="246.019038" xlink:href="#m6ba20e8765" y="100.621893"/>
     <use style="fill:#1e90ff;stroke:#1e90ff;" x="247.382524" xlink:href="#m6ba20e8765" y="168.482577"/>
     <use style="fill:#1e90ff;stroke:#1e90ff;" x="248.750675" xlink:href="#m6ba20e8765" y="121.439712"/>
     <use style="fill:#1e90ff;stroke:#1e90ff;" x="250.122824" xlink:href="#m6ba20e8765" y="193.761358"/>
     <use style="fill:#1e90ff;stroke:#1e90ff;" x="251.499638" xlink:href="#m6ba20e8765" y="160.371738"/>
     <use style="fill:#1e90ff;stroke:#1e90ff;" x="252.881117" xlink:href="#m6ba20e8765" y="115.086222"/>
     <use style="fill:#1e90ff;stroke:#1e90ff;" x="254.267261" xlink:href="#m6ba20e8765" y="132.930067"/>
     <use style="fill:#1e90ff;stroke:#1e90ff;" x="255.657404" xlink:href="#m6ba20e8765" y="201.466655"/>
     <use style="fill:#1e90ff;stroke:#1e90ff;" x="257.051545" xlink:href="#m6ba20e8765" y="168.888119"/>
     <use style="fill:#1e90ff;stroke:#1e90ff;" x="258.450351" xlink:href="#m6ba20e8765" y="164.427158"/>
     <use style="fill:#1e90ff;stroke:#1e90ff;" x="259.853155" xlink:href="#m6ba20e8765" y="160.506919"/>
     <use style="fill:#1e90ff;stroke:#1e90ff;" x="261.259958" xlink:href="#m6ba20e8765" y="190.381842"/>
     <use style="fill:#1e90ff;stroke:#1e90ff;" x="262.670759" xlink:href="#m6ba20e8765" y="154.964512"/>
     <use style="fill:#1e90ff;stroke:#1e90ff;" x="264.085559" xlink:href="#m6ba20e8765" y="131.037538"/>
     <use style="fill:#1e90ff;stroke:#1e90ff;" x="265.504357" xlink:href="#m6ba20e8765" y="155.099693"/>
     <use style="fill:#1e90ff;stroke:#1e90ff;" x="266.927154" xlink:href="#m6ba20e8765" y="143.068616"/>
     <use style="fill:#1e90ff;stroke:#1e90ff;" x="268.35395" xlink:href="#m6ba20e8765" y="170.104745"/>
     <use style="fill:#1e90ff;stroke:#1e90ff;" x="269.784744" xlink:href="#m6ba20e8765" y="181.865461"/>
     <use style="fill:#1e90ff;stroke:#1e90ff;" x="271.218869" xlink:href="#m6ba20e8765" y="108.597551"/>
     <use style="fill:#1e90ff;stroke:#1e90ff;" x="272.656327" xlink:href="#m6ba20e8765" y="176.998958"/>
     <use style="fill:#1e90ff;stroke:#1e90ff;" x="274.097784" xlink:href="#m6ba20e8765" y="162.669809"/>
     <use style="fill:#1e90ff;stroke:#1e90ff;" x="275.543239" xlink:href="#m6ba20e8765" y="127.658022"/>
     <use style="fill:#1e90ff;stroke:#1e90ff;" x="276.99136" xlink:href="#m6ba20e8765" y="195.924248"/>
     <use style="fill:#1e90ff;stroke:#1e90ff;" x="278.443479" xlink:href="#m6ba20e8765" y="176.863777"/>
     <use style="fill:#1e90ff;stroke:#1e90ff;" x="279.89893" xlink:href="#m6ba20e8765" y="163.210532"/>
     <use style="fill:#1e90ff;stroke:#1e90ff;" x="281.357713" xlink:href="#m6ba20e8765" y="193.220635"/>
     <use style="fill:#1e90ff;stroke:#1e90ff;" x="282.819829" xlink:href="#m6ba20e8765" y="169.969564"/>
     <use style="fill:#1e90ff;stroke:#1e90ff;" x="284.285276" xlink:href="#m6ba20e8765" y="148.340661"/>
     <use style="fill:#1e90ff;stroke:#1e90ff;" x="285.753389" xlink:href="#m6ba20e8765" y="176.728596"/>
     <use style="fill:#1e90ff;stroke:#1e90ff;" x="287.225501" xlink:href="#m6ba20e8765" y="157.803306"/>
     <use style="fill:#1e90ff;stroke:#1e90ff;" x="288.700278" xlink:href="#m6ba20e8765" y="169.0233"/>
     <use style="fill:#1e90ff;stroke:#1e90ff;" x="290.177721" xlink:href="#m6ba20e8765" y="211.740384"/>
     <use style="fill:#1e90ff;stroke:#1e90ff;" x="291.658496" xlink:href="#m6ba20e8765" y="185.515338"/>
     <use style="fill:#1e90ff;stroke:#1e90ff;" x="293.141936" xlink:href="#m6ba20e8765" y="214.443997"/>
     <use style="fill:#1e90ff;stroke:#1e90ff;" x="294.628709" xlink:href="#m6ba20e8765" y="191.868829"/>
     <use style="fill:#1e90ff;stroke:#1e90ff;" x="296.118148" xlink:href="#m6ba20e8765" y="195.653887"/>
     <use style="fill:#1e90ff;stroke:#1e90ff;" x="297.609585" xlink:href="#m6ba20e8765" y="173.078719"/>
     <use style="fill:#1e90ff;stroke:#1e90ff;" x="299.104355" xlink:href="#m6ba20e8765" y="224.177003"/>
     <use style="fill:#1e90ff;stroke:#1e90ff;" x="300.60179" xlink:href="#m6ba20e8765" y="222.014113"/>
     <use style="fill:#1e90ff;stroke:#1e90ff;" x="302.101891" xlink:href="#m6ba20e8765" y="251.753855"/>
     <use style="fill:#1e90ff;stroke:#1e90ff;" x="303.604325" xlink:href="#m6ba20e8765" y="274.329023"/>
     <use style="fill:#1e90ff;stroke:#1e90ff;" x="305.109224" xlink:href="#m6ba20e8765" y="329.888268"/>
     <use style="fill:#1e90ff;stroke:#1e90ff;" x="306.616522" xlink:href="#m6ba20e8765" y="314.883216"/>
     <use style="fill:#1e90ff;stroke:#1e90ff;" x="308.126153" xlink:href="#m6ba20e8765" y="329.617907"/>
     <use style="fill:#1e90ff;stroke:#1e90ff;" x="309.638116" xlink:href="#m6ba20e8765" y="364.224152"/>
     <use style="fill:#1e90ff;stroke:#1e90ff;" x="311.152345" xlink:href="#m6ba20e8765" y="382.60872"/>
     <use style="fill:#1e90ff;stroke:#1e90ff;" x="312.668707" xlink:href="#m6ba20e8765" y="373.957159"/>
     <use style="fill:#1e90ff;stroke:#1e90ff;" x="314.187201" xlink:href="#m6ba20e8765" y="391.125101"/>
     <use style="fill:#1e90ff;stroke:#1e90ff;" x="315.707694" xlink:href="#m6ba20e8765" y="358.546565"/>
     <use style="fill:#1e90ff;stroke:#1e90ff;" x="317.230254" xlink:href="#m6ba20e8765" y="367.468488"/>
     <use style="fill:#1e90ff;stroke:#1e90ff;" x="318.754746" xlink:href="#m6ba20e8765" y="291.091423"/>
     <use style="fill:#1e90ff;stroke:#1e90ff;" x="320.28117" xlink:href="#m6ba20e8765" y="264.731197"/>
     <use style="fill:#1e90ff;stroke:#1e90ff;" x="321.809394" xlink:href="#m6ba20e8765" y="261.081319"/>
     <use style="fill:#1e90ff;stroke:#1e90ff;" x="323.339417" xlink:href="#m6ba20e8765" y="192.544732"/>
     <use style="fill:#1e90ff;stroke:#1e90ff;" x="324.871106" xlink:href="#m6ba20e8765" y="196.32979"/>
     <use style="fill:#1e90ff;stroke:#1e90ff;" x="326.404528" xlink:href="#m6ba20e8765" y="222.690016"/>
     <use style="fill:#1e90ff;stroke:#1e90ff;" x="327.939482" xlink:href="#m6ba20e8765" y="200.925932"/>
     <use style="fill:#1e90ff;stroke:#1e90ff;" x="329.476036" xlink:href="#m6ba20e8765" y="162.534629"/>
     <use style="fill:#1e90ff;stroke:#1e90ff;" x="331.014056" xlink:href="#m6ba20e8765" y="231.611939"/>
     <use style="fill:#1e90ff;stroke:#1e90ff;" x="332.553543" xlink:href="#m6ba20e8765" y="185.650519"/>
     <use style="fill:#1e90ff;stroke:#1e90ff;" x="334.094362" xlink:href="#m6ba20e8765" y="198.898222"/>
     <use style="fill:#1e90ff;stroke:#1e90ff;" x="335.636513" xlink:href="#m6ba20e8765" y="186.056061"/>
     <use style="fill:#1e90ff;stroke:#1e90ff;" x="337.179865" xlink:href="#m6ba20e8765" y="189.841119"/>
     <use style="fill:#1e90ff;stroke:#1e90ff;" x="338.724482" xlink:href="#m6ba20e8765" y="179.026667"/>
     <use style="fill:#1e90ff;stroke:#1e90ff;" x="340.270233" xlink:href="#m6ba20e8765" y="134.822596"/>
     <use style="fill:#1e90ff;stroke:#1e90ff;" x="341.81705" xlink:href="#m6ba20e8765" y="196.870513"/>
     <use style="fill:#1e90ff;stroke:#1e90ff;" x="343.364866" xlink:href="#m6ba20e8765" y="175.37679"/>
     <use style="fill:#1e90ff;stroke:#1e90ff;" x="344.913682" xlink:href="#m6ba20e8765" y="185.650519"/>
     <use style="fill:#1e90ff;stroke:#1e90ff;" x="346.463364" xlink:href="#m6ba20e8765" y="189.300396"/>
     <use style="fill:#1e90ff;stroke:#1e90ff;" x="348.01398" xlink:href="#m6ba20e8765" y="157.127403"/>
     <use style="fill:#1e90ff;stroke:#1e90ff;" x="349.565328" xlink:href="#m6ba20e8765" y="163.210532"/>
     <use style="fill:#1e90ff;stroke:#1e90ff;" x="351.117409" xlink:href="#m6ba20e8765" y="185.515338"/>
     <use style="fill:#1e90ff;stroke:#1e90ff;" x="352.670157" xlink:href="#m6ba20e8765" y="153.342345"/>
     <use style="fill:#1e90ff;stroke:#1e90ff;" x="354.223505" xlink:href="#m6ba20e8765" y="137.526209"/>
     <use style="fill:#1e90ff;stroke:#1e90ff;" x="355.777452" xlink:href="#m6ba20e8765" y="163.345712"/>
     <use style="fill:#1e90ff;stroke:#1e90ff;" x="357.331866" xlink:href="#m6ba20e8765" y="177.53968"/>
     <use style="fill:#1e90ff;stroke:#1e90ff;" x="358.886747" xlink:href="#m6ba20e8765" y="133.47079"/>
     <use style="fill:#1e90ff;stroke:#1e90ff;" x="360.44196" xlink:href="#m6ba20e8765" y="164.96788"/>
     <use style="fill:#1e90ff;stroke:#1e90ff;" x="361.997507" xlink:href="#m6ba20e8765" y="175.37679"/>
     <use style="fill:#1e90ff;stroke:#1e90ff;" x="363.553387" xlink:href="#m6ba20e8765" y="181.865461"/>
     <use style="fill:#1e90ff;stroke:#1e90ff;" x="365.1094" xlink:href="#m6ba20e8765" y="184.028351"/>
     <use style="fill:#1e90ff;stroke:#1e90ff;" x="366.665614" xlink:href="#m6ba20e8765" y="134.011512"/>
     <use style="fill:#1e90ff;stroke:#1e90ff;" x="368.221827" xlink:href="#m6ba20e8765" y="177.53968"/>
     <use style="fill:#1e90ff;stroke:#1e90ff;" x="369.778173" xlink:href="#m6ba20e8765" y="139.82428"/>
     <use style="fill:#1e90ff;stroke:#1e90ff;" x="371.334386" xlink:href="#m6ba20e8765" y="123.06188"/>
     <use style="fill:#1e90ff;stroke:#1e90ff;" x="372.8906" xlink:href="#m6ba20e8765" y="138.742835"/>
     <use style="fill:#1e90ff;stroke:#1e90ff;" x="374.446613" xlink:href="#m6ba20e8765" y="152.260899"/>
     <use style="fill:#1e90ff;stroke:#1e90ff;" x="376.002493" xlink:href="#m6ba20e8765" y="147.529577"/>
     <use style="fill:#1e90ff;stroke:#1e90ff;" x="377.55804" xlink:href="#m6ba20e8765" y="178.621125"/>
     <use style="fill:#1e90ff;stroke:#1e90ff;" x="379.113253" xlink:href="#m6ba20e8765" y="150.909093"/>
     <use style="fill:#1e90ff;stroke:#1e90ff;" x="380.668134" xlink:href="#m6ba20e8765" y="195.518706"/>
     <use style="fill:#1e90ff;stroke:#1e90ff;" x="382.222548" xlink:href="#m6ba20e8765" y="172.132454"/>
     <use style="fill:#1e90ff;stroke:#1e90ff;" x="383.776495" xlink:href="#m6ba20e8765" y="175.37679"/>
     <use style="fill:#1e90ff;stroke:#1e90ff;" x="385.329843" xlink:href="#m6ba20e8765" y="144.555603"/>
     <use style="fill:#1e90ff;stroke:#1e90ff;" x="386.882591" xlink:href="#m6ba20e8765" y="187.543048"/>
     <use style="fill:#1e90ff;stroke:#1e90ff;" x="388.434672" xlink:href="#m6ba20e8765" y="136.850306"/>
     <use style="fill:#1e90ff;stroke:#1e90ff;" x="389.98602" xlink:href="#m6ba20e8765" y="204.846171"/>
     <use style="fill:#1e90ff;stroke:#1e90ff;" x="391.536636" xlink:href="#m6ba20e8765" y="160.371738"/>
     <use style="fill:#1e90ff;stroke:#1e90ff;" x="393.086318" xlink:href="#m6ba20e8765" y="152.260899"/>
     <use style="fill:#1e90ff;stroke:#1e90ff;" x="394.635134" xlink:href="#m6ba20e8765" y="156.181138"/>
     <use style="fill:#1e90ff;stroke:#1e90ff;" x="396.18295" xlink:href="#m6ba20e8765" y="140.905725"/>
     <use style="fill:#1e90ff;stroke:#1e90ff;" x="397.729767" xlink:href="#m6ba20e8765" y="148.611022"/>
     <use style="fill:#1e90ff;stroke:#1e90ff;" x="399.275518" xlink:href="#m6ba20e8765" y="165.508603"/>
     <use style="fill:#1e90ff;stroke:#1e90ff;" x="400.820135" xlink:href="#m6ba20e8765" y="154.018248"/>
     <use style="fill:#1e90ff;stroke:#1e90ff;" x="402.363487" xlink:href="#m6ba20e8765" y="101.703338"/>
     <use style="fill:#1e90ff;stroke:#1e90ff;" x="403.905638" xlink:href="#m6ba20e8765" y="133.335609"/>
     <use style="fill:#1e90ff;stroke:#1e90ff;" x="405.446457" xlink:href="#m6ba20e8765" y="183.352448"/>
     <use style="fill:#1e90ff;stroke:#1e90ff;" x="406.985944" xlink:href="#m6ba20e8765" y="161.723545"/>
     <use style="fill:#1e90ff;stroke:#1e90ff;" x="408.523964" xlink:href="#m6ba20e8765" y="123.737783"/>
     <use style="fill:#1e90ff;stroke:#1e90ff;" x="410.060518" xlink:href="#m6ba20e8765" y="156.4515"/>
     <use style="fill:#1e90ff;stroke:#1e90ff;" x="411.595472" xlink:href="#m6ba20e8765" y="148.475841"/>
     <use style="fill:#1e90ff;stroke:#1e90ff;" x="413.128894" xlink:href="#m6ba20e8765" y="205.522074"/>
     <use style="fill:#1e90ff;stroke:#1e90ff;" x="414.660583" xlink:href="#m6ba20e8765" y="156.4515"/>
     <use style="fill:#1e90ff;stroke:#1e90ff;" x="416.190606" xlink:href="#m6ba20e8765" y="160.101377"/>
     <use style="fill:#1e90ff;stroke:#1e90ff;" x="417.71883" xlink:href="#m6ba20e8765" y="98.188641"/>
     <use style="fill:#1e90ff;stroke:#1e90ff;" x="419.245254" xlink:href="#m6ba20e8765" y="219.040139"/>
     <use style="fill:#1e90ff;stroke:#1e90ff;" x="420.769746" xlink:href="#m6ba20e8765" y="157.262583"/>
     <use style="fill:#1e90ff;stroke:#1e90ff;" x="422.292306" xlink:href="#m6ba20e8765" y="196.32979"/>
     <use style="fill:#1e90ff;stroke:#1e90ff;" x="423.812799" xlink:href="#m6ba20e8765" y="189.841119"/>
     <use style="fill:#1e90ff;stroke:#1e90ff;" x="425.331293" xlink:href="#m6ba20e8765" y="221.608571"/>
     <use style="fill:#1e90ff;stroke:#1e90ff;" x="426.847655" xlink:href="#m6ba20e8765" y="122.385977"/>
     <use style="fill:#1e90ff;stroke:#1e90ff;" x="428.361884" xlink:href="#m6ba20e8765" y="143.338977"/>
     <use style="fill:#1e90ff;stroke:#1e90ff;" x="429.873847" xlink:href="#m6ba20e8765" y="168.077035"/>
     <use style="fill:#1e90ff;stroke:#1e90ff;" x="431.383478" xlink:href="#m6ba20e8765" y="140.229822"/>
     <use style="fill:#1e90ff;stroke:#1e90ff;" x="432.890776" xlink:href="#m6ba20e8765" y="154.964512"/>
     <use style="fill:#1e90ff;stroke:#1e90ff;" x="434.395675" xlink:href="#m6ba20e8765" y="179.297029"/>
     <use style="fill:#1e90ff;stroke:#1e90ff;" x="435.898109" xlink:href="#m6ba20e8765" y="186.326422"/>
     <use style="fill:#1e90ff;stroke:#1e90ff;" x="437.39821" xlink:href="#m6ba20e8765" y="208.360868"/>
     <use style="fill:#1e90ff;stroke:#1e90ff;" x="438.895645" xlink:href="#m6ba20e8765" y="146.988854"/>
     <use style="fill:#1e90ff;stroke:#1e90ff;" x="440.390415" xlink:href="#m6ba20e8765" y="177.945222"/>
     <use style="fill:#1e90ff;stroke:#1e90ff;" x="441.881852" xlink:href="#m6ba20e8765" y="144.285241"/>
     <use style="fill:#1e90ff;stroke:#1e90ff;" x="443.371291" xlink:href="#m6ba20e8765" y="175.782332"/>
     <use style="fill:#1e90ff;stroke:#1e90ff;" x="444.858064" xlink:href="#m6ba20e8765" y="204.035087"/>
     <use style="fill:#1e90ff;stroke:#1e90ff;" x="446.341504" xlink:href="#m6ba20e8765" y="225.66399"/>
     <use style="fill:#1e90ff;stroke:#1e90ff;" x="447.822279" xlink:href="#m6ba20e8765" y="232.287842"/>
     <use style="fill:#1e90ff;stroke:#1e90ff;" x="449.299722" xlink:href="#m6ba20e8765" y="170.645467"/>
     <use style="fill:#1e90ff;stroke:#1e90ff;" x="450.774499" xlink:href="#m6ba20e8765" y="201.872197"/>
     <use style="fill:#1e90ff;stroke:#1e90ff;" x="452.246611" xlink:href="#m6ba20e8765" y="234.856274"/>
     <use style="fill:#1e90ff;stroke:#1e90ff;" x="453.714724" xlink:href="#m6ba20e8765" y="174.295345"/>
     <use style="fill:#1e90ff;stroke:#1e90ff;" x="455.180171" xlink:href="#m6ba20e8765" y="227.286158"/>
     <use style="fill:#1e90ff;stroke:#1e90ff;" x="456.642287" xlink:href="#m6ba20e8765" y="198.3575"/>
     <use style="fill:#1e90ff;stroke:#1e90ff;" x="458.10107" xlink:href="#m6ba20e8765" y="266.894087"/>
     <use style="fill:#1e90ff;stroke:#1e90ff;" x="459.556521" xlink:href="#m6ba20e8765" y="218.093874"/>
     <use style="fill:#1e90ff;stroke:#1e90ff;" x="461.00864" xlink:href="#m6ba20e8765" y="281.493597"/>
     <use style="fill:#1e90ff;stroke:#1e90ff;" x="462.456761" xlink:href="#m6ba20e8765" y="269.462519"/>
     <use style="fill:#1e90ff;stroke:#1e90ff;" x="463.902216" xlink:href="#m6ba20e8765" y="348.002475"/>
     <use style="fill:#1e90ff;stroke:#1e90ff;" x="465.343673" xlink:href="#m6ba20e8765" y="372.06463"/>
     <use style="fill:#1e90ff;stroke:#1e90ff;" x="466.781131" xlink:href="#m6ba20e8765" y="363.68343"/>
     <use style="fill:#1e90ff;stroke:#1e90ff;" x="468.215256" xlink:href="#m6ba20e8765" y="417.350146"/>
     <use style="fill:#1e90ff;stroke:#1e90ff;" x="469.64605" xlink:href="#m6ba20e8765" y="423.703636"/>
     <use style="fill:#1e90ff;stroke:#1e90ff;" x="471.072846" xlink:href="#m6ba20e8765" y="367.333307"/>
     <use style="fill:#1e90ff;stroke:#1e90ff;" x="472.495643" xlink:href="#m6ba20e8765" y="395.586062"/>
     <use style="fill:#1e90ff;stroke:#1e90ff;" x="473.914441" xlink:href="#m6ba20e8765" y="378.553301"/>
     <use style="fill:#1e90ff;stroke:#1e90ff;" x="475.329241" xlink:href="#m6ba20e8765" y="317.857191"/>
     <use style="fill:#1e90ff;stroke:#1e90ff;" x="476.740042" xlink:href="#m6ba20e8765" y="330.564171"/>
     <use style="fill:#1e90ff;stroke:#1e90ff;" x="478.146845" xlink:href="#m6ba20e8765" y="235.667358"/>
     <use style="fill:#1e90ff;stroke:#1e90ff;" x="479.549649" xlink:href="#m6ba20e8765" y="235.667358"/>
     <use style="fill:#1e90ff;stroke:#1e90ff;" x="480.948455" xlink:href="#m6ba20e8765" y="223.365919"/>
     <use style="fill:#1e90ff;stroke:#1e90ff;" x="482.342596" xlink:href="#m6ba20e8765" y="255.133371"/>
     <use style="fill:#1e90ff;stroke:#1e90ff;" x="483.732739" xlink:href="#m6ba20e8765" y="197.951958"/>
     <use style="fill:#1e90ff;stroke:#1e90ff;" x="485.118883" xlink:href="#m6ba20e8765" y="197.951958"/>
     <use style="fill:#1e90ff;stroke:#1e90ff;" x="486.500362" xlink:href="#m6ba20e8765" y="164.697519"/>
     <use style="fill:#1e90ff;stroke:#1e90ff;" x="487.877176" xlink:href="#m6ba20e8765" y="188.218951"/>
     <use style="fill:#1e90ff;stroke:#1e90ff;" x="489.249325" xlink:href="#m6ba20e8765" y="175.241609"/>
     <use style="fill:#1e90ff;stroke:#1e90ff;" x="490.617476" xlink:href="#m6ba20e8765" y="156.045958"/>
     <use style="fill:#1e90ff;stroke:#1e90ff;" x="491.980962" xlink:href="#m6ba20e8765" y="216.201345"/>
     <use style="fill:#1e90ff;stroke:#1e90ff;" x="493.339783" xlink:href="#m6ba20e8765" y="175.106429"/>
     <use style="fill:#1e90ff;stroke:#1e90ff;" x="494.693939" xlink:href="#m6ba20e8765" y="150.503551"/>
     <use style="fill:#1e90ff;stroke:#1e90ff;" x="496.04343" xlink:href="#m6ba20e8765" y="120.223086"/>
     <use style="fill:#1e90ff;stroke:#1e90ff;" x="497.388256" xlink:href="#m6ba20e8765" y="124.954409"/>
     <use style="fill:#1e90ff;stroke:#1e90ff;" x="498.727751" xlink:href="#m6ba20e8765" y="144.420422"/>
     <use style="fill:#1e90ff;stroke:#1e90ff;" x="500.062581" xlink:href="#m6ba20e8765" y="143.879699"/>
     <use style="fill:#1e90ff;stroke:#1e90ff;" x="501.392747" xlink:href="#m6ba20e8765" y="148.20548"/>
     <use style="fill:#1e90ff;stroke:#1e90ff;" x="502.71758" xlink:href="#m6ba20e8765" y="195.924248"/>
     <use style="fill:#1e90ff;stroke:#1e90ff;" x="504.037749" xlink:href="#m6ba20e8765" y="134.011512"/>
     <use style="fill:#1e90ff;stroke:#1e90ff;" x="505.352587" xlink:href="#m6ba20e8765" y="120.89899"/>
     <use style="fill:#1e90ff;stroke:#1e90ff;" x="506.662093" xlink:href="#m6ba20e8765" y="161.318003"/>
     <use style="fill:#1e90ff;stroke:#1e90ff;" x="507.966268" xlink:href="#m6ba20e8765" y="116.167667"/>
     <use style="fill:#1e90ff;stroke:#1e90ff;" x="509.265778" xlink:href="#m6ba20e8765" y="163.480893"/>
     <use style="fill:#1e90ff;stroke:#1e90ff;" x="510.559957" xlink:href="#m6ba20e8765" y="148.475841"/>
     <use style="fill:#1e90ff;stroke:#1e90ff;" x="511.848804" xlink:href="#m6ba20e8765" y="159.155112"/>
     <use style="fill:#1e90ff;stroke:#1e90ff;" x="513.131654" xlink:href="#m6ba20e8765" y="171.321371"/>
     <use style="fill:#1e90ff;stroke:#1e90ff;" x="514.409838" xlink:href="#m6ba20e8765" y="174.700887"/>
     <use style="fill:#1e90ff;stroke:#1e90ff;" x="515.682025" xlink:href="#m6ba20e8765" y="213.768093"/>
     <use style="fill:#1e90ff;stroke:#1e90ff;" x="516.948881" xlink:href="#m6ba20e8765" y="204.846171"/>
     <use style="fill:#1e90ff;stroke:#1e90ff;" x="518.210405" xlink:href="#m6ba20e8765" y="100.08117"/>
     <use style="fill:#1e90ff;stroke:#1e90ff;" x="519.465932" xlink:href="#m6ba20e8765" y="152.260899"/>
     <use style="fill:#1e90ff;stroke:#1e90ff;" x="520.716127" xlink:href="#m6ba20e8765" y="141.446448"/>
     <use style="fill:#1e90ff;stroke:#1e90ff;" x="521.960325" xlink:href="#m6ba20e8765" y="159.290293"/>
     <use style="fill:#1e90ff;stroke:#1e90ff;" x="523.199191" xlink:href="#m6ba20e8765" y="109.543815"/>
     <use style="fill:#1e90ff;stroke:#1e90ff;" x="524.432059" xlink:href="#m6ba20e8765" y="187.813409"/>
     <use style="fill:#1e90ff;stroke:#1e90ff;" x="525.65893" xlink:href="#m6ba20e8765" y="171.726913"/>
     <use style="fill:#1e90ff;stroke:#1e90ff;" x="526.879803" xlink:href="#m6ba20e8765" y="116.70839"/>
     <use style="fill:#1e90ff;stroke:#1e90ff;" x="528.094678" xlink:href="#m6ba20e8765" y="140.365003"/>
     <use style="fill:#1e90ff;stroke:#1e90ff;" x="529.303556" xlink:href="#m6ba20e8765" y="146.448132"/>
     <use style="fill:#1e90ff;stroke:#1e90ff;" x="530.507102" xlink:href="#m6ba20e8765" y="162.129087"/>
     <use style="fill:#1e90ff;stroke:#1e90ff;" x="531.703984" xlink:href="#m6ba20e8765" y="141.581628"/>
     <use style="fill:#1e90ff;stroke:#1e90ff;" x="532.894868" xlink:href="#m6ba20e8765" y="135.63368"/>
     <use style="fill:#1e90ff;stroke:#1e90ff;" x="534.079088" xlink:href="#m6ba20e8765" y="169.428842"/>
     <use style="fill:#1e90ff;stroke:#1e90ff;" x="535.257977" xlink:href="#m6ba20e8765" y="175.241609"/>
     <use style="fill:#1e90ff;stroke:#1e90ff;" x="536.430202" xlink:href="#m6ba20e8765" y="131.983803"/>
     <use style="fill:#1e90ff;stroke:#1e90ff;" x="537.595762" xlink:href="#m6ba20e8765" y="114.004777"/>
     <use style="fill:#1e90ff;stroke:#1e90ff;" x="538.755325" xlink:href="#m6ba20e8765" y="122.926699"/>
     <use style="fill:#1e90ff;stroke:#1e90ff;" x="539.908224" xlink:href="#m6ba20e8765" y="159.831016"/>
     <use style="fill:#1e90ff;stroke:#1e90ff;" x="541.055125" xlink:href="#m6ba20e8765" y="169.834383"/>
     <use style="fill:#1e90ff;stroke:#1e90ff;" x="542.195361" xlink:href="#m6ba20e8765" y="129.685732"/>
     <use style="fill:#1e90ff;stroke:#1e90ff;" x="543.328934" xlink:href="#m6ba20e8765" y="164.8327"/>
     <use style="fill:#1e90ff;stroke:#1e90ff;" x="544.456509" xlink:href="#m6ba20e8765" y="99.270086"/>
     <use style="fill:#1e90ff;stroke:#1e90ff;" x="545.576753" xlink:href="#m6ba20e8765" y="151.449816"/>
     <use style="fill:#1e90ff;stroke:#1e90ff;" x="546.690333" xlink:href="#m6ba20e8765" y="150.23319"/>
     <use style="fill:#1e90ff;stroke:#1e90ff;" x="547.797916" xlink:href="#m6ba20e8765" y="144.961145"/>
     <use style="fill:#1e90ff;stroke:#1e90ff;" x="548.898167" xlink:href="#m6ba20e8765" y="104.406951"/>
     <use style="fill:#1e90ff;stroke:#1e90ff;" x="549.991755" xlink:href="#m6ba20e8765" y="193.355816"/>
     <use style="fill:#1e90ff;stroke:#1e90ff;" x="551.078679" xlink:href="#m6ba20e8765" y="207.955326"/>
     <use style="fill:#1e90ff;stroke:#1e90ff;" x="552.158938" xlink:href="#m6ba20e8765" y="175.647151"/>
     <use style="fill:#1e90ff;stroke:#1e90ff;" x="553.231867" xlink:href="#m6ba20e8765" y="139.82428"/>
     <use style="fill:#1e90ff;stroke:#1e90ff;" x="554.298131" xlink:href="#m6ba20e8765" y="138.472474"/>
     <use style="fill:#1e90ff;stroke:#1e90ff;" x="555.357732" xlink:href="#m6ba20e8765" y="154.288609"/>
     <use style="fill:#1e90ff;stroke:#1e90ff;" x="556.410002" xlink:href="#m6ba20e8765" y="170.375106"/>
     <use style="fill:#1e90ff;stroke:#1e90ff;" x="557.454941" xlink:href="#m6ba20e8765" y="110.49008"/>
     <use style="fill:#1e90ff;stroke:#1e90ff;" x="558.493216" xlink:href="#m6ba20e8765" y="151.314635"/>
     <use style="fill:#1e90ff;stroke:#1e90ff;" x="559.523494" xlink:href="#m6ba20e8765" y="156.181138"/>
     <use style="fill:#1e90ff;stroke:#1e90ff;" x="560.547775" xlink:href="#m6ba20e8765" y="178.756306"/>
     <use style="fill:#1e90ff;stroke:#1e90ff;" x="561.564058" xlink:href="#m6ba20e8765" y="171.051009"/>
     <use style="fill:#1e90ff;stroke:#1e90ff;" x="562.573011" xlink:href="#m6ba20e8765" y="161.993906"/>
     <use style="fill:#1e90ff;stroke:#1e90ff;" x="563.5753" xlink:href="#m6ba20e8765" y="128.604286"/>
     <use style="fill:#1e90ff;stroke:#1e90ff;" x="564.570258" xlink:href="#m6ba20e8765" y="140.635364"/>
     <use style="fill:#1e90ff;stroke:#1e90ff;" x="565.557219" xlink:href="#m6ba20e8765" y="164.291977"/>
     <use style="fill:#1e90ff;stroke:#1e90ff;" x="566.537516" xlink:href="#m6ba20e8765" y="124.548867"/>
     <use style="fill:#1e90ff;stroke:#1e90ff;" x="567.509816" xlink:href="#m6ba20e8765" y="96.836835"/>
     <use style="fill:#1e90ff;stroke:#1e90ff;" x="568.474786" xlink:href="#m6ba20e8765" y="165.914145"/>
     <use style="fill:#1e90ff;stroke:#1e90ff;" x="569.432425" xlink:href="#m6ba20e8765" y="176.458235"/>
     <use style="fill:#1e90ff;stroke:#1e90ff;" x="570.382067" xlink:href="#m6ba20e8765" y="182.271003"/>
     <use style="fill:#1e90ff;stroke:#1e90ff;" x="571.324378" xlink:href="#m6ba20e8765" y="171.456551"/>
     <use style="fill:#1e90ff;stroke:#1e90ff;" x="572.259359" xlink:href="#m6ba20e8765" y="171.591732"/>
     <use style="fill:#1e90ff;stroke:#1e90ff;" x="573.186343" xlink:href="#m6ba20e8765" y="182.000642"/>
     <use style="fill:#1e90ff;stroke:#1e90ff;" x="574.105996" xlink:href="#m6ba20e8765" y="141.85199"/>
     <use style="fill:#1e90ff;stroke:#1e90ff;" x="575.017652" xlink:href="#m6ba20e8765" y="165.373422"/>
     <use style="fill:#1e90ff;stroke:#1e90ff;" x="575.921311" xlink:href="#m6ba20e8765" y="196.870513"/>
     <use style="fill:#1e90ff;stroke:#1e90ff;" x="576.81764" xlink:href="#m6ba20e8765" y="171.321371"/>
     <use style="fill:#1e90ff;stroke:#1e90ff;" x="577.705972" xlink:href="#m6ba20e8765" y="180.243293"/>
     <use style="fill:#1e90ff;stroke:#1e90ff;" x="578.586307" xlink:href="#m6ba20e8765" y="157.397764"/>
     <use style="fill:#1e90ff;stroke:#1e90ff;" x="579.458644" xlink:href="#m6ba20e8765" y="182.676545"/>
     <use style="fill:#1e90ff;stroke:#1e90ff;" x="580.323651" xlink:href="#m6ba20e8765" y="120.493448"/>
     <use style="fill:#1e90ff;stroke:#1e90ff;" x="581.179995" xlink:href="#m6ba20e8765" y="147.124035"/>
     <use style="fill:#1e90ff;stroke:#1e90ff;" x="582.029008" xlink:href="#m6ba20e8765" y="132.794886"/>
     <use style="fill:#1e90ff;stroke:#1e90ff;" x="582.869358" xlink:href="#m6ba20e8765" y="185.109796"/>
     <use style="fill:#1e90ff;stroke:#1e90ff;" x="583.701711" xlink:href="#m6ba20e8765" y="93.72768"/>
     <use style="fill:#1e90ff;stroke:#1e90ff;" x="584.526733" xlink:href="#m6ba20e8765" y="97.91828"/>
     <use style="fill:#1e90ff;stroke:#1e90ff;" x="585.343092" xlink:href="#m6ba20e8765" y="133.065248"/>
     <use style="fill:#1e90ff;stroke:#1e90ff;" x="586.151454" xlink:href="#m6ba20e8765" y="137.931751"/>
     <use style="fill:#1e90ff;stroke:#1e90ff;" x="586.951152" xlink:href="#m6ba20e8765" y="157.938487"/>
     <use style="fill:#1e90ff;stroke:#1e90ff;" x="587.74352" xlink:href="#m6ba20e8765" y="136.579945"/>
     <use style="fill:#1e90ff;stroke:#1e90ff;" x="588.526558" xlink:href="#m6ba20e8765" y="146.448132"/>
     <use style="fill:#1e90ff;stroke:#1e90ff;" x="589.302266" xlink:href="#m6ba20e8765" y="132.659706"/>
     <use style="fill:#1e90ff;stroke:#1e90ff;" x="590.06931" xlink:href="#m6ba20e8765" y="168.482577"/>
     <use style="fill:#1e90ff;stroke:#1e90ff;" x="590.828357" xlink:href="#m6ba20e8765" y="157.938487"/>
     <use style="fill:#1e90ff;stroke:#1e90ff;" x="591.578741" xlink:href="#m6ba20e8765" y="206.468338"/>
     <use style="fill:#1e90ff;stroke:#1e90ff;" x="592.320461" xlink:href="#m6ba20e8765" y="93.457319"/>
     <use style="fill:#1e90ff;stroke:#1e90ff;" x="593.054185" xlink:href="#m6ba20e8765" y="91.024067"/>
     <use style="fill:#1e90ff;stroke:#1e90ff;" x="593.779245" xlink:href="#m6ba20e8765" y="119.682364"/>
     <use style="fill:#1e90ff;stroke:#1e90ff;" x="594.496307" xlink:href="#m6ba20e8765" y="154.829332"/>
     <use style="fill:#1e90ff;stroke:#1e90ff;" x="595.204707" xlink:href="#m6ba20e8765" y="116.84357"/>
     <use style="fill:#1e90ff;stroke:#1e90ff;" x="595.904443" xlink:href="#m6ba20e8765" y="192.004009"/>
     <use style="fill:#1e90ff;stroke:#1e90ff;" x="596.595516" xlink:href="#m6ba20e8765" y="148.475841"/>
     <use style="fill:#1e90ff;stroke:#1e90ff;" x="597.277925" xlink:href="#m6ba20e8765" y="179.432209"/>
     <use style="fill:#1e90ff;stroke:#1e90ff;" x="597.952338" xlink:href="#m6ba20e8765" y="196.600151"/>
     <use style="fill:#1e90ff;stroke:#1e90ff;" x="598.61742" xlink:href="#m6ba20e8765" y="155.099693"/>
     <use style="fill:#1e90ff;stroke:#1e90ff;" x="599.273839" xlink:href="#m6ba20e8765" y="111.301164"/>
     <use style="fill:#1e90ff;stroke:#1e90ff;" x="599.922262" xlink:href="#m6ba20e8765" y="118.600919"/>
     <use style="fill:#1e90ff;stroke:#1e90ff;" x="600.561354" xlink:href="#m6ba20e8765" y="148.881383"/>
     <use style="fill:#1e90ff;stroke:#1e90ff;" x="601.192449" xlink:href="#m6ba20e8765" y="152.936803"/>
     <use style="fill:#1e90ff;stroke:#1e90ff;" x="601.814215" xlink:href="#m6ba20e8765" y="145.366687"/>
     <use style="fill:#1e90ff;stroke:#1e90ff;" x="602.427317" xlink:href="#m6ba20e8765" y="128.469106"/>
     <use style="fill:#1e90ff;stroke:#1e90ff;" x="603.031756" xlink:href="#m6ba20e8765" y="171.321371"/>
     <use style="fill:#1e90ff;stroke:#1e90ff;" x="603.627531" xlink:href="#m6ba20e8765" y="190.787384"/>
     <use style="fill:#1e90ff;stroke:#1e90ff;" x="604.213977" xlink:href="#m6ba20e8765" y="129.41537"/>
     <use style="fill:#1e90ff;stroke:#1e90ff;" x="604.791759" xlink:href="#m6ba20e8765" y="138.337293"/>
     <use style="fill:#1e90ff;stroke:#1e90ff;" x="605.360878" xlink:href="#m6ba20e8765" y="122.521157"/>
     <use style="fill:#1e90ff;stroke:#1e90ff;" x="605.921333" xlink:href="#m6ba20e8765" y="190.246661"/>
     <use style="fill:#1e90ff;stroke:#1e90ff;" x="606.472458" xlink:href="#m6ba20e8765" y="149.286925"/>
     <use style="fill:#1e90ff;stroke:#1e90ff;" x="607.014254" xlink:href="#m6ba20e8765" y="191.868829"/>
     <use style="fill:#1e90ff;stroke:#1e90ff;" x="607.548053" xlink:href="#m6ba20e8765" y="125.630312"/>
     <use style="fill:#1e90ff;stroke:#1e90ff;" x="608.071855" xlink:href="#m6ba20e8765" y="149.151745"/>
     <use style="fill:#1e90ff;stroke:#1e90ff;" x="608.587661" xlink:href="#m6ba20e8765" y="145.637048"/>
     <use style="fill:#1e90ff;stroke:#1e90ff;" x="609.09347" xlink:href="#m6ba20e8765" y="191.598467"/>
     <use style="fill:#1e90ff;stroke:#1e90ff;" x="609.590616" xlink:href="#m6ba20e8765" y="142.527893"/>
     <use style="fill:#1e90ff;stroke:#1e90ff;" x="610.079098" xlink:href="#m6ba20e8765" y="112.112248"/>
     <use style="fill:#1e90ff;stroke:#1e90ff;" x="610.558251" xlink:href="#m6ba20e8765" y="143.474158"/>
     <use style="fill:#1e90ff;stroke:#1e90ff;" x="611.028074" xlink:href="#m6ba20e8765" y="180.919196"/>
     <use style="fill:#1e90ff;stroke:#1e90ff;" x="611.489233" xlink:href="#m6ba20e8765" y="145.907409"/>
     <use style="fill:#1e90ff;stroke:#1e90ff;" x="611.941063" xlink:href="#m6ba20e8765" y="124.548867"/>
     <use style="fill:#1e90ff;stroke:#1e90ff;" x="612.383563" xlink:href="#m6ba20e8765" y="125.630312"/>
     <use style="fill:#1e90ff;stroke:#1e90ff;" x="612.816733" xlink:href="#m6ba20e8765" y="158.479209"/>
     <use style="fill:#1e90ff;stroke:#1e90ff;" x="613.24124" xlink:href="#m6ba20e8765" y="174.836067"/>
     <use style="fill:#1e90ff;stroke:#1e90ff;" x="613.656416" xlink:href="#m6ba20e8765" y="168.212216"/>
     <use style="fill:#1e90ff;stroke:#1e90ff;" x="614.062263" xlink:href="#m6ba20e8765" y="115.897306"/>
     <use style="fill:#1e90ff;stroke:#1e90ff;" x="614.45878" xlink:href="#m6ba20e8765" y="185.109796"/>
     <use style="fill:#1e90ff;stroke:#1e90ff;" x="614.845968" xlink:href="#m6ba20e8765" y="159.695835"/>
     <use style="fill:#1e90ff;stroke:#1e90ff;" x="615.224492" xlink:href="#m6ba20e8765" y="177.4045"/>
     <use style="fill:#1e90ff;stroke:#1e90ff;" x="615.593019" xlink:href="#m6ba20e8765" y="111.165983"/>
     <use style="fill:#1e90ff;stroke:#1e90ff;" x="615.952884" xlink:href="#m6ba20e8765" y="127.658022"/>
     <use style="fill:#1e90ff;stroke:#1e90ff;" x="616.303418" xlink:href="#m6ba20e8765" y="148.881383"/>
     <use style="fill:#1e90ff;stroke:#1e90ff;" x="616.643956" xlink:href="#m6ba20e8765" y="159.155112"/>
     <use style="fill:#1e90ff;stroke:#1e90ff;" x="616.975831" xlink:href="#m6ba20e8765" y="169.699203"/>
     <use style="fill:#1e90ff;stroke:#1e90ff;" x="617.298376" xlink:href="#m6ba20e8765" y="146.17777"/>
     <use style="fill:#1e90ff;stroke:#1e90ff;" x="617.610925" xlink:href="#m6ba20e8765" y="158.479209"/>
     <use style="fill:#1e90ff;stroke:#1e90ff;" x="617.914811" xlink:href="#m6ba20e8765" y="192.409551"/>
     <use style="fill:#1e90ff;stroke:#1e90ff;" x="618.209366" xlink:href="#m6ba20e8765" y="104.001409"/>
     <use style="fill:#1e90ff;stroke:#1e90ff;" x="618.493926" xlink:href="#m6ba20e8765" y="169.699203"/>
     <use style="fill:#1e90ff;stroke:#1e90ff;" x="618.769155" xlink:href="#m6ba20e8765" y="99.540448"/>
     <use style="fill:#1e90ff;stroke:#1e90ff;" x="619.035721" xlink:href="#m6ba20e8765" y="204.981351"/>
     <use style="fill:#1e90ff;stroke:#1e90ff;" x="619.292291" xlink:href="#m6ba20e8765" y="169.834383"/>
     <use style="fill:#1e90ff;stroke:#1e90ff;" x="619.539531" xlink:href="#m6ba20e8765" y="171.321371"/>
     <use style="fill:#1e90ff;stroke:#1e90ff;" x="619.777442" xlink:href="#m6ba20e8765" y="171.862093"/>
     <use style="fill:#1e90ff;stroke:#1e90ff;" x="620.005356" xlink:href="#m6ba20e8765" y="143.609338"/>
     <use style="fill:#1e90ff;stroke:#1e90ff;" x="620.224606" xlink:href="#m6ba20e8765" y="141.040906"/>
     <use style="fill:#1e90ff;stroke:#1e90ff;" x="620.433861" xlink:href="#m6ba20e8765" y="149.151745"/>
     <use style="fill:#1e90ff;stroke:#1e90ff;" x="620.633785" xlink:href="#m6ba20e8765" y="149.962829"/>
     <use style="fill:#1e90ff;stroke:#1e90ff;" x="620.82438" xlink:href="#m6ba20e8765" y="175.647151"/>
     <use style="fill:#1e90ff;stroke:#1e90ff;" x="621.005645" xlink:href="#m6ba20e8765" y="156.992222"/>
     <use style="fill:#1e90ff;stroke:#1e90ff;" x="621.176914" xlink:href="#m6ba20e8765" y="171.051009"/>
     <use style="fill:#1e90ff;stroke:#1e90ff;" x="621.338853" xlink:href="#m6ba20e8765" y="171.456551"/>
     <use style="fill:#1e90ff;stroke:#1e90ff;" x="621.491462" xlink:href="#m6ba20e8765" y="104.812493"/>
     <use style="fill:#1e90ff;stroke:#1e90ff;" x="621.634741" xlink:href="#m6ba20e8765" y="179.702571"/>
     <use style="fill:#1e90ff;stroke:#1e90ff;" x="621.768024" xlink:href="#m6ba20e8765" y="136.309583"/>
     <use style="fill:#1e90ff;stroke:#1e90ff;" x="621.891978" xlink:href="#m6ba20e8765" y="123.06188"/>
     <use style="fill:#1e90ff;stroke:#1e90ff;" x="622.006601" xlink:href="#m6ba20e8765" y="168.077035"/>
     <use style="fill:#1e90ff;stroke:#1e90ff;" x="622.111228" xlink:href="#m6ba20e8765" y="116.978751"/>
     <use style="fill:#1e90ff;stroke:#1e90ff;" x="622.207192" xlink:href="#m6ba20e8765" y="136.309583"/>
     <use style="fill:#1e90ff;stroke:#1e90ff;" x="622.29316" xlink:href="#m6ba20e8765" y="170.510287"/>
     <use style="fill:#1e90ff;stroke:#1e90ff;" x="622.369131" xlink:href="#m6ba20e8765" y="148.340661"/>
     <use style="fill:#1e90ff;stroke:#1e90ff;" x="622.435773" xlink:href="#m6ba20e8765" y="136.444764"/>
     <use style="fill:#1e90ff;stroke:#1e90ff;" x="622.493084" xlink:href="#m6ba20e8765" y="111.706706"/>
     <use style="fill:#1e90ff;stroke:#1e90ff;" x="622.541066" xlink:href="#m6ba20e8765" y="120.763809"/>
     <use style="fill:#1e90ff;stroke:#1e90ff;" x="622.579052" xlink:href="#m6ba20e8765" y="194.031719"/>
     <use style="fill:#1e90ff;stroke:#1e90ff;" x="622.607708" xlink:href="#m6ba20e8765" y="182.676545"/>
     <use style="fill:#1e90ff;stroke:#1e90ff;" x="622.627034" xlink:href="#m6ba20e8765" y="158.073667"/>
     <use style="fill:#1e90ff;stroke:#1e90ff;" x="622.636364" xlink:href="#m6ba20e8765" y="130.496816"/>
    </g>
   </g>
   <g id="line2d_16">
    <path clip-path="url(#p2d1ec8b9b8)" d="M 115.363636 150.800949 
L 135.572683 150.909093 
L 142.795293 150.963165 
L 155.970992 151.07131 
L 211.120197 152.04461 
L 224.868346 152.598851 
L 236.607253 153.315309 
L 243.306061 153.883067 
L 250.122824 154.653597 
L 255.657404 155.478199 
L 261.259958 156.600198 
L 265.504357 157.722198 
L 268.35395 158.641426 
L 271.218869 159.763425 
L 274.097784 161.142268 
L 276.99136 162.859062 
L 279.89893 165.021952 
L 281.357713 166.319687 
L 282.819829 167.806674 
L 284.285276 169.50995 
L 285.753389 171.470069 
L 287.225501 173.754622 
L 288.700278 176.417681 
L 290.177721 179.56739 
L 291.658496 183.298376 
L 293.141936 187.759337 
L 294.628709 193.139527 
L 296.118148 199.709306 
L 297.609585 207.752555 
L 299.104355 217.728886 
L 300.60179 230.124952 
L 302.101891 245.589617 
L 303.604325 264.771751 
L 305.109224 288.158003 
L 306.616522 315.532084 
L 309.638116 372.740533 
L 311.152345 391.544161 
L 312.668707 395.275147 
L 314.187201 382.432985 
L 315.707694 357.640855 
L 318.754746 299.053563 
L 320.28117 273.666638 
L 321.809394 252.564939 
L 323.339417 235.505141 
L 324.871106 221.838378 
L 326.404528 210.888746 
L 327.939482 202.102004 
L 329.476036 194.991502 
L 331.014056 189.178734 
L 332.553543 184.406857 
L 334.094362 180.446064 
L 335.636513 177.134138 
L 337.179865 174.335899 
L 338.724482 171.95672 
L 340.270233 169.92901 
L 341.81705 168.18518 
L 343.364866 166.671156 
L 344.913682 165.359904 
L 348.01398 163.197014 
L 351.117409 161.520774 
L 354.223505 160.209521 
L 357.331866 159.155112 
L 360.44196 158.316992 
L 363.553387 157.641089 
L 368.221827 156.857041 
L 372.8906 156.289283 
L 379.113253 155.802632 
L 385.329843 155.559307 
L 391.536636 155.505235 
L 397.729767 155.640416 
L 403.905638 155.991885 
L 410.060518 156.600198 
L 414.660583 157.262583 
L 419.245254 158.154776 
L 423.812799 159.38492 
L 426.847655 160.439329 
L 429.873847 161.750581 
L 432.890776 163.386267 
L 434.395675 164.359567 
L 435.898109 165.468049 
L 437.39821 166.725229 
L 438.895645 168.144625 
L 440.390415 169.780311 
L 441.881852 171.67284 
L 443.371291 173.849249 
L 444.858064 176.377127 
L 446.341504 179.337583 
L 447.822279 182.838762 
L 449.299722 186.975289 
L 450.774499 191.936419 
L 452.246611 197.897886 
L 453.714724 205.143568 
L 455.180171 213.9979 
L 456.642287 224.879942 
L 458.10107 238.316899 
L 459.556521 254.917082 
L 461.00864 275.234733 
L 462.456761 299.661876 
L 466.781131 385.744911 
L 468.215256 405.332587 
L 469.64605 410.888511 
L 471.072846 400.6283 
L 472.495643 378.039614 
L 476.740042 293.375976 
L 478.146845 270.530447 
L 479.549649 251.605156 
L 480.948455 236.154008 
L 482.342596 223.595726 
L 483.732739 213.362551 
L 485.118883 204.994869 
L 486.500362 198.100657 
L 487.877176 192.368997 
L 489.249325 187.59712 
L 490.617476 183.568737 
L 491.980962 180.148667 
L 493.339783 177.215247 
L 494.693939 174.700887 
L 496.04343 172.524478 
L 497.388256 170.631949 
L 498.727751 168.969227 
L 501.392747 166.211542 
L 504.037749 164.035134 
L 506.662093 162.291303 
L 509.265778 160.871907 
L 511.848804 159.695835 
L 514.409838 158.722534 
L 518.210405 157.519427 
L 521.960325 156.58668 
L 526.879803 155.61338 
L 531.703984 154.856368 
L 537.595762 154.13991 
L 544.456509 153.504561 
L 556.410002 152.734032 
L 569.432425 152.166273 
L 597.952338 151.463334 
L 615.224492 151.220009 
L 622.636364 151.1389 
L 622.636364 151.1389 
" style="fill:none;stroke:#000000;stroke-linecap:square;stroke-width:1.5;"/>
   </g>
   <g id="patch_3">
    <path d="M 90 441 
L 90 60.48 
" style="fill:none;stroke:#000000;stroke-linecap:square;stroke-linejoin:miter;stroke-width:0.8;"/>
   </g>
   <g id="patch_4">
    <path d="M 648 441 
L 648 60.48 
" style="fill:none;stroke:#000000;stroke-linecap:square;stroke-linejoin:miter;stroke-width:0.8;"/>
   </g>
   <g id="patch_5">
    <path d="M 90 441 
L 648 441 
" style="fill:none;stroke:#000000;stroke-linecap:square;stroke-linejoin:miter;stroke-width:0.8;"/>
   </g>
   <g id="patch_6">
    <path d="M 90 60.48 
L 648 60.48 
" style="fill:none;stroke:#000000;stroke-linecap:square;stroke-linejoin:miter;stroke-width:0.8;"/>
   </g>
   <g id="text_17">
    <!-- Mößbauereffect in Ferrocen -->
    <defs>
     <path d="M 9.8125 72.90625 
L 24.515625 72.90625 
L 43.109375 23.296875 
L 61.8125 72.90625 
L 76.515625 72.90625 
L 76.515625 0 
L 66.890625 0 
L 66.890625 64.015625 
L 48.09375 14.015625 
L 38.1875 14.015625 
L 19.390625 64.015625 
L 19.390625 0 
L 9.8125 0 
z
" id="DejaVuSans-77"/>
     <path d="M 30.609375 48.390625 
Q 23.390625 48.390625 19.1875 42.75 
Q 14.984375 37.109375 14.984375 27.296875 
Q 14.984375 17.484375 19.15625 11.84375 
Q 23.34375 6.203125 30.609375 6.203125 
Q 37.796875 6.203125 41.984375 11.859375 
Q 46.1875 17.53125 46.1875 27.296875 
Q 46.1875 37.015625 41.984375 42.703125 
Q 37.796875 48.390625 30.609375 48.390625 
z
M 30.609375 56 
Q 42.328125 56 49.015625 48.375 
Q 55.71875 40.765625 55.71875 27.296875 
Q 55.71875 13.875 49.015625 6.21875 
Q 42.328125 -1.421875 30.609375 -1.421875 
Q 18.84375 -1.421875 12.171875 6.21875 
Q 5.515625 13.875 5.515625 27.296875 
Q 5.515625 40.765625 12.171875 48.375 
Q 18.84375 56 30.609375 56 
z
M 35.203125 75.78125 
L 45.125 75.78125 
L 45.125 65.921875 
L 35.203125 65.921875 
z
M 16.109375 75.78125 
L 26.03125 75.78125 
L 26.03125 65.921875 
L 16.109375 65.921875 
z
" id="DejaVuSans-246"/>
     <path d="M 9.078125 55.515625 
Q 9.078125 65.28125 14.90625 70.625 
Q 20.75 75.984375 31.390625 75.984375 
Q 41.546875 75.984375 46.890625 70.3125 
Q 52.25 64.65625 52.390625 53.71875 
Q 45.015625 53.328125 40.90625 50.515625 
Q 36.8125 47.703125 36.8125 43.015625 
Q 36.8125 40.71875 38.234375 38.734375 
Q 39.65625 36.765625 42.828125 34.71875 
L 45.609375 32.90625 
Q 53.71875 27.734375 56.0625 24.265625 
Q 58.40625 20.796875 58.40625 15.921875 
Q 58.40625 7.515625 52.90625 3.046875 
Q 47.40625 -1.421875 37.109375 -1.421875 
Q 33.984375 -1.421875 30.65625 -0.8125 
Q 27.34375 -0.203125 23.78125 0.984375 
L 23.78125 8.984375 
Q 27.6875 7.515625 31.09375 6.8125 
Q 34.515625 6.109375 37.703125 6.109375 
Q 43.359375 6.109375 46.28125 8.421875 
Q 49.21875 10.75 49.21875 15.1875 
Q 49.21875 18.265625 47.78125 20.3125 
Q 46.34375 22.359375 41.40625 25.390625 
L 36.921875 28.078125 
Q 32.234375 30.953125 30.109375 34.25 
Q 27.984375 37.546875 27.984375 42 
Q 27.984375 48.1875 32.0625 52.390625 
Q 36.140625 56.59375 43.5 58.015625 
Q 43.109375 63.03125 39.90625 65.765625 
Q 36.71875 68.5 31.203125 68.5 
Q 24.859375 68.5 21.53125 65.109375 
Q 18.21875 61.71875 18.21875 55.328125 
L 18.21875 0 
L 9.078125 0 
z
" id="DejaVuSans-223"/>
     <path d="M 48.6875 27.296875 
Q 48.6875 37.203125 44.609375 42.84375 
Q 40.53125 48.484375 33.40625 48.484375 
Q 26.265625 48.484375 22.1875 42.84375 
Q 18.109375 37.203125 18.109375 27.296875 
Q 18.109375 17.390625 22.1875 11.75 
Q 26.265625 6.109375 33.40625 6.109375 
Q 40.53125 6.109375 44.609375 11.75 
Q 48.6875 17.390625 48.6875 27.296875 
z
M 18.109375 46.390625 
Q 20.953125 51.265625 25.265625 53.625 
Q 29.59375 56 35.59375 56 
Q 45.5625 56 51.78125 48.09375 
Q 58.015625 40.1875 58.015625 27.296875 
Q 58.015625 14.40625 51.78125 6.484375 
Q 45.5625 -1.421875 35.59375 -1.421875 
Q 29.59375 -1.421875 25.265625 0.953125 
Q 20.953125 3.328125 18.109375 8.203125 
L 18.109375 0 
L 9.078125 0 
L 9.078125 75.984375 
L 18.109375 75.984375 
z
" id="DejaVuSans-98"/>
     <path d="M 56.203125 29.59375 
L 56.203125 25.203125 
L 14.890625 25.203125 
Q 15.484375 15.921875 20.484375 11.0625 
Q 25.484375 6.203125 34.421875 6.203125 
Q 39.59375 6.203125 44.453125 7.46875 
Q 49.3125 8.734375 54.109375 11.28125 
L 54.109375 2.78125 
Q 49.265625 0.734375 44.1875 -0.34375 
Q 39.109375 -1.421875 33.890625 -1.421875 
Q 20.796875 -1.421875 13.15625 6.1875 
Q 5.515625 13.8125 5.515625 26.8125 
Q 5.515625 40.234375 12.765625 48.109375 
Q 20.015625 56 32.328125 56 
Q 43.359375 56 49.78125 48.890625 
Q 56.203125 41.796875 56.203125 29.59375 
z
M 47.21875 32.234375 
Q 47.125 39.59375 43.09375 43.984375 
Q 39.0625 48.390625 32.421875 48.390625 
Q 24.90625 48.390625 20.390625 44.140625 
Q 15.875 39.890625 15.1875 32.171875 
z
" id="DejaVuSans-101"/>
     <path d="M 41.109375 46.296875 
Q 39.59375 47.171875 37.8125 47.578125 
Q 36.03125 48 33.890625 48 
Q 26.265625 48 22.1875 43.046875 
Q 18.109375 38.09375 18.109375 28.8125 
L 18.109375 0 
L 9.078125 0 
L 9.078125 54.6875 
L 18.109375 54.6875 
L 18.109375 46.1875 
Q 20.953125 51.171875 25.484375 53.578125 
Q 30.03125 56 36.53125 56 
Q 37.453125 56 38.578125 55.875 
Q 39.703125 55.765625 41.0625 55.515625 
z
" id="DejaVuSans-114"/>
     <path d="M 37.109375 75.984375 
L 37.109375 68.5 
L 28.515625 68.5 
Q 23.6875 68.5 21.796875 66.546875 
Q 19.921875 64.59375 19.921875 59.515625 
L 19.921875 54.6875 
L 34.71875 54.6875 
L 34.71875 47.703125 
L 19.921875 47.703125 
L 19.921875 0 
L 10.890625 0 
L 10.890625 47.703125 
L 2.296875 47.703125 
L 2.296875 54.6875 
L 10.890625 54.6875 
L 10.890625 58.5 
Q 10.890625 67.625 15.140625 71.796875 
Q 19.390625 75.984375 28.609375 75.984375 
z
" id="DejaVuSans-102"/>
     <path d="M 48.78125 52.59375 
L 48.78125 44.1875 
Q 44.96875 46.296875 41.140625 47.34375 
Q 37.3125 48.390625 33.40625 48.390625 
Q 24.65625 48.390625 19.8125 42.84375 
Q 14.984375 37.3125 14.984375 27.296875 
Q 14.984375 17.28125 19.8125 11.734375 
Q 24.65625 6.203125 33.40625 6.203125 
Q 37.3125 6.203125 41.140625 7.25 
Q 44.96875 8.296875 48.78125 10.40625 
L 48.78125 2.09375 
Q 45.015625 0.34375 40.984375 -0.53125 
Q 36.96875 -1.421875 32.421875 -1.421875 
Q 20.0625 -1.421875 12.78125 6.34375 
Q 5.515625 14.109375 5.515625 27.296875 
Q 5.515625 40.671875 12.859375 48.328125 
Q 20.21875 56 33.015625 56 
Q 37.15625 56 41.109375 55.140625 
Q 45.0625 54.296875 48.78125 52.59375 
z
" id="DejaVuSans-99"/>
     <path d="M 18.3125 70.21875 
L 18.3125 54.6875 
L 36.8125 54.6875 
L 36.8125 47.703125 
L 18.3125 47.703125 
L 18.3125 18.015625 
Q 18.3125 11.328125 20.140625 9.421875 
Q 21.96875 7.515625 27.59375 7.515625 
L 36.8125 7.515625 
L 36.8125 0 
L 27.59375 0 
Q 17.1875 0 13.234375 3.875 
Q 9.28125 7.765625 9.28125 18.015625 
L 9.28125 47.703125 
L 2.6875 47.703125 
L 2.6875 54.6875 
L 9.28125 54.6875 
L 9.28125 70.21875 
z
" id="DejaVuSans-116"/>
     <path id="DejaVuSans-32"/>
     <path d="M 9.421875 54.6875 
L 18.40625 54.6875 
L 18.40625 0 
L 9.421875 0 
z
M 9.421875 75.984375 
L 18.40625 75.984375 
L 18.40625 64.59375 
L 9.421875 64.59375 
z
" id="DejaVuSans-105"/>
     <path d="M 54.890625 33.015625 
L 54.890625 0 
L 45.90625 0 
L 45.90625 32.71875 
Q 45.90625 40.484375 42.875 44.328125 
Q 39.84375 48.1875 33.796875 48.1875 
Q 26.515625 48.1875 22.3125 43.546875 
Q 18.109375 38.921875 18.109375 30.90625 
L 18.109375 0 
L 9.078125 0 
L 9.078125 54.6875 
L 18.109375 54.6875 
L 18.109375 46.1875 
Q 21.34375 51.125 25.703125 53.5625 
Q 30.078125 56 35.796875 56 
Q 45.21875 56 50.046875 50.171875 
Q 54.890625 44.34375 54.890625 33.015625 
z
" id="DejaVuSans-110"/>
     <path d="M 9.8125 72.90625 
L 51.703125 72.90625 
L 51.703125 64.59375 
L 19.671875 64.59375 
L 19.671875 43.109375 
L 48.578125 43.109375 
L 48.578125 34.8125 
L 19.671875 34.8125 
L 19.671875 0 
L 9.8125 0 
z
" id="DejaVuSans-70"/>
     <path d="M 30.609375 48.390625 
Q 23.390625 48.390625 19.1875 42.75 
Q 14.984375 37.109375 14.984375 27.296875 
Q 14.984375 17.484375 19.15625 11.84375 
Q 23.34375 6.203125 30.609375 6.203125 
Q 37.796875 6.203125 41.984375 11.859375 
Q 46.1875 17.53125 46.1875 27.296875 
Q 46.1875 37.015625 41.984375 42.703125 
Q 37.796875 48.390625 30.609375 48.390625 
z
M 30.609375 56 
Q 42.328125 56 49.015625 48.375 
Q 55.71875 40.765625 55.71875 27.296875 
Q 55.71875 13.875 49.015625 6.21875 
Q 42.328125 -1.421875 30.609375 -1.421875 
Q 18.84375 -1.421875 12.171875 6.21875 
Q 5.515625 13.875 5.515625 27.296875 
Q 5.515625 40.765625 12.171875 48.375 
Q 18.84375 56 30.609375 56 
z
" id="DejaVuSans-111"/>
    </defs>
    <g transform="translate(286.547813 54.48)scale(0.12 -0.12)">
     <use xlink:href="#DejaVuSans-77"/>
     <use x="86.279297" xlink:href="#DejaVuSans-246"/>
     <use x="147.460938" xlink:href="#DejaVuSans-223"/>
     <use x="210.449219" xlink:href="#DejaVuSans-98"/>
     <use x="273.925781" xlink:href="#DejaVuSans-97"/>
     <use x="335.205078" xlink:href="#DejaVuSans-117"/>
     <use x="398.583984" xlink:href="#DejaVuSans-101"/>
     <use x="460.107422" xlink:href="#DejaVuSans-114"/>
     <use x="498.970703" xlink:href="#DejaVuSans-101"/>
     <use x="560.494141" xlink:href="#DejaVuSans-102"/>
     <use x="595.699219" xlink:href="#DejaVuSans-102"/>
     <use x="630.904297" xlink:href="#DejaVuSans-101"/>
     <use x="692.427734" xlink:href="#DejaVuSans-99"/>
     <use x="747.408203" xlink:href="#DejaVuSans-116"/>
     <use x="786.617188" xlink:href="#DejaVuSans-32"/>
     <use x="818.404297" xlink:href="#DejaVuSans-105"/>
     <use x="846.1875" xlink:href="#DejaVuSans-110"/>
     <use x="909.566406" xlink:href="#DejaVuSans-32"/>
     <use x="941.353516" xlink:href="#DejaVuSans-70"/>
     <use x="993.373047" xlink:href="#DejaVuSans-101"/>
     <use x="1054.896484" xlink:href="#DejaVuSans-114"/>
     <use x="1094.259766" xlink:href="#DejaVuSans-114"/>
     <use x="1133.123047" xlink:href="#DejaVuSans-111"/>
     <use x="1194.304688" xlink:href="#DejaVuSans-99"/>
     <use x="1249.285156" xlink:href="#DejaVuSans-101"/>
     <use x="1310.808594" xlink:href="#DejaVuSans-110"/>
    </g>
   </g>
   <g id="legend_1">
    <g id="patch_7">
     <path d="M 97 436 
L 228.617188 436 
Q 230.617188 436 230.617188 434 
L 230.617188 405.64375 
Q 230.617188 403.64375 228.617188 403.64375 
L 97 403.64375 
Q 95 403.64375 95 405.64375 
L 95 434 
Q 95 436 97 436 
z
" style="fill:#ffffff;opacity:0.8;stroke:#cccccc;stroke-linejoin:miter;"/>
    </g>
    <g id="line2d_17"/>
    <g id="line2d_18">
     <g>
      <use style="fill:#1e90ff;stroke:#1e90ff;" x="109" xlink:href="#m6ba20e8765" y="411.742188"/>
     </g>
    </g>
    <g id="text_18">
     <!-- Histogramm-Punkte -->
     <defs>
      <path d="M 9.8125 72.90625 
L 19.671875 72.90625 
L 19.671875 43.015625 
L 55.515625 43.015625 
L 55.515625 72.90625 
L 65.375 72.90625 
L 65.375 0 
L 55.515625 0 
L 55.515625 34.71875 
L 19.671875 34.71875 
L 19.671875 0 
L 9.8125 0 
z
" id="DejaVuSans-72"/>
      <path d="M 45.40625 27.984375 
Q 45.40625 37.75 41.375 43.109375 
Q 37.359375 48.484375 30.078125 48.484375 
Q 22.859375 48.484375 18.828125 43.109375 
Q 14.796875 37.75 14.796875 27.984375 
Q 14.796875 18.265625 18.828125 12.890625 
Q 22.859375 7.515625 30.078125 7.515625 
Q 37.359375 7.515625 41.375 12.890625 
Q 45.40625 18.265625 45.40625 27.984375 
z
M 54.390625 6.78125 
Q 54.390625 -7.171875 48.1875 -13.984375 
Q 42 -20.796875 29.203125 -20.796875 
Q 24.46875 -20.796875 20.265625 -20.09375 
Q 16.0625 -19.390625 12.109375 -17.921875 
L 12.109375 -9.1875 
Q 16.0625 -11.328125 19.921875 -12.34375 
Q 23.78125 -13.375 27.78125 -13.375 
Q 36.625 -13.375 41.015625 -8.765625 
Q 45.40625 -4.15625 45.40625 5.171875 
L 45.40625 9.625 
Q 42.625 4.78125 38.28125 2.390625 
Q 33.9375 0 27.875 0 
Q 17.828125 0 11.671875 7.65625 
Q 5.515625 15.328125 5.515625 27.984375 
Q 5.515625 40.671875 11.671875 48.328125 
Q 17.828125 56 27.875 56 
Q 33.9375 56 38.28125 53.609375 
Q 42.625 51.21875 45.40625 46.390625 
L 45.40625 54.6875 
L 54.390625 54.6875 
z
" id="DejaVuSans-103"/>
      <path d="M 4.890625 31.390625 
L 31.203125 31.390625 
L 31.203125 23.390625 
L 4.890625 23.390625 
z
" id="DejaVuSans-45"/>
      <path d="M 19.671875 64.796875 
L 19.671875 37.40625 
L 32.078125 37.40625 
Q 38.96875 37.40625 42.71875 40.96875 
Q 46.484375 44.53125 46.484375 51.125 
Q 46.484375 57.671875 42.71875 61.234375 
Q 38.96875 64.796875 32.078125 64.796875 
z
M 9.8125 72.90625 
L 32.078125 72.90625 
Q 44.34375 72.90625 50.609375 67.359375 
Q 56.890625 61.8125 56.890625 51.125 
Q 56.890625 40.328125 50.609375 34.8125 
Q 44.34375 29.296875 32.078125 29.296875 
L 19.671875 29.296875 
L 19.671875 0 
L 9.8125 0 
z
" id="DejaVuSans-80"/>
      <path d="M 9.078125 75.984375 
L 18.109375 75.984375 
L 18.109375 31.109375 
L 44.921875 54.6875 
L 56.390625 54.6875 
L 27.390625 29.109375 
L 57.625 0 
L 45.90625 0 
L 18.109375 26.703125 
L 18.109375 0 
L 9.078125 0 
z
" id="DejaVuSans-107"/>
     </defs>
     <g transform="translate(127 415.242188)scale(0.1 -0.1)">
      <use xlink:href="#DejaVuSans-72"/>
      <use x="75.195312" xlink:href="#DejaVuSans-105"/>
      <use x="102.978516" xlink:href="#DejaVuSans-115"/>
      <use x="155.078125" xlink:href="#DejaVuSans-116"/>
      <use x="194.287109" xlink:href="#DejaVuSans-111"/>
      <use x="255.46875" xlink:href="#DejaVuSans-103"/>
      <use x="318.945312" xlink:href="#DejaVuSans-114"/>
      <use x="360.058594" xlink:href="#DejaVuSans-97"/>
      <use x="421.337891" xlink:href="#DejaVuSans-109"/>
      <use x="518.75" xlink:href="#DejaVuSans-109"/>
      <use x="616.162109" xlink:href="#DejaVuSans-45"/>
      <use x="652.246094" xlink:href="#DejaVuSans-80"/>
      <use x="710.798828" xlink:href="#DejaVuSans-117"/>
      <use x="774.177734" xlink:href="#DejaVuSans-110"/>
      <use x="837.556641" xlink:href="#DejaVuSans-107"/>
      <use x="895.466797" xlink:href="#DejaVuSans-116"/>
      <use x="934.675781" xlink:href="#DejaVuSans-101"/>
     </g>
    </g>
    <g id="line2d_19">
     <path d="M 99 426.420313 
L 119 426.420313 
" style="fill:none;stroke:#000000;stroke-linecap:square;stroke-width:1.5;"/>
    </g>
    <g id="line2d_20"/>
    <g id="text_19">
     <!-- Mößbauer-fit -->
     <g transform="translate(127 429.920313)scale(0.1 -0.1)">
      <use xlink:href="#DejaVuSans-77"/>
      <use x="86.279297" xlink:href="#DejaVuSans-246"/>
      <use x="147.460938" xlink:href="#DejaVuSans-223"/>
      <use x="210.449219" xlink:href="#DejaVuSans-98"/>
      <use x="273.925781" xlink:href="#DejaVuSans-97"/>
      <use x="335.205078" xlink:href="#DejaVuSans-117"/>
      <use x="398.583984" xlink:href="#DejaVuSans-101"/>
      <use x="460.107422" xlink:href="#DejaVuSans-114"/>
      <use x="494.845703" xlink:href="#DejaVuSans-45"/>
      <use x="530.929688" xlink:href="#DejaVuSans-102"/>
      <use x="566.134766" xlink:href="#DejaVuSans-105"/>
      <use x="593.917969" xlink:href="#DejaVuSans-116"/>
     </g>
    </g>
   </g>
  </g>
 </g>
 <defs>
  <clipPath id="p2d1ec8b9b8">
   <rect height="380.52" width="558" x="90" y="60.48"/>
  </clipPath>
 </defs>
</svg>
