<?xml version="1.0" encoding="utf-8" standalone="no"?>
<!DOCTYPE svg PUBLIC "-//W3C//DTD SVG 1.1//EN"
  "http://www.w3.org/Graphics/SVG/1.1/DTD/svg11.dtd">
<svg xmlns:xlink="http://www.w3.org/1999/xlink" width="720pt" height="360pt" viewBox="0 0 720 360" xmlns="http://www.w3.org/2000/svg" version="1.1">
 <metadata>
  <rdf:RDF xmlns:dc="http://purl.org/dc/elements/1.1/" xmlns:cc="http://creativecommons.org/ns#" xmlns:rdf="http://www.w3.org/1999/02/22-rdf-syntax-ns#">
   <cc:Work>
    <dc:type rdf:resource="http://purl.org/dc/dcmitype/StillImage"/>
    <dc:date>2022-01-31T18:49:59.427418</dc:date>
    <dc:format>image/svg+xml</dc:format>
    <dc:creator>
     <cc:Agent>
      <dc:title>Matplotlib v3.5.1, https://matplotlib.org/</dc:title>
     </cc:Agent>
    </dc:creator>
   </cc:Work>
  </rdf:RDF>
 </metadata>
 <defs>
  <style type="text/css">*{stroke-linejoin: round; stroke-linecap: butt}</style>
 </defs>
 <g id="figure_1">
  <g id="patch_1">
   <path d="M 0 360 
L 720 360 
L 720 0 
L 0 0 
z
" style="fill: #ffffff"/>
  </g>
  <g id="axes_1">
   <g id="patch_2">
    <path d="M 90 320.4 
L 648 320.4 
L 648 43.2 
L 90 43.2 
z
" style="fill: #ffffff"/>
   </g>
   <g id="matplotlib.axis_1">
    <g id="xtick_1">
     <g id="line2d_1">
      <defs>
       <path id="mf51dc16667" d="M 0 0 
L 0 3.5 
" style="stroke: #000000; stroke-width: 0.8"/>
      </defs>
      <g>
       <use xlink:href="#mf51dc16667" x="115.363636" y="320.4" style="stroke: #000000; stroke-width: 0.8"/>
      </g>
     </g>
     <g id="text_1">
      <!-- 0 -->
      <g transform="translate(110.591761 338.797656)scale(0.15 -0.15)">
       <defs>
        <path id="DejaVuSans-30" d="M 2034 4250 
Q 1547 4250 1301 3770 
Q 1056 3291 1056 2328 
Q 1056 1369 1301 889 
Q 1547 409 2034 409 
Q 2525 409 2770 889 
Q 3016 1369 3016 2328 
Q 3016 3291 2770 3770 
Q 2525 4250 2034 4250 
z
M 2034 4750 
Q 2819 4750 3233 4129 
Q 3647 3509 3647 2328 
Q 3647 1150 3233 529 
Q 2819 -91 2034 -91 
Q 1250 -91 836 529 
Q 422 1150 422 2328 
Q 422 3509 836 4129 
Q 1250 4750 2034 4750 
z
" transform="scale(0.015625)"/>
       </defs>
       <use xlink:href="#DejaVuSans-30"/>
      </g>
     </g>
    </g>
    <g id="xtick_2">
     <g id="line2d_2">
      <g>
       <use xlink:href="#mf51dc16667" x="200.050235" y="320.4" style="stroke: #000000; stroke-width: 0.8"/>
      </g>
     </g>
     <g id="text_2">
      <!-- 100 -->
      <g transform="translate(185.73461 338.797656)scale(0.15 -0.15)">
       <defs>
        <path id="DejaVuSans-31" d="M 794 531 
L 1825 531 
L 1825 4091 
L 703 3866 
L 703 4441 
L 1819 4666 
L 2450 4666 
L 2450 531 
L 3481 531 
L 3481 0 
L 794 0 
L 794 531 
z
" transform="scale(0.015625)"/>
       </defs>
       <use xlink:href="#DejaVuSans-31"/>
       <use xlink:href="#DejaVuSans-30" x="63.623047"/>
       <use xlink:href="#DejaVuSans-30" x="127.246094"/>
      </g>
     </g>
    </g>
    <g id="xtick_3">
     <g id="line2d_3">
      <g>
       <use xlink:href="#mf51dc16667" x="284.736834" y="320.4" style="stroke: #000000; stroke-width: 0.8"/>
      </g>
     </g>
     <g id="text_3">
      <!-- 200 -->
      <g transform="translate(270.421209 338.797656)scale(0.15 -0.15)">
       <defs>
        <path id="DejaVuSans-32" d="M 1228 531 
L 3431 531 
L 3431 0 
L 469 0 
L 469 531 
Q 828 903 1448 1529 
Q 2069 2156 2228 2338 
Q 2531 2678 2651 2914 
Q 2772 3150 2772 3378 
Q 2772 3750 2511 3984 
Q 2250 4219 1831 4219 
Q 1534 4219 1204 4116 
Q 875 4013 500 3803 
L 500 4441 
Q 881 4594 1212 4672 
Q 1544 4750 1819 4750 
Q 2544 4750 2975 4387 
Q 3406 4025 3406 3419 
Q 3406 3131 3298 2873 
Q 3191 2616 2906 2266 
Q 2828 2175 2409 1742 
Q 1991 1309 1228 531 
z
" transform="scale(0.015625)"/>
       </defs>
       <use xlink:href="#DejaVuSans-32"/>
       <use xlink:href="#DejaVuSans-30" x="63.623047"/>
       <use xlink:href="#DejaVuSans-30" x="127.246094"/>
      </g>
     </g>
    </g>
    <g id="xtick_4">
     <g id="line2d_4">
      <g>
       <use xlink:href="#mf51dc16667" x="369.423433" y="320.4" style="stroke: #000000; stroke-width: 0.8"/>
      </g>
     </g>
     <g id="text_4">
      <!-- 300 -->
      <g transform="translate(355.107808 338.797656)scale(0.15 -0.15)">
       <defs>
        <path id="DejaVuSans-33" d="M 2597 2516 
Q 3050 2419 3304 2112 
Q 3559 1806 3559 1356 
Q 3559 666 3084 287 
Q 2609 -91 1734 -91 
Q 1441 -91 1130 -33 
Q 819 25 488 141 
L 488 750 
Q 750 597 1062 519 
Q 1375 441 1716 441 
Q 2309 441 2620 675 
Q 2931 909 2931 1356 
Q 2931 1769 2642 2001 
Q 2353 2234 1838 2234 
L 1294 2234 
L 1294 2753 
L 1863 2753 
Q 2328 2753 2575 2939 
Q 2822 3125 2822 3475 
Q 2822 3834 2567 4026 
Q 2313 4219 1838 4219 
Q 1578 4219 1281 4162 
Q 984 4106 628 3988 
L 628 4550 
Q 988 4650 1302 4700 
Q 1616 4750 1894 4750 
Q 2613 4750 3031 4423 
Q 3450 4097 3450 3541 
Q 3450 3153 3228 2886 
Q 3006 2619 2597 2516 
z
" transform="scale(0.015625)"/>
       </defs>
       <use xlink:href="#DejaVuSans-33"/>
       <use xlink:href="#DejaVuSans-30" x="63.623047"/>
       <use xlink:href="#DejaVuSans-30" x="127.246094"/>
      </g>
     </g>
    </g>
    <g id="xtick_5">
     <g id="line2d_5">
      <g>
       <use xlink:href="#mf51dc16667" x="454.110032" y="320.4" style="stroke: #000000; stroke-width: 0.8"/>
      </g>
     </g>
     <g id="text_5">
      <!-- 400 -->
      <g transform="translate(439.794407 338.797656)scale(0.15 -0.15)">
       <defs>
        <path id="DejaVuSans-34" d="M 2419 4116 
L 825 1625 
L 2419 1625 
L 2419 4116 
z
M 2253 4666 
L 3047 4666 
L 3047 1625 
L 3713 1625 
L 3713 1100 
L 3047 1100 
L 3047 0 
L 2419 0 
L 2419 1100 
L 313 1100 
L 313 1709 
L 2253 4666 
z
" transform="scale(0.015625)"/>
       </defs>
       <use xlink:href="#DejaVuSans-34"/>
       <use xlink:href="#DejaVuSans-30" x="63.623047"/>
       <use xlink:href="#DejaVuSans-30" x="127.246094"/>
      </g>
     </g>
    </g>
    <g id="xtick_6">
     <g id="line2d_6">
      <g>
       <use xlink:href="#mf51dc16667" x="538.796631" y="320.4" style="stroke: #000000; stroke-width: 0.8"/>
      </g>
     </g>
     <g id="text_6">
      <!-- 500 -->
      <g transform="translate(524.481006 338.797656)scale(0.15 -0.15)">
       <defs>
        <path id="DejaVuSans-35" d="M 691 4666 
L 3169 4666 
L 3169 4134 
L 1269 4134 
L 1269 2991 
Q 1406 3038 1543 3061 
Q 1681 3084 1819 3084 
Q 2600 3084 3056 2656 
Q 3513 2228 3513 1497 
Q 3513 744 3044 326 
Q 2575 -91 1722 -91 
Q 1428 -91 1123 -41 
Q 819 9 494 109 
L 494 744 
Q 775 591 1075 516 
Q 1375 441 1709 441 
Q 2250 441 2565 725 
Q 2881 1009 2881 1497 
Q 2881 1984 2565 2268 
Q 2250 2553 1709 2553 
Q 1456 2553 1204 2497 
Q 953 2441 691 2322 
L 691 4666 
z
" transform="scale(0.015625)"/>
       </defs>
       <use xlink:href="#DejaVuSans-35"/>
       <use xlink:href="#DejaVuSans-30" x="63.623047"/>
       <use xlink:href="#DejaVuSans-30" x="127.246094"/>
      </g>
     </g>
    </g>
    <g id="xtick_7">
     <g id="line2d_7">
      <g>
       <use xlink:href="#mf51dc16667" x="623.48323" y="320.4" style="stroke: #000000; stroke-width: 0.8"/>
      </g>
     </g>
     <g id="text_7">
      <!-- 600 -->
      <g transform="translate(609.167605 338.797656)scale(0.15 -0.15)">
       <defs>
        <path id="DejaVuSans-36" d="M 2113 2584 
Q 1688 2584 1439 2293 
Q 1191 2003 1191 1497 
Q 1191 994 1439 701 
Q 1688 409 2113 409 
Q 2538 409 2786 701 
Q 3034 994 3034 1497 
Q 3034 2003 2786 2293 
Q 2538 2584 2113 2584 
z
M 3366 4563 
L 3366 3988 
Q 3128 4100 2886 4159 
Q 2644 4219 2406 4219 
Q 1781 4219 1451 3797 
Q 1122 3375 1075 2522 
Q 1259 2794 1537 2939 
Q 1816 3084 2150 3084 
Q 2853 3084 3261 2657 
Q 3669 2231 3669 1497 
Q 3669 778 3244 343 
Q 2819 -91 2113 -91 
Q 1303 -91 875 529 
Q 447 1150 447 2328 
Q 447 3434 972 4092 
Q 1497 4750 2381 4750 
Q 2619 4750 2861 4703 
Q 3103 4656 3366 4563 
z
" transform="scale(0.015625)"/>
       </defs>
       <use xlink:href="#DejaVuSans-36"/>
       <use xlink:href="#DejaVuSans-30" x="63.623047"/>
       <use xlink:href="#DejaVuSans-30" x="127.246094"/>
      </g>
     </g>
    </g>
    <g id="text_8">
     <!-- Kanal / u -->
     <g transform="translate(336.137109 357.314844)scale(0.15 -0.15)">
      <defs>
       <path id="DejaVuSans-4b" d="M 628 4666 
L 1259 4666 
L 1259 2694 
L 3353 4666 
L 4166 4666 
L 1850 2491 
L 4331 0 
L 3500 0 
L 1259 2247 
L 1259 0 
L 628 0 
L 628 4666 
z
" transform="scale(0.015625)"/>
       <path id="DejaVuSans-61" d="M 2194 1759 
Q 1497 1759 1228 1600 
Q 959 1441 959 1056 
Q 959 750 1161 570 
Q 1363 391 1709 391 
Q 2188 391 2477 730 
Q 2766 1069 2766 1631 
L 2766 1759 
L 2194 1759 
z
M 3341 1997 
L 3341 0 
L 2766 0 
L 2766 531 
Q 2569 213 2275 61 
Q 1981 -91 1556 -91 
Q 1019 -91 701 211 
Q 384 513 384 1019 
Q 384 1609 779 1909 
Q 1175 2209 1959 2209 
L 2766 2209 
L 2766 2266 
Q 2766 2663 2505 2880 
Q 2244 3097 1772 3097 
Q 1472 3097 1187 3025 
Q 903 2953 641 2809 
L 641 3341 
Q 956 3463 1253 3523 
Q 1550 3584 1831 3584 
Q 2591 3584 2966 3190 
Q 3341 2797 3341 1997 
z
" transform="scale(0.015625)"/>
       <path id="DejaVuSans-6e" d="M 3513 2113 
L 3513 0 
L 2938 0 
L 2938 2094 
Q 2938 2591 2744 2837 
Q 2550 3084 2163 3084 
Q 1697 3084 1428 2787 
Q 1159 2491 1159 1978 
L 1159 0 
L 581 0 
L 581 3500 
L 1159 3500 
L 1159 2956 
Q 1366 3272 1645 3428 
Q 1925 3584 2291 3584 
Q 2894 3584 3203 3211 
Q 3513 2838 3513 2113 
z
" transform="scale(0.015625)"/>
       <path id="DejaVuSans-6c" d="M 603 4863 
L 1178 4863 
L 1178 0 
L 603 0 
L 603 4863 
z
" transform="scale(0.015625)"/>
       <path id="DejaVuSans-20" transform="scale(0.015625)"/>
       <path id="DejaVuSans-2f" d="M 1625 4666 
L 2156 4666 
L 531 -594 
L 0 -594 
L 1625 4666 
z
" transform="scale(0.015625)"/>
       <path id="DejaVuSans-75" d="M 544 1381 
L 544 3500 
L 1119 3500 
L 1119 1403 
Q 1119 906 1312 657 
Q 1506 409 1894 409 
Q 2359 409 2629 706 
Q 2900 1003 2900 1516 
L 2900 3500 
L 3475 3500 
L 3475 0 
L 2900 0 
L 2900 538 
Q 2691 219 2414 64 
Q 2138 -91 1772 -91 
Q 1169 -91 856 284 
Q 544 659 544 1381 
z
M 1991 3584 
L 1991 3584 
z
" transform="scale(0.015625)"/>
      </defs>
      <use xlink:href="#DejaVuSans-4b"/>
      <use xlink:href="#DejaVuSans-61" x="63.826172"/>
      <use xlink:href="#DejaVuSans-6e" x="125.105469"/>
      <use xlink:href="#DejaVuSans-61" x="188.484375"/>
      <use xlink:href="#DejaVuSans-6c" x="249.763672"/>
      <use xlink:href="#DejaVuSans-20" x="277.546875"/>
      <use xlink:href="#DejaVuSans-2f" x="309.333984"/>
      <use xlink:href="#DejaVuSans-20" x="343.025391"/>
      <use xlink:href="#DejaVuSans-75" x="374.8125"/>
     </g>
    </g>
   </g>
   <g id="matplotlib.axis_2">
    <g id="ytick_1">
     <g id="line2d_8">
      <defs>
       <path id="m40fb03d397" d="M 0 0 
L -3.5 0 
" style="stroke: #000000; stroke-width: 0.8"/>
      </defs>
      <g>
       <use xlink:href="#m40fb03d397" x="90" y="300.25446" style="stroke: #000000; stroke-width: 0.8"/>
      </g>
     </g>
     <g id="text_9">
      <!-- 0 -->
      <g transform="translate(73.45625 305.953288)scale(0.15 -0.15)">
       <use xlink:href="#DejaVuSans-30"/>
      </g>
     </g>
    </g>
    <g id="ytick_2">
     <g id="line2d_9">
      <g>
       <use xlink:href="#m40fb03d397" x="90" y="262.921127" style="stroke: #000000; stroke-width: 0.8"/>
      </g>
     </g>
     <g id="text_10">
      <!-- 20 -->
      <g transform="translate(63.9125 268.619955)scale(0.15 -0.15)">
       <use xlink:href="#DejaVuSans-32"/>
       <use xlink:href="#DejaVuSans-30" x="63.623047"/>
      </g>
     </g>
    </g>
    <g id="ytick_3">
     <g id="line2d_10">
      <g>
       <use xlink:href="#m40fb03d397" x="90" y="225.587793" style="stroke: #000000; stroke-width: 0.8"/>
      </g>
     </g>
     <g id="text_11">
      <!-- 40 -->
      <g transform="translate(63.9125 231.286622)scale(0.15 -0.15)">
       <use xlink:href="#DejaVuSans-34"/>
       <use xlink:href="#DejaVuSans-30" x="63.623047"/>
      </g>
     </g>
    </g>
    <g id="ytick_4">
     <g id="line2d_11">
      <g>
       <use xlink:href="#m40fb03d397" x="90" y="188.25446" style="stroke: #000000; stroke-width: 0.8"/>
      </g>
     </g>
     <g id="text_12">
      <!-- 60 -->
      <g transform="translate(63.9125 193.953288)scale(0.15 -0.15)">
       <use xlink:href="#DejaVuSans-36"/>
       <use xlink:href="#DejaVuSans-30" x="63.623047"/>
      </g>
     </g>
    </g>
    <g id="ytick_5">
     <g id="line2d_12">
      <g>
       <use xlink:href="#m40fb03d397" x="90" y="150.921127" style="stroke: #000000; stroke-width: 0.8"/>
      </g>
     </g>
     <g id="text_13">
      <!-- 80 -->
      <g transform="translate(63.9125 156.619955)scale(0.15 -0.15)">
       <defs>
        <path id="DejaVuSans-38" d="M 2034 2216 
Q 1584 2216 1326 1975 
Q 1069 1734 1069 1313 
Q 1069 891 1326 650 
Q 1584 409 2034 409 
Q 2484 409 2743 651 
Q 3003 894 3003 1313 
Q 3003 1734 2745 1975 
Q 2488 2216 2034 2216 
z
M 1403 2484 
Q 997 2584 770 2862 
Q 544 3141 544 3541 
Q 544 4100 942 4425 
Q 1341 4750 2034 4750 
Q 2731 4750 3128 4425 
Q 3525 4100 3525 3541 
Q 3525 3141 3298 2862 
Q 3072 2584 2669 2484 
Q 3125 2378 3379 2068 
Q 3634 1759 3634 1313 
Q 3634 634 3220 271 
Q 2806 -91 2034 -91 
Q 1263 -91 848 271 
Q 434 634 434 1313 
Q 434 1759 690 2068 
Q 947 2378 1403 2484 
z
M 1172 3481 
Q 1172 3119 1398 2916 
Q 1625 2713 2034 2713 
Q 2441 2713 2670 2916 
Q 2900 3119 2900 3481 
Q 2900 3844 2670 4047 
Q 2441 4250 2034 4250 
Q 1625 4250 1398 4047 
Q 1172 3844 1172 3481 
z
" transform="scale(0.015625)"/>
       </defs>
       <use xlink:href="#DejaVuSans-38"/>
       <use xlink:href="#DejaVuSans-30" x="63.623047"/>
      </g>
     </g>
    </g>
    <g id="ytick_6">
     <g id="line2d_13">
      <g>
       <use xlink:href="#m40fb03d397" x="90" y="113.587793" style="stroke: #000000; stroke-width: 0.8"/>
      </g>
     </g>
     <g id="text_14">
      <!-- 100 -->
      <g transform="translate(54.36875 119.286622)scale(0.15 -0.15)">
       <use xlink:href="#DejaVuSans-31"/>
       <use xlink:href="#DejaVuSans-30" x="63.623047"/>
       <use xlink:href="#DejaVuSans-30" x="127.246094"/>
      </g>
     </g>
    </g>
    <g id="ytick_7">
     <g id="line2d_14">
      <g>
       <use xlink:href="#m40fb03d397" x="90" y="76.25446" style="stroke: #000000; stroke-width: 0.8"/>
      </g>
     </g>
     <g id="text_15">
      <!-- 120 -->
      <g transform="translate(54.36875 81.953288)scale(0.15 -0.15)">
       <use xlink:href="#DejaVuSans-31"/>
       <use xlink:href="#DejaVuSans-32" x="63.623047"/>
       <use xlink:href="#DejaVuSans-30" x="127.246094"/>
      </g>
     </g>
    </g>
    <g id="text_16">
     <!-- Spannung U / mV -->
     <g transform="translate(47.249219 247.294922)rotate(-90)scale(0.15 -0.15)">
      <defs>
       <path id="DejaVuSans-53" d="M 3425 4513 
L 3425 3897 
Q 3066 4069 2747 4153 
Q 2428 4238 2131 4238 
Q 1616 4238 1336 4038 
Q 1056 3838 1056 3469 
Q 1056 3159 1242 3001 
Q 1428 2844 1947 2747 
L 2328 2669 
Q 3034 2534 3370 2195 
Q 3706 1856 3706 1288 
Q 3706 609 3251 259 
Q 2797 -91 1919 -91 
Q 1588 -91 1214 -16 
Q 841 59 441 206 
L 441 856 
Q 825 641 1194 531 
Q 1563 422 1919 422 
Q 2459 422 2753 634 
Q 3047 847 3047 1241 
Q 3047 1584 2836 1778 
Q 2625 1972 2144 2069 
L 1759 2144 
Q 1053 2284 737 2584 
Q 422 2884 422 3419 
Q 422 4038 858 4394 
Q 1294 4750 2059 4750 
Q 2388 4750 2728 4690 
Q 3069 4631 3425 4513 
z
" transform="scale(0.015625)"/>
       <path id="DejaVuSans-70" d="M 1159 525 
L 1159 -1331 
L 581 -1331 
L 581 3500 
L 1159 3500 
L 1159 2969 
Q 1341 3281 1617 3432 
Q 1894 3584 2278 3584 
Q 2916 3584 3314 3078 
Q 3713 2572 3713 1747 
Q 3713 922 3314 415 
Q 2916 -91 2278 -91 
Q 1894 -91 1617 61 
Q 1341 213 1159 525 
z
M 3116 1747 
Q 3116 2381 2855 2742 
Q 2594 3103 2138 3103 
Q 1681 3103 1420 2742 
Q 1159 2381 1159 1747 
Q 1159 1113 1420 752 
Q 1681 391 2138 391 
Q 2594 391 2855 752 
Q 3116 1113 3116 1747 
z
" transform="scale(0.015625)"/>
       <path id="DejaVuSans-67" d="M 2906 1791 
Q 2906 2416 2648 2759 
Q 2391 3103 1925 3103 
Q 1463 3103 1205 2759 
Q 947 2416 947 1791 
Q 947 1169 1205 825 
Q 1463 481 1925 481 
Q 2391 481 2648 825 
Q 2906 1169 2906 1791 
z
M 3481 434 
Q 3481 -459 3084 -895 
Q 2688 -1331 1869 -1331 
Q 1566 -1331 1297 -1286 
Q 1028 -1241 775 -1147 
L 775 -588 
Q 1028 -725 1275 -790 
Q 1522 -856 1778 -856 
Q 2344 -856 2625 -561 
Q 2906 -266 2906 331 
L 2906 616 
Q 2728 306 2450 153 
Q 2172 0 1784 0 
Q 1141 0 747 490 
Q 353 981 353 1791 
Q 353 2603 747 3093 
Q 1141 3584 1784 3584 
Q 2172 3584 2450 3431 
Q 2728 3278 2906 2969 
L 2906 3500 
L 3481 3500 
L 3481 434 
z
" transform="scale(0.015625)"/>
       <path id="DejaVuSans-55" d="M 556 4666 
L 1191 4666 
L 1191 1831 
Q 1191 1081 1462 751 
Q 1734 422 2344 422 
Q 2950 422 3222 751 
Q 3494 1081 3494 1831 
L 3494 4666 
L 4128 4666 
L 4128 1753 
Q 4128 841 3676 375 
Q 3225 -91 2344 -91 
Q 1459 -91 1007 375 
Q 556 841 556 1753 
L 556 4666 
z
" transform="scale(0.015625)"/>
       <path id="DejaVuSans-6d" d="M 3328 2828 
Q 3544 3216 3844 3400 
Q 4144 3584 4550 3584 
Q 5097 3584 5394 3201 
Q 5691 2819 5691 2113 
L 5691 0 
L 5113 0 
L 5113 2094 
Q 5113 2597 4934 2840 
Q 4756 3084 4391 3084 
Q 3944 3084 3684 2787 
Q 3425 2491 3425 1978 
L 3425 0 
L 2847 0 
L 2847 2094 
Q 2847 2600 2669 2842 
Q 2491 3084 2119 3084 
Q 1678 3084 1418 2786 
Q 1159 2488 1159 1978 
L 1159 0 
L 581 0 
L 581 3500 
L 1159 3500 
L 1159 2956 
Q 1356 3278 1631 3431 
Q 1906 3584 2284 3584 
Q 2666 3584 2933 3390 
Q 3200 3197 3328 2828 
z
" transform="scale(0.015625)"/>
       <path id="DejaVuSans-56" d="M 1831 0 
L 50 4666 
L 709 4666 
L 2188 738 
L 3669 4666 
L 4325 4666 
L 2547 0 
L 1831 0 
z
" transform="scale(0.015625)"/>
      </defs>
      <use xlink:href="#DejaVuSans-53"/>
      <use xlink:href="#DejaVuSans-70" x="63.476562"/>
      <use xlink:href="#DejaVuSans-61" x="126.953125"/>
      <use xlink:href="#DejaVuSans-6e" x="188.232422"/>
      <use xlink:href="#DejaVuSans-6e" x="251.611328"/>
      <use xlink:href="#DejaVuSans-75" x="314.990234"/>
      <use xlink:href="#DejaVuSans-6e" x="378.369141"/>
      <use xlink:href="#DejaVuSans-67" x="441.748047"/>
      <use xlink:href="#DejaVuSans-20" x="505.224609"/>
      <use xlink:href="#DejaVuSans-55" x="537.011719"/>
      <use xlink:href="#DejaVuSans-20" x="610.205078"/>
      <use xlink:href="#DejaVuSans-2f" x="641.992188"/>
      <use xlink:href="#DejaVuSans-20" x="675.683594"/>
      <use xlink:href="#DejaVuSans-6d" x="707.470703"/>
      <use xlink:href="#DejaVuSans-56" x="804.882812"/>
     </g>
    </g>
   </g>
   <g id="line2d_15">
    <defs>
     <path id="mdc77c3191f" d="M -5 5 
L 5 -5 
M -5 -5 
L 5 5 
" style="stroke: #d62728"/>
    </defs>
    <g clip-path="url(#p978e2100df)">
     <use xlink:href="#mdc77c3191f" x="324.539536" y="55.8" style="fill: #d62728; stroke: #d62728"/>
     <use xlink:href="#mdc77c3191f" x="597.230384" y="57.666667" style="fill: #d62728; stroke: #d62728"/>
    </g>
   </g>
   <g id="line2d_16">
    <path d="M 115.363636 305.933333 
L 117.057368 294.733333 
L 117.904234 307.8 
L 118.7511 304.066667 
L 119.597966 298.466667 
L 120.444832 298.466667 
L 121.291698 305.933333 
L 122.138564 304.066667 
L 122.98543 298.466667 
L 123.832296 296.6 
L 124.679162 305.933333 
L 125.526028 304.066667 
L 126.372894 300.333333 
L 127.21976 302.2 
L 128.913492 302.2 
L 129.760358 300.333333 
L 130.607224 302.2 
L 131.45409 300.333333 
L 132.300956 302.2 
L 133.147822 298.466667 
L 133.994688 300.333333 
L 134.841554 294.733333 
L 135.68842 294.733333 
L 136.535286 289.133333 
L 137.382152 289.133333 
L 138.229018 285.4 
L 139.075884 287.266667 
L 139.92275 283.533333 
L 140.769616 285.4 
L 141.616482 291 
L 142.463348 289.133333 
L 143.310214 294.733333 
L 144.15708 292.866667 
L 145.003946 294.733333 
L 145.850812 294.733333 
L 146.697678 300.333333 
L 147.544544 296.6 
L 148.39141 300.333333 
L 149.238276 302.2 
L 150.085142 298.466667 
L 150.932008 298.466667 
L 151.778874 302.2 
L 152.62574 300.333333 
L 153.472606 304.066667 
L 154.319472 300.333333 
L 155.166338 304.066667 
L 156.013204 302.2 
L 156.86007 305.933333 
L 157.706936 302.2 
L 158.553802 304.066667 
L 159.400668 304.066667 
L 160.247534 302.2 
L 161.0944 302.2 
L 161.941266 305.933333 
L 162.788132 302.2 
L 163.634998 305.933333 
L 164.481864 304.066667 
L 165.32873 294.733333 
L 166.175596 305.933333 
L 167.022462 302.2 
L 167.869328 302.2 
L 168.716194 307.8 
L 169.56306 305.933333 
L 170.409926 302.2 
L 171.256792 302.2 
L 172.103658 307.8 
L 172.950524 305.933333 
L 173.79739 302.2 
L 174.644256 302.2 
L 175.491122 305.933333 
L 176.337988 305.933333 
L 177.184854 302.2 
L 178.03172 302.2 
L 178.878586 305.933333 
L 179.725452 302.2 
L 180.572317 305.933333 
L 181.419183 302.2 
L 182.266049 304.066667 
L 183.112915 302.2 
L 183.959781 304.066667 
L 184.806647 302.2 
L 185.653513 305.933333 
L 186.500379 302.2 
L 187.347245 304.066667 
L 188.194111 302.2 
L 189.040977 305.933333 
L 189.887843 305.933333 
L 190.734709 302.2 
L 191.581575 302.2 
L 192.428441 307.8 
L 193.275307 296.6 
L 194.122173 307.8 
L 194.969039 307.8 
L 195.815905 298.466667 
L 196.662771 302.2 
L 197.509637 307.8 
L 198.356503 307.8 
L 199.203369 296.6 
L 200.050235 307.8 
L 200.897101 304.066667 
L 201.743967 296.6 
L 202.590833 307.8 
L 203.437699 307.8 
L 205.131431 300.333333 
L 205.978297 305.933333 
L 206.825163 307.8 
L 207.672029 302.2 
L 208.518895 302.2 
L 209.365761 307.8 
L 210.212627 307.8 
L 211.059493 302.2 
L 211.906359 302.2 
L 212.753225 307.8 
L 213.600091 302.2 
L 214.446957 307.8 
L 215.293823 304.066667 
L 216.140689 305.933333 
L 216.987555 302.2 
L 217.834421 305.933333 
L 218.681287 305.933333 
L 219.528153 307.8 
L 220.375019 307.8 
L 221.221885 291 
L 222.068751 307.8 
L 222.915617 302.2 
L 223.762483 294.733333 
L 224.609349 307.8 
L 225.456215 307.8 
L 226.303081 296.6 
L 227.149947 298.466667 
L 227.996813 307.8 
L 228.843679 307.8 
L 229.690545 298.466667 
L 230.537411 307.8 
L 231.384277 304.066667 
L 232.231143 296.6 
L 233.078009 307.8 
L 233.924875 307.8 
L 234.771741 304.066667 
L 235.618607 302.2 
L 236.465473 307.8 
L 237.312339 307.8 
L 238.159205 304.066667 
L 239.006071 302.2 
L 239.852937 307.8 
L 242.393535 302.2 
L 243.240401 307.8 
L 244.087267 302.2 
L 244.934133 307.8 
L 245.780999 307.8 
L 246.627865 296.6 
L 247.474731 296.6 
L 248.321597 307.8 
L 249.168463 305.933333 
L 250.015329 302.2 
L 250.862195 307.8 
L 251.709061 304.066667 
L 252.555927 302.2 
L 253.402793 305.933333 
L 254.249659 307.8 
L 255.096525 302.2 
L 255.94339 307.8 
L 256.790256 304.066667 
L 257.637122 305.933333 
L 258.483988 302.2 
L 259.330854 305.933333 
L 260.17772 302.2 
L 261.024586 302.2 
L 261.871452 305.933333 
L 262.718318 302.2 
L 263.565184 307.8 
L 264.41205 305.933333 
L 265.258916 302.2 
L 266.952648 305.933333 
L 267.799514 305.933333 
L 268.64638 302.2 
L 269.493246 305.933333 
L 270.340112 302.2 
L 271.186978 302.2 
L 272.033844 305.933333 
L 273.727576 302.2 
L 274.574442 304.066667 
L 275.421308 307.8 
L 276.268174 302.2 
L 277.11504 305.933333 
L 277.961906 305.933333 
L 278.808772 302.2 
L 279.655638 302.2 
L 280.502504 304.066667 
L 281.34937 304.066667 
L 282.196236 302.2 
L 283.043102 302.2 
L 283.889968 305.933333 
L 284.736834 302.2 
L 285.5837 305.933333 
L 286.430566 302.2 
L 287.277432 304.066667 
L 288.124298 304.066667 
L 288.971164 302.2 
L 289.81803 304.066667 
L 290.664896 302.2 
L 291.511762 304.066667 
L 292.358628 302.2 
L 294.05236 302.2 
L 294.899226 300.333333 
L 295.746092 304.066667 
L 296.592958 302.2 
L 297.439824 302.2 
L 298.28669 300.333333 
L 299.133556 304.066667 
L 299.980422 302.2 
L 300.827288 294.733333 
L 301.674154 300.333333 
L 302.52102 304.066667 
L 303.367886 302.2 
L 304.214752 298.466667 
L 305.061618 298.466667 
L 305.908484 302.2 
L 306.75535 296.6 
L 307.602216 300.333333 
L 308.449082 298.466667 
L 309.295948 292.866667 
L 310.142814 294.733333 
L 310.98968 292.866667 
L 311.836546 292.866667 
L 312.683412 289.133333 
L 313.530278 289.133333 
L 314.377144 281.666667 
L 315.22401 281.666667 
L 316.070876 270.466667 
L 316.917742 268.6 
L 317.764608 223.8 
L 318.611474 214.466667 
L 319.45834 134.2 
L 320.305206 128.6 
L 321.152072 89.4 
L 321.998938 85.666667 
L 322.845804 63.266667 
L 323.69267 61.4 
L 324.539536 55.8 
L 325.386402 61.4 
L 326.233268 80.066667 
L 327.080134 83.8 
L 327.927 109.933333 
L 328.773866 115.533333 
L 329.620732 154.733333 
L 330.467598 156.6 
L 331.314463 173.4 
L 332.161329 177.133333 
L 333.008195 214.466667 
L 333.855061 218.2 
L 334.701927 235 
L 335.548793 236.866667 
L 336.395659 248.066667 
L 337.242525 248.066667 
L 338.089391 255.533333 
L 338.936257 255.533333 
L 339.783123 266.733333 
L 340.629989 268.6 
L 341.476855 276.066667 
L 342.323721 270.466667 
L 343.170587 279.8 
L 344.017453 281.666667 
L 344.864319 285.4 
L 345.711185 283.533333 
L 346.558051 289.133333 
L 347.404917 289.133333 
L 349.098649 292.866667 
L 349.945515 291 
L 350.792381 294.733333 
L 351.639247 291 
L 353.332979 298.466667 
L 354.179845 289.133333 
L 355.026711 302.2 
L 355.873577 302.2 
L 356.720443 296.6 
L 357.567309 296.6 
L 358.414175 300.333333 
L 359.261041 300.333333 
L 360.107907 294.733333 
L 360.954773 298.466667 
L 361.801639 300.333333 
L 362.648505 298.466667 
L 363.495371 302.2 
L 364.342237 302.2 
L 365.189103 300.333333 
L 366.035969 300.333333 
L 366.882835 302.2 
L 367.729701 300.333333 
L 368.576567 304.066667 
L 369.423433 302.2 
L 370.270299 304.066667 
L 371.964031 300.333333 
L 373.657763 304.066667 
L 374.504629 304.066667 
L 375.351495 300.333333 
L 377.045227 304.066667 
L 377.892093 302.2 
L 378.738959 304.066667 
L 379.585825 302.2 
L 380.432691 304.066667 
L 381.279557 302.2 
L 382.126423 304.066667 
L 382.973289 298.466667 
L 383.820155 307.8 
L 384.667021 305.933333 
L 385.513887 294.733333 
L 386.360753 294.733333 
L 387.207619 307.8 
L 388.054485 305.933333 
L 388.901351 296.6 
L 389.748217 304.066667 
L 390.595083 307.8 
L 391.441949 304.066667 
L 392.288815 302.2 
L 393.135681 307.8 
L 393.982547 302.2 
L 394.829413 302.2 
L 395.676279 304.066667 
L 396.523145 302.2 
L 397.370011 305.933333 
L 398.216877 302.2 
L 399.063743 304.066667 
L 399.910609 302.2 
L 400.757475 305.933333 
L 401.604341 302.2 
L 402.451207 305.933333 
L 403.298073 305.933333 
L 404.144939 302.2 
L 404.991805 305.933333 
L 405.838671 302.2 
L 406.685537 305.933333 
L 407.532402 302.2 
L 408.379268 307.8 
L 409.226134 298.466667 
L 410.073 294.733333 
L 410.919866 307.8 
L 411.766732 305.933333 
L 412.613598 300.333333 
L 413.460464 305.933333 
L 414.30733 302.2 
L 415.154196 302.2 
L 416.001062 305.933333 
L 416.847928 304.066667 
L 417.694794 300.333333 
L 418.54166 298.466667 
L 419.388526 302.2 
L 420.235392 302.2 
L 421.082258 296.6 
L 421.929124 300.333333 
L 422.77599 291 
L 423.622856 289.133333 
L 425.316588 289.133333 
L 426.163454 287.266667 
L 427.01032 287.266667 
L 427.857186 291 
L 428.704052 289.133333 
L 429.550918 294.733333 
L 430.397784 296.6 
L 431.24465 292.866667 
L 432.938382 296.6 
L 433.785248 296.6 
L 434.632114 302.2 
L 435.47898 302.2 
L 436.325846 294.733333 
L 437.172712 302.2 
L 438.019578 307.8 
L 438.866444 294.733333 
L 439.71331 305.933333 
L 440.560176 307.8 
L 442.253908 300.333333 
L 443.100774 307.8 
L 443.94764 305.933333 
L 444.794506 302.2 
L 445.641372 302.2 
L 446.488238 307.8 
L 447.335104 304.066667 
L 448.18197 307.8 
L 449.028836 304.066667 
L 449.875702 307.8 
L 450.722568 307.8 
L 451.569434 302.2 
L 452.4163 304.066667 
L 453.263166 307.8 
L 454.110032 304.066667 
L 454.956898 307.8 
L 455.803764 304.066667 
L 456.65063 307.8 
L 457.497496 307.8 
L 458.344362 302.2 
L 459.191228 307.8 
L 460.038094 304.066667 
L 460.88496 304.066667 
L 461.731826 307.8 
L 462.578692 307.8 
L 463.425558 304.066667 
L 464.272424 305.933333 
L 465.11929 304.066667 
L 465.966156 304.066667 
L 466.813022 307.8 
L 467.659888 307.8 
L 468.506754 304.066667 
L 469.35362 304.066667 
L 470.200486 307.8 
L 471.047352 304.066667 
L 471.894218 305.933333 
L 472.741084 302.2 
L 473.58795 305.933333 
L 474.434816 305.933333 
L 475.281682 302.2 
L 476.128548 304.066667 
L 476.975414 307.8 
L 477.82228 304.066667 
L 478.669146 307.8 
L 479.516012 307.8 
L 480.362878 302.2 
L 481.209744 307.8 
L 482.05661 305.933333 
L 482.903475 307.8 
L 483.750341 304.066667 
L 484.597207 304.066667 
L 485.444073 307.8 
L 486.290939 307.8 
L 487.137805 305.933333 
L 487.984671 307.8 
L 488.831537 305.933333 
L 489.678403 307.8 
L 490.525269 304.066667 
L 491.372135 307.8 
L 492.219001 304.066667 
L 493.065867 302.2 
L 493.912733 307.8 
L 494.759599 307.8 
L 495.606465 304.066667 
L 496.453331 307.8 
L 497.300197 305.933333 
L 498.147063 307.8 
L 499.840795 304.066667 
L 500.687661 307.8 
L 501.534527 307.8 
L 502.381393 305.933333 
L 503.228259 307.8 
L 504.075125 305.933333 
L 504.921991 305.933333 
L 505.768857 307.8 
L 506.615723 307.8 
L 507.462589 305.933333 
L 508.309455 307.8 
L 509.156321 305.933333 
L 510.003187 307.8 
L 510.850053 305.933333 
L 511.696919 307.8 
L 512.543785 305.933333 
L 513.390651 307.8 
L 514.237517 305.933333 
L 515.084383 307.8 
L 515.931249 304.066667 
L 516.778115 307.8 
L 518.471847 307.8 
L 519.318713 304.066667 
L 520.165579 307.8 
L 521.012445 305.933333 
L 521.859311 305.933333 
L 522.706177 307.8 
L 523.553043 307.8 
L 524.399909 304.066667 
L 525.246775 307.8 
L 526.093641 304.066667 
L 526.940507 307.8 
L 527.787373 302.2 
L 528.634239 307.8 
L 529.481105 305.933333 
L 530.327971 305.933333 
L 531.174837 307.8 
L 532.021703 307.8 
L 532.868569 305.933333 
L 533.715435 305.933333 
L 534.562301 307.8 
L 535.409167 302.2 
L 536.256033 307.8 
L 537.102899 304.066667 
L 537.949765 307.8 
L 538.796631 305.933333 
L 539.643497 307.8 
L 540.490363 307.8 
L 541.337229 304.066667 
L 542.184095 307.8 
L 543.030961 304.066667 
L 543.877827 304.066667 
L 544.724693 307.8 
L 545.571559 307.8 
L 546.418425 305.933333 
L 547.265291 305.933333 
L 548.112157 307.8 
L 548.959023 307.8 
L 549.805889 304.066667 
L 550.652755 307.8 
L 551.499621 304.066667 
L 552.346487 307.8 
L 553.193353 304.066667 
L 554.040219 307.8 
L 554.887085 304.066667 
L 555.733951 307.8 
L 556.580817 304.066667 
L 557.427683 307.8 
L 558.274548 304.066667 
L 559.121414 302.2 
L 559.96828 307.8 
L 560.815146 304.066667 
L 561.662012 307.8 
L 562.508878 307.8 
L 563.355744 305.933333 
L 564.20261 305.933333 
L 565.049476 304.066667 
L 565.896342 304.066667 
L 566.743208 307.8 
L 567.590074 307.8 
L 568.43694 302.2 
L 569.283806 307.8 
L 570.130672 304.066667 
L 570.977538 305.933333 
L 571.824404 302.2 
L 572.67127 307.8 
L 573.518136 302.2 
L 574.365002 302.2 
L 575.211868 307.8 
L 576.058734 305.933333 
L 576.9056 302.2 
L 577.752466 302.2 
L 578.599332 305.933333 
L 581.13993 300.333333 
L 581.986796 304.066667 
L 582.833662 302.2 
L 583.680528 298.466667 
L 584.527394 298.466667 
L 585.37426 302.2 
L 586.221126 298.466667 
L 587.067992 292.866667 
L 587.914858 294.733333 
L 588.761724 289.133333 
L 589.60859 292.866667 
L 590.455456 277.933333 
L 591.302322 276.066667 
L 592.149188 248.066667 
L 592.996054 246.2 
L 593.84292 175.266667 
L 594.689786 167.8 
L 595.536652 85.666667 
L 596.383518 80.066667 
L 597.230384 57.666667 
L 598.07725 61.4 
L 598.924116 76.333333 
L 599.770982 81.933333 
L 600.617848 123 
L 601.464714 130.466667 
L 602.31158 169.666667 
L 603.158446 171.533333 
L 604.005312 203.266667 
L 604.852178 208.866667 
L 605.699044 235 
L 606.54591 236.866667 
L 607.392776 255.533333 
L 608.239642 257.4 
L 609.086508 268.6 
L 609.933374 268.6 
L 610.78024 277.933333 
L 611.627106 277.933333 
L 612.473972 283.533333 
L 613.320838 283.533333 
L 614.167704 289.133333 
L 615.01457 289.133333 
L 615.861436 294.733333 
L 616.708302 294.733333 
L 617.555168 291 
L 618.402034 294.733333 
L 619.2489 296.6 
L 620.095766 294.733333 
L 620.942632 300.333333 
L 621.789498 296.6 
L 622.636364 300.333333 
L 622.636364 300.333333 
" clip-path="url(#p978e2100df)" style="fill: none; stroke: #1f77b4; stroke-width: 1.5; stroke-linecap: square"/>
   </g>
   <g id="patch_3">
    <path d="M 90 320.4 
L 90 43.2 
" style="fill: none; stroke: #000000; stroke-width: 0.8; stroke-linejoin: miter; stroke-linecap: square"/>
   </g>
   <g id="patch_4">
    <path d="M 648 320.4 
L 648 43.2 
" style="fill: none; stroke: #000000; stroke-width: 0.8; stroke-linejoin: miter; stroke-linecap: square"/>
   </g>
   <g id="patch_5">
    <path d="M 90 320.4 
L 648 320.4 
" style="fill: none; stroke: #000000; stroke-width: 0.8; stroke-linejoin: miter; stroke-linecap: square"/>
   </g>
   <g id="patch_6">
    <path d="M 90 43.2 
L 648 43.2 
" style="fill: none; stroke: #000000; stroke-width: 0.8; stroke-linejoin: miter; stroke-linecap: square"/>
   </g>
   <g id="text_17">
    <!-- Polarisation der Moden im kommerziellen Laser -->
    <g transform="translate(155.363906 37.2)scale(0.18 -0.18)">
     <defs>
      <path id="DejaVuSans-50" d="M 1259 4147 
L 1259 2394 
L 2053 2394 
Q 2494 2394 2734 2622 
Q 2975 2850 2975 3272 
Q 2975 3691 2734 3919 
Q 2494 4147 2053 4147 
L 1259 4147 
z
M 628 4666 
L 2053 4666 
Q 2838 4666 3239 4311 
Q 3641 3956 3641 3272 
Q 3641 2581 3239 2228 
Q 2838 1875 2053 1875 
L 1259 1875 
L 1259 0 
L 628 0 
L 628 4666 
z
" transform="scale(0.015625)"/>
      <path id="DejaVuSans-6f" d="M 1959 3097 
Q 1497 3097 1228 2736 
Q 959 2375 959 1747 
Q 959 1119 1226 758 
Q 1494 397 1959 397 
Q 2419 397 2687 759 
Q 2956 1122 2956 1747 
Q 2956 2369 2687 2733 
Q 2419 3097 1959 3097 
z
M 1959 3584 
Q 2709 3584 3137 3096 
Q 3566 2609 3566 1747 
Q 3566 888 3137 398 
Q 2709 -91 1959 -91 
Q 1206 -91 779 398 
Q 353 888 353 1747 
Q 353 2609 779 3096 
Q 1206 3584 1959 3584 
z
" transform="scale(0.015625)"/>
      <path id="DejaVuSans-72" d="M 2631 2963 
Q 2534 3019 2420 3045 
Q 2306 3072 2169 3072 
Q 1681 3072 1420 2755 
Q 1159 2438 1159 1844 
L 1159 0 
L 581 0 
L 581 3500 
L 1159 3500 
L 1159 2956 
Q 1341 3275 1631 3429 
Q 1922 3584 2338 3584 
Q 2397 3584 2469 3576 
Q 2541 3569 2628 3553 
L 2631 2963 
z
" transform="scale(0.015625)"/>
      <path id="DejaVuSans-69" d="M 603 3500 
L 1178 3500 
L 1178 0 
L 603 0 
L 603 3500 
z
M 603 4863 
L 1178 4863 
L 1178 4134 
L 603 4134 
L 603 4863 
z
" transform="scale(0.015625)"/>
      <path id="DejaVuSans-73" d="M 2834 3397 
L 2834 2853 
Q 2591 2978 2328 3040 
Q 2066 3103 1784 3103 
Q 1356 3103 1142 2972 
Q 928 2841 928 2578 
Q 928 2378 1081 2264 
Q 1234 2150 1697 2047 
L 1894 2003 
Q 2506 1872 2764 1633 
Q 3022 1394 3022 966 
Q 3022 478 2636 193 
Q 2250 -91 1575 -91 
Q 1294 -91 989 -36 
Q 684 19 347 128 
L 347 722 
Q 666 556 975 473 
Q 1284 391 1588 391 
Q 1994 391 2212 530 
Q 2431 669 2431 922 
Q 2431 1156 2273 1281 
Q 2116 1406 1581 1522 
L 1381 1569 
Q 847 1681 609 1914 
Q 372 2147 372 2553 
Q 372 3047 722 3315 
Q 1072 3584 1716 3584 
Q 2034 3584 2315 3537 
Q 2597 3491 2834 3397 
z
" transform="scale(0.015625)"/>
      <path id="DejaVuSans-74" d="M 1172 4494 
L 1172 3500 
L 2356 3500 
L 2356 3053 
L 1172 3053 
L 1172 1153 
Q 1172 725 1289 603 
Q 1406 481 1766 481 
L 2356 481 
L 2356 0 
L 1766 0 
Q 1100 0 847 248 
Q 594 497 594 1153 
L 594 3053 
L 172 3053 
L 172 3500 
L 594 3500 
L 594 4494 
L 1172 4494 
z
" transform="scale(0.015625)"/>
      <path id="DejaVuSans-64" d="M 2906 2969 
L 2906 4863 
L 3481 4863 
L 3481 0 
L 2906 0 
L 2906 525 
Q 2725 213 2448 61 
Q 2172 -91 1784 -91 
Q 1150 -91 751 415 
Q 353 922 353 1747 
Q 353 2572 751 3078 
Q 1150 3584 1784 3584 
Q 2172 3584 2448 3432 
Q 2725 3281 2906 2969 
z
M 947 1747 
Q 947 1113 1208 752 
Q 1469 391 1925 391 
Q 2381 391 2643 752 
Q 2906 1113 2906 1747 
Q 2906 2381 2643 2742 
Q 2381 3103 1925 3103 
Q 1469 3103 1208 2742 
Q 947 2381 947 1747 
z
" transform="scale(0.015625)"/>
      <path id="DejaVuSans-65" d="M 3597 1894 
L 3597 1613 
L 953 1613 
Q 991 1019 1311 708 
Q 1631 397 2203 397 
Q 2534 397 2845 478 
Q 3156 559 3463 722 
L 3463 178 
Q 3153 47 2828 -22 
Q 2503 -91 2169 -91 
Q 1331 -91 842 396 
Q 353 884 353 1716 
Q 353 2575 817 3079 
Q 1281 3584 2069 3584 
Q 2775 3584 3186 3129 
Q 3597 2675 3597 1894 
z
M 3022 2063 
Q 3016 2534 2758 2815 
Q 2500 3097 2075 3097 
Q 1594 3097 1305 2825 
Q 1016 2553 972 2059 
L 3022 2063 
z
" transform="scale(0.015625)"/>
      <path id="DejaVuSans-4d" d="M 628 4666 
L 1569 4666 
L 2759 1491 
L 3956 4666 
L 4897 4666 
L 4897 0 
L 4281 0 
L 4281 4097 
L 3078 897 
L 2444 897 
L 1241 4097 
L 1241 0 
L 628 0 
L 628 4666 
z
" transform="scale(0.015625)"/>
      <path id="DejaVuSans-6b" d="M 581 4863 
L 1159 4863 
L 1159 1991 
L 2875 3500 
L 3609 3500 
L 1753 1863 
L 3688 0 
L 2938 0 
L 1159 1709 
L 1159 0 
L 581 0 
L 581 4863 
z
" transform="scale(0.015625)"/>
      <path id="DejaVuSans-7a" d="M 353 3500 
L 3084 3500 
L 3084 2975 
L 922 459 
L 3084 459 
L 3084 0 
L 275 0 
L 275 525 
L 2438 3041 
L 353 3041 
L 353 3500 
z
" transform="scale(0.015625)"/>
      <path id="DejaVuSans-4c" d="M 628 4666 
L 1259 4666 
L 1259 531 
L 3531 531 
L 3531 0 
L 628 0 
L 628 4666 
z
" transform="scale(0.015625)"/>
     </defs>
     <use xlink:href="#DejaVuSans-50"/>
     <use xlink:href="#DejaVuSans-6f" x="56.677734"/>
     <use xlink:href="#DejaVuSans-6c" x="117.859375"/>
     <use xlink:href="#DejaVuSans-61" x="145.642578"/>
     <use xlink:href="#DejaVuSans-72" x="206.921875"/>
     <use xlink:href="#DejaVuSans-69" x="248.035156"/>
     <use xlink:href="#DejaVuSans-73" x="275.818359"/>
     <use xlink:href="#DejaVuSans-61" x="327.917969"/>
     <use xlink:href="#DejaVuSans-74" x="389.197266"/>
     <use xlink:href="#DejaVuSans-69" x="428.40625"/>
     <use xlink:href="#DejaVuSans-6f" x="456.189453"/>
     <use xlink:href="#DejaVuSans-6e" x="517.371094"/>
     <use xlink:href="#DejaVuSans-20" x="580.75"/>
     <use xlink:href="#DejaVuSans-64" x="612.537109"/>
     <use xlink:href="#DejaVuSans-65" x="676.013672"/>
     <use xlink:href="#DejaVuSans-72" x="737.537109"/>
     <use xlink:href="#DejaVuSans-20" x="778.650391"/>
     <use xlink:href="#DejaVuSans-4d" x="810.4375"/>
     <use xlink:href="#DejaVuSans-6f" x="896.716797"/>
     <use xlink:href="#DejaVuSans-64" x="957.898438"/>
     <use xlink:href="#DejaVuSans-65" x="1021.375"/>
     <use xlink:href="#DejaVuSans-6e" x="1082.898438"/>
     <use xlink:href="#DejaVuSans-20" x="1146.277344"/>
     <use xlink:href="#DejaVuSans-69" x="1178.064453"/>
     <use xlink:href="#DejaVuSans-6d" x="1205.847656"/>
     <use xlink:href="#DejaVuSans-20" x="1303.259766"/>
     <use xlink:href="#DejaVuSans-6b" x="1335.046875"/>
     <use xlink:href="#DejaVuSans-6f" x="1389.332031"/>
     <use xlink:href="#DejaVuSans-6d" x="1450.513672"/>
     <use xlink:href="#DejaVuSans-6d" x="1547.925781"/>
     <use xlink:href="#DejaVuSans-65" x="1645.337891"/>
     <use xlink:href="#DejaVuSans-72" x="1706.861328"/>
     <use xlink:href="#DejaVuSans-7a" x="1747.974609"/>
     <use xlink:href="#DejaVuSans-69" x="1800.464844"/>
     <use xlink:href="#DejaVuSans-65" x="1828.248047"/>
     <use xlink:href="#DejaVuSans-6c" x="1889.771484"/>
     <use xlink:href="#DejaVuSans-6c" x="1917.554688"/>
     <use xlink:href="#DejaVuSans-65" x="1945.337891"/>
     <use xlink:href="#DejaVuSans-6e" x="2006.861328"/>
     <use xlink:href="#DejaVuSans-20" x="2070.240234"/>
     <use xlink:href="#DejaVuSans-4c" x="2102.027344"/>
     <use xlink:href="#DejaVuSans-61" x="2157.740234"/>
     <use xlink:href="#DejaVuSans-73" x="2219.019531"/>
     <use xlink:href="#DejaVuSans-65" x="2271.119141"/>
     <use xlink:href="#DejaVuSans-72" x="2332.642578"/>
    </g>
   </g>
   <g id="legend_1">
    <g id="patch_7">
     <path d="M 97.7 84.291875 
L 280.74 84.291875 
Q 282.94 84.291875 282.94 82.091875 
L 282.94 50.9 
Q 282.94 48.7 280.74 48.7 
L 97.7 48.7 
Q 95.5 48.7 95.5 50.9 
L 95.5 82.091875 
Q 95.5 84.291875 97.7 84.291875 
z
" style="fill: #ffffff; opacity: 0.8; stroke: #cccccc; stroke-linejoin: miter"/>
    </g>
    <g id="line2d_17">
     <g>
      <use xlink:href="#mdc77c3191f" x="110.9" y="57.608281" style="fill: #d62728; stroke: #d62728"/>
     </g>
    </g>
    <g id="text_18">
     <!-- Peaks -->
     <g transform="translate(130.7 61.458281)scale(0.11 -0.11)">
      <use xlink:href="#DejaVuSans-50"/>
      <use xlink:href="#DejaVuSans-65" x="56.677734"/>
      <use xlink:href="#DejaVuSans-61" x="118.201172"/>
      <use xlink:href="#DejaVuSans-6b" x="179.480469"/>
      <use xlink:href="#DejaVuSans-73" x="237.390625"/>
     </g>
    </g>
    <g id="line2d_18">
     <path d="M 99.9 73.754219 
L 110.9 73.754219 
L 121.9 73.754219 
" style="fill: none; stroke: #1f77b4; stroke-width: 1.5; stroke-linecap: square"/>
    </g>
    <g id="text_19">
     <!-- Polarisationswinkel $\Theta=\pi/2$ -->
     <g transform="translate(130.7 77.604219)scale(0.11 -0.11)">
      <defs>
       <path id="DejaVuSans-77" d="M 269 3500 
L 844 3500 
L 1563 769 
L 2278 3500 
L 2956 3500 
L 3675 769 
L 4391 3500 
L 4966 3500 
L 4050 0 
L 3372 0 
L 2619 2869 
L 1863 0 
L 1184 0 
L 269 3500 
z
" transform="scale(0.015625)"/>
       <path id="DejaVuSans-398" d="M 1416 2750 
L 3622 2750 
L 3622 2219 
L 1416 2219 
L 1416 2750 
z
M 2522 4238 
Q 1834 4238 1431 3725 
Q 1025 3213 1025 2328 
Q 1025 1447 1429 934 
Q 1834 422 2522 422 
Q 3209 422 3613 934 
Q 4013 1447 4013 2328 
Q 4013 3213 3613 3725 
Q 3209 4238 2522 4238 
z
M 2522 4750 
Q 3503 4750 4090 4092 
Q 4678 3434 4678 2328 
Q 4678 1225 4091 569 
Q 3503 -91 2522 -91 
Q 1538 -91 950 566 
Q 359 1222 359 2328 
Q 359 3434 950 4094 
Q 1538 4750 2522 4750 
z
" transform="scale(0.015625)"/>
       <path id="DejaVuSans-3d" d="M 678 2906 
L 4684 2906 
L 4684 2381 
L 678 2381 
L 678 2906 
z
M 678 1631 
L 4684 1631 
L 4684 1100 
L 678 1100 
L 678 1631 
z
" transform="scale(0.015625)"/>
       <path id="DejaVuSans-Oblique-3c0" d="M 584 3500 
L 3938 3500 
L 3825 2925 
L 3384 2925 
L 2966 775 
Q 2922 550 2981 450 
Q 3038 353 3209 353 
Q 3256 353 3325 363 
Q 3397 369 3419 372 
L 3338 -44 
Q 3222 -84 3103 -103 
Q 2981 -122 2866 -122 
Q 2491 -122 2388 81 
Q 2284 288 2391 838 
L 2797 2925 
L 1506 2925 
L 938 0 
L 350 0 
L 919 2925 
L 472 2925 
L 584 3500 
z
" transform="scale(0.015625)"/>
      </defs>
      <use xlink:href="#DejaVuSans-50" transform="translate(0 0.015625)"/>
      <use xlink:href="#DejaVuSans-6f" transform="translate(60.302734 0.015625)"/>
      <use xlink:href="#DejaVuSans-6c" transform="translate(121.484375 0.015625)"/>
      <use xlink:href="#DejaVuSans-61" transform="translate(149.267578 0.015625)"/>
      <use xlink:href="#DejaVuSans-72" transform="translate(210.546875 0.015625)"/>
      <use xlink:href="#DejaVuSans-69" transform="translate(251.660156 0.015625)"/>
      <use xlink:href="#DejaVuSans-73" transform="translate(279.443359 0.015625)"/>
      <use xlink:href="#DejaVuSans-61" transform="translate(331.542969 0.015625)"/>
      <use xlink:href="#DejaVuSans-74" transform="translate(392.822266 0.015625)"/>
      <use xlink:href="#DejaVuSans-69" transform="translate(432.03125 0.015625)"/>
      <use xlink:href="#DejaVuSans-6f" transform="translate(459.814453 0.015625)"/>
      <use xlink:href="#DejaVuSans-6e" transform="translate(520.996094 0.015625)"/>
      <use xlink:href="#DejaVuSans-73" transform="translate(584.375 0.015625)"/>
      <use xlink:href="#DejaVuSans-77" transform="translate(636.474609 0.015625)"/>
      <use xlink:href="#DejaVuSans-69" transform="translate(718.261719 0.015625)"/>
      <use xlink:href="#DejaVuSans-6e" transform="translate(746.044922 0.015625)"/>
      <use xlink:href="#DejaVuSans-6b" transform="translate(809.423828 0.015625)"/>
      <use xlink:href="#DejaVuSans-65" transform="translate(867.333984 0.015625)"/>
      <use xlink:href="#DejaVuSans-6c" transform="translate(928.857422 0.015625)"/>
      <use xlink:href="#DejaVuSans-20" transform="translate(956.640625 0.015625)"/>
      <use xlink:href="#DejaVuSans-398" transform="translate(988.427734 0.015625)"/>
      <use xlink:href="#DejaVuSans-3d" transform="translate(1086.621094 0.015625)"/>
      <use xlink:href="#DejaVuSans-Oblique-3c0" transform="translate(1189.892578 0.015625)"/>
      <use xlink:href="#DejaVuSans-2f" transform="translate(1250.097656 0.015625)"/>
      <use xlink:href="#DejaVuSans-32" transform="translate(1280.164062 0.015625)"/>
     </g>
    </g>
   </g>
  </g>
 </g>
 <defs>
  <clipPath id="p978e2100df">
   <rect x="90" y="43.2" width="558" height="277.2"/>
  </clipPath>
 </defs>
</svg>
