<?xml version="1.0" encoding="utf-8" standalone="no"?>
<!DOCTYPE svg PUBLIC "-//W3C//DTD SVG 1.1//EN"
  "http://www.w3.org/Graphics/SVG/1.1/DTD/svg11.dtd">
<svg xmlns:xlink="http://www.w3.org/1999/xlink" width="720pt" height="360pt" viewBox="0 0 720 360" xmlns="http://www.w3.org/2000/svg" version="1.1">
 <metadata>
  <rdf:RDF xmlns:dc="http://purl.org/dc/elements/1.1/" xmlns:cc="http://creativecommons.org/ns#" xmlns:rdf="http://www.w3.org/1999/02/22-rdf-syntax-ns#">
   <cc:Work>
    <dc:type rdf:resource="http://purl.org/dc/dcmitype/StillImage"/>
    <dc:date>2022-01-31T18:38:41.094453</dc:date>
    <dc:format>image/svg+xml</dc:format>
    <dc:creator>
     <cc:Agent>
      <dc:title>Matplotlib v3.5.1, https://matplotlib.org/</dc:title>
     </cc:Agent>
    </dc:creator>
   </cc:Work>
  </rdf:RDF>
 </metadata>
 <defs>
  <style type="text/css">*{stroke-linejoin: round; stroke-linecap: butt}</style>
 </defs>
 <g id="figure_1">
  <g id="patch_1">
   <path d="M 0 360 
L 720 360 
L 720 0 
L 0 0 
z
" style="fill: #ffffff"/>
  </g>
  <g id="axes_1">
   <g id="patch_2">
    <path d="M 90 320.4 
L 648 320.4 
L 648 43.2 
L 90 43.2 
z
" style="fill: #ffffff"/>
   </g>
   <g id="matplotlib.axis_1">
    <g id="xtick_1">
     <g id="line2d_1">
      <defs>
       <path id="md3879613d8" d="M 0 0 
L 0 3.5 
" style="stroke: #000000; stroke-width: 0.8"/>
      </defs>
      <g>
       <use xlink:href="#md3879613d8" x="90" y="320.4" style="stroke: #000000; stroke-width: 0.8"/>
      </g>
     </g>
     <g id="text_1">
      <!-- 0 -->
      <g transform="translate(85.228125 338.797656)scale(0.15 -0.15)">
       <defs>
        <path id="DejaVuSans-30" d="M 2034 4250 
Q 1547 4250 1301 3770 
Q 1056 3291 1056 2328 
Q 1056 1369 1301 889 
Q 1547 409 2034 409 
Q 2525 409 2770 889 
Q 3016 1369 3016 2328 
Q 3016 3291 2770 3770 
Q 2525 4250 2034 4250 
z
M 2034 4750 
Q 2819 4750 3233 4129 
Q 3647 3509 3647 2328 
Q 3647 1150 3233 529 
Q 2819 -91 2034 -91 
Q 1250 -91 836 529 
Q 422 1150 422 2328 
Q 422 3509 836 4129 
Q 1250 4750 2034 4750 
z
" transform="scale(0.015625)"/>
       </defs>
       <use xlink:href="#DejaVuSans-30"/>
      </g>
     </g>
    </g>
    <g id="xtick_2">
     <g id="line2d_2">
      <g>
       <use xlink:href="#md3879613d8" x="183" y="320.4" style="stroke: #000000; stroke-width: 0.8"/>
      </g>
     </g>
     <g id="text_2">
      <!-- 100 -->
      <g transform="translate(168.684375 338.797656)scale(0.15 -0.15)">
       <defs>
        <path id="DejaVuSans-31" d="M 794 531 
L 1825 531 
L 1825 4091 
L 703 3866 
L 703 4441 
L 1819 4666 
L 2450 4666 
L 2450 531 
L 3481 531 
L 3481 0 
L 794 0 
L 794 531 
z
" transform="scale(0.015625)"/>
       </defs>
       <use xlink:href="#DejaVuSans-31"/>
       <use xlink:href="#DejaVuSans-30" x="63.623047"/>
       <use xlink:href="#DejaVuSans-30" x="127.246094"/>
      </g>
     </g>
    </g>
    <g id="xtick_3">
     <g id="line2d_3">
      <g>
       <use xlink:href="#md3879613d8" x="276" y="320.4" style="stroke: #000000; stroke-width: 0.8"/>
      </g>
     </g>
     <g id="text_3">
      <!-- 200 -->
      <g transform="translate(261.684375 338.797656)scale(0.15 -0.15)">
       <defs>
        <path id="DejaVuSans-32" d="M 1228 531 
L 3431 531 
L 3431 0 
L 469 0 
L 469 531 
Q 828 903 1448 1529 
Q 2069 2156 2228 2338 
Q 2531 2678 2651 2914 
Q 2772 3150 2772 3378 
Q 2772 3750 2511 3984 
Q 2250 4219 1831 4219 
Q 1534 4219 1204 4116 
Q 875 4013 500 3803 
L 500 4441 
Q 881 4594 1212 4672 
Q 1544 4750 1819 4750 
Q 2544 4750 2975 4387 
Q 3406 4025 3406 3419 
Q 3406 3131 3298 2873 
Q 3191 2616 2906 2266 
Q 2828 2175 2409 1742 
Q 1991 1309 1228 531 
z
" transform="scale(0.015625)"/>
       </defs>
       <use xlink:href="#DejaVuSans-32"/>
       <use xlink:href="#DejaVuSans-30" x="63.623047"/>
       <use xlink:href="#DejaVuSans-30" x="127.246094"/>
      </g>
     </g>
    </g>
    <g id="xtick_4">
     <g id="line2d_4">
      <g>
       <use xlink:href="#md3879613d8" x="369" y="320.4" style="stroke: #000000; stroke-width: 0.8"/>
      </g>
     </g>
     <g id="text_4">
      <!-- 300 -->
      <g transform="translate(354.684375 338.797656)scale(0.15 -0.15)">
       <defs>
        <path id="DejaVuSans-33" d="M 2597 2516 
Q 3050 2419 3304 2112 
Q 3559 1806 3559 1356 
Q 3559 666 3084 287 
Q 2609 -91 1734 -91 
Q 1441 -91 1130 -33 
Q 819 25 488 141 
L 488 750 
Q 750 597 1062 519 
Q 1375 441 1716 441 
Q 2309 441 2620 675 
Q 2931 909 2931 1356 
Q 2931 1769 2642 2001 
Q 2353 2234 1838 2234 
L 1294 2234 
L 1294 2753 
L 1863 2753 
Q 2328 2753 2575 2939 
Q 2822 3125 2822 3475 
Q 2822 3834 2567 4026 
Q 2313 4219 1838 4219 
Q 1578 4219 1281 4162 
Q 984 4106 628 3988 
L 628 4550 
Q 988 4650 1302 4700 
Q 1616 4750 1894 4750 
Q 2613 4750 3031 4423 
Q 3450 4097 3450 3541 
Q 3450 3153 3228 2886 
Q 3006 2619 2597 2516 
z
" transform="scale(0.015625)"/>
       </defs>
       <use xlink:href="#DejaVuSans-33"/>
       <use xlink:href="#DejaVuSans-30" x="63.623047"/>
       <use xlink:href="#DejaVuSans-30" x="127.246094"/>
      </g>
     </g>
    </g>
    <g id="xtick_5">
     <g id="line2d_5">
      <g>
       <use xlink:href="#md3879613d8" x="462" y="320.4" style="stroke: #000000; stroke-width: 0.8"/>
      </g>
     </g>
     <g id="text_5">
      <!-- 400 -->
      <g transform="translate(447.684375 338.797656)scale(0.15 -0.15)">
       <defs>
        <path id="DejaVuSans-34" d="M 2419 4116 
L 825 1625 
L 2419 1625 
L 2419 4116 
z
M 2253 4666 
L 3047 4666 
L 3047 1625 
L 3713 1625 
L 3713 1100 
L 3047 1100 
L 3047 0 
L 2419 0 
L 2419 1100 
L 313 1100 
L 313 1709 
L 2253 4666 
z
" transform="scale(0.015625)"/>
       </defs>
       <use xlink:href="#DejaVuSans-34"/>
       <use xlink:href="#DejaVuSans-30" x="63.623047"/>
       <use xlink:href="#DejaVuSans-30" x="127.246094"/>
      </g>
     </g>
    </g>
    <g id="xtick_6">
     <g id="line2d_6">
      <g>
       <use xlink:href="#md3879613d8" x="555" y="320.4" style="stroke: #000000; stroke-width: 0.8"/>
      </g>
     </g>
     <g id="text_6">
      <!-- 500 -->
      <g transform="translate(540.684375 338.797656)scale(0.15 -0.15)">
       <defs>
        <path id="DejaVuSans-35" d="M 691 4666 
L 3169 4666 
L 3169 4134 
L 1269 4134 
L 1269 2991 
Q 1406 3038 1543 3061 
Q 1681 3084 1819 3084 
Q 2600 3084 3056 2656 
Q 3513 2228 3513 1497 
Q 3513 744 3044 326 
Q 2575 -91 1722 -91 
Q 1428 -91 1123 -41 
Q 819 9 494 109 
L 494 744 
Q 775 591 1075 516 
Q 1375 441 1709 441 
Q 2250 441 2565 725 
Q 2881 1009 2881 1497 
Q 2881 1984 2565 2268 
Q 2250 2553 1709 2553 
Q 1456 2553 1204 2497 
Q 953 2441 691 2322 
L 691 4666 
z
" transform="scale(0.015625)"/>
       </defs>
       <use xlink:href="#DejaVuSans-35"/>
       <use xlink:href="#DejaVuSans-30" x="63.623047"/>
       <use xlink:href="#DejaVuSans-30" x="127.246094"/>
      </g>
     </g>
    </g>
    <g id="xtick_7">
     <g id="line2d_7">
      <g>
       <use xlink:href="#md3879613d8" x="648" y="320.4" style="stroke: #000000; stroke-width: 0.8"/>
      </g>
     </g>
     <g id="text_7">
      <!-- 600 -->
      <g transform="translate(633.684375 338.797656)scale(0.15 -0.15)">
       <defs>
        <path id="DejaVuSans-36" d="M 2113 2584 
Q 1688 2584 1439 2293 
Q 1191 2003 1191 1497 
Q 1191 994 1439 701 
Q 1688 409 2113 409 
Q 2538 409 2786 701 
Q 3034 994 3034 1497 
Q 3034 2003 2786 2293 
Q 2538 2584 2113 2584 
z
M 3366 4563 
L 3366 3988 
Q 3128 4100 2886 4159 
Q 2644 4219 2406 4219 
Q 1781 4219 1451 3797 
Q 1122 3375 1075 2522 
Q 1259 2794 1537 2939 
Q 1816 3084 2150 3084 
Q 2853 3084 3261 2657 
Q 3669 2231 3669 1497 
Q 3669 778 3244 343 
Q 2819 -91 2113 -91 
Q 1303 -91 875 529 
Q 447 1150 447 2328 
Q 447 3434 972 4092 
Q 1497 4750 2381 4750 
Q 2619 4750 2861 4703 
Q 3103 4656 3366 4563 
z
" transform="scale(0.015625)"/>
       </defs>
       <use xlink:href="#DejaVuSans-36"/>
       <use xlink:href="#DejaVuSans-30" x="63.623047"/>
       <use xlink:href="#DejaVuSans-30" x="127.246094"/>
      </g>
     </g>
    </g>
    <g id="text_8">
     <!-- Kanal / u -->
     <g transform="translate(336.137109 357.314844)scale(0.15 -0.15)">
      <defs>
       <path id="DejaVuSans-4b" d="M 628 4666 
L 1259 4666 
L 1259 2694 
L 3353 4666 
L 4166 4666 
L 1850 2491 
L 4331 0 
L 3500 0 
L 1259 2247 
L 1259 0 
L 628 0 
L 628 4666 
z
" transform="scale(0.015625)"/>
       <path id="DejaVuSans-61" d="M 2194 1759 
Q 1497 1759 1228 1600 
Q 959 1441 959 1056 
Q 959 750 1161 570 
Q 1363 391 1709 391 
Q 2188 391 2477 730 
Q 2766 1069 2766 1631 
L 2766 1759 
L 2194 1759 
z
M 3341 1997 
L 3341 0 
L 2766 0 
L 2766 531 
Q 2569 213 2275 61 
Q 1981 -91 1556 -91 
Q 1019 -91 701 211 
Q 384 513 384 1019 
Q 384 1609 779 1909 
Q 1175 2209 1959 2209 
L 2766 2209 
L 2766 2266 
Q 2766 2663 2505 2880 
Q 2244 3097 1772 3097 
Q 1472 3097 1187 3025 
Q 903 2953 641 2809 
L 641 3341 
Q 956 3463 1253 3523 
Q 1550 3584 1831 3584 
Q 2591 3584 2966 3190 
Q 3341 2797 3341 1997 
z
" transform="scale(0.015625)"/>
       <path id="DejaVuSans-6e" d="M 3513 2113 
L 3513 0 
L 2938 0 
L 2938 2094 
Q 2938 2591 2744 2837 
Q 2550 3084 2163 3084 
Q 1697 3084 1428 2787 
Q 1159 2491 1159 1978 
L 1159 0 
L 581 0 
L 581 3500 
L 1159 3500 
L 1159 2956 
Q 1366 3272 1645 3428 
Q 1925 3584 2291 3584 
Q 2894 3584 3203 3211 
Q 3513 2838 3513 2113 
z
" transform="scale(0.015625)"/>
       <path id="DejaVuSans-6c" d="M 603 4863 
L 1178 4863 
L 1178 0 
L 603 0 
L 603 4863 
z
" transform="scale(0.015625)"/>
       <path id="DejaVuSans-20" transform="scale(0.015625)"/>
       <path id="DejaVuSans-2f" d="M 1625 4666 
L 2156 4666 
L 531 -594 
L 0 -594 
L 1625 4666 
z
" transform="scale(0.015625)"/>
       <path id="DejaVuSans-75" d="M 544 1381 
L 544 3500 
L 1119 3500 
L 1119 1403 
Q 1119 906 1312 657 
Q 1506 409 1894 409 
Q 2359 409 2629 706 
Q 2900 1003 2900 1516 
L 2900 3500 
L 3475 3500 
L 3475 0 
L 2900 0 
L 2900 538 
Q 2691 219 2414 64 
Q 2138 -91 1772 -91 
Q 1169 -91 856 284 
Q 544 659 544 1381 
z
M 1991 3584 
L 1991 3584 
z
" transform="scale(0.015625)"/>
      </defs>
      <use xlink:href="#DejaVuSans-4b"/>
      <use xlink:href="#DejaVuSans-61" x="63.826172"/>
      <use xlink:href="#DejaVuSans-6e" x="125.105469"/>
      <use xlink:href="#DejaVuSans-61" x="188.484375"/>
      <use xlink:href="#DejaVuSans-6c" x="249.763672"/>
      <use xlink:href="#DejaVuSans-20" x="277.546875"/>
      <use xlink:href="#DejaVuSans-2f" x="309.333984"/>
      <use xlink:href="#DejaVuSans-20" x="343.025391"/>
      <use xlink:href="#DejaVuSans-75" x="374.8125"/>
     </g>
    </g>
   </g>
   <g id="matplotlib.axis_2">
    <g id="ytick_1">
     <g id="line2d_8">
      <defs>
       <path id="me581a2a560" d="M 0 0 
L -3.5 0 
" style="stroke: #000000; stroke-width: 0.8"/>
      </defs>
      <g>
       <use xlink:href="#me581a2a560" x="90" y="300.25446" style="stroke: #000000; stroke-width: 0.8"/>
      </g>
     </g>
     <g id="text_9">
      <!-- 0 -->
      <g transform="translate(73.45625 305.953288)scale(0.15 -0.15)">
       <use xlink:href="#DejaVuSans-30"/>
      </g>
     </g>
    </g>
    <g id="ytick_2">
     <g id="line2d_9">
      <g>
       <use xlink:href="#me581a2a560" x="90" y="262.921127" style="stroke: #000000; stroke-width: 0.8"/>
      </g>
     </g>
     <g id="text_10">
      <!-- 20 -->
      <g transform="translate(63.9125 268.619955)scale(0.15 -0.15)">
       <use xlink:href="#DejaVuSans-32"/>
       <use xlink:href="#DejaVuSans-30" x="63.623047"/>
      </g>
     </g>
    </g>
    <g id="ytick_3">
     <g id="line2d_10">
      <g>
       <use xlink:href="#me581a2a560" x="90" y="225.587793" style="stroke: #000000; stroke-width: 0.8"/>
      </g>
     </g>
     <g id="text_11">
      <!-- 40 -->
      <g transform="translate(63.9125 231.286622)scale(0.15 -0.15)">
       <use xlink:href="#DejaVuSans-34"/>
       <use xlink:href="#DejaVuSans-30" x="63.623047"/>
      </g>
     </g>
    </g>
    <g id="ytick_4">
     <g id="line2d_11">
      <g>
       <use xlink:href="#me581a2a560" x="90" y="188.25446" style="stroke: #000000; stroke-width: 0.8"/>
      </g>
     </g>
     <g id="text_12">
      <!-- 60 -->
      <g transform="translate(63.9125 193.953288)scale(0.15 -0.15)">
       <use xlink:href="#DejaVuSans-36"/>
       <use xlink:href="#DejaVuSans-30" x="63.623047"/>
      </g>
     </g>
    </g>
    <g id="ytick_5">
     <g id="line2d_12">
      <g>
       <use xlink:href="#me581a2a560" x="90" y="150.921127" style="stroke: #000000; stroke-width: 0.8"/>
      </g>
     </g>
     <g id="text_13">
      <!-- 80 -->
      <g transform="translate(63.9125 156.619955)scale(0.15 -0.15)">
       <defs>
        <path id="DejaVuSans-38" d="M 2034 2216 
Q 1584 2216 1326 1975 
Q 1069 1734 1069 1313 
Q 1069 891 1326 650 
Q 1584 409 2034 409 
Q 2484 409 2743 651 
Q 3003 894 3003 1313 
Q 3003 1734 2745 1975 
Q 2488 2216 2034 2216 
z
M 1403 2484 
Q 997 2584 770 2862 
Q 544 3141 544 3541 
Q 544 4100 942 4425 
Q 1341 4750 2034 4750 
Q 2731 4750 3128 4425 
Q 3525 4100 3525 3541 
Q 3525 3141 3298 2862 
Q 3072 2584 2669 2484 
Q 3125 2378 3379 2068 
Q 3634 1759 3634 1313 
Q 3634 634 3220 271 
Q 2806 -91 2034 -91 
Q 1263 -91 848 271 
Q 434 634 434 1313 
Q 434 1759 690 2068 
Q 947 2378 1403 2484 
z
M 1172 3481 
Q 1172 3119 1398 2916 
Q 1625 2713 2034 2713 
Q 2441 2713 2670 2916 
Q 2900 3119 2900 3481 
Q 2900 3844 2670 4047 
Q 2441 4250 2034 4250 
Q 1625 4250 1398 4047 
Q 1172 3844 1172 3481 
z
" transform="scale(0.015625)"/>
       </defs>
       <use xlink:href="#DejaVuSans-38"/>
       <use xlink:href="#DejaVuSans-30" x="63.623047"/>
      </g>
     </g>
    </g>
    <g id="ytick_6">
     <g id="line2d_13">
      <g>
       <use xlink:href="#me581a2a560" x="90" y="113.587793" style="stroke: #000000; stroke-width: 0.8"/>
      </g>
     </g>
     <g id="text_14">
      <!-- 100 -->
      <g transform="translate(54.36875 119.286622)scale(0.15 -0.15)">
       <use xlink:href="#DejaVuSans-31"/>
       <use xlink:href="#DejaVuSans-30" x="63.623047"/>
       <use xlink:href="#DejaVuSans-30" x="127.246094"/>
      </g>
     </g>
    </g>
    <g id="ytick_7">
     <g id="line2d_14">
      <g>
       <use xlink:href="#me581a2a560" x="90" y="76.25446" style="stroke: #000000; stroke-width: 0.8"/>
      </g>
     </g>
     <g id="text_15">
      <!-- 120 -->
      <g transform="translate(54.36875 81.953288)scale(0.15 -0.15)">
       <use xlink:href="#DejaVuSans-31"/>
       <use xlink:href="#DejaVuSans-32" x="63.623047"/>
       <use xlink:href="#DejaVuSans-30" x="127.246094"/>
      </g>
     </g>
    </g>
    <g id="text_16">
     <!-- Spannung U / mV -->
     <g transform="translate(47.249219 247.294922)rotate(-90)scale(0.15 -0.15)">
      <defs>
       <path id="DejaVuSans-53" d="M 3425 4513 
L 3425 3897 
Q 3066 4069 2747 4153 
Q 2428 4238 2131 4238 
Q 1616 4238 1336 4038 
Q 1056 3838 1056 3469 
Q 1056 3159 1242 3001 
Q 1428 2844 1947 2747 
L 2328 2669 
Q 3034 2534 3370 2195 
Q 3706 1856 3706 1288 
Q 3706 609 3251 259 
Q 2797 -91 1919 -91 
Q 1588 -91 1214 -16 
Q 841 59 441 206 
L 441 856 
Q 825 641 1194 531 
Q 1563 422 1919 422 
Q 2459 422 2753 634 
Q 3047 847 3047 1241 
Q 3047 1584 2836 1778 
Q 2625 1972 2144 2069 
L 1759 2144 
Q 1053 2284 737 2584 
Q 422 2884 422 3419 
Q 422 4038 858 4394 
Q 1294 4750 2059 4750 
Q 2388 4750 2728 4690 
Q 3069 4631 3425 4513 
z
" transform="scale(0.015625)"/>
       <path id="DejaVuSans-70" d="M 1159 525 
L 1159 -1331 
L 581 -1331 
L 581 3500 
L 1159 3500 
L 1159 2969 
Q 1341 3281 1617 3432 
Q 1894 3584 2278 3584 
Q 2916 3584 3314 3078 
Q 3713 2572 3713 1747 
Q 3713 922 3314 415 
Q 2916 -91 2278 -91 
Q 1894 -91 1617 61 
Q 1341 213 1159 525 
z
M 3116 1747 
Q 3116 2381 2855 2742 
Q 2594 3103 2138 3103 
Q 1681 3103 1420 2742 
Q 1159 2381 1159 1747 
Q 1159 1113 1420 752 
Q 1681 391 2138 391 
Q 2594 391 2855 752 
Q 3116 1113 3116 1747 
z
" transform="scale(0.015625)"/>
       <path id="DejaVuSans-67" d="M 2906 1791 
Q 2906 2416 2648 2759 
Q 2391 3103 1925 3103 
Q 1463 3103 1205 2759 
Q 947 2416 947 1791 
Q 947 1169 1205 825 
Q 1463 481 1925 481 
Q 2391 481 2648 825 
Q 2906 1169 2906 1791 
z
M 3481 434 
Q 3481 -459 3084 -895 
Q 2688 -1331 1869 -1331 
Q 1566 -1331 1297 -1286 
Q 1028 -1241 775 -1147 
L 775 -588 
Q 1028 -725 1275 -790 
Q 1522 -856 1778 -856 
Q 2344 -856 2625 -561 
Q 2906 -266 2906 331 
L 2906 616 
Q 2728 306 2450 153 
Q 2172 0 1784 0 
Q 1141 0 747 490 
Q 353 981 353 1791 
Q 353 2603 747 3093 
Q 1141 3584 1784 3584 
Q 2172 3584 2450 3431 
Q 2728 3278 2906 2969 
L 2906 3500 
L 3481 3500 
L 3481 434 
z
" transform="scale(0.015625)"/>
       <path id="DejaVuSans-55" d="M 556 4666 
L 1191 4666 
L 1191 1831 
Q 1191 1081 1462 751 
Q 1734 422 2344 422 
Q 2950 422 3222 751 
Q 3494 1081 3494 1831 
L 3494 4666 
L 4128 4666 
L 4128 1753 
Q 4128 841 3676 375 
Q 3225 -91 2344 -91 
Q 1459 -91 1007 375 
Q 556 841 556 1753 
L 556 4666 
z
" transform="scale(0.015625)"/>
       <path id="DejaVuSans-6d" d="M 3328 2828 
Q 3544 3216 3844 3400 
Q 4144 3584 4550 3584 
Q 5097 3584 5394 3201 
Q 5691 2819 5691 2113 
L 5691 0 
L 5113 0 
L 5113 2094 
Q 5113 2597 4934 2840 
Q 4756 3084 4391 3084 
Q 3944 3084 3684 2787 
Q 3425 2491 3425 1978 
L 3425 0 
L 2847 0 
L 2847 2094 
Q 2847 2600 2669 2842 
Q 2491 3084 2119 3084 
Q 1678 3084 1418 2786 
Q 1159 2488 1159 1978 
L 1159 0 
L 581 0 
L 581 3500 
L 1159 3500 
L 1159 2956 
Q 1356 3278 1631 3431 
Q 1906 3584 2284 3584 
Q 2666 3584 2933 3390 
Q 3200 3197 3328 2828 
z
" transform="scale(0.015625)"/>
       <path id="DejaVuSans-56" d="M 1831 0 
L 50 4666 
L 709 4666 
L 2188 738 
L 3669 4666 
L 4325 4666 
L 2547 0 
L 1831 0 
z
" transform="scale(0.015625)"/>
      </defs>
      <use xlink:href="#DejaVuSans-53"/>
      <use xlink:href="#DejaVuSans-70" x="63.476562"/>
      <use xlink:href="#DejaVuSans-61" x="126.953125"/>
      <use xlink:href="#DejaVuSans-6e" x="188.232422"/>
      <use xlink:href="#DejaVuSans-6e" x="251.611328"/>
      <use xlink:href="#DejaVuSans-75" x="314.990234"/>
      <use xlink:href="#DejaVuSans-6e" x="378.369141"/>
      <use xlink:href="#DejaVuSans-67" x="441.748047"/>
      <use xlink:href="#DejaVuSans-20" x="505.224609"/>
      <use xlink:href="#DejaVuSans-55" x="537.011719"/>
      <use xlink:href="#DejaVuSans-20" x="610.205078"/>
      <use xlink:href="#DejaVuSans-2f" x="641.992188"/>
      <use xlink:href="#DejaVuSans-20" x="675.683594"/>
      <use xlink:href="#DejaVuSans-6d" x="707.470703"/>
      <use xlink:href="#DejaVuSans-56" x="804.882812"/>
     </g>
    </g>
   </g>
   <g id="line2d_15">
    <defs>
     <path id="m8bd7eb4c65" d="M -5 5 
L 5 -5 
M -5 -5 
L 5 5 
" style="stroke: #d62728"/>
    </defs>
    <g clip-path="url(#p7e4dbc3561)">
     <use xlink:href="#m8bd7eb4c65" x="319.71" y="55.8" style="fill: #d62728; stroke: #d62728"/>
     <use xlink:href="#m8bd7eb4c65" x="619.17" y="57.666667" style="fill: #d62728; stroke: #d62728"/>
    </g>
   </g>
   <g id="line2d_16">
    <path d="M 90 305.933333 
L 91.86 294.733333 
L 92.79 307.8 
L 93.72 304.066667 
L 94.65 298.466667 
L 95.58 298.466667 
L 96.51 305.933333 
L 97.44 304.066667 
L 98.37 298.466667 
L 99.3 296.6 
L 100.23 305.933333 
L 101.16 304.066667 
L 102.09 300.333333 
L 103.02 302.2 
L 104.88 302.2 
L 105.81 300.333333 
L 106.74 302.2 
L 107.67 300.333333 
L 108.6 302.2 
L 109.53 298.466667 
L 110.46 300.333333 
L 111.39 294.733333 
L 112.32 294.733333 
L 113.25 289.133333 
L 114.18 289.133333 
L 115.11 285.4 
L 116.04 287.266667 
L 116.97 283.533333 
L 117.9 285.4 
L 118.83 291 
L 119.76 289.133333 
L 120.69 294.733333 
L 121.62 292.866667 
L 122.55 294.733333 
L 123.48 294.733333 
L 124.41 300.333333 
L 125.34 296.6 
L 126.27 300.333333 
L 127.2 302.2 
L 128.13 298.466667 
L 129.06 298.466667 
L 129.99 302.2 
L 130.92 300.333333 
L 131.85 304.066667 
L 132.78 300.333333 
L 133.71 304.066667 
L 134.64 302.2 
L 135.57 305.933333 
L 136.5 302.2 
L 137.43 304.066667 
L 138.36 304.066667 
L 139.29 302.2 
L 140.22 302.2 
L 141.15 305.933333 
L 142.08 302.2 
L 143.01 305.933333 
L 143.94 304.066667 
L 144.87 294.733333 
L 145.8 305.933333 
L 146.73 302.2 
L 147.66 302.2 
L 148.59 307.8 
L 149.52 305.933333 
L 150.45 302.2 
L 151.38 302.2 
L 152.31 307.8 
L 153.24 305.933333 
L 154.17 302.2 
L 155.1 302.2 
L 156.03 305.933333 
L 156.96 305.933333 
L 157.89 302.2 
L 158.82 302.2 
L 159.75 305.933333 
L 160.68 302.2 
L 161.61 305.933333 
L 162.54 302.2 
L 163.47 304.066667 
L 164.4 302.2 
L 165.33 304.066667 
L 166.26 302.2 
L 167.19 305.933333 
L 168.12 302.2 
L 169.05 304.066667 
L 169.98 302.2 
L 170.91 305.933333 
L 171.84 305.933333 
L 172.77 302.2 
L 173.7 302.2 
L 174.63 307.8 
L 175.56 296.6 
L 176.49 307.8 
L 177.42 307.8 
L 178.35 298.466667 
L 179.28 302.2 
L 180.21 307.8 
L 181.14 307.8 
L 182.07 296.6 
L 183 307.8 
L 183.93 304.066667 
L 184.86 296.6 
L 185.79 307.8 
L 186.72 307.8 
L 188.58 300.333333 
L 189.51 305.933333 
L 190.44 307.8 
L 191.37 302.2 
L 192.3 302.2 
L 193.23 307.8 
L 194.16 307.8 
L 195.09 302.2 
L 196.02 302.2 
L 196.95 307.8 
L 197.88 302.2 
L 198.81 307.8 
L 199.74 304.066667 
L 200.67 305.933333 
L 201.6 302.2 
L 202.53 305.933333 
L 203.46 305.933333 
L 204.39 307.8 
L 205.32 307.8 
L 206.25 291 
L 207.18 307.8 
L 208.11 302.2 
L 209.04 294.733333 
L 209.97 307.8 
L 210.9 307.8 
L 211.83 296.6 
L 212.76 298.466667 
L 213.69 307.8 
L 214.62 307.8 
L 215.55 298.466667 
L 216.48 307.8 
L 217.41 304.066667 
L 218.34 296.6 
L 219.27 307.8 
L 220.2 307.8 
L 221.13 304.066667 
L 222.06 302.2 
L 222.99 307.8 
L 223.92 307.8 
L 224.85 304.066667 
L 225.78 302.2 
L 226.71 307.8 
L 229.5 302.2 
L 230.43 307.8 
L 231.36 302.2 
L 232.29 307.8 
L 233.22 307.8 
L 234.15 296.6 
L 235.08 296.6 
L 236.01 307.8 
L 236.94 305.933333 
L 237.87 302.2 
L 238.8 307.8 
L 239.73 304.066667 
L 240.66 302.2 
L 241.59 305.933333 
L 242.52 307.8 
L 243.45 302.2 
L 244.38 307.8 
L 245.31 304.066667 
L 246.24 305.933333 
L 247.17 302.2 
L 248.1 305.933333 
L 249.03 302.2 
L 249.96 302.2 
L 250.89 305.933333 
L 251.82 302.2 
L 252.75 307.8 
L 253.68 305.933333 
L 254.61 302.2 
L 256.47 305.933333 
L 257.4 305.933333 
L 258.33 302.2 
L 259.26 305.933333 
L 260.19 302.2 
L 261.12 302.2 
L 262.05 305.933333 
L 263.91 302.2 
L 264.84 304.066667 
L 265.77 307.8 
L 266.7 302.2 
L 267.63 305.933333 
L 268.56 305.933333 
L 269.49 302.2 
L 270.42 302.2 
L 271.35 304.066667 
L 272.28 304.066667 
L 273.21 302.2 
L 274.14 302.2 
L 275.07 305.933333 
L 276 302.2 
L 276.93 305.933333 
L 277.86 302.2 
L 278.79 304.066667 
L 279.72 304.066667 
L 280.65 302.2 
L 281.58 304.066667 
L 282.51 302.2 
L 283.44 304.066667 
L 284.37 302.2 
L 286.23 302.2 
L 287.16 300.333333 
L 288.09 304.066667 
L 289.02 302.2 
L 289.95 302.2 
L 290.88 300.333333 
L 291.81 304.066667 
L 292.74 302.2 
L 293.67 294.733333 
L 294.6 300.333333 
L 295.53 304.066667 
L 296.46 302.2 
L 297.39 298.466667 
L 298.32 298.466667 
L 299.25 302.2 
L 300.18 296.6 
L 301.11 300.333333 
L 302.04 298.466667 
L 302.97 292.866667 
L 303.9 294.733333 
L 304.83 292.866667 
L 305.76 292.866667 
L 306.69 289.133333 
L 307.62 289.133333 
L 308.55 281.666667 
L 309.48 281.666667 
L 310.41 270.466667 
L 311.34 268.6 
L 312.27 223.8 
L 313.2 214.466667 
L 314.13 134.2 
L 315.06 128.6 
L 315.99 89.4 
L 316.92 85.666667 
L 317.85 63.266667 
L 318.78 61.4 
L 319.71 55.8 
L 320.64 61.4 
L 321.57 80.066667 
L 322.5 83.8 
L 323.43 109.933333 
L 324.36 115.533333 
L 325.29 154.733333 
L 326.22 156.6 
L 327.15 173.4 
L 328.08 177.133333 
L 329.01 214.466667 
L 329.94 218.2 
L 330.87 235 
L 331.8 236.866667 
L 332.73 248.066667 
L 333.66 248.066667 
L 334.59 255.533333 
L 335.52 255.533333 
L 336.45 266.733333 
L 337.38 268.6 
L 338.31 276.066667 
L 339.24 270.466667 
L 340.17 279.8 
L 341.1 281.666667 
L 342.03 285.4 
L 342.96 283.533333 
L 343.89 289.133333 
L 344.82 289.133333 
L 346.68 292.866667 
L 347.61 291 
L 348.54 294.733333 
L 349.47 291 
L 351.33 298.466667 
L 352.26 289.133333 
L 353.19 302.2 
L 354.12 302.2 
L 355.05 296.6 
L 355.98 296.6 
L 356.91 300.333333 
L 357.84 300.333333 
L 358.77 294.733333 
L 359.7 298.466667 
L 360.63 300.333333 
L 361.56 298.466667 
L 362.49 302.2 
L 363.42 302.2 
L 364.35 300.333333 
L 365.28 300.333333 
L 366.21 302.2 
L 367.14 300.333333 
L 368.07 304.066667 
L 369 302.2 
L 369.93 304.066667 
L 371.79 300.333333 
L 373.65 304.066667 
L 374.58 304.066667 
L 375.51 300.333333 
L 377.37 304.066667 
L 378.3 302.2 
L 379.23 304.066667 
L 380.16 302.2 
L 381.09 304.066667 
L 382.02 302.2 
L 382.95 304.066667 
L 383.88 298.466667 
L 384.81 307.8 
L 385.74 305.933333 
L 386.67 294.733333 
L 387.6 294.733333 
L 388.53 307.8 
L 389.46 305.933333 
L 390.39 296.6 
L 391.32 304.066667 
L 392.25 307.8 
L 393.18 304.066667 
L 394.11 302.2 
L 395.04 307.8 
L 395.97 302.2 
L 396.9 302.2 
L 397.83 304.066667 
L 398.76 302.2 
L 399.69 305.933333 
L 400.62 302.2 
L 401.55 304.066667 
L 402.48 302.2 
L 403.41 305.933333 
L 404.34 302.2 
L 405.27 305.933333 
L 406.2 305.933333 
L 407.13 302.2 
L 408.06 305.933333 
L 408.99 302.2 
L 409.92 305.933333 
L 410.85 302.2 
L 411.78 307.8 
L 412.71 298.466667 
L 413.64 294.733333 
L 414.57 307.8 
L 415.5 305.933333 
L 416.43 300.333333 
L 417.36 305.933333 
L 418.29 302.2 
L 419.22 302.2 
L 420.15 305.933333 
L 421.08 304.066667 
L 422.01 300.333333 
L 422.94 298.466667 
L 423.87 302.2 
L 424.8 302.2 
L 425.73 296.6 
L 426.66 300.333333 
L 427.59 291 
L 428.52 289.133333 
L 430.38 289.133333 
L 431.31 287.266667 
L 432.24 287.266667 
L 433.17 291 
L 434.1 289.133333 
L 435.03 294.733333 
L 435.96 296.6 
L 436.89 292.866667 
L 438.75 296.6 
L 439.68 296.6 
L 440.61 302.2 
L 441.54 302.2 
L 442.47 294.733333 
L 443.4 302.2 
L 444.33 307.8 
L 445.26 294.733333 
L 446.19 305.933333 
L 447.12 307.8 
L 448.98 300.333333 
L 449.91 307.8 
L 450.84 305.933333 
L 451.77 302.2 
L 452.7 302.2 
L 453.63 307.8 
L 454.56 304.066667 
L 455.49 307.8 
L 456.42 304.066667 
L 457.35 307.8 
L 458.28 307.8 
L 459.21 302.2 
L 460.14 304.066667 
L 461.07 307.8 
L 462 304.066667 
L 462.93 307.8 
L 463.86 304.066667 
L 464.79 307.8 
L 465.72 307.8 
L 466.65 302.2 
L 467.58 307.8 
L 468.51 304.066667 
L 469.44 304.066667 
L 470.37 307.8 
L 471.3 307.8 
L 472.23 304.066667 
L 473.16 305.933333 
L 474.09 304.066667 
L 475.02 304.066667 
L 475.95 307.8 
L 476.88 307.8 
L 477.81 304.066667 
L 478.74 304.066667 
L 479.67 307.8 
L 480.6 304.066667 
L 481.53 305.933333 
L 482.46 302.2 
L 483.39 305.933333 
L 484.32 305.933333 
L 485.25 302.2 
L 486.18 304.066667 
L 487.11 307.8 
L 488.04 304.066667 
L 488.97 307.8 
L 489.9 307.8 
L 490.83 302.2 
L 491.76 307.8 
L 492.69 305.933333 
L 493.62 307.8 
L 494.55 304.066667 
L 495.48 304.066667 
L 496.41 307.8 
L 497.34 307.8 
L 498.27 305.933333 
L 499.2 307.8 
L 500.13 305.933333 
L 501.06 307.8 
L 501.99 304.066667 
L 502.92 307.8 
L 503.85 304.066667 
L 504.78 302.2 
L 505.71 307.8 
L 506.64 307.8 
L 507.57 304.066667 
L 508.5 307.8 
L 509.43 305.933333 
L 510.36 307.8 
L 512.22 304.066667 
L 513.15 307.8 
L 514.08 307.8 
L 515.01 305.933333 
L 515.94 307.8 
L 516.87 305.933333 
L 517.8 305.933333 
L 518.73 307.8 
L 519.66 307.8 
L 520.59 305.933333 
L 521.52 307.8 
L 522.45 305.933333 
L 523.38 307.8 
L 524.31 305.933333 
L 525.24 307.8 
L 526.17 305.933333 
L 527.1 307.8 
L 528.03 305.933333 
L 528.96 307.8 
L 529.89 304.066667 
L 530.82 307.8 
L 532.68 307.8 
L 533.61 304.066667 
L 534.54 307.8 
L 535.47 305.933333 
L 536.4 305.933333 
L 537.33 307.8 
L 538.26 307.8 
L 539.19 304.066667 
L 540.12 307.8 
L 541.05 304.066667 
L 541.98 307.8 
L 542.91 302.2 
L 543.84 307.8 
L 544.77 305.933333 
L 545.7 305.933333 
L 546.63 307.8 
L 547.56 307.8 
L 548.49 305.933333 
L 549.42 305.933333 
L 550.35 307.8 
L 551.28 302.2 
L 552.21 307.8 
L 553.14 304.066667 
L 554.07 307.8 
L 555 305.933333 
L 555.93 307.8 
L 556.86 307.8 
L 557.79 304.066667 
L 558.72 307.8 
L 559.65 304.066667 
L 560.58 304.066667 
L 561.51 307.8 
L 562.44 307.8 
L 563.37 305.933333 
L 564.3 305.933333 
L 565.23 307.8 
L 566.16 307.8 
L 567.09 304.066667 
L 568.02 307.8 
L 568.95 304.066667 
L 569.88 307.8 
L 570.81 304.066667 
L 571.74 307.8 
L 572.67 304.066667 
L 573.6 307.8 
L 574.53 304.066667 
L 575.46 307.8 
L 576.39 304.066667 
L 577.32 302.2 
L 578.25 307.8 
L 579.18 304.066667 
L 580.11 307.8 
L 581.04 307.8 
L 581.97 305.933333 
L 582.9 305.933333 
L 583.83 304.066667 
L 584.76 304.066667 
L 585.69 307.8 
L 586.62 307.8 
L 587.55 302.2 
L 588.48 307.8 
L 589.41 304.066667 
L 590.34 305.933333 
L 591.27 302.2 
L 592.2 307.8 
L 593.13 302.2 
L 594.06 302.2 
L 594.99 307.8 
L 595.92 305.933333 
L 596.85 302.2 
L 597.78 302.2 
L 598.71 305.933333 
L 601.5 300.333333 
L 602.43 304.066667 
L 603.36 302.2 
L 604.29 298.466667 
L 605.22 298.466667 
L 606.15 302.2 
L 607.08 298.466667 
L 608.01 292.866667 
L 608.94 294.733333 
L 609.87 289.133333 
L 610.8 292.866667 
L 611.73 277.933333 
L 612.66 276.066667 
L 613.59 248.066667 
L 614.52 246.2 
L 615.45 175.266667 
L 616.38 167.8 
L 617.31 85.666667 
L 618.24 80.066667 
L 619.17 57.666667 
L 620.1 61.4 
L 621.03 76.333333 
L 621.96 81.933333 
L 622.89 123 
L 623.82 130.466667 
L 624.75 169.666667 
L 625.68 171.533333 
L 626.61 203.266667 
L 627.54 208.866667 
L 628.47 235 
L 629.4 236.866667 
L 630.33 255.533333 
L 631.26 257.4 
L 632.19 268.6 
L 633.12 268.6 
L 634.05 277.933333 
L 634.98 277.933333 
L 635.91 283.533333 
L 636.84 283.533333 
L 637.77 289.133333 
L 638.7 289.133333 
L 639.63 294.733333 
L 640.56 294.733333 
L 641.49 291 
L 642.42 294.733333 
L 643.35 296.6 
L 644.28 294.733333 
L 645.21 300.333333 
L 646.14 296.6 
L 647.07 300.333333 
L 647.07 300.333333 
" clip-path="url(#p7e4dbc3561)" style="fill: none; stroke: #1f77b4; stroke-width: 1.5; stroke-linecap: square"/>
   </g>
   <g id="patch_3">
    <path d="M 90 320.4 
L 90 43.2 
" style="fill: none; stroke: #000000; stroke-width: 0.8; stroke-linejoin: miter; stroke-linecap: square"/>
   </g>
   <g id="patch_4">
    <path d="M 648 320.4 
L 648 43.2 
" style="fill: none; stroke: #000000; stroke-width: 0.8; stroke-linejoin: miter; stroke-linecap: square"/>
   </g>
   <g id="patch_5">
    <path d="M 90 320.4 
L 648 320.4 
" style="fill: none; stroke: #000000; stroke-width: 0.8; stroke-linejoin: miter; stroke-linecap: square"/>
   </g>
   <g id="patch_6">
    <path d="M 90 43.2 
L 648 43.2 
" style="fill: none; stroke: #000000; stroke-width: 0.8; stroke-linejoin: miter; stroke-linecap: square"/>
   </g>
   <g id="text_17">
    <!-- Polarisation der Moden im kommerziellen Laser -->
    <g transform="translate(155.363906 37.2)scale(0.18 -0.18)">
     <defs>
      <path id="DejaVuSans-50" d="M 1259 4147 
L 1259 2394 
L 2053 2394 
Q 2494 2394 2734 2622 
Q 2975 2850 2975 3272 
Q 2975 3691 2734 3919 
Q 2494 4147 2053 4147 
L 1259 4147 
z
M 628 4666 
L 2053 4666 
Q 2838 4666 3239 4311 
Q 3641 3956 3641 3272 
Q 3641 2581 3239 2228 
Q 2838 1875 2053 1875 
L 1259 1875 
L 1259 0 
L 628 0 
L 628 4666 
z
" transform="scale(0.015625)"/>
      <path id="DejaVuSans-6f" d="M 1959 3097 
Q 1497 3097 1228 2736 
Q 959 2375 959 1747 
Q 959 1119 1226 758 
Q 1494 397 1959 397 
Q 2419 397 2687 759 
Q 2956 1122 2956 1747 
Q 2956 2369 2687 2733 
Q 2419 3097 1959 3097 
z
M 1959 3584 
Q 2709 3584 3137 3096 
Q 3566 2609 3566 1747 
Q 3566 888 3137 398 
Q 2709 -91 1959 -91 
Q 1206 -91 779 398 
Q 353 888 353 1747 
Q 353 2609 779 3096 
Q 1206 3584 1959 3584 
z
" transform="scale(0.015625)"/>
      <path id="DejaVuSans-72" d="M 2631 2963 
Q 2534 3019 2420 3045 
Q 2306 3072 2169 3072 
Q 1681 3072 1420 2755 
Q 1159 2438 1159 1844 
L 1159 0 
L 581 0 
L 581 3500 
L 1159 3500 
L 1159 2956 
Q 1341 3275 1631 3429 
Q 1922 3584 2338 3584 
Q 2397 3584 2469 3576 
Q 2541 3569 2628 3553 
L 2631 2963 
z
" transform="scale(0.015625)"/>
      <path id="DejaVuSans-69" d="M 603 3500 
L 1178 3500 
L 1178 0 
L 603 0 
L 603 3500 
z
M 603 4863 
L 1178 4863 
L 1178 4134 
L 603 4134 
L 603 4863 
z
" transform="scale(0.015625)"/>
      <path id="DejaVuSans-73" d="M 2834 3397 
L 2834 2853 
Q 2591 2978 2328 3040 
Q 2066 3103 1784 3103 
Q 1356 3103 1142 2972 
Q 928 2841 928 2578 
Q 928 2378 1081 2264 
Q 1234 2150 1697 2047 
L 1894 2003 
Q 2506 1872 2764 1633 
Q 3022 1394 3022 966 
Q 3022 478 2636 193 
Q 2250 -91 1575 -91 
Q 1294 -91 989 -36 
Q 684 19 347 128 
L 347 722 
Q 666 556 975 473 
Q 1284 391 1588 391 
Q 1994 391 2212 530 
Q 2431 669 2431 922 
Q 2431 1156 2273 1281 
Q 2116 1406 1581 1522 
L 1381 1569 
Q 847 1681 609 1914 
Q 372 2147 372 2553 
Q 372 3047 722 3315 
Q 1072 3584 1716 3584 
Q 2034 3584 2315 3537 
Q 2597 3491 2834 3397 
z
" transform="scale(0.015625)"/>
      <path id="DejaVuSans-74" d="M 1172 4494 
L 1172 3500 
L 2356 3500 
L 2356 3053 
L 1172 3053 
L 1172 1153 
Q 1172 725 1289 603 
Q 1406 481 1766 481 
L 2356 481 
L 2356 0 
L 1766 0 
Q 1100 0 847 248 
Q 594 497 594 1153 
L 594 3053 
L 172 3053 
L 172 3500 
L 594 3500 
L 594 4494 
L 1172 4494 
z
" transform="scale(0.015625)"/>
      <path id="DejaVuSans-64" d="M 2906 2969 
L 2906 4863 
L 3481 4863 
L 3481 0 
L 2906 0 
L 2906 525 
Q 2725 213 2448 61 
Q 2172 -91 1784 -91 
Q 1150 -91 751 415 
Q 353 922 353 1747 
Q 353 2572 751 3078 
Q 1150 3584 1784 3584 
Q 2172 3584 2448 3432 
Q 2725 3281 2906 2969 
z
M 947 1747 
Q 947 1113 1208 752 
Q 1469 391 1925 391 
Q 2381 391 2643 752 
Q 2906 1113 2906 1747 
Q 2906 2381 2643 2742 
Q 2381 3103 1925 3103 
Q 1469 3103 1208 2742 
Q 947 2381 947 1747 
z
" transform="scale(0.015625)"/>
      <path id="DejaVuSans-65" d="M 3597 1894 
L 3597 1613 
L 953 1613 
Q 991 1019 1311 708 
Q 1631 397 2203 397 
Q 2534 397 2845 478 
Q 3156 559 3463 722 
L 3463 178 
Q 3153 47 2828 -22 
Q 2503 -91 2169 -91 
Q 1331 -91 842 396 
Q 353 884 353 1716 
Q 353 2575 817 3079 
Q 1281 3584 2069 3584 
Q 2775 3584 3186 3129 
Q 3597 2675 3597 1894 
z
M 3022 2063 
Q 3016 2534 2758 2815 
Q 2500 3097 2075 3097 
Q 1594 3097 1305 2825 
Q 1016 2553 972 2059 
L 3022 2063 
z
" transform="scale(0.015625)"/>
      <path id="DejaVuSans-4d" d="M 628 4666 
L 1569 4666 
L 2759 1491 
L 3956 4666 
L 4897 4666 
L 4897 0 
L 4281 0 
L 4281 4097 
L 3078 897 
L 2444 897 
L 1241 4097 
L 1241 0 
L 628 0 
L 628 4666 
z
" transform="scale(0.015625)"/>
      <path id="DejaVuSans-6b" d="M 581 4863 
L 1159 4863 
L 1159 1991 
L 2875 3500 
L 3609 3500 
L 1753 1863 
L 3688 0 
L 2938 0 
L 1159 1709 
L 1159 0 
L 581 0 
L 581 4863 
z
" transform="scale(0.015625)"/>
      <path id="DejaVuSans-7a" d="M 353 3500 
L 3084 3500 
L 3084 2975 
L 922 459 
L 3084 459 
L 3084 0 
L 275 0 
L 275 525 
L 2438 3041 
L 353 3041 
L 353 3500 
z
" transform="scale(0.015625)"/>
      <path id="DejaVuSans-4c" d="M 628 4666 
L 1259 4666 
L 1259 531 
L 3531 531 
L 3531 0 
L 628 0 
L 628 4666 
z
" transform="scale(0.015625)"/>
     </defs>
     <use xlink:href="#DejaVuSans-50"/>
     <use xlink:href="#DejaVuSans-6f" x="56.677734"/>
     <use xlink:href="#DejaVuSans-6c" x="117.859375"/>
     <use xlink:href="#DejaVuSans-61" x="145.642578"/>
     <use xlink:href="#DejaVuSans-72" x="206.921875"/>
     <use xlink:href="#DejaVuSans-69" x="248.035156"/>
     <use xlink:href="#DejaVuSans-73" x="275.818359"/>
     <use xlink:href="#DejaVuSans-61" x="327.917969"/>
     <use xlink:href="#DejaVuSans-74" x="389.197266"/>
     <use xlink:href="#DejaVuSans-69" x="428.40625"/>
     <use xlink:href="#DejaVuSans-6f" x="456.189453"/>
     <use xlink:href="#DejaVuSans-6e" x="517.371094"/>
     <use xlink:href="#DejaVuSans-20" x="580.75"/>
     <use xlink:href="#DejaVuSans-64" x="612.537109"/>
     <use xlink:href="#DejaVuSans-65" x="676.013672"/>
     <use xlink:href="#DejaVuSans-72" x="737.537109"/>
     <use xlink:href="#DejaVuSans-20" x="778.650391"/>
     <use xlink:href="#DejaVuSans-4d" x="810.4375"/>
     <use xlink:href="#DejaVuSans-6f" x="896.716797"/>
     <use xlink:href="#DejaVuSans-64" x="957.898438"/>
     <use xlink:href="#DejaVuSans-65" x="1021.375"/>
     <use xlink:href="#DejaVuSans-6e" x="1082.898438"/>
     <use xlink:href="#DejaVuSans-20" x="1146.277344"/>
     <use xlink:href="#DejaVuSans-69" x="1178.064453"/>
     <use xlink:href="#DejaVuSans-6d" x="1205.847656"/>
     <use xlink:href="#DejaVuSans-20" x="1303.259766"/>
     <use xlink:href="#DejaVuSans-6b" x="1335.046875"/>
     <use xlink:href="#DejaVuSans-6f" x="1389.332031"/>
     <use xlink:href="#DejaVuSans-6d" x="1450.513672"/>
     <use xlink:href="#DejaVuSans-6d" x="1547.925781"/>
     <use xlink:href="#DejaVuSans-65" x="1645.337891"/>
     <use xlink:href="#DejaVuSans-72" x="1706.861328"/>
     <use xlink:href="#DejaVuSans-7a" x="1747.974609"/>
     <use xlink:href="#DejaVuSans-69" x="1800.464844"/>
     <use xlink:href="#DejaVuSans-65" x="1828.248047"/>
     <use xlink:href="#DejaVuSans-6c" x="1889.771484"/>
     <use xlink:href="#DejaVuSans-6c" x="1917.554688"/>
     <use xlink:href="#DejaVuSans-65" x="1945.337891"/>
     <use xlink:href="#DejaVuSans-6e" x="2006.861328"/>
     <use xlink:href="#DejaVuSans-20" x="2070.240234"/>
     <use xlink:href="#DejaVuSans-4c" x="2102.027344"/>
     <use xlink:href="#DejaVuSans-61" x="2157.740234"/>
     <use xlink:href="#DejaVuSans-73" x="2219.019531"/>
     <use xlink:href="#DejaVuSans-65" x="2271.119141"/>
     <use xlink:href="#DejaVuSans-72" x="2332.642578"/>
    </g>
   </g>
   <g id="legend_1">
    <g id="patch_7">
     <path d="M 97.7 84.291875 
L 280.74 84.291875 
Q 282.94 84.291875 282.94 82.091875 
L 282.94 50.9 
Q 282.94 48.7 280.74 48.7 
L 97.7 48.7 
Q 95.5 48.7 95.5 50.9 
L 95.5 82.091875 
Q 95.5 84.291875 97.7 84.291875 
z
" style="fill: #ffffff; opacity: 0.8; stroke: #cccccc; stroke-linejoin: miter"/>
    </g>
    <g id="line2d_17">
     <g>
      <use xlink:href="#m8bd7eb4c65" x="110.9" y="57.608281" style="fill: #d62728; stroke: #d62728"/>
     </g>
    </g>
    <g id="text_18">
     <!-- Peaks -->
     <g transform="translate(130.7 61.458281)scale(0.11 -0.11)">
      <use xlink:href="#DejaVuSans-50"/>
      <use xlink:href="#DejaVuSans-65" x="56.677734"/>
      <use xlink:href="#DejaVuSans-61" x="118.201172"/>
      <use xlink:href="#DejaVuSans-6b" x="179.480469"/>
      <use xlink:href="#DejaVuSans-73" x="237.390625"/>
     </g>
    </g>
    <g id="line2d_18">
     <path d="M 99.9 73.754219 
L 110.9 73.754219 
L 121.9 73.754219 
" style="fill: none; stroke: #1f77b4; stroke-width: 1.5; stroke-linecap: square"/>
    </g>
    <g id="text_19">
     <!-- Polarisationswinkel $\Theta=\pi/2$ -->
     <g transform="translate(130.7 77.604219)scale(0.11 -0.11)">
      <defs>
       <path id="DejaVuSans-77" d="M 269 3500 
L 844 3500 
L 1563 769 
L 2278 3500 
L 2956 3500 
L 3675 769 
L 4391 3500 
L 4966 3500 
L 4050 0 
L 3372 0 
L 2619 2869 
L 1863 0 
L 1184 0 
L 269 3500 
z
" transform="scale(0.015625)"/>
       <path id="DejaVuSans-398" d="M 1416 2750 
L 3622 2750 
L 3622 2219 
L 1416 2219 
L 1416 2750 
z
M 2522 4238 
Q 1834 4238 1431 3725 
Q 1025 3213 1025 2328 
Q 1025 1447 1429 934 
Q 1834 422 2522 422 
Q 3209 422 3613 934 
Q 4013 1447 4013 2328 
Q 4013 3213 3613 3725 
Q 3209 4238 2522 4238 
z
M 2522 4750 
Q 3503 4750 4090 4092 
Q 4678 3434 4678 2328 
Q 4678 1225 4091 569 
Q 3503 -91 2522 -91 
Q 1538 -91 950 566 
Q 359 1222 359 2328 
Q 359 3434 950 4094 
Q 1538 4750 2522 4750 
z
" transform="scale(0.015625)"/>
       <path id="DejaVuSans-3d" d="M 678 2906 
L 4684 2906 
L 4684 2381 
L 678 2381 
L 678 2906 
z
M 678 1631 
L 4684 1631 
L 4684 1100 
L 678 1100 
L 678 1631 
z
" transform="scale(0.015625)"/>
       <path id="DejaVuSans-Oblique-3c0" d="M 584 3500 
L 3938 3500 
L 3825 2925 
L 3384 2925 
L 2966 775 
Q 2922 550 2981 450 
Q 3038 353 3209 353 
Q 3256 353 3325 363 
Q 3397 369 3419 372 
L 3338 -44 
Q 3222 -84 3103 -103 
Q 2981 -122 2866 -122 
Q 2491 -122 2388 81 
Q 2284 288 2391 838 
L 2797 2925 
L 1506 2925 
L 938 0 
L 350 0 
L 919 2925 
L 472 2925 
L 584 3500 
z
" transform="scale(0.015625)"/>
      </defs>
      <use xlink:href="#DejaVuSans-50" transform="translate(0 0.015625)"/>
      <use xlink:href="#DejaVuSans-6f" transform="translate(60.302734 0.015625)"/>
      <use xlink:href="#DejaVuSans-6c" transform="translate(121.484375 0.015625)"/>
      <use xlink:href="#DejaVuSans-61" transform="translate(149.267578 0.015625)"/>
      <use xlink:href="#DejaVuSans-72" transform="translate(210.546875 0.015625)"/>
      <use xlink:href="#DejaVuSans-69" transform="translate(251.660156 0.015625)"/>
      <use xlink:href="#DejaVuSans-73" transform="translate(279.443359 0.015625)"/>
      <use xlink:href="#DejaVuSans-61" transform="translate(331.542969 0.015625)"/>
      <use xlink:href="#DejaVuSans-74" transform="translate(392.822266 0.015625)"/>
      <use xlink:href="#DejaVuSans-69" transform="translate(432.03125 0.015625)"/>
      <use xlink:href="#DejaVuSans-6f" transform="translate(459.814453 0.015625)"/>
      <use xlink:href="#DejaVuSans-6e" transform="translate(520.996094 0.015625)"/>
      <use xlink:href="#DejaVuSans-73" transform="translate(584.375 0.015625)"/>
      <use xlink:href="#DejaVuSans-77" transform="translate(636.474609 0.015625)"/>
      <use xlink:href="#DejaVuSans-69" transform="translate(718.261719 0.015625)"/>
      <use xlink:href="#DejaVuSans-6e" transform="translate(746.044922 0.015625)"/>
      <use xlink:href="#DejaVuSans-6b" transform="translate(809.423828 0.015625)"/>
      <use xlink:href="#DejaVuSans-65" transform="translate(867.333984 0.015625)"/>
      <use xlink:href="#DejaVuSans-6c" transform="translate(928.857422 0.015625)"/>
      <use xlink:href="#DejaVuSans-20" transform="translate(956.640625 0.015625)"/>
      <use xlink:href="#DejaVuSans-398" transform="translate(988.427734 0.015625)"/>
      <use xlink:href="#DejaVuSans-3d" transform="translate(1086.621094 0.015625)"/>
      <use xlink:href="#DejaVuSans-Oblique-3c0" transform="translate(1189.892578 0.015625)"/>
      <use xlink:href="#DejaVuSans-2f" transform="translate(1250.097656 0.015625)"/>
      <use xlink:href="#DejaVuSans-32" transform="translate(1280.164062 0.015625)"/>
     </g>
    </g>
   </g>
  </g>
 </g>
 <defs>
  <clipPath id="p7e4dbc3561">
   <rect x="90" y="43.2" width="558" height="277.2"/>
  </clipPath>
 </defs>
</svg>
