<?xml version="1.0" encoding="utf-8" standalone="no"?>
<!DOCTYPE svg PUBLIC "-//W3C//DTD SVG 1.1//EN"
  "http://www.w3.org/Graphics/SVG/1.1/DTD/svg11.dtd">
<svg xmlns:xlink="http://www.w3.org/1999/xlink" width="720pt" height="360pt" viewBox="0 0 720 360" xmlns="http://www.w3.org/2000/svg" version="1.1">
 <metadata>
  <rdf:RDF xmlns:dc="http://purl.org/dc/elements/1.1/" xmlns:cc="http://creativecommons.org/ns#" xmlns:rdf="http://www.w3.org/1999/02/22-rdf-syntax-ns#">
   <cc:Work>
    <dc:type rdf:resource="http://purl.org/dc/dcmitype/StillImage"/>
    <dc:date>2022-01-31T18:40:31.566553</dc:date>
    <dc:format>image/svg+xml</dc:format>
    <dc:creator>
     <cc:Agent>
      <dc:title>Matplotlib v3.5.1, https://matplotlib.org/</dc:title>
     </cc:Agent>
    </dc:creator>
   </cc:Work>
  </rdf:RDF>
 </metadata>
 <defs>
  <style type="text/css">*{stroke-linejoin: round; stroke-linecap: butt}</style>
 </defs>
 <g id="figure_1">
  <g id="patch_1">
   <path d="M 0 360 
L 720 360 
L 720 0 
L 0 0 
z
" style="fill: #ffffff"/>
  </g>
  <g id="axes_1">
   <g id="patch_2">
    <path d="M 90 320.4 
L 648 320.4 
L 648 43.2 
L 90 43.2 
z
" style="fill: #ffffff"/>
   </g>
   <g id="matplotlib.axis_1">
    <g id="xtick_1">
     <g id="line2d_1">
      <defs>
       <path id="m0f41c0b2bf" d="M 0 0 
L 0 3.5 
" style="stroke: #000000; stroke-width: 0.8"/>
      </defs>
      <g>
       <use xlink:href="#m0f41c0b2bf" x="90" y="320.4" style="stroke: #000000; stroke-width: 0.8"/>
      </g>
     </g>
     <g id="text_1">
      <!-- 0 -->
      <g transform="translate(85.228125 338.797656)scale(0.15 -0.15)">
       <defs>
        <path id="DejaVuSans-30" d="M 2034 4250 
Q 1547 4250 1301 3770 
Q 1056 3291 1056 2328 
Q 1056 1369 1301 889 
Q 1547 409 2034 409 
Q 2525 409 2770 889 
Q 3016 1369 3016 2328 
Q 3016 3291 2770 3770 
Q 2525 4250 2034 4250 
z
M 2034 4750 
Q 2819 4750 3233 4129 
Q 3647 3509 3647 2328 
Q 3647 1150 3233 529 
Q 2819 -91 2034 -91 
Q 1250 -91 836 529 
Q 422 1150 422 2328 
Q 422 3509 836 4129 
Q 1250 4750 2034 4750 
z
" transform="scale(0.015625)"/>
       </defs>
       <use xlink:href="#DejaVuSans-30"/>
      </g>
     </g>
    </g>
    <g id="xtick_2">
     <g id="line2d_2">
      <g>
       <use xlink:href="#m0f41c0b2bf" x="183" y="320.4" style="stroke: #000000; stroke-width: 0.8"/>
      </g>
     </g>
     <g id="text_2">
      <!-- 100 -->
      <g transform="translate(168.684375 338.797656)scale(0.15 -0.15)">
       <defs>
        <path id="DejaVuSans-31" d="M 794 531 
L 1825 531 
L 1825 4091 
L 703 3866 
L 703 4441 
L 1819 4666 
L 2450 4666 
L 2450 531 
L 3481 531 
L 3481 0 
L 794 0 
L 794 531 
z
" transform="scale(0.015625)"/>
       </defs>
       <use xlink:href="#DejaVuSans-31"/>
       <use xlink:href="#DejaVuSans-30" x="63.623047"/>
       <use xlink:href="#DejaVuSans-30" x="127.246094"/>
      </g>
     </g>
    </g>
    <g id="xtick_3">
     <g id="line2d_3">
      <g>
       <use xlink:href="#m0f41c0b2bf" x="276" y="320.4" style="stroke: #000000; stroke-width: 0.8"/>
      </g>
     </g>
     <g id="text_3">
      <!-- 200 -->
      <g transform="translate(261.684375 338.797656)scale(0.15 -0.15)">
       <defs>
        <path id="DejaVuSans-32" d="M 1228 531 
L 3431 531 
L 3431 0 
L 469 0 
L 469 531 
Q 828 903 1448 1529 
Q 2069 2156 2228 2338 
Q 2531 2678 2651 2914 
Q 2772 3150 2772 3378 
Q 2772 3750 2511 3984 
Q 2250 4219 1831 4219 
Q 1534 4219 1204 4116 
Q 875 4013 500 3803 
L 500 4441 
Q 881 4594 1212 4672 
Q 1544 4750 1819 4750 
Q 2544 4750 2975 4387 
Q 3406 4025 3406 3419 
Q 3406 3131 3298 2873 
Q 3191 2616 2906 2266 
Q 2828 2175 2409 1742 
Q 1991 1309 1228 531 
z
" transform="scale(0.015625)"/>
       </defs>
       <use xlink:href="#DejaVuSans-32"/>
       <use xlink:href="#DejaVuSans-30" x="63.623047"/>
       <use xlink:href="#DejaVuSans-30" x="127.246094"/>
      </g>
     </g>
    </g>
    <g id="xtick_4">
     <g id="line2d_4">
      <g>
       <use xlink:href="#m0f41c0b2bf" x="369" y="320.4" style="stroke: #000000; stroke-width: 0.8"/>
      </g>
     </g>
     <g id="text_4">
      <!-- 300 -->
      <g transform="translate(354.684375 338.797656)scale(0.15 -0.15)">
       <defs>
        <path id="DejaVuSans-33" d="M 2597 2516 
Q 3050 2419 3304 2112 
Q 3559 1806 3559 1356 
Q 3559 666 3084 287 
Q 2609 -91 1734 -91 
Q 1441 -91 1130 -33 
Q 819 25 488 141 
L 488 750 
Q 750 597 1062 519 
Q 1375 441 1716 441 
Q 2309 441 2620 675 
Q 2931 909 2931 1356 
Q 2931 1769 2642 2001 
Q 2353 2234 1838 2234 
L 1294 2234 
L 1294 2753 
L 1863 2753 
Q 2328 2753 2575 2939 
Q 2822 3125 2822 3475 
Q 2822 3834 2567 4026 
Q 2313 4219 1838 4219 
Q 1578 4219 1281 4162 
Q 984 4106 628 3988 
L 628 4550 
Q 988 4650 1302 4700 
Q 1616 4750 1894 4750 
Q 2613 4750 3031 4423 
Q 3450 4097 3450 3541 
Q 3450 3153 3228 2886 
Q 3006 2619 2597 2516 
z
" transform="scale(0.015625)"/>
       </defs>
       <use xlink:href="#DejaVuSans-33"/>
       <use xlink:href="#DejaVuSans-30" x="63.623047"/>
       <use xlink:href="#DejaVuSans-30" x="127.246094"/>
      </g>
     </g>
    </g>
    <g id="xtick_5">
     <g id="line2d_5">
      <g>
       <use xlink:href="#m0f41c0b2bf" x="462" y="320.4" style="stroke: #000000; stroke-width: 0.8"/>
      </g>
     </g>
     <g id="text_5">
      <!-- 400 -->
      <g transform="translate(447.684375 338.797656)scale(0.15 -0.15)">
       <defs>
        <path id="DejaVuSans-34" d="M 2419 4116 
L 825 1625 
L 2419 1625 
L 2419 4116 
z
M 2253 4666 
L 3047 4666 
L 3047 1625 
L 3713 1625 
L 3713 1100 
L 3047 1100 
L 3047 0 
L 2419 0 
L 2419 1100 
L 313 1100 
L 313 1709 
L 2253 4666 
z
" transform="scale(0.015625)"/>
       </defs>
       <use xlink:href="#DejaVuSans-34"/>
       <use xlink:href="#DejaVuSans-30" x="63.623047"/>
       <use xlink:href="#DejaVuSans-30" x="127.246094"/>
      </g>
     </g>
    </g>
    <g id="xtick_6">
     <g id="line2d_6">
      <g>
       <use xlink:href="#m0f41c0b2bf" x="555" y="320.4" style="stroke: #000000; stroke-width: 0.8"/>
      </g>
     </g>
     <g id="text_6">
      <!-- 500 -->
      <g transform="translate(540.684375 338.797656)scale(0.15 -0.15)">
       <defs>
        <path id="DejaVuSans-35" d="M 691 4666 
L 3169 4666 
L 3169 4134 
L 1269 4134 
L 1269 2991 
Q 1406 3038 1543 3061 
Q 1681 3084 1819 3084 
Q 2600 3084 3056 2656 
Q 3513 2228 3513 1497 
Q 3513 744 3044 326 
Q 2575 -91 1722 -91 
Q 1428 -91 1123 -41 
Q 819 9 494 109 
L 494 744 
Q 775 591 1075 516 
Q 1375 441 1709 441 
Q 2250 441 2565 725 
Q 2881 1009 2881 1497 
Q 2881 1984 2565 2268 
Q 2250 2553 1709 2553 
Q 1456 2553 1204 2497 
Q 953 2441 691 2322 
L 691 4666 
z
" transform="scale(0.015625)"/>
       </defs>
       <use xlink:href="#DejaVuSans-35"/>
       <use xlink:href="#DejaVuSans-30" x="63.623047"/>
       <use xlink:href="#DejaVuSans-30" x="127.246094"/>
      </g>
     </g>
    </g>
    <g id="xtick_7">
     <g id="line2d_7">
      <g>
       <use xlink:href="#m0f41c0b2bf" x="648" y="320.4" style="stroke: #000000; stroke-width: 0.8"/>
      </g>
     </g>
     <g id="text_7">
      <!-- 600 -->
      <g transform="translate(633.684375 338.797656)scale(0.15 -0.15)">
       <defs>
        <path id="DejaVuSans-36" d="M 2113 2584 
Q 1688 2584 1439 2293 
Q 1191 2003 1191 1497 
Q 1191 994 1439 701 
Q 1688 409 2113 409 
Q 2538 409 2786 701 
Q 3034 994 3034 1497 
Q 3034 2003 2786 2293 
Q 2538 2584 2113 2584 
z
M 3366 4563 
L 3366 3988 
Q 3128 4100 2886 4159 
Q 2644 4219 2406 4219 
Q 1781 4219 1451 3797 
Q 1122 3375 1075 2522 
Q 1259 2794 1537 2939 
Q 1816 3084 2150 3084 
Q 2853 3084 3261 2657 
Q 3669 2231 3669 1497 
Q 3669 778 3244 343 
Q 2819 -91 2113 -91 
Q 1303 -91 875 529 
Q 447 1150 447 2328 
Q 447 3434 972 4092 
Q 1497 4750 2381 4750 
Q 2619 4750 2861 4703 
Q 3103 4656 3366 4563 
z
" transform="scale(0.015625)"/>
       </defs>
       <use xlink:href="#DejaVuSans-36"/>
       <use xlink:href="#DejaVuSans-30" x="63.623047"/>
       <use xlink:href="#DejaVuSans-30" x="127.246094"/>
      </g>
     </g>
    </g>
    <g id="text_8">
     <!-- Kanal / u -->
     <g transform="translate(336.137109 357.314844)scale(0.15 -0.15)">
      <defs>
       <path id="DejaVuSans-4b" d="M 628 4666 
L 1259 4666 
L 1259 2694 
L 3353 4666 
L 4166 4666 
L 1850 2491 
L 4331 0 
L 3500 0 
L 1259 2247 
L 1259 0 
L 628 0 
L 628 4666 
z
" transform="scale(0.015625)"/>
       <path id="DejaVuSans-61" d="M 2194 1759 
Q 1497 1759 1228 1600 
Q 959 1441 959 1056 
Q 959 750 1161 570 
Q 1363 391 1709 391 
Q 2188 391 2477 730 
Q 2766 1069 2766 1631 
L 2766 1759 
L 2194 1759 
z
M 3341 1997 
L 3341 0 
L 2766 0 
L 2766 531 
Q 2569 213 2275 61 
Q 1981 -91 1556 -91 
Q 1019 -91 701 211 
Q 384 513 384 1019 
Q 384 1609 779 1909 
Q 1175 2209 1959 2209 
L 2766 2209 
L 2766 2266 
Q 2766 2663 2505 2880 
Q 2244 3097 1772 3097 
Q 1472 3097 1187 3025 
Q 903 2953 641 2809 
L 641 3341 
Q 956 3463 1253 3523 
Q 1550 3584 1831 3584 
Q 2591 3584 2966 3190 
Q 3341 2797 3341 1997 
z
" transform="scale(0.015625)"/>
       <path id="DejaVuSans-6e" d="M 3513 2113 
L 3513 0 
L 2938 0 
L 2938 2094 
Q 2938 2591 2744 2837 
Q 2550 3084 2163 3084 
Q 1697 3084 1428 2787 
Q 1159 2491 1159 1978 
L 1159 0 
L 581 0 
L 581 3500 
L 1159 3500 
L 1159 2956 
Q 1366 3272 1645 3428 
Q 1925 3584 2291 3584 
Q 2894 3584 3203 3211 
Q 3513 2838 3513 2113 
z
" transform="scale(0.015625)"/>
       <path id="DejaVuSans-6c" d="M 603 4863 
L 1178 4863 
L 1178 0 
L 603 0 
L 603 4863 
z
" transform="scale(0.015625)"/>
       <path id="DejaVuSans-20" transform="scale(0.015625)"/>
       <path id="DejaVuSans-2f" d="M 1625 4666 
L 2156 4666 
L 531 -594 
L 0 -594 
L 1625 4666 
z
" transform="scale(0.015625)"/>
       <path id="DejaVuSans-75" d="M 544 1381 
L 544 3500 
L 1119 3500 
L 1119 1403 
Q 1119 906 1312 657 
Q 1506 409 1894 409 
Q 2359 409 2629 706 
Q 2900 1003 2900 1516 
L 2900 3500 
L 3475 3500 
L 3475 0 
L 2900 0 
L 2900 538 
Q 2691 219 2414 64 
Q 2138 -91 1772 -91 
Q 1169 -91 856 284 
Q 544 659 544 1381 
z
M 1991 3584 
L 1991 3584 
z
" transform="scale(0.015625)"/>
      </defs>
      <use xlink:href="#DejaVuSans-4b"/>
      <use xlink:href="#DejaVuSans-61" x="63.826172"/>
      <use xlink:href="#DejaVuSans-6e" x="125.105469"/>
      <use xlink:href="#DejaVuSans-61" x="188.484375"/>
      <use xlink:href="#DejaVuSans-6c" x="249.763672"/>
      <use xlink:href="#DejaVuSans-20" x="277.546875"/>
      <use xlink:href="#DejaVuSans-2f" x="309.333984"/>
      <use xlink:href="#DejaVuSans-20" x="343.025391"/>
      <use xlink:href="#DejaVuSans-75" x="374.8125"/>
     </g>
    </g>
   </g>
   <g id="matplotlib.axis_2">
    <g id="ytick_1">
     <g id="line2d_8">
      <defs>
       <path id="m38ce6de12b" d="M 0 0 
L -3.5 0 
" style="stroke: #000000; stroke-width: 0.8"/>
      </defs>
      <g>
       <use xlink:href="#m38ce6de12b" x="90" y="303.918598" style="stroke: #000000; stroke-width: 0.8"/>
      </g>
     </g>
     <g id="text_9">
      <!-- 0 -->
      <g transform="translate(73.45625 309.617427)scale(0.15 -0.15)">
       <use xlink:href="#DejaVuSans-30"/>
      </g>
     </g>
    </g>
    <g id="ytick_2">
     <g id="line2d_9">
      <g>
       <use xlink:href="#m38ce6de12b" x="90" y="252.490027" style="stroke: #000000; stroke-width: 0.8"/>
      </g>
     </g>
     <g id="text_10">
      <!-- 20 -->
      <g transform="translate(63.9125 258.188855)scale(0.15 -0.15)">
       <use xlink:href="#DejaVuSans-32"/>
       <use xlink:href="#DejaVuSans-30" x="63.623047"/>
      </g>
     </g>
    </g>
    <g id="ytick_3">
     <g id="line2d_10">
      <g>
       <use xlink:href="#m38ce6de12b" x="90" y="201.061456" style="stroke: #000000; stroke-width: 0.8"/>
      </g>
     </g>
     <g id="text_11">
      <!-- 40 -->
      <g transform="translate(63.9125 206.760284)scale(0.15 -0.15)">
       <use xlink:href="#DejaVuSans-34"/>
       <use xlink:href="#DejaVuSans-30" x="63.623047"/>
      </g>
     </g>
    </g>
    <g id="ytick_4">
     <g id="line2d_11">
      <g>
       <use xlink:href="#m38ce6de12b" x="90" y="149.632884" style="stroke: #000000; stroke-width: 0.8"/>
      </g>
     </g>
     <g id="text_12">
      <!-- 60 -->
      <g transform="translate(63.9125 155.331712)scale(0.15 -0.15)">
       <use xlink:href="#DejaVuSans-36"/>
       <use xlink:href="#DejaVuSans-30" x="63.623047"/>
      </g>
     </g>
    </g>
    <g id="ytick_5">
     <g id="line2d_12">
      <g>
       <use xlink:href="#m38ce6de12b" x="90" y="98.204313" style="stroke: #000000; stroke-width: 0.8"/>
      </g>
     </g>
     <g id="text_13">
      <!-- 80 -->
      <g transform="translate(63.9125 103.903141)scale(0.15 -0.15)">
       <defs>
        <path id="DejaVuSans-38" d="M 2034 2216 
Q 1584 2216 1326 1975 
Q 1069 1734 1069 1313 
Q 1069 891 1326 650 
Q 1584 409 2034 409 
Q 2484 409 2743 651 
Q 3003 894 3003 1313 
Q 3003 1734 2745 1975 
Q 2488 2216 2034 2216 
z
M 1403 2484 
Q 997 2584 770 2862 
Q 544 3141 544 3541 
Q 544 4100 942 4425 
Q 1341 4750 2034 4750 
Q 2731 4750 3128 4425 
Q 3525 4100 3525 3541 
Q 3525 3141 3298 2862 
Q 3072 2584 2669 2484 
Q 3125 2378 3379 2068 
Q 3634 1759 3634 1313 
Q 3634 634 3220 271 
Q 2806 -91 2034 -91 
Q 1263 -91 848 271 
Q 434 634 434 1313 
Q 434 1759 690 2068 
Q 947 2378 1403 2484 
z
M 1172 3481 
Q 1172 3119 1398 2916 
Q 1625 2713 2034 2713 
Q 2441 2713 2670 2916 
Q 2900 3119 2900 3481 
Q 2900 3844 2670 4047 
Q 2441 4250 2034 4250 
Q 1625 4250 1398 4047 
Q 1172 3844 1172 3481 
z
" transform="scale(0.015625)"/>
       </defs>
       <use xlink:href="#DejaVuSans-38"/>
       <use xlink:href="#DejaVuSans-30" x="63.623047"/>
      </g>
     </g>
    </g>
    <g id="ytick_6">
     <g id="line2d_13">
      <g>
       <use xlink:href="#m38ce6de12b" x="90" y="46.775741" style="stroke: #000000; stroke-width: 0.8"/>
      </g>
     </g>
     <g id="text_14">
      <!-- 100 -->
      <g transform="translate(54.36875 52.474569)scale(0.15 -0.15)">
       <use xlink:href="#DejaVuSans-31"/>
       <use xlink:href="#DejaVuSans-30" x="63.623047"/>
       <use xlink:href="#DejaVuSans-30" x="127.246094"/>
      </g>
     </g>
    </g>
    <g id="text_15">
     <!-- Spannung U / mV -->
     <g transform="translate(47.249219 247.294922)rotate(-90)scale(0.15 -0.15)">
      <defs>
       <path id="DejaVuSans-53" d="M 3425 4513 
L 3425 3897 
Q 3066 4069 2747 4153 
Q 2428 4238 2131 4238 
Q 1616 4238 1336 4038 
Q 1056 3838 1056 3469 
Q 1056 3159 1242 3001 
Q 1428 2844 1947 2747 
L 2328 2669 
Q 3034 2534 3370 2195 
Q 3706 1856 3706 1288 
Q 3706 609 3251 259 
Q 2797 -91 1919 -91 
Q 1588 -91 1214 -16 
Q 841 59 441 206 
L 441 856 
Q 825 641 1194 531 
Q 1563 422 1919 422 
Q 2459 422 2753 634 
Q 3047 847 3047 1241 
Q 3047 1584 2836 1778 
Q 2625 1972 2144 2069 
L 1759 2144 
Q 1053 2284 737 2584 
Q 422 2884 422 3419 
Q 422 4038 858 4394 
Q 1294 4750 2059 4750 
Q 2388 4750 2728 4690 
Q 3069 4631 3425 4513 
z
" transform="scale(0.015625)"/>
       <path id="DejaVuSans-70" d="M 1159 525 
L 1159 -1331 
L 581 -1331 
L 581 3500 
L 1159 3500 
L 1159 2969 
Q 1341 3281 1617 3432 
Q 1894 3584 2278 3584 
Q 2916 3584 3314 3078 
Q 3713 2572 3713 1747 
Q 3713 922 3314 415 
Q 2916 -91 2278 -91 
Q 1894 -91 1617 61 
Q 1341 213 1159 525 
z
M 3116 1747 
Q 3116 2381 2855 2742 
Q 2594 3103 2138 3103 
Q 1681 3103 1420 2742 
Q 1159 2381 1159 1747 
Q 1159 1113 1420 752 
Q 1681 391 2138 391 
Q 2594 391 2855 752 
Q 3116 1113 3116 1747 
z
" transform="scale(0.015625)"/>
       <path id="DejaVuSans-67" d="M 2906 1791 
Q 2906 2416 2648 2759 
Q 2391 3103 1925 3103 
Q 1463 3103 1205 2759 
Q 947 2416 947 1791 
Q 947 1169 1205 825 
Q 1463 481 1925 481 
Q 2391 481 2648 825 
Q 2906 1169 2906 1791 
z
M 3481 434 
Q 3481 -459 3084 -895 
Q 2688 -1331 1869 -1331 
Q 1566 -1331 1297 -1286 
Q 1028 -1241 775 -1147 
L 775 -588 
Q 1028 -725 1275 -790 
Q 1522 -856 1778 -856 
Q 2344 -856 2625 -561 
Q 2906 -266 2906 331 
L 2906 616 
Q 2728 306 2450 153 
Q 2172 0 1784 0 
Q 1141 0 747 490 
Q 353 981 353 1791 
Q 353 2603 747 3093 
Q 1141 3584 1784 3584 
Q 2172 3584 2450 3431 
Q 2728 3278 2906 2969 
L 2906 3500 
L 3481 3500 
L 3481 434 
z
" transform="scale(0.015625)"/>
       <path id="DejaVuSans-55" d="M 556 4666 
L 1191 4666 
L 1191 1831 
Q 1191 1081 1462 751 
Q 1734 422 2344 422 
Q 2950 422 3222 751 
Q 3494 1081 3494 1831 
L 3494 4666 
L 4128 4666 
L 4128 1753 
Q 4128 841 3676 375 
Q 3225 -91 2344 -91 
Q 1459 -91 1007 375 
Q 556 841 556 1753 
L 556 4666 
z
" transform="scale(0.015625)"/>
       <path id="DejaVuSans-6d" d="M 3328 2828 
Q 3544 3216 3844 3400 
Q 4144 3584 4550 3584 
Q 5097 3584 5394 3201 
Q 5691 2819 5691 2113 
L 5691 0 
L 5113 0 
L 5113 2094 
Q 5113 2597 4934 2840 
Q 4756 3084 4391 3084 
Q 3944 3084 3684 2787 
Q 3425 2491 3425 1978 
L 3425 0 
L 2847 0 
L 2847 2094 
Q 2847 2600 2669 2842 
Q 2491 3084 2119 3084 
Q 1678 3084 1418 2786 
Q 1159 2488 1159 1978 
L 1159 0 
L 581 0 
L 581 3500 
L 1159 3500 
L 1159 2956 
Q 1356 3278 1631 3431 
Q 1906 3584 2284 3584 
Q 2666 3584 2933 3390 
Q 3200 3197 3328 2828 
z
" transform="scale(0.015625)"/>
       <path id="DejaVuSans-56" d="M 1831 0 
L 50 4666 
L 709 4666 
L 2188 738 
L 3669 4666 
L 4325 4666 
L 2547 0 
L 1831 0 
z
" transform="scale(0.015625)"/>
      </defs>
      <use xlink:href="#DejaVuSans-53"/>
      <use xlink:href="#DejaVuSans-70" x="63.476562"/>
      <use xlink:href="#DejaVuSans-61" x="126.953125"/>
      <use xlink:href="#DejaVuSans-6e" x="188.232422"/>
      <use xlink:href="#DejaVuSans-6e" x="251.611328"/>
      <use xlink:href="#DejaVuSans-75" x="314.990234"/>
      <use xlink:href="#DejaVuSans-6e" x="378.369141"/>
      <use xlink:href="#DejaVuSans-67" x="441.748047"/>
      <use xlink:href="#DejaVuSans-20" x="505.224609"/>
      <use xlink:href="#DejaVuSans-55" x="537.011719"/>
      <use xlink:href="#DejaVuSans-20" x="610.205078"/>
      <use xlink:href="#DejaVuSans-2f" x="641.992188"/>
      <use xlink:href="#DejaVuSans-20" x="675.683594"/>
      <use xlink:href="#DejaVuSans-6d" x="707.470703"/>
      <use xlink:href="#DejaVuSans-56" x="804.882812"/>
     </g>
    </g>
   </g>
   <g id="line2d_14">
    <defs>
     <path id="m946a0d8269" d="M -5 5 
L 5 -5 
M -5 -5 
L 5 5 
" style="stroke: #d62728"/>
    </defs>
    <g clip-path="url(#p1b9035c645)">
     <use xlink:href="#m946a0d8269" x="169.05" y="55.8" style="fill: #d62728; stroke: #d62728"/>
     <use xlink:href="#m946a0d8269" x="260.19" y="145.8" style="fill: #d62728; stroke: #d62728"/>
     <use xlink:href="#m946a0d8269" x="471.3" y="55.8" style="fill: #d62728; stroke: #d62728"/>
     <use xlink:href="#m946a0d8269" x="561.51" y="145.8" style="fill: #d62728; stroke: #d62728"/>
    </g>
   </g>
   <g id="line2d_15">
    <path d="M 90 302.657143 
L 91.86 302.657143 
L 92.79 305.228571 
L 93.72 302.657143 
L 94.65 305.228571 
L 95.58 305.228571 
L 96.51 302.657143 
L 97.44 305.228571 
L 98.37 300.085714 
L 99.3 305.228571 
L 100.23 302.657143 
L 101.16 302.657143 
L 102.09 305.228571 
L 103.02 302.657143 
L 103.95 305.228571 
L 104.88 302.657143 
L 105.81 305.228571 
L 106.74 305.228571 
L 107.67 300.085714 
L 109.53 305.228571 
L 110.46 302.657143 
L 111.39 305.228571 
L 112.32 302.657143 
L 113.25 305.228571 
L 114.18 302.657143 
L 115.11 305.228571 
L 116.04 305.228571 
L 116.97 302.657143 
L 117.9 302.657143 
L 118.83 305.228571 
L 119.76 305.228571 
L 120.69 302.657143 
L 121.62 302.657143 
L 122.55 300.085714 
L 123.48 302.657143 
L 124.41 300.085714 
L 125.34 302.657143 
L 126.27 300.085714 
L 127.2 302.657143 
L 128.13 302.657143 
L 129.06 300.085714 
L 129.99 305.228571 
L 130.92 305.228571 
L 131.85 300.085714 
L 132.78 300.085714 
L 133.71 305.228571 
L 135.57 300.085714 
L 136.5 300.085714 
L 137.43 302.657143 
L 138.36 300.085714 
L 139.29 302.657143 
L 140.22 302.657143 
L 141.15 300.085714 
L 142.08 302.657143 
L 143.01 300.085714 
L 143.94 302.657143 
L 144.87 300.085714 
L 151.38 300.085714 
L 152.31 297.514286 
L 153.24 300.085714 
L 154.17 297.514286 
L 155.1 297.514286 
L 156.03 292.371429 
L 156.96 292.371429 
L 157.89 289.8 
L 158.82 289.8 
L 159.75 282.085714 
L 160.68 279.514286 
L 161.61 266.657143 
L 162.54 264.085714 
L 163.47 235.8 
L 164.4 230.657143 
L 165.33 148.371429 
L 166.26 135.514286 
L 167.19 73.8 
L 168.12 71.228571 
L 169.05 55.8 
L 169.98 58.371429 
L 170.91 81.514286 
L 171.84 86.657143 
L 172.77 143.228571 
L 173.7 145.8 
L 174.63 192.085714 
L 175.56 194.657143 
L 176.49 230.657143 
L 177.42 233.228571 
L 178.35 248.657143 
L 179.28 253.8 
L 180.21 266.657143 
L 181.14 266.657143 
L 182.07 274.371429 
L 183 276.942857 
L 183.93 282.085714 
L 184.86 282.085714 
L 185.79 287.228571 
L 186.72 287.228571 
L 187.65 292.371429 
L 190.44 292.371429 
L 191.37 294.942857 
L 192.3 292.371429 
L 193.23 297.514286 
L 194.16 294.942857 
L 195.09 300.085714 
L 196.02 294.942857 
L 196.95 300.085714 
L 197.88 300.085714 
L 198.81 294.942857 
L 200.67 300.085714 
L 201.6 300.085714 
L 202.53 297.514286 
L 203.46 297.514286 
L 204.39 300.085714 
L 211.83 300.085714 
L 212.76 302.657143 
L 213.69 300.085714 
L 214.62 302.657143 
L 215.55 300.085714 
L 216.48 300.085714 
L 217.41 302.657143 
L 218.34 300.085714 
L 219.27 302.657143 
L 220.2 300.085714 
L 221.13 302.657143 
L 222.06 300.085714 
L 222.99 302.657143 
L 223.92 302.657143 
L 224.85 300.085714 
L 225.78 300.085714 
L 226.71 302.657143 
L 227.64 300.085714 
L 228.57 302.657143 
L 229.5 302.657143 
L 230.43 300.085714 
L 233.22 300.085714 
L 234.15 302.657143 
L 235.08 300.085714 
L 236.01 302.657143 
L 236.94 300.085714 
L 244.38 300.085714 
L 245.31 297.514286 
L 246.24 300.085714 
L 247.17 294.942857 
L 248.1 297.514286 
L 249.03 292.371429 
L 249.96 294.942857 
L 250.89 292.371429 
L 251.82 292.371429 
L 252.75 282.085714 
L 253.68 284.657143 
L 254.61 264.085714 
L 255.54 261.514286 
L 256.47 210.085714 
L 257.4 204.942857 
L 258.33 161.228571 
L 259.26 158.657143 
L 260.19 145.8 
L 261.12 145.8 
L 262.05 153.514286 
L 262.98 153.514286 
L 263.91 171.514286 
L 264.84 176.657143 
L 265.77 199.8 
L 266.7 202.371429 
L 267.63 228.085714 
L 268.56 230.657143 
L 269.49 248.657143 
L 270.42 248.657143 
L 271.35 264.085714 
L 272.28 264.085714 
L 273.21 276.942857 
L 274.14 276.942857 
L 275.07 282.085714 
L 276 284.657143 
L 276.93 289.8 
L 277.86 289.8 
L 278.79 292.371429 
L 279.72 292.371429 
L 280.65 294.942857 
L 281.58 294.942857 
L 282.51 297.514286 
L 283.44 294.942857 
L 284.37 300.085714 
L 285.3 297.514286 
L 286.23 300.085714 
L 292.74 300.085714 
L 293.67 302.657143 
L 294.6 300.085714 
L 296.46 300.085714 
L 297.39 302.657143 
L 298.32 300.085714 
L 299.25 302.657143 
L 300.18 300.085714 
L 301.11 302.657143 
L 302.04 302.657143 
L 302.97 300.085714 
L 303.9 302.657143 
L 304.83 300.085714 
L 305.76 300.085714 
L 306.69 302.657143 
L 307.62 300.085714 
L 308.55 302.657143 
L 309.48 300.085714 
L 310.41 302.657143 
L 311.34 302.657143 
L 312.27 300.085714 
L 313.2 302.657143 
L 314.13 300.085714 
L 315.06 302.657143 
L 315.99 300.085714 
L 316.92 300.085714 
L 317.85 305.228571 
L 318.78 300.085714 
L 319.71 305.228571 
L 320.64 302.657143 
L 321.57 305.228571 
L 322.5 302.657143 
L 323.43 305.228571 
L 324.36 305.228571 
L 325.29 300.085714 
L 326.22 300.085714 
L 327.15 305.228571 
L 328.08 302.657143 
L 329.01 305.228571 
L 329.94 302.657143 
L 331.8 302.657143 
L 332.73 305.228571 
L 333.66 305.228571 
L 334.59 302.657143 
L 335.52 305.228571 
L 336.45 302.657143 
L 337.38 302.657143 
L 338.31 305.228571 
L 339.24 302.657143 
L 340.17 307.8 
L 341.1 302.657143 
L 342.03 305.228571 
L 342.96 305.228571 
L 343.89 302.657143 
L 344.82 302.657143 
L 345.75 305.228571 
L 346.68 302.657143 
L 347.61 305.228571 
L 348.54 302.657143 
L 349.47 307.8 
L 350.4 302.657143 
L 351.33 305.228571 
L 352.26 305.228571 
L 353.19 302.657143 
L 354.12 302.657143 
L 355.05 305.228571 
L 355.98 305.228571 
L 356.91 302.657143 
L 357.84 305.228571 
L 358.77 302.657143 
L 359.7 302.657143 
L 361.56 307.8 
L 362.49 302.657143 
L 363.42 305.228571 
L 364.35 302.657143 
L 365.28 305.228571 
L 366.21 302.657143 
L 367.14 302.657143 
L 368.07 307.8 
L 369.93 302.657143 
L 370.86 305.228571 
L 372.72 305.228571 
L 373.65 302.657143 
L 374.58 305.228571 
L 375.51 302.657143 
L 376.44 302.657143 
L 377.37 307.8 
L 378.3 307.8 
L 379.23 302.657143 
L 380.16 302.657143 
L 381.09 307.8 
L 382.95 302.657143 
L 383.88 302.657143 
L 384.81 307.8 
L 385.74 302.657143 
L 386.67 307.8 
L 387.6 302.657143 
L 388.53 305.228571 
L 389.46 305.228571 
L 390.39 302.657143 
L 391.32 302.657143 
L 392.25 305.228571 
L 393.18 305.228571 
L 394.11 302.657143 
L 395.04 305.228571 
L 395.97 302.657143 
L 396.9 302.657143 
L 397.83 307.8 
L 399.69 302.657143 
L 400.62 305.228571 
L 401.55 302.657143 
L 402.48 302.657143 
L 403.41 305.228571 
L 404.34 302.657143 
L 405.27 305.228571 
L 406.2 305.228571 
L 407.13 302.657143 
L 408.06 302.657143 
L 408.99 307.8 
L 410.85 302.657143 
L 411.78 305.228571 
L 412.71 302.657143 
L 413.64 302.657143 
L 414.57 307.8 
L 415.5 302.657143 
L 416.43 305.228571 
L 417.36 302.657143 
L 418.29 305.228571 
L 419.22 302.657143 
L 420.15 305.228571 
L 421.08 302.657143 
L 422.01 305.228571 
L 422.94 302.657143 
L 424.8 302.657143 
L 425.73 305.228571 
L 426.66 305.228571 
L 427.59 302.657143 
L 428.52 302.657143 
L 429.45 300.085714 
L 431.31 305.228571 
L 432.24 302.657143 
L 433.17 302.657143 
L 434.1 305.228571 
L 435.03 300.085714 
L 435.96 305.228571 
L 436.89 302.657143 
L 437.82 302.657143 
L 438.75 305.228571 
L 439.68 305.228571 
L 440.61 300.085714 
L 441.54 305.228571 
L 442.47 300.085714 
L 443.4 302.657143 
L 444.33 300.085714 
L 445.26 302.657143 
L 446.19 300.085714 
L 454.56 300.085714 
L 455.49 297.514286 
L 456.42 297.514286 
L 458.28 292.371429 
L 459.21 294.942857 
L 460.14 292.371429 
L 461.07 284.657143 
L 462 284.657143 
L 462.93 276.942857 
L 463.86 274.371429 
L 464.79 256.371429 
L 465.72 253.8 
L 466.65 186.942857 
L 467.58 176.657143 
L 468.51 99.514286 
L 469.44 91.8 
L 470.37 58.371429 
L 471.3 55.8 
L 472.23 63.514286 
L 473.16 66.085714 
L 474.09 99.514286 
L 475.02 102.085714 
L 475.95 150.942857 
L 476.88 156.085714 
L 477.81 192.085714 
L 478.74 192.085714 
L 479.67 220.371429 
L 480.6 225.514286 
L 481.53 246.085714 
L 482.46 248.657143 
L 483.39 264.085714 
L 484.32 266.657143 
L 485.25 274.371429 
L 486.18 274.371429 
L 487.11 282.085714 
L 488.04 282.085714 
L 488.97 287.228571 
L 489.9 287.228571 
L 490.83 292.371429 
L 493.62 292.371429 
L 495.48 297.514286 
L 496.41 292.371429 
L 497.34 297.514286 
L 498.27 297.514286 
L 499.2 294.942857 
L 500.13 300.085714 
L 501.06 300.085714 
L 501.99 297.514286 
L 502.92 300.085714 
L 504.78 300.085714 
L 505.71 297.514286 
L 506.64 300.085714 
L 515.94 300.085714 
L 516.87 302.657143 
L 517.8 300.085714 
L 518.73 302.657143 
L 519.66 300.085714 
L 520.59 305.228571 
L 521.52 300.085714 
L 522.45 302.657143 
L 523.38 302.657143 
L 524.31 300.085714 
L 525.24 302.657143 
L 526.17 300.085714 
L 527.1 300.085714 
L 528.03 302.657143 
L 528.96 302.657143 
L 529.89 300.085714 
L 530.82 300.085714 
L 531.75 305.228571 
L 532.68 300.085714 
L 533.61 302.657143 
L 534.54 300.085714 
L 535.47 305.228571 
L 537.33 300.085714 
L 538.26 300.085714 
L 539.19 302.657143 
L 540.12 300.085714 
L 541.98 300.085714 
L 542.91 302.657143 
L 543.84 300.085714 
L 547.56 300.085714 
L 548.49 297.514286 
L 549.42 300.085714 
L 550.35 297.514286 
L 551.28 297.514286 
L 552.21 292.371429 
L 553.14 292.371429 
L 554.07 282.085714 
L 555 282.085714 
L 555.93 264.085714 
L 556.86 258.942857 
L 557.79 204.942857 
L 558.72 199.8 
L 559.65 156.085714 
L 560.58 156.085714 
L 561.51 145.8 
L 562.44 145.8 
L 563.37 161.228571 
L 564.3 163.8 
L 565.23 192.085714 
L 566.16 194.657143 
L 567.09 220.371429 
L 568.02 222.942857 
L 568.95 248.657143 
L 569.88 248.657143 
L 570.81 264.085714 
L 571.74 264.085714 
L 572.67 274.371429 
L 573.6 276.942857 
L 574.53 282.085714 
L 575.46 282.085714 
L 576.39 292.371429 
L 577.32 289.8 
L 578.25 292.371429 
L 579.18 292.371429 
L 580.11 294.942857 
L 581.04 294.942857 
L 581.97 300.085714 
L 582.9 297.514286 
L 583.83 300.085714 
L 588.48 300.085714 
L 589.41 302.657143 
L 590.34 300.085714 
L 592.2 300.085714 
L 593.13 302.657143 
L 594.06 300.085714 
L 594.99 302.657143 
L 595.92 300.085714 
L 596.85 305.228571 
L 597.78 300.085714 
L 598.71 305.228571 
L 600.57 300.085714 
L 601.5 302.657143 
L 602.43 300.085714 
L 603.36 300.085714 
L 604.29 302.657143 
L 605.22 300.085714 
L 606.15 302.657143 
L 607.08 302.657143 
L 608.01 300.085714 
L 609.87 305.228571 
L 610.8 302.657143 
L 611.73 305.228571 
L 612.66 305.228571 
L 613.59 302.657143 
L 614.52 302.657143 
L 615.45 305.228571 
L 616.38 302.657143 
L 617.31 305.228571 
L 618.24 300.085714 
L 619.17 305.228571 
L 620.1 305.228571 
L 621.03 307.8 
L 622.89 302.657143 
L 623.82 305.228571 
L 624.75 302.657143 
L 625.68 302.657143 
L 626.61 305.228571 
L 627.54 305.228571 
L 628.47 302.657143 
L 629.4 307.8 
L 630.33 302.657143 
L 631.26 305.228571 
L 632.19 305.228571 
L 633.12 302.657143 
L 634.05 307.8 
L 634.98 302.657143 
L 635.91 305.228571 
L 636.84 305.228571 
L 637.77 302.657143 
L 638.7 305.228571 
L 639.63 302.657143 
L 640.56 302.657143 
L 641.49 307.8 
L 642.42 307.8 
L 643.35 302.657143 
L 644.28 305.228571 
L 645.21 302.657143 
L 646.14 307.8 
L 647.07 302.657143 
L 647.07 302.657143 
" clip-path="url(#p1b9035c645)" style="fill: none; stroke: #1f77b4; stroke-width: 1.5; stroke-linecap: square"/>
   </g>
   <g id="line2d_16">
    <path d="M 164.674421 184.543308 
L 164.850421 184.543308 
L 165.026422 184.543308 
L 165.202423 184.543308 
L 165.378423 184.543308 
L 165.554424 184.543308 
L 165.730425 184.543308 
L 165.906425 184.543308 
L 166.082426 184.543308 
L 166.258427 184.543308 
L 166.434427 184.543308 
L 166.610428 184.543308 
L 166.786429 184.543308 
L 166.96243 184.543308 
L 167.13843 184.543308 
L 167.314431 184.543308 
L 167.490432 184.543308 
L 167.666432 184.543308 
L 167.842433 184.543308 
L 168.018434 184.543308 
L 168.194434 184.543308 
L 168.370435 184.543308 
L 168.546436 184.543308 
L 168.722436 184.543308 
L 168.898437 184.543308 
L 169.074438 184.543308 
L 169.250438 184.543308 
L 169.426439 184.543308 
L 169.60244 184.543308 
L 169.77844 184.543308 
L 169.954441 184.543308 
L 170.130442 184.543308 
L 170.306442 184.543308 
L 170.482443 184.543308 
L 170.658444 184.543308 
L 170.834445 184.543308 
L 171.010445 184.543308 
L 171.186446 184.543308 
L 171.362447 184.543308 
L 171.538447 184.543308 
L 171.714448 184.543308 
L 171.890449 184.543308 
L 172.066449 184.543308 
L 172.24245 184.543308 
L 172.418451 184.543308 
L 172.594451 184.543308 
L 172.770452 184.543308 
L 172.946453 184.543308 
L 173.122453 184.543308 
L 173.298454 184.543308 
L 173.474455 184.543308 
L 173.650455 184.543308 
L 173.826456 184.543308 
L 174.002457 184.543308 
L 174.178457 184.543308 
L 174.354458 184.543308 
L 174.530459 184.543308 
L 174.70646 184.543308 
L 174.88246 184.543308 
L 175.058461 184.543308 
" clip-path="url(#p1b9035c645)" style="fill: none; stroke: #d62728; stroke-width: 1.5; stroke-linecap: square"/>
   </g>
   <g id="line2d_17">
    <path d="M 256.064749 227.025635 
L 256.271121 227.025635 
L 256.477492 227.025635 
L 256.683864 227.025635 
L 256.890236 227.025635 
L 257.096608 227.025635 
L 257.302979 227.025635 
L 257.509351 227.025635 
L 257.715723 227.025635 
L 257.922094 227.025635 
L 258.128466 227.025635 
L 258.334838 227.025635 
L 258.54121 227.025635 
L 258.747581 227.025635 
L 258.953953 227.025635 
L 259.160325 227.025635 
L 259.366697 227.025635 
L 259.573068 227.025635 
L 259.77944 227.025635 
L 259.985812 227.025635 
L 260.192183 227.025635 
L 260.398555 227.025635 
L 260.604927 227.025635 
L 260.811299 227.025635 
L 261.01767 227.025635 
L 261.224042 227.025635 
L 261.430414 227.025635 
L 261.636785 227.025635 
L 261.843157 227.025635 
L 262.049529 227.025635 
L 262.255901 227.025635 
L 262.462272 227.025635 
L 262.668644 227.025635 
L 262.875016 227.025635 
L 263.081388 227.025635 
L 263.287759 227.025635 
L 263.494131 227.025635 
L 263.700503 227.025635 
L 263.906874 227.025635 
L 264.113246 227.025635 
L 264.319618 227.025635 
L 264.52599 227.025635 
L 264.732361 227.025635 
L 264.938733 227.025635 
L 265.145105 227.025635 
L 265.351476 227.025635 
L 265.557848 227.025635 
L 265.76422 227.025635 
L 265.970592 227.025635 
L 266.176963 227.025635 
L 266.383335 227.025635 
L 266.589707 227.025635 
L 266.796078 227.025635 
L 267.00245 227.025635 
L 267.208822 227.025635 
L 267.415194 227.025635 
L 267.621565 227.025635 
L 267.827937 227.025635 
L 268.034309 227.025635 
L 268.240681 227.025635 
" clip-path="url(#p1b9035c645)" style="fill: none; stroke: #d62728; stroke-width: 1.5; stroke-linecap: square"/>
   </g>
   <g id="line2d_18">
    <path d="M 466.763335 184.674783 
L 466.90782 184.674783 
L 467.052305 184.674783 
L 467.19679 184.674783 
L 467.341275 184.674783 
L 467.48576 184.674783 
L 467.630244 184.674783 
L 467.774729 184.674783 
L 467.919214 184.674783 
L 468.063699 184.674783 
L 468.208184 184.674783 
L 468.352669 184.674783 
L 468.497154 184.674783 
L 468.641639 184.674783 
L 468.786124 184.674783 
L 468.930609 184.674783 
L 469.075094 184.674783 
L 469.219579 184.674783 
L 469.364064 184.674783 
L 469.508549 184.674783 
L 469.653034 184.674783 
L 469.797519 184.674783 
L 469.942004 184.674783 
L 470.086489 184.674783 
L 470.230974 184.674783 
L 470.375459 184.674783 
L 470.519944 184.674783 
L 470.664429 184.674783 
L 470.808914 184.674783 
L 470.953399 184.674783 
L 471.097884 184.674783 
L 471.242369 184.674783 
L 471.386854 184.674783 
L 471.531339 184.674783 
L 471.675824 184.674783 
L 471.820309 184.674783 
L 471.964794 184.674783 
L 472.109279 184.674783 
L 472.253764 184.674783 
L 472.398249 184.674783 
L 472.542734 184.674783 
L 472.687219 184.674783 
L 472.831704 184.674783 
L 472.976189 184.674783 
L 473.120674 184.674783 
L 473.265158 184.674783 
L 473.409643 184.674783 
L 473.554128 184.674783 
L 473.698613 184.674783 
L 473.843098 184.674783 
L 473.987583 184.674783 
L 474.132068 184.674783 
L 474.276553 184.674783 
L 474.421038 184.674783 
L 474.565523 184.674783 
L 474.710008 184.674783 
L 474.854493 184.674783 
L 474.998978 184.674783 
L 475.143463 184.674783 
L 475.287948 184.674783 
L 475.432433 184.674783 
L 475.576918 184.674783 
L 475.721403 184.674783 
L 475.865888 184.674783 
L 476.010373 184.674783 
L 476.154858 184.674783 
L 476.299343 184.674783 
L 476.443828 184.674783 
L 476.588313 184.674783 
L 476.732798 184.674783 
L 476.877283 184.674783 
L 477.021768 184.674783 
L 477.166253 184.674783 
L 477.310738 184.674783 
L 477.455223 184.674783 
L 477.599708 184.674783 
L 477.744193 184.674783 
L 477.888678 184.674783 
L 478.033163 184.674783 
L 478.177648 184.674783 
" clip-path="url(#p1b9035c645)" style="fill: none; stroke: #d62728; stroke-width: 1.5; stroke-linecap: square"/>
   </g>
   <g id="line2d_19">
    <path d="M 557.23273 227.897027 
L 557.417744 227.897027 
L 557.602758 227.897027 
L 557.787771 227.897027 
L 557.972785 227.897027 
L 558.157799 227.897027 
L 558.342813 227.897027 
L 558.527827 227.897027 
L 558.712841 227.897027 
L 558.897854 227.897027 
L 559.082868 227.897027 
L 559.267882 227.897027 
L 559.452896 227.897027 
L 559.63791 227.897027 
L 559.822923 227.897027 
L 560.007937 227.897027 
L 560.192951 227.897027 
L 560.377965 227.897027 
L 560.562979 227.897027 
L 560.747992 227.897027 
L 560.933006 227.897027 
L 561.11802 227.897027 
L 561.303034 227.897027 
L 561.488048 227.897027 
L 561.673061 227.897027 
L 561.858075 227.897027 
L 562.043089 227.897027 
L 562.228103 227.897027 
L 562.413117 227.897027 
L 562.598131 227.897027 
L 562.783144 227.897027 
L 562.968158 227.897027 
L 563.153172 227.897027 
L 563.338186 227.897027 
L 563.5232 227.897027 
L 563.708213 227.897027 
L 563.893227 227.897027 
L 564.078241 227.897027 
L 564.263255 227.897027 
L 564.448269 227.897027 
L 564.633282 227.897027 
L 564.818296 227.897027 
L 565.00331 227.897027 
L 565.188324 227.897027 
L 565.373338 227.897027 
L 565.558352 227.897027 
L 565.743365 227.897027 
L 565.928379 227.897027 
L 566.113393 227.897027 
L 566.298407 227.897027 
L 566.483421 227.897027 
L 566.668434 227.897027 
L 566.853448 227.897027 
L 567.038462 227.897027 
L 567.223476 227.897027 
L 567.40849 227.897027 
L 567.593503 227.897027 
L 567.778517 227.897027 
L 567.963531 227.897027 
L 568.148545 227.897027 
" clip-path="url(#p1b9035c645)" style="fill: none; stroke: #d62728; stroke-width: 1.5; stroke-linecap: square"/>
   </g>
   <g id="patch_3">
    <path d="M 90 320.4 
L 90 43.2 
" style="fill: none; stroke: #000000; stroke-width: 0.8; stroke-linejoin: miter; stroke-linecap: square"/>
   </g>
   <g id="patch_4">
    <path d="M 648 320.4 
L 648 43.2 
" style="fill: none; stroke: #000000; stroke-width: 0.8; stroke-linejoin: miter; stroke-linecap: square"/>
   </g>
   <g id="patch_5">
    <path d="M 90 320.4 
L 648 320.4 
" style="fill: none; stroke: #000000; stroke-width: 0.8; stroke-linejoin: miter; stroke-linecap: square"/>
   </g>
   <g id="patch_6">
    <path d="M 90 43.2 
L 648 43.2 
" style="fill: none; stroke: #000000; stroke-width: 0.8; stroke-linejoin: miter; stroke-linecap: square"/>
   </g>
   <g id="text_16">
    <!-- Longitudinales Modenspektrum des kommerziellen Lasers -->
    <g transform="translate(107.557031 37.2)scale(0.18 -0.18)">
     <defs>
      <path id="DejaVuSans-4c" d="M 628 4666 
L 1259 4666 
L 1259 531 
L 3531 531 
L 3531 0 
L 628 0 
L 628 4666 
z
" transform="scale(0.015625)"/>
      <path id="DejaVuSans-6f" d="M 1959 3097 
Q 1497 3097 1228 2736 
Q 959 2375 959 1747 
Q 959 1119 1226 758 
Q 1494 397 1959 397 
Q 2419 397 2687 759 
Q 2956 1122 2956 1747 
Q 2956 2369 2687 2733 
Q 2419 3097 1959 3097 
z
M 1959 3584 
Q 2709 3584 3137 3096 
Q 3566 2609 3566 1747 
Q 3566 888 3137 398 
Q 2709 -91 1959 -91 
Q 1206 -91 779 398 
Q 353 888 353 1747 
Q 353 2609 779 3096 
Q 1206 3584 1959 3584 
z
" transform="scale(0.015625)"/>
      <path id="DejaVuSans-69" d="M 603 3500 
L 1178 3500 
L 1178 0 
L 603 0 
L 603 3500 
z
M 603 4863 
L 1178 4863 
L 1178 4134 
L 603 4134 
L 603 4863 
z
" transform="scale(0.015625)"/>
      <path id="DejaVuSans-74" d="M 1172 4494 
L 1172 3500 
L 2356 3500 
L 2356 3053 
L 1172 3053 
L 1172 1153 
Q 1172 725 1289 603 
Q 1406 481 1766 481 
L 2356 481 
L 2356 0 
L 1766 0 
Q 1100 0 847 248 
Q 594 497 594 1153 
L 594 3053 
L 172 3053 
L 172 3500 
L 594 3500 
L 594 4494 
L 1172 4494 
z
" transform="scale(0.015625)"/>
      <path id="DejaVuSans-64" d="M 2906 2969 
L 2906 4863 
L 3481 4863 
L 3481 0 
L 2906 0 
L 2906 525 
Q 2725 213 2448 61 
Q 2172 -91 1784 -91 
Q 1150 -91 751 415 
Q 353 922 353 1747 
Q 353 2572 751 3078 
Q 1150 3584 1784 3584 
Q 2172 3584 2448 3432 
Q 2725 3281 2906 2969 
z
M 947 1747 
Q 947 1113 1208 752 
Q 1469 391 1925 391 
Q 2381 391 2643 752 
Q 2906 1113 2906 1747 
Q 2906 2381 2643 2742 
Q 2381 3103 1925 3103 
Q 1469 3103 1208 2742 
Q 947 2381 947 1747 
z
" transform="scale(0.015625)"/>
      <path id="DejaVuSans-65" d="M 3597 1894 
L 3597 1613 
L 953 1613 
Q 991 1019 1311 708 
Q 1631 397 2203 397 
Q 2534 397 2845 478 
Q 3156 559 3463 722 
L 3463 178 
Q 3153 47 2828 -22 
Q 2503 -91 2169 -91 
Q 1331 -91 842 396 
Q 353 884 353 1716 
Q 353 2575 817 3079 
Q 1281 3584 2069 3584 
Q 2775 3584 3186 3129 
Q 3597 2675 3597 1894 
z
M 3022 2063 
Q 3016 2534 2758 2815 
Q 2500 3097 2075 3097 
Q 1594 3097 1305 2825 
Q 1016 2553 972 2059 
L 3022 2063 
z
" transform="scale(0.015625)"/>
      <path id="DejaVuSans-73" d="M 2834 3397 
L 2834 2853 
Q 2591 2978 2328 3040 
Q 2066 3103 1784 3103 
Q 1356 3103 1142 2972 
Q 928 2841 928 2578 
Q 928 2378 1081 2264 
Q 1234 2150 1697 2047 
L 1894 2003 
Q 2506 1872 2764 1633 
Q 3022 1394 3022 966 
Q 3022 478 2636 193 
Q 2250 -91 1575 -91 
Q 1294 -91 989 -36 
Q 684 19 347 128 
L 347 722 
Q 666 556 975 473 
Q 1284 391 1588 391 
Q 1994 391 2212 530 
Q 2431 669 2431 922 
Q 2431 1156 2273 1281 
Q 2116 1406 1581 1522 
L 1381 1569 
Q 847 1681 609 1914 
Q 372 2147 372 2553 
Q 372 3047 722 3315 
Q 1072 3584 1716 3584 
Q 2034 3584 2315 3537 
Q 2597 3491 2834 3397 
z
" transform="scale(0.015625)"/>
      <path id="DejaVuSans-4d" d="M 628 4666 
L 1569 4666 
L 2759 1491 
L 3956 4666 
L 4897 4666 
L 4897 0 
L 4281 0 
L 4281 4097 
L 3078 897 
L 2444 897 
L 1241 4097 
L 1241 0 
L 628 0 
L 628 4666 
z
" transform="scale(0.015625)"/>
      <path id="DejaVuSans-6b" d="M 581 4863 
L 1159 4863 
L 1159 1991 
L 2875 3500 
L 3609 3500 
L 1753 1863 
L 3688 0 
L 2938 0 
L 1159 1709 
L 1159 0 
L 581 0 
L 581 4863 
z
" transform="scale(0.015625)"/>
      <path id="DejaVuSans-72" d="M 2631 2963 
Q 2534 3019 2420 3045 
Q 2306 3072 2169 3072 
Q 1681 3072 1420 2755 
Q 1159 2438 1159 1844 
L 1159 0 
L 581 0 
L 581 3500 
L 1159 3500 
L 1159 2956 
Q 1341 3275 1631 3429 
Q 1922 3584 2338 3584 
Q 2397 3584 2469 3576 
Q 2541 3569 2628 3553 
L 2631 2963 
z
" transform="scale(0.015625)"/>
      <path id="DejaVuSans-7a" d="M 353 3500 
L 3084 3500 
L 3084 2975 
L 922 459 
L 3084 459 
L 3084 0 
L 275 0 
L 275 525 
L 2438 3041 
L 353 3041 
L 353 3500 
z
" transform="scale(0.015625)"/>
     </defs>
     <use xlink:href="#DejaVuSans-4c"/>
     <use xlink:href="#DejaVuSans-6f" x="53.962891"/>
     <use xlink:href="#DejaVuSans-6e" x="115.144531"/>
     <use xlink:href="#DejaVuSans-67" x="178.523438"/>
     <use xlink:href="#DejaVuSans-69" x="242"/>
     <use xlink:href="#DejaVuSans-74" x="269.783203"/>
     <use xlink:href="#DejaVuSans-75" x="308.992188"/>
     <use xlink:href="#DejaVuSans-64" x="372.371094"/>
     <use xlink:href="#DejaVuSans-69" x="435.847656"/>
     <use xlink:href="#DejaVuSans-6e" x="463.630859"/>
     <use xlink:href="#DejaVuSans-61" x="527.009766"/>
     <use xlink:href="#DejaVuSans-6c" x="588.289062"/>
     <use xlink:href="#DejaVuSans-65" x="616.072266"/>
     <use xlink:href="#DejaVuSans-73" x="677.595703"/>
     <use xlink:href="#DejaVuSans-20" x="729.695312"/>
     <use xlink:href="#DejaVuSans-4d" x="761.482422"/>
     <use xlink:href="#DejaVuSans-6f" x="847.761719"/>
     <use xlink:href="#DejaVuSans-64" x="908.943359"/>
     <use xlink:href="#DejaVuSans-65" x="972.419922"/>
     <use xlink:href="#DejaVuSans-6e" x="1033.943359"/>
     <use xlink:href="#DejaVuSans-73" x="1097.322266"/>
     <use xlink:href="#DejaVuSans-70" x="1149.421875"/>
     <use xlink:href="#DejaVuSans-65" x="1212.898438"/>
     <use xlink:href="#DejaVuSans-6b" x="1274.421875"/>
     <use xlink:href="#DejaVuSans-74" x="1332.332031"/>
     <use xlink:href="#DejaVuSans-72" x="1371.541016"/>
     <use xlink:href="#DejaVuSans-75" x="1412.654297"/>
     <use xlink:href="#DejaVuSans-6d" x="1476.033203"/>
     <use xlink:href="#DejaVuSans-20" x="1573.445312"/>
     <use xlink:href="#DejaVuSans-64" x="1605.232422"/>
     <use xlink:href="#DejaVuSans-65" x="1668.708984"/>
     <use xlink:href="#DejaVuSans-73" x="1730.232422"/>
     <use xlink:href="#DejaVuSans-20" x="1782.332031"/>
     <use xlink:href="#DejaVuSans-6b" x="1814.119141"/>
     <use xlink:href="#DejaVuSans-6f" x="1868.404297"/>
     <use xlink:href="#DejaVuSans-6d" x="1929.585938"/>
     <use xlink:href="#DejaVuSans-6d" x="2026.998047"/>
     <use xlink:href="#DejaVuSans-65" x="2124.410156"/>
     <use xlink:href="#DejaVuSans-72" x="2185.933594"/>
     <use xlink:href="#DejaVuSans-7a" x="2227.046875"/>
     <use xlink:href="#DejaVuSans-69" x="2279.537109"/>
     <use xlink:href="#DejaVuSans-65" x="2307.320312"/>
     <use xlink:href="#DejaVuSans-6c" x="2368.84375"/>
     <use xlink:href="#DejaVuSans-6c" x="2396.626953"/>
     <use xlink:href="#DejaVuSans-65" x="2424.410156"/>
     <use xlink:href="#DejaVuSans-6e" x="2485.933594"/>
     <use xlink:href="#DejaVuSans-20" x="2549.3125"/>
     <use xlink:href="#DejaVuSans-4c" x="2581.099609"/>
     <use xlink:href="#DejaVuSans-61" x="2636.8125"/>
     <use xlink:href="#DejaVuSans-73" x="2698.091797"/>
     <use xlink:href="#DejaVuSans-65" x="2750.191406"/>
     <use xlink:href="#DejaVuSans-72" x="2811.714844"/>
     <use xlink:href="#DejaVuSans-73" x="2852.828125"/>
    </g>
   </g>
   <g id="legend_1">
    <g id="patch_7">
     <path d="M 546.012813 100.437812 
L 640.3 100.437812 
Q 642.5 100.437812 642.5 98.237812 
L 642.5 50.9 
Q 642.5 48.7 640.3 48.7 
L 546.012813 48.7 
Q 543.812813 48.7 543.812813 50.9 
L 543.812813 98.237812 
Q 543.812813 100.437812 546.012813 100.437812 
z
" style="fill: #ffffff; opacity: 0.8; stroke: #cccccc; stroke-linejoin: miter"/>
    </g>
    <g id="line2d_20">
     <g>
      <use xlink:href="#m946a0d8269" x="559.212813" y="57.608281" style="fill: #d62728; stroke: #d62728"/>
     </g>
    </g>
    <g id="text_17">
     <!-- Peaks -->
     <g transform="translate(579.012812 61.458281)scale(0.11 -0.11)">
      <defs>
       <path id="DejaVuSans-50" d="M 1259 4147 
L 1259 2394 
L 2053 2394 
Q 2494 2394 2734 2622 
Q 2975 2850 2975 3272 
Q 2975 3691 2734 3919 
Q 2494 4147 2053 4147 
L 1259 4147 
z
M 628 4666 
L 2053 4666 
Q 2838 4666 3239 4311 
Q 3641 3956 3641 3272 
Q 3641 2581 3239 2228 
Q 2838 1875 2053 1875 
L 1259 1875 
L 1259 0 
L 628 0 
L 628 4666 
z
" transform="scale(0.015625)"/>
      </defs>
      <use xlink:href="#DejaVuSans-50"/>
      <use xlink:href="#DejaVuSans-65" x="56.677734"/>
      <use xlink:href="#DejaVuSans-61" x="118.201172"/>
      <use xlink:href="#DejaVuSans-6b" x="179.480469"/>
      <use xlink:href="#DejaVuSans-73" x="237.390625"/>
     </g>
    </g>
    <g id="line2d_21">
     <path d="M 548.212813 73.754219 
L 559.212813 73.754219 
L 570.212813 73.754219 
" style="fill: none; stroke: #1f77b4; stroke-width: 1.5; stroke-linecap: square"/>
    </g>
    <g id="text_18">
     <!-- Messwerte -->
     <g transform="translate(579.012812 77.604219)scale(0.11 -0.11)">
      <defs>
       <path id="DejaVuSans-77" d="M 269 3500 
L 844 3500 
L 1563 769 
L 2278 3500 
L 2956 3500 
L 3675 769 
L 4391 3500 
L 4966 3500 
L 4050 0 
L 3372 0 
L 2619 2869 
L 1863 0 
L 1184 0 
L 269 3500 
z
" transform="scale(0.015625)"/>
      </defs>
      <use xlink:href="#DejaVuSans-4d"/>
      <use xlink:href="#DejaVuSans-65" x="86.279297"/>
      <use xlink:href="#DejaVuSans-73" x="147.802734"/>
      <use xlink:href="#DejaVuSans-73" x="199.902344"/>
      <use xlink:href="#DejaVuSans-77" x="252.001953"/>
      <use xlink:href="#DejaVuSans-65" x="333.789062"/>
      <use xlink:href="#DejaVuSans-72" x="395.3125"/>
      <use xlink:href="#DejaVuSans-74" x="436.425781"/>
      <use xlink:href="#DejaVuSans-65" x="475.634766"/>
     </g>
    </g>
    <g id="line2d_22">
     <path d="M 548.212813 89.900156 
L 559.212813 89.900156 
L 570.212813 89.900156 
" style="fill: none; stroke: #d62728; stroke-width: 1.5; stroke-linecap: square"/>
    </g>
    <g id="text_19">
     <!-- FWHM -->
     <g transform="translate(579.012812 93.750156)scale(0.11 -0.11)">
      <defs>
       <path id="DejaVuSans-46" d="M 628 4666 
L 3309 4666 
L 3309 4134 
L 1259 4134 
L 1259 2759 
L 3109 2759 
L 3109 2228 
L 1259 2228 
L 1259 0 
L 628 0 
L 628 4666 
z
" transform="scale(0.015625)"/>
       <path id="DejaVuSans-57" d="M 213 4666 
L 850 4666 
L 1831 722 
L 2809 4666 
L 3519 4666 
L 4500 722 
L 5478 4666 
L 6119 4666 
L 4947 0 
L 4153 0 
L 3169 4050 
L 2175 0 
L 1381 0 
L 213 4666 
z
" transform="scale(0.015625)"/>
       <path id="DejaVuSans-48" d="M 628 4666 
L 1259 4666 
L 1259 2753 
L 3553 2753 
L 3553 4666 
L 4184 4666 
L 4184 0 
L 3553 0 
L 3553 2222 
L 1259 2222 
L 1259 0 
L 628 0 
L 628 4666 
z
" transform="scale(0.015625)"/>
      </defs>
      <use xlink:href="#DejaVuSans-46"/>
      <use xlink:href="#DejaVuSans-57" x="57.519531"/>
      <use xlink:href="#DejaVuSans-48" x="156.396484"/>
      <use xlink:href="#DejaVuSans-4d" x="231.591797"/>
     </g>
    </g>
   </g>
  </g>
 </g>
 <defs>
  <clipPath id="p1b9035c645">
   <rect x="90" y="43.2" width="558" height="277.2"/>
  </clipPath>
 </defs>
</svg>
