<?xml version="1.0" encoding="utf-8" standalone="no"?>
<!DOCTYPE svg PUBLIC "-//W3C//DTD SVG 1.1//EN"
  "http://www.w3.org/Graphics/SVG/1.1/DTD/svg11.dtd">
<svg xmlns:xlink="http://www.w3.org/1999/xlink" width="720pt" height="360pt" viewBox="0 0 720 360" xmlns="http://www.w3.org/2000/svg" version="1.1">
 <metadata>
  <rdf:RDF xmlns:dc="http://purl.org/dc/elements/1.1/" xmlns:cc="http://creativecommons.org/ns#" xmlns:rdf="http://www.w3.org/1999/02/22-rdf-syntax-ns#">
   <cc:Work>
    <dc:type rdf:resource="http://purl.org/dc/dcmitype/StillImage"/>
    <dc:date>2022-01-31T18:50:02.857034</dc:date>
    <dc:format>image/svg+xml</dc:format>
    <dc:creator>
     <cc:Agent>
      <dc:title>Matplotlib v3.5.1, https://matplotlib.org/</dc:title>
     </cc:Agent>
    </dc:creator>
   </cc:Work>
  </rdf:RDF>
 </metadata>
 <defs>
  <style type="text/css">*{stroke-linejoin: round; stroke-linecap: butt}</style>
 </defs>
 <g id="figure_1">
  <g id="patch_1">
   <path d="M 0 360 
L 720 360 
L 720 0 
L 0 0 
z
" style="fill: #ffffff"/>
  </g>
  <g id="axes_1">
   <g id="patch_2">
    <path d="M 90 320.4 
L 648 320.4 
L 648 43.2 
L 90 43.2 
z
" style="fill: #ffffff"/>
   </g>
   <g id="matplotlib.axis_1">
    <g id="xtick_1">
     <g id="line2d_1">
      <defs>
       <path id="m8a8a20ccbc" d="M 0 0 
L 0 3.5 
" style="stroke: #000000; stroke-width: 0.8"/>
      </defs>
      <g>
       <use xlink:href="#m8a8a20ccbc" x="115.363636" y="320.4" style="stroke: #000000; stroke-width: 0.8"/>
      </g>
     </g>
     <g id="text_1">
      <!-- 0 -->
      <g transform="translate(110.591761 338.797656)scale(0.15 -0.15)">
       <defs>
        <path id="DejaVuSans-30" d="M 2034 4250 
Q 1547 4250 1301 3770 
Q 1056 3291 1056 2328 
Q 1056 1369 1301 889 
Q 1547 409 2034 409 
Q 2525 409 2770 889 
Q 3016 1369 3016 2328 
Q 3016 3291 2770 3770 
Q 2525 4250 2034 4250 
z
M 2034 4750 
Q 2819 4750 3233 4129 
Q 3647 3509 3647 2328 
Q 3647 1150 3233 529 
Q 2819 -91 2034 -91 
Q 1250 -91 836 529 
Q 422 1150 422 2328 
Q 422 3509 836 4129 
Q 1250 4750 2034 4750 
z
" transform="scale(0.015625)"/>
       </defs>
       <use xlink:href="#DejaVuSans-30"/>
      </g>
     </g>
    </g>
    <g id="xtick_2">
     <g id="line2d_2">
      <g>
       <use xlink:href="#m8a8a20ccbc" x="200.050235" y="320.4" style="stroke: #000000; stroke-width: 0.8"/>
      </g>
     </g>
     <g id="text_2">
      <!-- 100 -->
      <g transform="translate(185.73461 338.797656)scale(0.15 -0.15)">
       <defs>
        <path id="DejaVuSans-31" d="M 794 531 
L 1825 531 
L 1825 4091 
L 703 3866 
L 703 4441 
L 1819 4666 
L 2450 4666 
L 2450 531 
L 3481 531 
L 3481 0 
L 794 0 
L 794 531 
z
" transform="scale(0.015625)"/>
       </defs>
       <use xlink:href="#DejaVuSans-31"/>
       <use xlink:href="#DejaVuSans-30" x="63.623047"/>
       <use xlink:href="#DejaVuSans-30" x="127.246094"/>
      </g>
     </g>
    </g>
    <g id="xtick_3">
     <g id="line2d_3">
      <g>
       <use xlink:href="#m8a8a20ccbc" x="284.736834" y="320.4" style="stroke: #000000; stroke-width: 0.8"/>
      </g>
     </g>
     <g id="text_3">
      <!-- 200 -->
      <g transform="translate(270.421209 338.797656)scale(0.15 -0.15)">
       <defs>
        <path id="DejaVuSans-32" d="M 1228 531 
L 3431 531 
L 3431 0 
L 469 0 
L 469 531 
Q 828 903 1448 1529 
Q 2069 2156 2228 2338 
Q 2531 2678 2651 2914 
Q 2772 3150 2772 3378 
Q 2772 3750 2511 3984 
Q 2250 4219 1831 4219 
Q 1534 4219 1204 4116 
Q 875 4013 500 3803 
L 500 4441 
Q 881 4594 1212 4672 
Q 1544 4750 1819 4750 
Q 2544 4750 2975 4387 
Q 3406 4025 3406 3419 
Q 3406 3131 3298 2873 
Q 3191 2616 2906 2266 
Q 2828 2175 2409 1742 
Q 1991 1309 1228 531 
z
" transform="scale(0.015625)"/>
       </defs>
       <use xlink:href="#DejaVuSans-32"/>
       <use xlink:href="#DejaVuSans-30" x="63.623047"/>
       <use xlink:href="#DejaVuSans-30" x="127.246094"/>
      </g>
     </g>
    </g>
    <g id="xtick_4">
     <g id="line2d_4">
      <g>
       <use xlink:href="#m8a8a20ccbc" x="369.423433" y="320.4" style="stroke: #000000; stroke-width: 0.8"/>
      </g>
     </g>
     <g id="text_4">
      <!-- 300 -->
      <g transform="translate(355.107808 338.797656)scale(0.15 -0.15)">
       <defs>
        <path id="DejaVuSans-33" d="M 2597 2516 
Q 3050 2419 3304 2112 
Q 3559 1806 3559 1356 
Q 3559 666 3084 287 
Q 2609 -91 1734 -91 
Q 1441 -91 1130 -33 
Q 819 25 488 141 
L 488 750 
Q 750 597 1062 519 
Q 1375 441 1716 441 
Q 2309 441 2620 675 
Q 2931 909 2931 1356 
Q 2931 1769 2642 2001 
Q 2353 2234 1838 2234 
L 1294 2234 
L 1294 2753 
L 1863 2753 
Q 2328 2753 2575 2939 
Q 2822 3125 2822 3475 
Q 2822 3834 2567 4026 
Q 2313 4219 1838 4219 
Q 1578 4219 1281 4162 
Q 984 4106 628 3988 
L 628 4550 
Q 988 4650 1302 4700 
Q 1616 4750 1894 4750 
Q 2613 4750 3031 4423 
Q 3450 4097 3450 3541 
Q 3450 3153 3228 2886 
Q 3006 2619 2597 2516 
z
" transform="scale(0.015625)"/>
       </defs>
       <use xlink:href="#DejaVuSans-33"/>
       <use xlink:href="#DejaVuSans-30" x="63.623047"/>
       <use xlink:href="#DejaVuSans-30" x="127.246094"/>
      </g>
     </g>
    </g>
    <g id="xtick_5">
     <g id="line2d_5">
      <g>
       <use xlink:href="#m8a8a20ccbc" x="454.110032" y="320.4" style="stroke: #000000; stroke-width: 0.8"/>
      </g>
     </g>
     <g id="text_5">
      <!-- 400 -->
      <g transform="translate(439.794407 338.797656)scale(0.15 -0.15)">
       <defs>
        <path id="DejaVuSans-34" d="M 2419 4116 
L 825 1625 
L 2419 1625 
L 2419 4116 
z
M 2253 4666 
L 3047 4666 
L 3047 1625 
L 3713 1625 
L 3713 1100 
L 3047 1100 
L 3047 0 
L 2419 0 
L 2419 1100 
L 313 1100 
L 313 1709 
L 2253 4666 
z
" transform="scale(0.015625)"/>
       </defs>
       <use xlink:href="#DejaVuSans-34"/>
       <use xlink:href="#DejaVuSans-30" x="63.623047"/>
       <use xlink:href="#DejaVuSans-30" x="127.246094"/>
      </g>
     </g>
    </g>
    <g id="xtick_6">
     <g id="line2d_6">
      <g>
       <use xlink:href="#m8a8a20ccbc" x="538.796631" y="320.4" style="stroke: #000000; stroke-width: 0.8"/>
      </g>
     </g>
     <g id="text_6">
      <!-- 500 -->
      <g transform="translate(524.481006 338.797656)scale(0.15 -0.15)">
       <defs>
        <path id="DejaVuSans-35" d="M 691 4666 
L 3169 4666 
L 3169 4134 
L 1269 4134 
L 1269 2991 
Q 1406 3038 1543 3061 
Q 1681 3084 1819 3084 
Q 2600 3084 3056 2656 
Q 3513 2228 3513 1497 
Q 3513 744 3044 326 
Q 2575 -91 1722 -91 
Q 1428 -91 1123 -41 
Q 819 9 494 109 
L 494 744 
Q 775 591 1075 516 
Q 1375 441 1709 441 
Q 2250 441 2565 725 
Q 2881 1009 2881 1497 
Q 2881 1984 2565 2268 
Q 2250 2553 1709 2553 
Q 1456 2553 1204 2497 
Q 953 2441 691 2322 
L 691 4666 
z
" transform="scale(0.015625)"/>
       </defs>
       <use xlink:href="#DejaVuSans-35"/>
       <use xlink:href="#DejaVuSans-30" x="63.623047"/>
       <use xlink:href="#DejaVuSans-30" x="127.246094"/>
      </g>
     </g>
    </g>
    <g id="xtick_7">
     <g id="line2d_7">
      <g>
       <use xlink:href="#m8a8a20ccbc" x="623.48323" y="320.4" style="stroke: #000000; stroke-width: 0.8"/>
      </g>
     </g>
     <g id="text_7">
      <!-- 600 -->
      <g transform="translate(609.167605 338.797656)scale(0.15 -0.15)">
       <defs>
        <path id="DejaVuSans-36" d="M 2113 2584 
Q 1688 2584 1439 2293 
Q 1191 2003 1191 1497 
Q 1191 994 1439 701 
Q 1688 409 2113 409 
Q 2538 409 2786 701 
Q 3034 994 3034 1497 
Q 3034 2003 2786 2293 
Q 2538 2584 2113 2584 
z
M 3366 4563 
L 3366 3988 
Q 3128 4100 2886 4159 
Q 2644 4219 2406 4219 
Q 1781 4219 1451 3797 
Q 1122 3375 1075 2522 
Q 1259 2794 1537 2939 
Q 1816 3084 2150 3084 
Q 2853 3084 3261 2657 
Q 3669 2231 3669 1497 
Q 3669 778 3244 343 
Q 2819 -91 2113 -91 
Q 1303 -91 875 529 
Q 447 1150 447 2328 
Q 447 3434 972 4092 
Q 1497 4750 2381 4750 
Q 2619 4750 2861 4703 
Q 3103 4656 3366 4563 
z
" transform="scale(0.015625)"/>
       </defs>
       <use xlink:href="#DejaVuSans-36"/>
       <use xlink:href="#DejaVuSans-30" x="63.623047"/>
       <use xlink:href="#DejaVuSans-30" x="127.246094"/>
      </g>
     </g>
    </g>
    <g id="text_8">
     <!-- Kanal / u -->
     <g transform="translate(336.137109 357.314844)scale(0.15 -0.15)">
      <defs>
       <path id="DejaVuSans-4b" d="M 628 4666 
L 1259 4666 
L 1259 2694 
L 3353 4666 
L 4166 4666 
L 1850 2491 
L 4331 0 
L 3500 0 
L 1259 2247 
L 1259 0 
L 628 0 
L 628 4666 
z
" transform="scale(0.015625)"/>
       <path id="DejaVuSans-61" d="M 2194 1759 
Q 1497 1759 1228 1600 
Q 959 1441 959 1056 
Q 959 750 1161 570 
Q 1363 391 1709 391 
Q 2188 391 2477 730 
Q 2766 1069 2766 1631 
L 2766 1759 
L 2194 1759 
z
M 3341 1997 
L 3341 0 
L 2766 0 
L 2766 531 
Q 2569 213 2275 61 
Q 1981 -91 1556 -91 
Q 1019 -91 701 211 
Q 384 513 384 1019 
Q 384 1609 779 1909 
Q 1175 2209 1959 2209 
L 2766 2209 
L 2766 2266 
Q 2766 2663 2505 2880 
Q 2244 3097 1772 3097 
Q 1472 3097 1187 3025 
Q 903 2953 641 2809 
L 641 3341 
Q 956 3463 1253 3523 
Q 1550 3584 1831 3584 
Q 2591 3584 2966 3190 
Q 3341 2797 3341 1997 
z
" transform="scale(0.015625)"/>
       <path id="DejaVuSans-6e" d="M 3513 2113 
L 3513 0 
L 2938 0 
L 2938 2094 
Q 2938 2591 2744 2837 
Q 2550 3084 2163 3084 
Q 1697 3084 1428 2787 
Q 1159 2491 1159 1978 
L 1159 0 
L 581 0 
L 581 3500 
L 1159 3500 
L 1159 2956 
Q 1366 3272 1645 3428 
Q 1925 3584 2291 3584 
Q 2894 3584 3203 3211 
Q 3513 2838 3513 2113 
z
" transform="scale(0.015625)"/>
       <path id="DejaVuSans-6c" d="M 603 4863 
L 1178 4863 
L 1178 0 
L 603 0 
L 603 4863 
z
" transform="scale(0.015625)"/>
       <path id="DejaVuSans-20" transform="scale(0.015625)"/>
       <path id="DejaVuSans-2f" d="M 1625 4666 
L 2156 4666 
L 531 -594 
L 0 -594 
L 1625 4666 
z
" transform="scale(0.015625)"/>
       <path id="DejaVuSans-75" d="M 544 1381 
L 544 3500 
L 1119 3500 
L 1119 1403 
Q 1119 906 1312 657 
Q 1506 409 1894 409 
Q 2359 409 2629 706 
Q 2900 1003 2900 1516 
L 2900 3500 
L 3475 3500 
L 3475 0 
L 2900 0 
L 2900 538 
Q 2691 219 2414 64 
Q 2138 -91 1772 -91 
Q 1169 -91 856 284 
Q 544 659 544 1381 
z
M 1991 3584 
L 1991 3584 
z
" transform="scale(0.015625)"/>
      </defs>
      <use xlink:href="#DejaVuSans-4b"/>
      <use xlink:href="#DejaVuSans-61" x="63.826172"/>
      <use xlink:href="#DejaVuSans-6e" x="125.105469"/>
      <use xlink:href="#DejaVuSans-61" x="188.484375"/>
      <use xlink:href="#DejaVuSans-6c" x="249.763672"/>
      <use xlink:href="#DejaVuSans-20" x="277.546875"/>
      <use xlink:href="#DejaVuSans-2f" x="309.333984"/>
      <use xlink:href="#DejaVuSans-20" x="343.025391"/>
      <use xlink:href="#DejaVuSans-75" x="374.8125"/>
     </g>
    </g>
   </g>
   <g id="matplotlib.axis_2">
    <g id="ytick_1">
     <g id="line2d_8">
      <defs>
       <path id="m63e9a57962" d="M 0 0 
L -3.5 0 
" style="stroke: #000000; stroke-width: 0.8"/>
      </defs>
      <g>
       <use xlink:href="#m63e9a57962" x="90" y="303.918598" style="stroke: #000000; stroke-width: 0.8"/>
      </g>
     </g>
     <g id="text_9">
      <!-- 0 -->
      <g transform="translate(73.45625 309.617427)scale(0.15 -0.15)">
       <use xlink:href="#DejaVuSans-30"/>
      </g>
     </g>
    </g>
    <g id="ytick_2">
     <g id="line2d_9">
      <g>
       <use xlink:href="#m63e9a57962" x="90" y="252.490027" style="stroke: #000000; stroke-width: 0.8"/>
      </g>
     </g>
     <g id="text_10">
      <!-- 20 -->
      <g transform="translate(63.9125 258.188855)scale(0.15 -0.15)">
       <use xlink:href="#DejaVuSans-32"/>
       <use xlink:href="#DejaVuSans-30" x="63.623047"/>
      </g>
     </g>
    </g>
    <g id="ytick_3">
     <g id="line2d_10">
      <g>
       <use xlink:href="#m63e9a57962" x="90" y="201.061456" style="stroke: #000000; stroke-width: 0.8"/>
      </g>
     </g>
     <g id="text_11">
      <!-- 40 -->
      <g transform="translate(63.9125 206.760284)scale(0.15 -0.15)">
       <use xlink:href="#DejaVuSans-34"/>
       <use xlink:href="#DejaVuSans-30" x="63.623047"/>
      </g>
     </g>
    </g>
    <g id="ytick_4">
     <g id="line2d_11">
      <g>
       <use xlink:href="#m63e9a57962" x="90" y="149.632884" style="stroke: #000000; stroke-width: 0.8"/>
      </g>
     </g>
     <g id="text_12">
      <!-- 60 -->
      <g transform="translate(63.9125 155.331712)scale(0.15 -0.15)">
       <use xlink:href="#DejaVuSans-36"/>
       <use xlink:href="#DejaVuSans-30" x="63.623047"/>
      </g>
     </g>
    </g>
    <g id="ytick_5">
     <g id="line2d_12">
      <g>
       <use xlink:href="#m63e9a57962" x="90" y="98.204313" style="stroke: #000000; stroke-width: 0.8"/>
      </g>
     </g>
     <g id="text_13">
      <!-- 80 -->
      <g transform="translate(63.9125 103.903141)scale(0.15 -0.15)">
       <defs>
        <path id="DejaVuSans-38" d="M 2034 2216 
Q 1584 2216 1326 1975 
Q 1069 1734 1069 1313 
Q 1069 891 1326 650 
Q 1584 409 2034 409 
Q 2484 409 2743 651 
Q 3003 894 3003 1313 
Q 3003 1734 2745 1975 
Q 2488 2216 2034 2216 
z
M 1403 2484 
Q 997 2584 770 2862 
Q 544 3141 544 3541 
Q 544 4100 942 4425 
Q 1341 4750 2034 4750 
Q 2731 4750 3128 4425 
Q 3525 4100 3525 3541 
Q 3525 3141 3298 2862 
Q 3072 2584 2669 2484 
Q 3125 2378 3379 2068 
Q 3634 1759 3634 1313 
Q 3634 634 3220 271 
Q 2806 -91 2034 -91 
Q 1263 -91 848 271 
Q 434 634 434 1313 
Q 434 1759 690 2068 
Q 947 2378 1403 2484 
z
M 1172 3481 
Q 1172 3119 1398 2916 
Q 1625 2713 2034 2713 
Q 2441 2713 2670 2916 
Q 2900 3119 2900 3481 
Q 2900 3844 2670 4047 
Q 2441 4250 2034 4250 
Q 1625 4250 1398 4047 
Q 1172 3844 1172 3481 
z
" transform="scale(0.015625)"/>
       </defs>
       <use xlink:href="#DejaVuSans-38"/>
       <use xlink:href="#DejaVuSans-30" x="63.623047"/>
      </g>
     </g>
    </g>
    <g id="ytick_6">
     <g id="line2d_13">
      <g>
       <use xlink:href="#m63e9a57962" x="90" y="46.775741" style="stroke: #000000; stroke-width: 0.8"/>
      </g>
     </g>
     <g id="text_14">
      <!-- 100 -->
      <g transform="translate(54.36875 52.474569)scale(0.15 -0.15)">
       <use xlink:href="#DejaVuSans-31"/>
       <use xlink:href="#DejaVuSans-30" x="63.623047"/>
       <use xlink:href="#DejaVuSans-30" x="127.246094"/>
      </g>
     </g>
    </g>
    <g id="text_15">
     <!-- Spannung U / mV -->
     <g transform="translate(47.249219 247.294922)rotate(-90)scale(0.15 -0.15)">
      <defs>
       <path id="DejaVuSans-53" d="M 3425 4513 
L 3425 3897 
Q 3066 4069 2747 4153 
Q 2428 4238 2131 4238 
Q 1616 4238 1336 4038 
Q 1056 3838 1056 3469 
Q 1056 3159 1242 3001 
Q 1428 2844 1947 2747 
L 2328 2669 
Q 3034 2534 3370 2195 
Q 3706 1856 3706 1288 
Q 3706 609 3251 259 
Q 2797 -91 1919 -91 
Q 1588 -91 1214 -16 
Q 841 59 441 206 
L 441 856 
Q 825 641 1194 531 
Q 1563 422 1919 422 
Q 2459 422 2753 634 
Q 3047 847 3047 1241 
Q 3047 1584 2836 1778 
Q 2625 1972 2144 2069 
L 1759 2144 
Q 1053 2284 737 2584 
Q 422 2884 422 3419 
Q 422 4038 858 4394 
Q 1294 4750 2059 4750 
Q 2388 4750 2728 4690 
Q 3069 4631 3425 4513 
z
" transform="scale(0.015625)"/>
       <path id="DejaVuSans-70" d="M 1159 525 
L 1159 -1331 
L 581 -1331 
L 581 3500 
L 1159 3500 
L 1159 2969 
Q 1341 3281 1617 3432 
Q 1894 3584 2278 3584 
Q 2916 3584 3314 3078 
Q 3713 2572 3713 1747 
Q 3713 922 3314 415 
Q 2916 -91 2278 -91 
Q 1894 -91 1617 61 
Q 1341 213 1159 525 
z
M 3116 1747 
Q 3116 2381 2855 2742 
Q 2594 3103 2138 3103 
Q 1681 3103 1420 2742 
Q 1159 2381 1159 1747 
Q 1159 1113 1420 752 
Q 1681 391 2138 391 
Q 2594 391 2855 752 
Q 3116 1113 3116 1747 
z
" transform="scale(0.015625)"/>
       <path id="DejaVuSans-67" d="M 2906 1791 
Q 2906 2416 2648 2759 
Q 2391 3103 1925 3103 
Q 1463 3103 1205 2759 
Q 947 2416 947 1791 
Q 947 1169 1205 825 
Q 1463 481 1925 481 
Q 2391 481 2648 825 
Q 2906 1169 2906 1791 
z
M 3481 434 
Q 3481 -459 3084 -895 
Q 2688 -1331 1869 -1331 
Q 1566 -1331 1297 -1286 
Q 1028 -1241 775 -1147 
L 775 -588 
Q 1028 -725 1275 -790 
Q 1522 -856 1778 -856 
Q 2344 -856 2625 -561 
Q 2906 -266 2906 331 
L 2906 616 
Q 2728 306 2450 153 
Q 2172 0 1784 0 
Q 1141 0 747 490 
Q 353 981 353 1791 
Q 353 2603 747 3093 
Q 1141 3584 1784 3584 
Q 2172 3584 2450 3431 
Q 2728 3278 2906 2969 
L 2906 3500 
L 3481 3500 
L 3481 434 
z
" transform="scale(0.015625)"/>
       <path id="DejaVuSans-55" d="M 556 4666 
L 1191 4666 
L 1191 1831 
Q 1191 1081 1462 751 
Q 1734 422 2344 422 
Q 2950 422 3222 751 
Q 3494 1081 3494 1831 
L 3494 4666 
L 4128 4666 
L 4128 1753 
Q 4128 841 3676 375 
Q 3225 -91 2344 -91 
Q 1459 -91 1007 375 
Q 556 841 556 1753 
L 556 4666 
z
" transform="scale(0.015625)"/>
       <path id="DejaVuSans-6d" d="M 3328 2828 
Q 3544 3216 3844 3400 
Q 4144 3584 4550 3584 
Q 5097 3584 5394 3201 
Q 5691 2819 5691 2113 
L 5691 0 
L 5113 0 
L 5113 2094 
Q 5113 2597 4934 2840 
Q 4756 3084 4391 3084 
Q 3944 3084 3684 2787 
Q 3425 2491 3425 1978 
L 3425 0 
L 2847 0 
L 2847 2094 
Q 2847 2600 2669 2842 
Q 2491 3084 2119 3084 
Q 1678 3084 1418 2786 
Q 1159 2488 1159 1978 
L 1159 0 
L 581 0 
L 581 3500 
L 1159 3500 
L 1159 2956 
Q 1356 3278 1631 3431 
Q 1906 3584 2284 3584 
Q 2666 3584 2933 3390 
Q 3200 3197 3328 2828 
z
" transform="scale(0.015625)"/>
       <path id="DejaVuSans-56" d="M 1831 0 
L 50 4666 
L 709 4666 
L 2188 738 
L 3669 4666 
L 4325 4666 
L 2547 0 
L 1831 0 
z
" transform="scale(0.015625)"/>
      </defs>
      <use xlink:href="#DejaVuSans-53"/>
      <use xlink:href="#DejaVuSans-70" x="63.476562"/>
      <use xlink:href="#DejaVuSans-61" x="126.953125"/>
      <use xlink:href="#DejaVuSans-6e" x="188.232422"/>
      <use xlink:href="#DejaVuSans-6e" x="251.611328"/>
      <use xlink:href="#DejaVuSans-75" x="314.990234"/>
      <use xlink:href="#DejaVuSans-6e" x="378.369141"/>
      <use xlink:href="#DejaVuSans-67" x="441.748047"/>
      <use xlink:href="#DejaVuSans-20" x="505.224609"/>
      <use xlink:href="#DejaVuSans-55" x="537.011719"/>
      <use xlink:href="#DejaVuSans-20" x="610.205078"/>
      <use xlink:href="#DejaVuSans-2f" x="641.992188"/>
      <use xlink:href="#DejaVuSans-20" x="675.683594"/>
      <use xlink:href="#DejaVuSans-6d" x="707.470703"/>
      <use xlink:href="#DejaVuSans-56" x="804.882812"/>
     </g>
    </g>
   </g>
   <g id="line2d_14">
    <defs>
     <path id="mca6d7dccd0" d="M -5 5 
L 5 -5 
M -5 -5 
L 5 5 
" style="stroke: #d62728"/>
    </defs>
    <g clip-path="url(#pb8aee33783)">
     <use xlink:href="#mca6d7dccd0" x="187.347245" y="55.8" style="fill: #d62728; stroke: #d62728"/>
     <use xlink:href="#mca6d7dccd0" x="270.340112" y="145.8" style="fill: #d62728; stroke: #d62728"/>
     <use xlink:href="#mca6d7dccd0" x="462.578692" y="55.8" style="fill: #d62728; stroke: #d62728"/>
     <use xlink:href="#mca6d7dccd0" x="544.724693" y="145.8" style="fill: #d62728; stroke: #d62728"/>
    </g>
   </g>
   <g id="line2d_15">
    <path d="M 115.363636 302.657143 
L 117.057368 302.657143 
L 117.904234 305.228571 
L 118.7511 302.657143 
L 119.597966 305.228571 
L 120.444832 305.228571 
L 121.291698 302.657143 
L 122.138564 305.228571 
L 122.98543 300.085714 
L 123.832296 305.228571 
L 124.679162 302.657143 
L 125.526028 302.657143 
L 126.372894 305.228571 
L 127.21976 302.657143 
L 128.066626 305.228571 
L 128.913492 302.657143 
L 129.760358 305.228571 
L 130.607224 305.228571 
L 131.45409 300.085714 
L 133.147822 305.228571 
L 133.994688 302.657143 
L 134.841554 305.228571 
L 135.68842 302.657143 
L 136.535286 305.228571 
L 137.382152 302.657143 
L 138.229018 305.228571 
L 139.075884 305.228571 
L 139.92275 302.657143 
L 140.769616 302.657143 
L 141.616482 305.228571 
L 142.463348 305.228571 
L 143.310214 302.657143 
L 144.15708 302.657143 
L 145.003946 300.085714 
L 145.850812 302.657143 
L 146.697678 300.085714 
L 147.544544 302.657143 
L 148.39141 300.085714 
L 149.238276 302.657143 
L 150.085142 302.657143 
L 150.932008 300.085714 
L 151.778874 305.228571 
L 152.62574 305.228571 
L 153.472606 300.085714 
L 154.319472 300.085714 
L 155.166338 305.228571 
L 156.86007 300.085714 
L 157.706936 300.085714 
L 158.553802 302.657143 
L 159.400668 300.085714 
L 160.247534 302.657143 
L 161.0944 302.657143 
L 161.941266 300.085714 
L 162.788132 302.657143 
L 163.634998 300.085714 
L 164.481864 302.657143 
L 165.32873 300.085714 
L 171.256792 300.085714 
L 172.103658 297.514286 
L 172.950524 300.085714 
L 173.79739 297.514286 
L 174.644256 297.514286 
L 175.491122 292.371429 
L 176.337988 292.371429 
L 177.184854 289.8 
L 178.03172 289.8 
L 178.878586 282.085714 
L 179.725452 279.514286 
L 180.572317 266.657143 
L 181.419183 264.085714 
L 182.266049 235.8 
L 183.112915 230.657143 
L 183.959781 148.371429 
L 184.806647 135.514286 
L 185.653513 73.8 
L 186.500379 71.228571 
L 187.347245 55.8 
L 188.194111 58.371429 
L 189.040977 81.514286 
L 189.887843 86.657143 
L 190.734709 143.228571 
L 191.581575 145.8 
L 192.428441 192.085714 
L 193.275307 194.657143 
L 194.122173 230.657143 
L 194.969039 233.228571 
L 195.815905 248.657143 
L 196.662771 253.8 
L 197.509637 266.657143 
L 198.356503 266.657143 
L 199.203369 274.371429 
L 200.050235 276.942857 
L 200.897101 282.085714 
L 201.743967 282.085714 
L 202.590833 287.228571 
L 203.437699 287.228571 
L 204.284565 292.371429 
L 206.825163 292.371429 
L 207.672029 294.942857 
L 208.518895 292.371429 
L 209.365761 297.514286 
L 210.212627 294.942857 
L 211.059493 300.085714 
L 211.906359 294.942857 
L 212.753225 300.085714 
L 213.600091 300.085714 
L 214.446957 294.942857 
L 216.140689 300.085714 
L 216.987555 300.085714 
L 217.834421 297.514286 
L 218.681287 297.514286 
L 219.528153 300.085714 
L 226.303081 300.085714 
L 227.149947 302.657143 
L 227.996813 300.085714 
L 228.843679 302.657143 
L 229.690545 300.085714 
L 230.537411 300.085714 
L 231.384277 302.657143 
L 232.231143 300.085714 
L 233.078009 302.657143 
L 233.924875 300.085714 
L 234.771741 302.657143 
L 235.618607 300.085714 
L 236.465473 302.657143 
L 237.312339 302.657143 
L 238.159205 300.085714 
L 239.006071 300.085714 
L 239.852937 302.657143 
L 240.699803 300.085714 
L 241.546669 302.657143 
L 242.393535 302.657143 
L 243.240401 300.085714 
L 245.780999 300.085714 
L 246.627865 302.657143 
L 247.474731 300.085714 
L 248.321597 302.657143 
L 249.168463 300.085714 
L 255.94339 300.085714 
L 256.790256 297.514286 
L 257.637122 300.085714 
L 258.483988 294.942857 
L 259.330854 297.514286 
L 260.17772 292.371429 
L 261.024586 294.942857 
L 261.871452 292.371429 
L 262.718318 292.371429 
L 263.565184 282.085714 
L 264.41205 284.657143 
L 265.258916 264.085714 
L 266.105782 261.514286 
L 266.952648 210.085714 
L 267.799514 204.942857 
L 268.64638 161.228571 
L 269.493246 158.657143 
L 270.340112 145.8 
L 271.186978 145.8 
L 272.033844 153.514286 
L 272.88071 153.514286 
L 273.727576 171.514286 
L 274.574442 176.657143 
L 275.421308 199.8 
L 276.268174 202.371429 
L 277.11504 228.085714 
L 277.961906 230.657143 
L 278.808772 248.657143 
L 279.655638 248.657143 
L 280.502504 264.085714 
L 281.34937 264.085714 
L 282.196236 276.942857 
L 283.043102 276.942857 
L 283.889968 282.085714 
L 284.736834 284.657143 
L 285.5837 289.8 
L 286.430566 289.8 
L 287.277432 292.371429 
L 288.124298 292.371429 
L 288.971164 294.942857 
L 289.81803 294.942857 
L 290.664896 297.514286 
L 291.511762 294.942857 
L 292.358628 300.085714 
L 293.205494 297.514286 
L 294.05236 300.085714 
L 299.980422 300.085714 
L 300.827288 302.657143 
L 301.674154 300.085714 
L 303.367886 300.085714 
L 304.214752 302.657143 
L 305.061618 300.085714 
L 305.908484 302.657143 
L 306.75535 300.085714 
L 307.602216 302.657143 
L 308.449082 302.657143 
L 309.295948 300.085714 
L 310.142814 302.657143 
L 310.98968 300.085714 
L 311.836546 300.085714 
L 312.683412 302.657143 
L 313.530278 300.085714 
L 314.377144 302.657143 
L 315.22401 300.085714 
L 316.070876 302.657143 
L 316.917742 302.657143 
L 317.764608 300.085714 
L 318.611474 302.657143 
L 319.45834 300.085714 
L 320.305206 302.657143 
L 321.152072 300.085714 
L 321.998938 300.085714 
L 322.845804 305.228571 
L 323.69267 300.085714 
L 324.539536 305.228571 
L 325.386402 302.657143 
L 326.233268 305.228571 
L 327.080134 302.657143 
L 327.927 305.228571 
L 328.773866 305.228571 
L 329.620732 300.085714 
L 330.467598 300.085714 
L 331.314463 305.228571 
L 332.161329 302.657143 
L 333.008195 305.228571 
L 333.855061 302.657143 
L 335.548793 302.657143 
L 336.395659 305.228571 
L 337.242525 305.228571 
L 338.089391 302.657143 
L 338.936257 305.228571 
L 339.783123 302.657143 
L 340.629989 302.657143 
L 341.476855 305.228571 
L 342.323721 302.657143 
L 343.170587 307.8 
L 344.017453 302.657143 
L 344.864319 305.228571 
L 345.711185 305.228571 
L 346.558051 302.657143 
L 347.404917 302.657143 
L 348.251783 305.228571 
L 349.098649 302.657143 
L 349.945515 305.228571 
L 350.792381 302.657143 
L 351.639247 307.8 
L 352.486113 302.657143 
L 353.332979 305.228571 
L 354.179845 305.228571 
L 355.026711 302.657143 
L 355.873577 302.657143 
L 356.720443 305.228571 
L 357.567309 305.228571 
L 358.414175 302.657143 
L 359.261041 305.228571 
L 360.107907 302.657143 
L 360.954773 302.657143 
L 362.648505 307.8 
L 363.495371 302.657143 
L 364.342237 305.228571 
L 365.189103 302.657143 
L 366.035969 305.228571 
L 366.882835 302.657143 
L 367.729701 302.657143 
L 368.576567 307.8 
L 370.270299 302.657143 
L 371.117165 305.228571 
L 372.810897 305.228571 
L 373.657763 302.657143 
L 374.504629 305.228571 
L 375.351495 302.657143 
L 376.198361 302.657143 
L 377.045227 307.8 
L 377.892093 307.8 
L 378.738959 302.657143 
L 379.585825 302.657143 
L 380.432691 307.8 
L 382.126423 302.657143 
L 382.973289 302.657143 
L 383.820155 307.8 
L 384.667021 302.657143 
L 385.513887 307.8 
L 386.360753 302.657143 
L 387.207619 305.228571 
L 388.054485 305.228571 
L 388.901351 302.657143 
L 389.748217 302.657143 
L 390.595083 305.228571 
L 391.441949 305.228571 
L 392.288815 302.657143 
L 393.135681 305.228571 
L 393.982547 302.657143 
L 394.829413 302.657143 
L 395.676279 307.8 
L 397.370011 302.657143 
L 398.216877 305.228571 
L 399.063743 302.657143 
L 399.910609 302.657143 
L 400.757475 305.228571 
L 401.604341 302.657143 
L 402.451207 305.228571 
L 403.298073 305.228571 
L 404.144939 302.657143 
L 404.991805 302.657143 
L 405.838671 307.8 
L 407.532402 302.657143 
L 408.379268 305.228571 
L 409.226134 302.657143 
L 410.073 302.657143 
L 410.919866 307.8 
L 411.766732 302.657143 
L 412.613598 305.228571 
L 413.460464 302.657143 
L 414.30733 305.228571 
L 415.154196 302.657143 
L 416.001062 305.228571 
L 416.847928 302.657143 
L 417.694794 305.228571 
L 418.54166 302.657143 
L 420.235392 302.657143 
L 421.082258 305.228571 
L 421.929124 305.228571 
L 422.77599 302.657143 
L 423.622856 302.657143 
L 424.469722 300.085714 
L 426.163454 305.228571 
L 427.01032 302.657143 
L 427.857186 302.657143 
L 428.704052 305.228571 
L 429.550918 300.085714 
L 430.397784 305.228571 
L 431.24465 302.657143 
L 432.091516 302.657143 
L 432.938382 305.228571 
L 433.785248 305.228571 
L 434.632114 300.085714 
L 435.47898 305.228571 
L 436.325846 300.085714 
L 437.172712 302.657143 
L 438.019578 300.085714 
L 438.866444 302.657143 
L 439.71331 300.085714 
L 447.335104 300.085714 
L 448.18197 297.514286 
L 449.028836 297.514286 
L 450.722568 292.371429 
L 451.569434 294.942857 
L 452.4163 292.371429 
L 453.263166 284.657143 
L 454.110032 284.657143 
L 454.956898 276.942857 
L 455.803764 274.371429 
L 456.65063 256.371429 
L 457.497496 253.8 
L 458.344362 186.942857 
L 459.191228 176.657143 
L 460.038094 99.514286 
L 460.88496 91.8 
L 461.731826 58.371429 
L 462.578692 55.8 
L 463.425558 63.514286 
L 464.272424 66.085714 
L 465.11929 99.514286 
L 465.966156 102.085714 
L 466.813022 150.942857 
L 467.659888 156.085714 
L 468.506754 192.085714 
L 469.35362 192.085714 
L 470.200486 220.371429 
L 471.047352 225.514286 
L 471.894218 246.085714 
L 472.741084 248.657143 
L 473.58795 264.085714 
L 474.434816 266.657143 
L 475.281682 274.371429 
L 476.128548 274.371429 
L 476.975414 282.085714 
L 477.82228 282.085714 
L 478.669146 287.228571 
L 479.516012 287.228571 
L 480.362878 292.371429 
L 482.903475 292.371429 
L 484.597207 297.514286 
L 485.444073 292.371429 
L 486.290939 297.514286 
L 487.137805 297.514286 
L 487.984671 294.942857 
L 488.831537 300.085714 
L 489.678403 300.085714 
L 490.525269 297.514286 
L 491.372135 300.085714 
L 493.065867 300.085714 
L 493.912733 297.514286 
L 494.759599 300.085714 
L 503.228259 300.085714 
L 504.075125 302.657143 
L 504.921991 300.085714 
L 505.768857 302.657143 
L 506.615723 300.085714 
L 507.462589 305.228571 
L 508.309455 300.085714 
L 509.156321 302.657143 
L 510.003187 302.657143 
L 510.850053 300.085714 
L 511.696919 302.657143 
L 512.543785 300.085714 
L 513.390651 300.085714 
L 514.237517 302.657143 
L 515.084383 302.657143 
L 515.931249 300.085714 
L 516.778115 300.085714 
L 517.624981 305.228571 
L 518.471847 300.085714 
L 519.318713 302.657143 
L 520.165579 300.085714 
L 521.012445 305.228571 
L 522.706177 300.085714 
L 523.553043 300.085714 
L 524.399909 302.657143 
L 525.246775 300.085714 
L 526.940507 300.085714 
L 527.787373 302.657143 
L 528.634239 300.085714 
L 532.021703 300.085714 
L 532.868569 297.514286 
L 533.715435 300.085714 
L 534.562301 297.514286 
L 535.409167 297.514286 
L 536.256033 292.371429 
L 537.102899 292.371429 
L 537.949765 282.085714 
L 538.796631 282.085714 
L 539.643497 264.085714 
L 540.490363 258.942857 
L 541.337229 204.942857 
L 542.184095 199.8 
L 543.030961 156.085714 
L 543.877827 156.085714 
L 544.724693 145.8 
L 545.571559 145.8 
L 546.418425 161.228571 
L 547.265291 163.8 
L 548.112157 192.085714 
L 548.959023 194.657143 
L 549.805889 220.371429 
L 550.652755 222.942857 
L 551.499621 248.657143 
L 552.346487 248.657143 
L 553.193353 264.085714 
L 554.040219 264.085714 
L 554.887085 274.371429 
L 555.733951 276.942857 
L 556.580817 282.085714 
L 557.427683 282.085714 
L 558.274548 292.371429 
L 559.121414 289.8 
L 559.96828 292.371429 
L 560.815146 292.371429 
L 561.662012 294.942857 
L 562.508878 294.942857 
L 563.355744 300.085714 
L 564.20261 297.514286 
L 565.049476 300.085714 
L 569.283806 300.085714 
L 570.130672 302.657143 
L 570.977538 300.085714 
L 572.67127 300.085714 
L 573.518136 302.657143 
L 574.365002 300.085714 
L 575.211868 302.657143 
L 576.058734 300.085714 
L 576.9056 305.228571 
L 577.752466 300.085714 
L 578.599332 305.228571 
L 580.293064 300.085714 
L 581.13993 302.657143 
L 581.986796 300.085714 
L 582.833662 300.085714 
L 583.680528 302.657143 
L 584.527394 300.085714 
L 585.37426 302.657143 
L 586.221126 302.657143 
L 587.067992 300.085714 
L 588.761724 305.228571 
L 589.60859 302.657143 
L 590.455456 305.228571 
L 591.302322 305.228571 
L 592.149188 302.657143 
L 592.996054 302.657143 
L 593.84292 305.228571 
L 594.689786 302.657143 
L 595.536652 305.228571 
L 596.383518 300.085714 
L 597.230384 305.228571 
L 598.07725 305.228571 
L 598.924116 307.8 
L 600.617848 302.657143 
L 601.464714 305.228571 
L 602.31158 302.657143 
L 603.158446 302.657143 
L 604.005312 305.228571 
L 604.852178 305.228571 
L 605.699044 302.657143 
L 606.54591 307.8 
L 607.392776 302.657143 
L 608.239642 305.228571 
L 609.086508 305.228571 
L 609.933374 302.657143 
L 610.78024 307.8 
L 611.627106 302.657143 
L 612.473972 305.228571 
L 613.320838 305.228571 
L 614.167704 302.657143 
L 615.01457 305.228571 
L 615.861436 302.657143 
L 616.708302 302.657143 
L 617.555168 307.8 
L 618.402034 307.8 
L 619.2489 302.657143 
L 620.095766 305.228571 
L 620.942632 302.657143 
L 621.789498 307.8 
L 622.636364 302.657143 
L 622.636364 302.657143 
" clip-path="url(#pb8aee33783)" style="fill: none; stroke: #1f77b4; stroke-width: 1.5; stroke-linecap: square"/>
   </g>
   <g id="line2d_16">
    <path d="M 183.362805 184.543308 
L 183.523073 184.543308 
L 183.683341 184.543308 
L 183.843608 184.543308 
L 184.003876 184.543308 
L 184.164144 184.543308 
L 184.324412 184.543308 
L 184.484679 184.543308 
L 184.644947 184.543308 
L 184.805215 184.543308 
L 184.965483 184.543308 
L 185.12575 184.543308 
L 185.286018 184.543308 
L 185.446286 184.543308 
L 185.606554 184.543308 
L 185.766821 184.543308 
L 185.927089 184.543308 
L 186.087357 184.543308 
L 186.247624 184.543308 
L 186.407892 184.543308 
L 186.56816 184.543308 
L 186.728428 184.543308 
L 186.888695 184.543308 
L 187.048963 184.543308 
L 187.209231 184.543308 
L 187.369499 184.543308 
L 187.529766 184.543308 
L 187.690034 184.543308 
L 187.850302 184.543308 
L 188.01057 184.543308 
L 188.170837 184.543308 
L 188.331105 184.543308 
L 188.491373 184.543308 
L 188.65164 184.543308 
L 188.811908 184.543308 
L 188.972176 184.543308 
L 189.132444 184.543308 
L 189.292711 184.543308 
L 189.452979 184.543308 
L 189.613247 184.543308 
L 189.773515 184.543308 
L 189.933782 184.543308 
L 190.09405 184.543308 
L 190.254318 184.543308 
L 190.414586 184.543308 
L 190.574853 184.543308 
L 190.735121 184.543308 
L 190.895389 184.543308 
L 191.055656 184.543308 
L 191.215924 184.543308 
L 191.376192 184.543308 
L 191.53646 184.543308 
L 191.696727 184.543308 
L 191.856995 184.543308 
L 192.017263 184.543308 
L 192.177531 184.543308 
L 192.337798 184.543308 
L 192.498066 184.543308 
L 192.658334 184.543308 
L 192.818601 184.543308 
" clip-path="url(#pb8aee33783)" style="fill: none; stroke: #d62728; stroke-width: 1.5; stroke-linecap: square"/>
   </g>
   <g id="line2d_17">
    <path d="M 266.583623 227.025635 
L 266.771547 227.025635 
L 266.959471 227.025635 
L 267.147395 227.025635 
L 267.335319 227.025635 
L 267.523243 227.025635 
L 267.711166 227.025635 
L 267.89909 227.025635 
L 268.087014 227.025635 
L 268.274938 227.025635 
L 268.462862 227.025635 
L 268.650786 227.025635 
L 268.83871 227.025635 
L 269.026634 227.025635 
L 269.214557 227.025635 
L 269.402481 227.025635 
L 269.590405 227.025635 
L 269.778329 227.025635 
L 269.966253 227.025635 
L 270.154177 227.025635 
L 270.342101 227.025635 
L 270.530024 227.025635 
L 270.717948 227.025635 
L 270.905872 227.025635 
L 271.093796 227.025635 
L 271.28172 227.025635 
L 271.469644 227.025635 
L 271.657568 227.025635 
L 271.845491 227.025635 
L 272.033415 227.025635 
L 272.221339 227.025635 
L 272.409263 227.025635 
L 272.597187 227.025635 
L 272.785111 227.025635 
L 272.973035 227.025635 
L 273.160958 227.025635 
L 273.348882 227.025635 
L 273.536806 227.025635 
L 273.72473 227.025635 
L 273.912654 227.025635 
L 274.100578 227.025635 
L 274.288502 227.025635 
L 274.476425 227.025635 
L 274.664349 227.025635 
L 274.852273 227.025635 
L 275.040197 227.025635 
L 275.228121 227.025635 
L 275.416045 227.025635 
L 275.603969 227.025635 
L 275.791893 227.025635 
L 275.979816 227.025635 
L 276.16774 227.025635 
L 276.355664 227.025635 
L 276.543588 227.025635 
L 276.731512 227.025635 
L 276.919436 227.025635 
L 277.10736 227.025635 
L 277.295283 227.025635 
L 277.483207 227.025635 
L 277.671131 227.025635 
" clip-path="url(#pb8aee33783)" style="fill: none; stroke: #d62728; stroke-width: 1.5; stroke-linecap: square"/>
   </g>
   <g id="line2d_18">
    <path d="M 458.447565 184.674783 
L 458.579135 184.674783 
L 458.710704 184.674783 
L 458.842273 184.674783 
L 458.973842 184.674783 
L 459.105412 184.674783 
L 459.236981 184.674783 
L 459.36855 184.674783 
L 459.500119 184.674783 
L 459.631689 184.674783 
L 459.763258 184.674783 
L 459.894827 184.674783 
L 460.026396 184.674783 
L 460.157966 184.674783 
L 460.289535 184.674783 
L 460.421104 184.674783 
L 460.552673 184.674783 
L 460.684243 184.674783 
L 460.815812 184.674783 
L 460.947381 184.674783 
L 461.07895 184.674783 
L 461.21052 184.674783 
L 461.342089 184.674783 
L 461.473658 184.674783 
L 461.605228 184.674783 
L 461.736797 184.674783 
L 461.868366 184.674783 
L 461.999935 184.674783 
L 462.131505 184.674783 
L 462.263074 184.674783 
L 462.394643 184.674783 
L 462.526212 184.674783 
L 462.657782 184.674783 
L 462.789351 184.674783 
L 462.92092 184.674783 
L 463.052489 184.674783 
L 463.184059 184.674783 
L 463.315628 184.674783 
L 463.447197 184.674783 
L 463.578766 184.674783 
L 463.710336 184.674783 
L 463.841905 184.674783 
L 463.973474 184.674783 
L 464.105043 184.674783 
L 464.236613 184.674783 
L 464.368182 184.674783 
L 464.499751 184.674783 
L 464.63132 184.674783 
L 464.76289 184.674783 
L 464.894459 184.674783 
L 465.026028 184.674783 
L 465.157598 184.674783 
L 465.289167 184.674783 
L 465.420736 184.674783 
L 465.552305 184.674783 
L 465.683875 184.674783 
L 465.815444 184.674783 
L 465.947013 184.674783 
L 466.078582 184.674783 
L 466.210152 184.674783 
L 466.341721 184.674783 
L 466.47329 184.674783 
L 466.604859 184.674783 
L 466.736429 184.674783 
L 466.867998 184.674783 
L 466.999567 184.674783 
L 467.131136 184.674783 
L 467.262706 184.674783 
L 467.394275 184.674783 
L 467.525844 184.674783 
L 467.657413 184.674783 
L 467.788983 184.674783 
L 467.920552 184.674783 
L 468.052121 184.674783 
L 468.18369 184.674783 
L 468.31526 184.674783 
L 468.446829 184.674783 
L 468.578398 184.674783 
L 468.709967 184.674783 
L 468.841537 184.674783 
" clip-path="url(#pb8aee33783)" style="fill: none; stroke: #d62728; stroke-width: 1.5; stroke-linecap: square"/>
   </g>
   <g id="line2d_19">
    <path d="M 540.829774 227.897027 
L 540.998249 227.897027 
L 541.166724 227.897027 
L 541.335199 227.897027 
L 541.503675 227.897027 
L 541.67215 227.897027 
L 541.840625 227.897027 
L 542.0091 227.897027 
L 542.177575 227.897027 
L 542.34605 227.897027 
L 542.514526 227.897027 
L 542.683001 227.897027 
L 542.851476 227.897027 
L 543.019951 227.897027 
L 543.188426 227.897027 
L 543.356901 227.897027 
L 543.525377 227.897027 
L 543.693852 227.897027 
L 543.862327 227.897027 
L 544.030802 227.897027 
L 544.199277 227.897027 
L 544.367752 227.897027 
L 544.536228 227.897027 
L 544.704703 227.897027 
L 544.873178 227.897027 
L 545.041653 227.897027 
L 545.210128 227.897027 
L 545.378603 227.897027 
L 545.547079 227.897027 
L 545.715554 227.897027 
L 545.884029 227.897027 
L 546.052504 227.897027 
L 546.220979 227.897027 
L 546.389454 227.897027 
L 546.55793 227.897027 
L 546.726405 227.897027 
L 546.89488 227.897027 
L 547.063355 227.897027 
L 547.23183 227.897027 
L 547.400305 227.897027 
L 547.568781 227.897027 
L 547.737256 227.897027 
L 547.905731 227.897027 
L 548.074206 227.897027 
L 548.242681 227.897027 
L 548.411156 227.897027 
L 548.579632 227.897027 
L 548.748107 227.897027 
L 548.916582 227.897027 
L 549.085057 227.897027 
L 549.253532 227.897027 
L 549.422007 227.897027 
L 549.590483 227.897027 
L 549.758958 227.897027 
L 549.927433 227.897027 
L 550.095908 227.897027 
L 550.264383 227.897027 
L 550.432858 227.897027 
L 550.601333 227.897027 
L 550.769809 227.897027 
" clip-path="url(#pb8aee33783)" style="fill: none; stroke: #d62728; stroke-width: 1.5; stroke-linecap: square"/>
   </g>
   <g id="patch_3">
    <path d="M 90 320.4 
L 90 43.2 
" style="fill: none; stroke: #000000; stroke-width: 0.8; stroke-linejoin: miter; stroke-linecap: square"/>
   </g>
   <g id="patch_4">
    <path d="M 648 320.4 
L 648 43.2 
" style="fill: none; stroke: #000000; stroke-width: 0.8; stroke-linejoin: miter; stroke-linecap: square"/>
   </g>
   <g id="patch_5">
    <path d="M 90 320.4 
L 648 320.4 
" style="fill: none; stroke: #000000; stroke-width: 0.8; stroke-linejoin: miter; stroke-linecap: square"/>
   </g>
   <g id="patch_6">
    <path d="M 90 43.2 
L 648 43.2 
" style="fill: none; stroke: #000000; stroke-width: 0.8; stroke-linejoin: miter; stroke-linecap: square"/>
   </g>
   <g id="text_16">
    <!-- Longitudinales Modenspektrum des kommerziellen Lasers -->
    <g transform="translate(107.557031 37.2)scale(0.18 -0.18)">
     <defs>
      <path id="DejaVuSans-4c" d="M 628 4666 
L 1259 4666 
L 1259 531 
L 3531 531 
L 3531 0 
L 628 0 
L 628 4666 
z
" transform="scale(0.015625)"/>
      <path id="DejaVuSans-6f" d="M 1959 3097 
Q 1497 3097 1228 2736 
Q 959 2375 959 1747 
Q 959 1119 1226 758 
Q 1494 397 1959 397 
Q 2419 397 2687 759 
Q 2956 1122 2956 1747 
Q 2956 2369 2687 2733 
Q 2419 3097 1959 3097 
z
M 1959 3584 
Q 2709 3584 3137 3096 
Q 3566 2609 3566 1747 
Q 3566 888 3137 398 
Q 2709 -91 1959 -91 
Q 1206 -91 779 398 
Q 353 888 353 1747 
Q 353 2609 779 3096 
Q 1206 3584 1959 3584 
z
" transform="scale(0.015625)"/>
      <path id="DejaVuSans-69" d="M 603 3500 
L 1178 3500 
L 1178 0 
L 603 0 
L 603 3500 
z
M 603 4863 
L 1178 4863 
L 1178 4134 
L 603 4134 
L 603 4863 
z
" transform="scale(0.015625)"/>
      <path id="DejaVuSans-74" d="M 1172 4494 
L 1172 3500 
L 2356 3500 
L 2356 3053 
L 1172 3053 
L 1172 1153 
Q 1172 725 1289 603 
Q 1406 481 1766 481 
L 2356 481 
L 2356 0 
L 1766 0 
Q 1100 0 847 248 
Q 594 497 594 1153 
L 594 3053 
L 172 3053 
L 172 3500 
L 594 3500 
L 594 4494 
L 1172 4494 
z
" transform="scale(0.015625)"/>
      <path id="DejaVuSans-64" d="M 2906 2969 
L 2906 4863 
L 3481 4863 
L 3481 0 
L 2906 0 
L 2906 525 
Q 2725 213 2448 61 
Q 2172 -91 1784 -91 
Q 1150 -91 751 415 
Q 353 922 353 1747 
Q 353 2572 751 3078 
Q 1150 3584 1784 3584 
Q 2172 3584 2448 3432 
Q 2725 3281 2906 2969 
z
M 947 1747 
Q 947 1113 1208 752 
Q 1469 391 1925 391 
Q 2381 391 2643 752 
Q 2906 1113 2906 1747 
Q 2906 2381 2643 2742 
Q 2381 3103 1925 3103 
Q 1469 3103 1208 2742 
Q 947 2381 947 1747 
z
" transform="scale(0.015625)"/>
      <path id="DejaVuSans-65" d="M 3597 1894 
L 3597 1613 
L 953 1613 
Q 991 1019 1311 708 
Q 1631 397 2203 397 
Q 2534 397 2845 478 
Q 3156 559 3463 722 
L 3463 178 
Q 3153 47 2828 -22 
Q 2503 -91 2169 -91 
Q 1331 -91 842 396 
Q 353 884 353 1716 
Q 353 2575 817 3079 
Q 1281 3584 2069 3584 
Q 2775 3584 3186 3129 
Q 3597 2675 3597 1894 
z
M 3022 2063 
Q 3016 2534 2758 2815 
Q 2500 3097 2075 3097 
Q 1594 3097 1305 2825 
Q 1016 2553 972 2059 
L 3022 2063 
z
" transform="scale(0.015625)"/>
      <path id="DejaVuSans-73" d="M 2834 3397 
L 2834 2853 
Q 2591 2978 2328 3040 
Q 2066 3103 1784 3103 
Q 1356 3103 1142 2972 
Q 928 2841 928 2578 
Q 928 2378 1081 2264 
Q 1234 2150 1697 2047 
L 1894 2003 
Q 2506 1872 2764 1633 
Q 3022 1394 3022 966 
Q 3022 478 2636 193 
Q 2250 -91 1575 -91 
Q 1294 -91 989 -36 
Q 684 19 347 128 
L 347 722 
Q 666 556 975 473 
Q 1284 391 1588 391 
Q 1994 391 2212 530 
Q 2431 669 2431 922 
Q 2431 1156 2273 1281 
Q 2116 1406 1581 1522 
L 1381 1569 
Q 847 1681 609 1914 
Q 372 2147 372 2553 
Q 372 3047 722 3315 
Q 1072 3584 1716 3584 
Q 2034 3584 2315 3537 
Q 2597 3491 2834 3397 
z
" transform="scale(0.015625)"/>
      <path id="DejaVuSans-4d" d="M 628 4666 
L 1569 4666 
L 2759 1491 
L 3956 4666 
L 4897 4666 
L 4897 0 
L 4281 0 
L 4281 4097 
L 3078 897 
L 2444 897 
L 1241 4097 
L 1241 0 
L 628 0 
L 628 4666 
z
" transform="scale(0.015625)"/>
      <path id="DejaVuSans-6b" d="M 581 4863 
L 1159 4863 
L 1159 1991 
L 2875 3500 
L 3609 3500 
L 1753 1863 
L 3688 0 
L 2938 0 
L 1159 1709 
L 1159 0 
L 581 0 
L 581 4863 
z
" transform="scale(0.015625)"/>
      <path id="DejaVuSans-72" d="M 2631 2963 
Q 2534 3019 2420 3045 
Q 2306 3072 2169 3072 
Q 1681 3072 1420 2755 
Q 1159 2438 1159 1844 
L 1159 0 
L 581 0 
L 581 3500 
L 1159 3500 
L 1159 2956 
Q 1341 3275 1631 3429 
Q 1922 3584 2338 3584 
Q 2397 3584 2469 3576 
Q 2541 3569 2628 3553 
L 2631 2963 
z
" transform="scale(0.015625)"/>
      <path id="DejaVuSans-7a" d="M 353 3500 
L 3084 3500 
L 3084 2975 
L 922 459 
L 3084 459 
L 3084 0 
L 275 0 
L 275 525 
L 2438 3041 
L 353 3041 
L 353 3500 
z
" transform="scale(0.015625)"/>
     </defs>
     <use xlink:href="#DejaVuSans-4c"/>
     <use xlink:href="#DejaVuSans-6f" x="53.962891"/>
     <use xlink:href="#DejaVuSans-6e" x="115.144531"/>
     <use xlink:href="#DejaVuSans-67" x="178.523438"/>
     <use xlink:href="#DejaVuSans-69" x="242"/>
     <use xlink:href="#DejaVuSans-74" x="269.783203"/>
     <use xlink:href="#DejaVuSans-75" x="308.992188"/>
     <use xlink:href="#DejaVuSans-64" x="372.371094"/>
     <use xlink:href="#DejaVuSans-69" x="435.847656"/>
     <use xlink:href="#DejaVuSans-6e" x="463.630859"/>
     <use xlink:href="#DejaVuSans-61" x="527.009766"/>
     <use xlink:href="#DejaVuSans-6c" x="588.289062"/>
     <use xlink:href="#DejaVuSans-65" x="616.072266"/>
     <use xlink:href="#DejaVuSans-73" x="677.595703"/>
     <use xlink:href="#DejaVuSans-20" x="729.695312"/>
     <use xlink:href="#DejaVuSans-4d" x="761.482422"/>
     <use xlink:href="#DejaVuSans-6f" x="847.761719"/>
     <use xlink:href="#DejaVuSans-64" x="908.943359"/>
     <use xlink:href="#DejaVuSans-65" x="972.419922"/>
     <use xlink:href="#DejaVuSans-6e" x="1033.943359"/>
     <use xlink:href="#DejaVuSans-73" x="1097.322266"/>
     <use xlink:href="#DejaVuSans-70" x="1149.421875"/>
     <use xlink:href="#DejaVuSans-65" x="1212.898438"/>
     <use xlink:href="#DejaVuSans-6b" x="1274.421875"/>
     <use xlink:href="#DejaVuSans-74" x="1332.332031"/>
     <use xlink:href="#DejaVuSans-72" x="1371.541016"/>
     <use xlink:href="#DejaVuSans-75" x="1412.654297"/>
     <use xlink:href="#DejaVuSans-6d" x="1476.033203"/>
     <use xlink:href="#DejaVuSans-20" x="1573.445312"/>
     <use xlink:href="#DejaVuSans-64" x="1605.232422"/>
     <use xlink:href="#DejaVuSans-65" x="1668.708984"/>
     <use xlink:href="#DejaVuSans-73" x="1730.232422"/>
     <use xlink:href="#DejaVuSans-20" x="1782.332031"/>
     <use xlink:href="#DejaVuSans-6b" x="1814.119141"/>
     <use xlink:href="#DejaVuSans-6f" x="1868.404297"/>
     <use xlink:href="#DejaVuSans-6d" x="1929.585938"/>
     <use xlink:href="#DejaVuSans-6d" x="2026.998047"/>
     <use xlink:href="#DejaVuSans-65" x="2124.410156"/>
     <use xlink:href="#DejaVuSans-72" x="2185.933594"/>
     <use xlink:href="#DejaVuSans-7a" x="2227.046875"/>
     <use xlink:href="#DejaVuSans-69" x="2279.537109"/>
     <use xlink:href="#DejaVuSans-65" x="2307.320312"/>
     <use xlink:href="#DejaVuSans-6c" x="2368.84375"/>
     <use xlink:href="#DejaVuSans-6c" x="2396.626953"/>
     <use xlink:href="#DejaVuSans-65" x="2424.410156"/>
     <use xlink:href="#DejaVuSans-6e" x="2485.933594"/>
     <use xlink:href="#DejaVuSans-20" x="2549.3125"/>
     <use xlink:href="#DejaVuSans-4c" x="2581.099609"/>
     <use xlink:href="#DejaVuSans-61" x="2636.8125"/>
     <use xlink:href="#DejaVuSans-73" x="2698.091797"/>
     <use xlink:href="#DejaVuSans-65" x="2750.191406"/>
     <use xlink:href="#DejaVuSans-72" x="2811.714844"/>
     <use xlink:href="#DejaVuSans-73" x="2852.828125"/>
    </g>
   </g>
   <g id="legend_1">
    <g id="patch_7">
     <path d="M 546.012813 100.437812 
L 640.3 100.437812 
Q 642.5 100.437812 642.5 98.237812 
L 642.5 50.9 
Q 642.5 48.7 640.3 48.7 
L 546.012813 48.7 
Q 543.812813 48.7 543.812813 50.9 
L 543.812813 98.237812 
Q 543.812813 100.437812 546.012813 100.437812 
z
" style="fill: #ffffff; opacity: 0.8; stroke: #cccccc; stroke-linejoin: miter"/>
    </g>
    <g id="line2d_20">
     <g>
      <use xlink:href="#mca6d7dccd0" x="559.212813" y="57.608281" style="fill: #d62728; stroke: #d62728"/>
     </g>
    </g>
    <g id="text_17">
     <!-- Peaks -->
     <g transform="translate(579.012812 61.458281)scale(0.11 -0.11)">
      <defs>
       <path id="DejaVuSans-50" d="M 1259 4147 
L 1259 2394 
L 2053 2394 
Q 2494 2394 2734 2622 
Q 2975 2850 2975 3272 
Q 2975 3691 2734 3919 
Q 2494 4147 2053 4147 
L 1259 4147 
z
M 628 4666 
L 2053 4666 
Q 2838 4666 3239 4311 
Q 3641 3956 3641 3272 
Q 3641 2581 3239 2228 
Q 2838 1875 2053 1875 
L 1259 1875 
L 1259 0 
L 628 0 
L 628 4666 
z
" transform="scale(0.015625)"/>
      </defs>
      <use xlink:href="#DejaVuSans-50"/>
      <use xlink:href="#DejaVuSans-65" x="56.677734"/>
      <use xlink:href="#DejaVuSans-61" x="118.201172"/>
      <use xlink:href="#DejaVuSans-6b" x="179.480469"/>
      <use xlink:href="#DejaVuSans-73" x="237.390625"/>
     </g>
    </g>
    <g id="line2d_21">
     <path d="M 548.212813 73.754219 
L 559.212813 73.754219 
L 570.212813 73.754219 
" style="fill: none; stroke: #1f77b4; stroke-width: 1.5; stroke-linecap: square"/>
    </g>
    <g id="text_18">
     <!-- Messwerte -->
     <g transform="translate(579.012812 77.604219)scale(0.11 -0.11)">
      <defs>
       <path id="DejaVuSans-77" d="M 269 3500 
L 844 3500 
L 1563 769 
L 2278 3500 
L 2956 3500 
L 3675 769 
L 4391 3500 
L 4966 3500 
L 4050 0 
L 3372 0 
L 2619 2869 
L 1863 0 
L 1184 0 
L 269 3500 
z
" transform="scale(0.015625)"/>
      </defs>
      <use xlink:href="#DejaVuSans-4d"/>
      <use xlink:href="#DejaVuSans-65" x="86.279297"/>
      <use xlink:href="#DejaVuSans-73" x="147.802734"/>
      <use xlink:href="#DejaVuSans-73" x="199.902344"/>
      <use xlink:href="#DejaVuSans-77" x="252.001953"/>
      <use xlink:href="#DejaVuSans-65" x="333.789062"/>
      <use xlink:href="#DejaVuSans-72" x="395.3125"/>
      <use xlink:href="#DejaVuSans-74" x="436.425781"/>
      <use xlink:href="#DejaVuSans-65" x="475.634766"/>
     </g>
    </g>
    <g id="line2d_22">
     <path d="M 548.212813 89.900156 
L 559.212813 89.900156 
L 570.212813 89.900156 
" style="fill: none; stroke: #d62728; stroke-width: 1.5; stroke-linecap: square"/>
    </g>
    <g id="text_19">
     <!-- FWHM -->
     <g transform="translate(579.012812 93.750156)scale(0.11 -0.11)">
      <defs>
       <path id="DejaVuSans-46" d="M 628 4666 
L 3309 4666 
L 3309 4134 
L 1259 4134 
L 1259 2759 
L 3109 2759 
L 3109 2228 
L 1259 2228 
L 1259 0 
L 628 0 
L 628 4666 
z
" transform="scale(0.015625)"/>
       <path id="DejaVuSans-57" d="M 213 4666 
L 850 4666 
L 1831 722 
L 2809 4666 
L 3519 4666 
L 4500 722 
L 5478 4666 
L 6119 4666 
L 4947 0 
L 4153 0 
L 3169 4050 
L 2175 0 
L 1381 0 
L 213 4666 
z
" transform="scale(0.015625)"/>
       <path id="DejaVuSans-48" d="M 628 4666 
L 1259 4666 
L 1259 2753 
L 3553 2753 
L 3553 4666 
L 4184 4666 
L 4184 0 
L 3553 0 
L 3553 2222 
L 1259 2222 
L 1259 0 
L 628 0 
L 628 4666 
z
" transform="scale(0.015625)"/>
      </defs>
      <use xlink:href="#DejaVuSans-46"/>
      <use xlink:href="#DejaVuSans-57" x="57.519531"/>
      <use xlink:href="#DejaVuSans-48" x="156.396484"/>
      <use xlink:href="#DejaVuSans-4d" x="231.591797"/>
     </g>
    </g>
   </g>
  </g>
 </g>
 <defs>
  <clipPath id="pb8aee33783">
   <rect x="90" y="43.2" width="558" height="277.2"/>
  </clipPath>
 </defs>
</svg>
