<?xml version="1.0" encoding="utf-8" standalone="no"?>
<!DOCTYPE svg PUBLIC "-//W3C//DTD SVG 1.1//EN"
  "http://www.w3.org/Graphics/SVG/1.1/DTD/svg11.dtd">
<svg xmlns:xlink="http://www.w3.org/1999/xlink" width="360pt" height="360pt" viewBox="0 0 360 360" xmlns="http://www.w3.org/2000/svg" version="1.1">
 <metadata>
  <rdf:RDF xmlns:dc="http://purl.org/dc/elements/1.1/" xmlns:cc="http://creativecommons.org/ns#" xmlns:rdf="http://www.w3.org/1999/02/22-rdf-syntax-ns#">
   <cc:Work>
    <dc:type rdf:resource="http://purl.org/dc/dcmitype/StillImage"/>
    <dc:date>2022-01-29T12:55:34.378780</dc:date>
    <dc:format>image/svg+xml</dc:format>
    <dc:creator>
     <cc:Agent>
      <dc:title>Matplotlib v3.5.0, https://matplotlib.org/</dc:title>
     </cc:Agent>
    </dc:creator>
   </cc:Work>
  </rdf:RDF>
 </metadata>
 <defs>
  <style type="text/css">*{stroke-linejoin: round; stroke-linecap: butt}</style>
 </defs>
 <g id="figure_1">
  <g id="patch_1">
   <path d="M 0 360 
L 360 360 
L 360 0 
L 0 0 
z
" style="fill: #ffffff"/>
  </g>
  <g id="axes_1">
   <g id="patch_2">
    <path d="M 10.8 349.2 
L 349.2 349.2 
L 349.2 10.8 
L 10.8 10.8 
z
" style="fill: #e5e5e5"/>
   </g>
   <g id="matplotlib.axis_1">
    <g id="xtick_1">
     <g id="line2d_1">
      <path d="M 29.6 349.2 
L 29.6 10.8 
" clip-path="url(#p31ea94cc3d)" style="fill: none; stroke: #ffffff; stroke-width: 0.8; stroke-linecap: square"/>
     </g>
     <g id="line2d_2">
      <defs>
       <path id="m91b8897cb6" d="M 0 0 
L 0 3.5 
" style="stroke: #555555; stroke-width: 0.8"/>
      </defs>
      <g>
       <use xlink:href="#m91b8897cb6" x="29.6" y="180" style="fill: #555555; stroke: #555555; stroke-width: 0.8"/>
      </g>
     </g>
     <g id="text_1">
      <!-- −4 -->
      <g style="fill: #555555" transform="translate(22.228906 178.598437)scale(0.1 -0.1)">
       <defs>
        <path id="DejaVuSerif-2212" d="M 678 2259 
L 4684 2259 
L 4684 1753 
L 678 1753 
L 678 2259 
z
" transform="scale(0.015625)"/>
        <path id="DejaVuSerif-34" d="M 2234 1581 
L 2234 4063 
L 641 1581 
L 2234 1581 
z
M 3609 0 
L 1484 0 
L 1484 331 
L 2234 331 
L 2234 1247 
L 197 1247 
L 197 1588 
L 2241 4750 
L 2859 4750 
L 2859 1581 
L 3750 1581 
L 3750 1247 
L 2859 1247 
L 2859 331 
L 3609 331 
L 3609 0 
z
" transform="scale(0.015625)"/>
       </defs>
       <use xlink:href="#DejaVuSerif-2212"/>
       <use xlink:href="#DejaVuSerif-34" x="83.789062"/>
      </g>
     </g>
    </g>
    <g id="xtick_2">
     <g id="line2d_3">
      <path d="M 67.2 349.2 
L 67.2 10.8 
" clip-path="url(#p31ea94cc3d)" style="fill: none; stroke: #ffffff; stroke-width: 0.8; stroke-linecap: square"/>
     </g>
     <g id="line2d_4">
      <g>
       <use xlink:href="#m91b8897cb6" x="67.2" y="180" style="fill: #555555; stroke: #555555; stroke-width: 0.8"/>
      </g>
     </g>
     <g id="text_2">
      <!-- −3 -->
      <g style="fill: #555555" transform="translate(59.828906 178.598437)scale(0.1 -0.1)">
       <defs>
        <path id="DejaVuSerif-33" d="M 622 4469 
Q 988 4606 1323 4678 
Q 1659 4750 1953 4750 
Q 2638 4750 3022 4454 
Q 3406 4159 3406 3634 
Q 3406 3213 3140 2930 
Q 2875 2647 2388 2547 
Q 2963 2466 3280 2130 
Q 3597 1794 3597 1259 
Q 3597 606 3158 257 
Q 2719 -91 1894 -91 
Q 1528 -91 1179 -12 
Q 831 66 488 225 
L 488 1131 
L 838 1131 
Q 869 681 1141 450 
Q 1413 219 1906 219 
Q 2384 219 2661 495 
Q 2938 772 2938 1253 
Q 2938 1803 2653 2086 
Q 2369 2369 1819 2369 
L 1522 2369 
L 1522 2688 
L 1678 2688 
Q 2225 2688 2498 2914 
Q 2772 3141 2772 3597 
Q 2772 4006 2547 4223 
Q 2322 4441 1900 4441 
Q 1478 4441 1245 4241 
Q 1013 4041 972 3647 
L 622 3647 
L 622 4469 
z
" transform="scale(0.015625)"/>
       </defs>
       <use xlink:href="#DejaVuSerif-2212"/>
       <use xlink:href="#DejaVuSerif-33" x="83.789062"/>
      </g>
     </g>
    </g>
    <g id="xtick_3">
     <g id="line2d_5">
      <path d="M 104.8 349.2 
L 104.8 10.8 
" clip-path="url(#p31ea94cc3d)" style="fill: none; stroke: #ffffff; stroke-width: 0.8; stroke-linecap: square"/>
     </g>
     <g id="line2d_6">
      <g>
       <use xlink:href="#m91b8897cb6" x="104.8" y="180" style="fill: #555555; stroke: #555555; stroke-width: 0.8"/>
      </g>
     </g>
     <g id="text_3">
      <!-- −2 -->
      <g style="fill: #555555" transform="translate(97.428906 178.598437)scale(0.1 -0.1)">
       <defs>
        <path id="DejaVuSerif-32" d="M 819 3553 
L 469 3553 
L 469 4384 
Q 803 4563 1142 4656 
Q 1481 4750 1806 4750 
Q 2534 4750 2956 4397 
Q 3378 4044 3378 3438 
Q 3378 2753 2422 1800 
Q 2347 1728 2309 1691 
L 1131 513 
L 3078 513 
L 3078 1088 
L 3444 1088 
L 3444 0 
L 434 0 
L 434 341 
L 1850 1753 
Q 2319 2222 2519 2614 
Q 2719 3006 2719 3438 
Q 2719 3909 2473 4175 
Q 2228 4441 1797 4441 
Q 1350 4441 1106 4219 
Q 863 3997 819 3553 
z
" transform="scale(0.015625)"/>
       </defs>
       <use xlink:href="#DejaVuSerif-2212"/>
       <use xlink:href="#DejaVuSerif-32" x="83.789062"/>
      </g>
     </g>
    </g>
    <g id="xtick_4">
     <g id="line2d_7">
      <path d="M 142.4 349.2 
L 142.4 10.8 
" clip-path="url(#p31ea94cc3d)" style="fill: none; stroke: #ffffff; stroke-width: 0.8; stroke-linecap: square"/>
     </g>
     <g id="line2d_8">
      <g>
       <use xlink:href="#m91b8897cb6" x="142.4" y="180" style="fill: #555555; stroke: #555555; stroke-width: 0.8"/>
      </g>
     </g>
     <g id="text_4">
      <!-- −1 -->
      <g style="fill: #555555" transform="translate(135.028906 178.598437)scale(0.1 -0.1)">
       <defs>
        <path id="DejaVuSerif-31" d="M 909 0 
L 909 331 
L 1722 331 
L 1722 4213 
L 781 3603 
L 781 4013 
L 1919 4750 
L 2350 4750 
L 2350 331 
L 3163 331 
L 3163 0 
L 909 0 
z
" transform="scale(0.015625)"/>
       </defs>
       <use xlink:href="#DejaVuSerif-2212"/>
       <use xlink:href="#DejaVuSerif-31" x="83.789062"/>
      </g>
     </g>
    </g>
    <g id="xtick_5">
     <g id="line2d_9">
      <path d="M 180 349.2 
L 180 10.8 
" clip-path="url(#p31ea94cc3d)" style="fill: none; stroke: #ffffff; stroke-width: 0.8; stroke-linecap: square"/>
     </g>
     <g id="line2d_10">
      <g>
       <use xlink:href="#m91b8897cb6" x="180" y="180" style="fill: #555555; stroke: #555555; stroke-width: 0.8"/>
      </g>
     </g>
     <g id="text_5">
      <!-- 0 -->
      <g style="fill: #555555" transform="translate(181.81875 190.098437)scale(0.1 -0.1)">
       <defs>
        <path id="DejaVuSerif-30" d="M 2034 219 
Q 2513 219 2750 744 
Q 2988 1269 2988 2328 
Q 2988 3391 2750 3916 
Q 2513 4441 2034 4441 
Q 1556 4441 1318 3916 
Q 1081 3391 1081 2328 
Q 1081 1269 1318 744 
Q 1556 219 2034 219 
z
M 2034 -91 
Q 1275 -91 848 546 
Q 422 1184 422 2328 
Q 422 3475 848 4112 
Q 1275 4750 2034 4750 
Q 2797 4750 3222 4112 
Q 3647 3475 3647 2328 
Q 3647 1184 3222 546 
Q 2797 -91 2034 -91 
z
" transform="scale(0.015625)"/>
       </defs>
       <use xlink:href="#DejaVuSerif-30"/>
      </g>
     </g>
    </g>
    <g id="xtick_6">
     <g id="line2d_11">
      <path d="M 217.6 349.2 
L 217.6 10.8 
" clip-path="url(#p31ea94cc3d)" style="fill: none; stroke: #ffffff; stroke-width: 0.8; stroke-linecap: square"/>
     </g>
     <g id="line2d_12">
      <g>
       <use xlink:href="#m91b8897cb6" x="217.6" y="180" style="fill: #555555; stroke: #555555; stroke-width: 0.8"/>
      </g>
     </g>
     <g id="text_6">
      <!-- 1 -->
      <g style="fill: #555555" transform="translate(214.41875 194.598437)scale(0.1 -0.1)">
       <use xlink:href="#DejaVuSerif-31"/>
      </g>
     </g>
    </g>
    <g id="xtick_7">
     <g id="line2d_13">
      <path d="M 255.2 349.2 
L 255.2 10.8 
" clip-path="url(#p31ea94cc3d)" style="fill: none; stroke: #ffffff; stroke-width: 0.8; stroke-linecap: square"/>
     </g>
     <g id="line2d_14">
      <g>
       <use xlink:href="#m91b8897cb6" x="255.2" y="180" style="fill: #555555; stroke: #555555; stroke-width: 0.8"/>
      </g>
     </g>
     <g id="text_7">
      <!-- 2 -->
      <g style="fill: #555555" transform="translate(252.01875 194.598437)scale(0.1 -0.1)">
       <use xlink:href="#DejaVuSerif-32"/>
      </g>
     </g>
    </g>
    <g id="xtick_8">
     <g id="line2d_15">
      <path d="M 292.8 349.2 
L 292.8 10.8 
" clip-path="url(#p31ea94cc3d)" style="fill: none; stroke: #ffffff; stroke-width: 0.8; stroke-linecap: square"/>
     </g>
     <g id="line2d_16">
      <g>
       <use xlink:href="#m91b8897cb6" x="292.8" y="180" style="fill: #555555; stroke: #555555; stroke-width: 0.8"/>
      </g>
     </g>
     <g id="text_8">
      <!-- 3 -->
      <g style="fill: #555555" transform="translate(289.61875 194.598437)scale(0.1 -0.1)">
       <use xlink:href="#DejaVuSerif-33"/>
      </g>
     </g>
    </g>
    <g id="xtick_9">
     <g id="line2d_17">
      <path d="M 330.4 349.2 
L 330.4 10.8 
" clip-path="url(#p31ea94cc3d)" style="fill: none; stroke: #ffffff; stroke-width: 0.8; stroke-linecap: square"/>
     </g>
     <g id="line2d_18">
      <g>
       <use xlink:href="#m91b8897cb6" x="330.4" y="180" style="fill: #555555; stroke: #555555; stroke-width: 0.8"/>
      </g>
     </g>
     <g id="text_9">
      <!-- 4 -->
      <g style="fill: #555555" transform="translate(327.21875 194.598437)scale(0.1 -0.1)">
       <use xlink:href="#DejaVuSerif-34"/>
      </g>
     </g>
    </g>
    <g id="text_10">
     <!-- $g_1$ -->
     <g style="fill: #555555" transform="translate(335.88 205.771875)scale(0.12 -0.12)">
      <defs>
       <path id="DejaVuSans-Oblique-67" d="M 3816 3500 
L 3219 434 
Q 3047 -456 2561 -893 
Q 2075 -1331 1253 -1331 
Q 950 -1331 690 -1286 
Q 431 -1241 206 -1147 
L 313 -588 
Q 525 -725 762 -790 
Q 1000 -856 1269 -856 
Q 1816 -856 2167 -557 
Q 2519 -259 2631 300 
L 2681 563 
Q 2441 288 2122 144 
Q 1803 0 1434 0 
Q 903 0 598 351 
Q 294 703 294 1319 
Q 294 1803 478 2267 
Q 663 2731 997 3091 
Q 1219 3328 1514 3456 
Q 1809 3584 2131 3584 
Q 2484 3584 2746 3420 
Q 3009 3256 3138 2956 
L 3238 3500 
L 3816 3500 
z
M 2950 2216 
Q 2950 2641 2750 2872 
Q 2550 3103 2181 3103 
Q 1953 3103 1747 3012 
Q 1541 2922 1394 2759 
Q 1156 2491 1023 2127 
Q 891 1763 891 1375 
Q 891 944 1092 712 
Q 1294 481 1672 481 
Q 2219 481 2584 976 
Q 2950 1472 2950 2216 
z
" transform="scale(0.015625)"/>
       <path id="DejaVuSans-31" d="M 794 531 
L 1825 531 
L 1825 4091 
L 703 3866 
L 703 4441 
L 1819 4666 
L 2450 4666 
L 2450 531 
L 3481 531 
L 3481 0 
L 794 0 
L 794 531 
z
" transform="scale(0.015625)"/>
      </defs>
      <use xlink:href="#DejaVuSans-Oblique-67"/>
      <use xlink:href="#DejaVuSans-31" transform="translate(63.476562 -16.40625)scale(0.7)"/>
     </g>
    </g>
   </g>
   <g id="matplotlib.axis_2">
    <g id="ytick_1">
     <g id="line2d_19">
      <path d="M 10.8 330.4 
L 349.2 330.4 
" clip-path="url(#p31ea94cc3d)" style="fill: none; stroke: #ffffff; stroke-width: 0.8; stroke-linecap: square"/>
     </g>
     <g id="line2d_20">
      <defs>
       <path id="m477d80c484" d="M 0 0 
L -3.5 0 
" style="stroke: #555555; stroke-width: 0.8"/>
      </defs>
      <g>
       <use xlink:href="#m477d80c484" x="180" y="330.4" style="fill: #555555; stroke: #555555; stroke-width: 0.8"/>
      </g>
     </g>
     <g id="text_11">
      <!-- −4 -->
      <g style="fill: #555555" transform="translate(180.257812 333.699219)scale(0.1 -0.1)">
       <use xlink:href="#DejaVuSerif-2212"/>
       <use xlink:href="#DejaVuSerif-34" x="83.789062"/>
      </g>
     </g>
    </g>
    <g id="ytick_2">
     <g id="line2d_21">
      <path d="M 10.8 292.8 
L 349.2 292.8 
" clip-path="url(#p31ea94cc3d)" style="fill: none; stroke: #ffffff; stroke-width: 0.8; stroke-linecap: square"/>
     </g>
     <g id="line2d_22">
      <g>
       <use xlink:href="#m477d80c484" x="180" y="292.8" style="fill: #555555; stroke: #555555; stroke-width: 0.8"/>
      </g>
     </g>
     <g id="text_12">
      <!-- −3 -->
      <g style="fill: #555555" transform="translate(180.257812 296.099219)scale(0.1 -0.1)">
       <use xlink:href="#DejaVuSerif-2212"/>
       <use xlink:href="#DejaVuSerif-33" x="83.789062"/>
      </g>
     </g>
    </g>
    <g id="ytick_3">
     <g id="line2d_23">
      <path d="M 10.8 255.2 
L 349.2 255.2 
" clip-path="url(#p31ea94cc3d)" style="fill: none; stroke: #ffffff; stroke-width: 0.8; stroke-linecap: square"/>
     </g>
     <g id="line2d_24">
      <g>
       <use xlink:href="#m477d80c484" x="180" y="255.2" style="fill: #555555; stroke: #555555; stroke-width: 0.8"/>
      </g>
     </g>
     <g id="text_13">
      <!-- −2 -->
      <g style="fill: #555555" transform="translate(180.257812 258.499219)scale(0.1 -0.1)">
       <use xlink:href="#DejaVuSerif-2212"/>
       <use xlink:href="#DejaVuSerif-32" x="83.789062"/>
      </g>
     </g>
    </g>
    <g id="ytick_4">
     <g id="line2d_25">
      <path d="M 10.8 217.6 
L 349.2 217.6 
" clip-path="url(#p31ea94cc3d)" style="fill: none; stroke: #ffffff; stroke-width: 0.8; stroke-linecap: square"/>
     </g>
     <g id="line2d_26">
      <g>
       <use xlink:href="#m477d80c484" x="180" y="217.6" style="fill: #555555; stroke: #555555; stroke-width: 0.8"/>
      </g>
     </g>
     <g id="text_14">
      <!-- −1 -->
      <g style="fill: #555555" transform="translate(180.257812 220.899219)scale(0.1 -0.1)">
       <use xlink:href="#DejaVuSerif-2212"/>
       <use xlink:href="#DejaVuSerif-31" x="83.789062"/>
      </g>
     </g>
    </g>
    <g id="ytick_5">
     <g id="line2d_27">
      <path d="M 10.8 180 
L 349.2 180 
" clip-path="url(#p31ea94cc3d)" style="fill: none; stroke: #ffffff; stroke-width: 0.8; stroke-linecap: square"/>
     </g>
     <g id="line2d_28">
      <g>
       <use xlink:href="#m477d80c484" x="180" y="180" style="fill: #555555; stroke: #555555; stroke-width: 0.8"/>
      </g>
     </g>
     <g id="text_15">
      <!-- 0 -->
      <g style="fill: #555555" transform="translate(171.6375 176.299219)scale(0.1 -0.1)">
       <use xlink:href="#DejaVuSerif-30"/>
      </g>
     </g>
    </g>
    <g id="ytick_6">
     <g id="line2d_29">
      <path d="M 10.8 142.4 
L 349.2 142.4 
" clip-path="url(#p31ea94cc3d)" style="fill: none; stroke: #ffffff; stroke-width: 0.8; stroke-linecap: square"/>
     </g>
     <g id="line2d_30">
      <g>
       <use xlink:href="#m477d80c484" x="180" y="142.4" style="fill: #555555; stroke: #555555; stroke-width: 0.8"/>
      </g>
     </g>
     <g id="text_16">
      <!-- 1 -->
      <g style="fill: #555555" transform="translate(166.6375 146.199219)scale(0.1 -0.1)">
       <use xlink:href="#DejaVuSerif-31"/>
      </g>
     </g>
    </g>
    <g id="ytick_7">
     <g id="line2d_31">
      <path d="M 10.8 104.8 
L 349.2 104.8 
" clip-path="url(#p31ea94cc3d)" style="fill: none; stroke: #ffffff; stroke-width: 0.8; stroke-linecap: square"/>
     </g>
     <g id="line2d_32">
      <g>
       <use xlink:href="#m477d80c484" x="180" y="104.8" style="fill: #555555; stroke: #555555; stroke-width: 0.8"/>
      </g>
     </g>
     <g id="text_17">
      <!-- 2 -->
      <g style="fill: #555555" transform="translate(166.6375 108.599219)scale(0.1 -0.1)">
       <use xlink:href="#DejaVuSerif-32"/>
      </g>
     </g>
    </g>
    <g id="ytick_8">
     <g id="line2d_33">
      <path d="M 10.8 67.2 
L 349.2 67.2 
" clip-path="url(#p31ea94cc3d)" style="fill: none; stroke: #ffffff; stroke-width: 0.8; stroke-linecap: square"/>
     </g>
     <g id="line2d_34">
      <g>
       <use xlink:href="#m477d80c484" x="180" y="67.2" style="fill: #555555; stroke: #555555; stroke-width: 0.8"/>
      </g>
     </g>
     <g id="text_18">
      <!-- 3 -->
      <g style="fill: #555555" transform="translate(166.6375 70.999219)scale(0.1 -0.1)">
       <use xlink:href="#DejaVuSerif-33"/>
      </g>
     </g>
    </g>
    <g id="ytick_9">
     <g id="line2d_35">
      <path d="M 10.8 29.6 
L 349.2 29.6 
" clip-path="url(#p31ea94cc3d)" style="fill: none; stroke: #ffffff; stroke-width: 0.8; stroke-linecap: square"/>
     </g>
     <g id="line2d_36">
      <g>
       <use xlink:href="#m477d80c484" x="180" y="29.6" style="fill: #555555; stroke: #555555; stroke-width: 0.8"/>
      </g>
     </g>
     <g id="text_19">
      <!-- 4 -->
      <g style="fill: #555555" transform="translate(166.6375 33.399219)scale(0.1 -0.1)">
       <use xlink:href="#DejaVuSerif-34"/>
      </g>
     </g>
    </g>
    <g id="text_20">
     <!-- $g_2$ -->
     <g style="fill: #555555" transform="translate(164.1175 24.12)rotate(-90)scale(0.12 -0.12)">
      <defs>
       <path id="DejaVuSans-32" d="M 1228 531 
L 3431 531 
L 3431 0 
L 469 0 
L 469 531 
Q 828 903 1448 1529 
Q 2069 2156 2228 2338 
Q 2531 2678 2651 2914 
Q 2772 3150 2772 3378 
Q 2772 3750 2511 3984 
Q 2250 4219 1831 4219 
Q 1534 4219 1204 4116 
Q 875 4013 500 3803 
L 500 4441 
Q 881 4594 1212 4672 
Q 1544 4750 1819 4750 
Q 2544 4750 2975 4387 
Q 3406 4025 3406 3419 
Q 3406 3131 3298 2873 
Q 3191 2616 2906 2266 
Q 2828 2175 2409 1742 
Q 1991 1309 1228 531 
z
" transform="scale(0.015625)"/>
      </defs>
      <use xlink:href="#DejaVuSans-Oblique-67"/>
      <use xlink:href="#DejaVuSans-32" transform="translate(63.476562 -16.40625)scale(0.7)"/>
     </g>
    </g>
   </g>
   <g id="PolyCollection_1">
    <path d="M 180.850251 -1482.755556 
L 180.850251 180 
L 181.700503 180 
L 182.550754 180 
L 183.401005 180 
L 184.251256 180 
L 185.101508 180 
L 185.951759 180 
L 186.80201 180 
L 187.652261 180 
L 188.502513 180 
L 189.352764 180 
L 190.203015 180 
L 191.053266 180 
L 191.903518 180 
L 192.753769 180 
L 193.60402 180 
L 194.454271 180 
L 195.304523 180 
L 196.154774 180 
L 197.005025 180 
L 197.855276 180 
L 198.705528 180 
L 199.555779 180 
L 200.40603 180 
L 201.256281 180 
L 202.106533 180 
L 202.956784 180 
L 203.807035 180 
L 204.657286 180 
L 205.507538 180 
L 206.357789 180 
L 207.20804 180 
L 208.058291 180 
L 208.908543 180 
L 209.758794 180 
L 210.609045 180 
L 211.459296 180 
L 212.309548 180 
L 213.159799 180 
L 214.01005 180 
L 214.860302 180 
L 215.710553 180 
L 216.560804 180 
L 217.411055 180 
L 218.261307 180 
L 219.111558 180 
L 219.961809 180 
L 220.81206 180 
L 221.662312 180 
L 222.512563 180 
L 223.362814 180 
L 224.213065 180 
L 225.063317 180 
L 225.913568 180 
L 226.763819 180 
L 227.61407 180 
L 228.464322 180 
L 229.314573 180 
L 230.164824 180 
L 231.015075 180 
L 231.865327 180 
L 232.715578 180 
L 233.565829 180 
L 234.41608 180 
L 235.266332 180 
L 236.116583 180 
L 236.966834 180 
L 237.817085 180 
L 238.667337 180 
L 239.517588 180 
L 240.367839 180 
L 241.21809 180 
L 242.068342 180 
L 242.918593 180 
L 243.768844 180 
L 244.619095 180 
L 245.469347 180 
L 246.319598 180 
L 247.169849 180 
L 248.020101 180 
L 248.870352 180 
L 249.720603 180 
L 250.570854 180 
L 251.421106 180 
L 252.271357 180 
L 253.121608 180 
L 253.971859 180 
L 254.822111 180 
L 255.672362 180 
L 256.522613 180 
L 257.372864 180 
L 258.223116 180 
L 259.073367 180 
L 259.923618 180 
L 260.773869 180 
L 261.624121 180 
L 262.474372 180 
L 263.324623 180 
L 264.174874 180 
L 265.025126 180 
L 265.875377 180 
L 266.725628 180 
L 267.575879 180 
L 268.426131 180 
L 269.276382 180 
L 270.126633 180 
L 270.976884 180 
L 271.827136 180 
L 272.677387 180 
L 273.527638 180 
L 274.377889 180 
L 275.228141 180 
L 276.078392 180 
L 276.928643 180 
L 277.778894 180 
L 278.629146 180 
L 279.479397 180 
L 280.329648 180 
L 281.179899 180 
L 282.030151 180 
L 282.880402 180 
L 283.730653 180 
L 284.580905 180 
L 285.431156 180 
L 286.281407 180 
L 287.131658 180 
L 287.98191 180 
L 288.832161 180 
L 289.682412 180 
L 290.532663 180 
L 291.382915 180 
L 292.233166 180 
L 293.083417 180 
L 293.933668 180 
L 294.78392 180 
L 295.634171 180 
L 296.484422 180 
L 297.334673 180 
L 298.184925 180 
L 299.035176 180 
L 299.885427 180 
L 300.735678 180 
L 301.58593 180 
L 302.436181 180 
L 303.286432 180 
L 304.136683 180 
L 304.986935 180 
L 305.837186 180 
L 306.687437 180 
L 307.537688 180 
L 308.38794 180 
L 309.238191 180 
L 310.088442 180 
L 310.938693 180 
L 311.788945 180 
L 312.639196 180 
L 313.489447 180 
L 314.339698 180 
L 315.18995 180 
L 316.040201 180 
L 316.890452 180 
L 317.740704 180 
L 318.590955 180 
L 319.441206 180 
L 320.291457 180 
L 321.141709 180 
L 321.99196 180 
L 322.842211 180 
L 323.692462 180 
L 324.542714 180 
L 325.392965 180 
L 326.243216 180 
L 327.093467 180 
L 327.943719 180 
L 328.79397 180 
L 329.644221 180 
L 330.494472 180 
L 331.344724 180 
L 332.194975 180 
L 333.045226 180 
L 333.895477 180 
L 334.745729 180 
L 335.59598 180 
L 336.446231 180 
L 337.296482 180 
L 338.146734 180 
L 338.996985 180 
L 339.847236 180 
L 340.697487 180 
L 341.547739 180 
L 342.39799 180 
L 343.248241 180 
L 344.098492 180 
L 344.948744 180 
L 345.798995 180 
L 346.649246 180 
L 347.499497 180 
L 348.349749 180 
L 349.2 180 
L 349.2 171.644444 
L 349.2 171.644444 
L 348.349749 171.602245 
L 347.499497 171.559616 
L 346.649246 171.516553 
L 345.798995 171.473048 
L 344.948744 171.429095 
L 344.098492 171.384686 
L 343.248241 171.339815 
L 342.39799 171.294474 
L 341.547739 171.248655 
L 340.697487 171.202352 
L 339.847236 171.155556 
L 338.996985 171.108259 
L 338.146734 171.060454 
L 337.296482 171.012132 
L 336.446231 170.963285 
L 335.59598 170.913904 
L 334.745729 170.86398 
L 333.895477 170.813505 
L 333.045226 170.762469 
L 332.194975 170.710863 
L 331.344724 170.658677 
L 330.494472 170.605901 
L 329.644221 170.552525 
L 328.79397 170.49854 
L 327.943719 170.443934 
L 327.093467 170.388696 
L 326.243216 170.332817 
L 325.392965 170.276283 
L 324.542714 170.219085 
L 323.692462 170.16121 
L 322.842211 170.102646 
L 321.99196 170.04338 
L 321.141709 169.9834 
L 320.291457 169.922694 
L 319.441206 169.861247 
L 318.590955 169.799046 
L 317.740704 169.736077 
L 316.890452 169.672326 
L 316.040201 169.607778 
L 315.18995 169.542418 
L 314.339698 169.476231 
L 313.489447 169.4092 
L 312.639196 169.341311 
L 311.788945 169.272545 
L 310.938693 169.202886 
L 310.088442 169.132317 
L 309.238191 169.060819 
L 308.38794 168.988374 
L 307.537688 168.914963 
L 306.687437 168.840567 
L 305.837186 168.765165 
L 304.986935 168.688738 
L 304.136683 168.611263 
L 303.286432 168.53272 
L 302.436181 168.453086 
L 301.58593 168.372339 
L 300.735678 168.290454 
L 299.885427 168.207407 
L 299.035176 168.123175 
L 298.184925 168.03773 
L 297.334673 167.951047 
L 296.484422 167.863098 
L 295.634171 167.773856 
L 294.78392 167.683292 
L 293.933668 167.591376 
L 293.083417 167.498079 
L 292.233166 167.403367 
L 291.382915 167.307209 
L 290.532663 167.209573 
L 289.682412 167.110422 
L 288.832161 167.009722 
L 287.98191 166.907437 
L 287.131658 166.803527 
L 286.281407 166.697956 
L 285.431156 166.590681 
L 284.580905 166.481662 
L 283.730653 166.370856 
L 282.880402 166.258219 
L 282.030151 166.143704 
L 281.179899 166.027264 
L 280.329648 165.908851 
L 279.479397 165.788414 
L 278.629146 165.6659 
L 277.778894 165.541256 
L 276.928643 165.414425 
L 276.078392 165.285349 
L 275.228141 165.153968 
L 274.377889 165.02022 
L 273.527638 164.88404 
L 272.677387 164.745362 
L 271.827136 164.604115 
L 270.976884 164.460228 
L 270.126633 164.313627 
L 269.276382 164.164233 
L 268.426131 164.011966 
L 267.575879 163.856742 
L 266.725628 163.698475 
L 265.875377 163.537074 
L 265.025126 163.372444 
L 264.174874 163.204489 
L 263.324623 163.033107 
L 262.474372 162.85819 
L 261.624121 162.67963 
L 260.773869 162.49731 
L 259.923618 162.311111 
L 259.073367 162.120908 
L 258.223116 161.92657 
L 257.372864 161.727961 
L 256.522613 161.524938 
L 255.672362 161.317353 
L 254.822111 161.105051 
L 253.971859 160.887867 
L 253.121608 160.665633 
L 252.271357 160.43817 
L 251.421106 160.205291 
L 250.570854 159.966801 
L 249.720603 159.722493 
L 248.870352 159.472154 
L 248.020101 159.215556 
L 247.169849 158.952461 
L 246.319598 158.682621 
L 245.469347 158.405772 
L 244.619095 158.121637 
L 243.768844 157.829926 
L 242.918593 157.53033 
L 242.068342 157.222527 
L 241.21809 156.906173 
L 240.367839 156.580908 
L 239.517588 156.246349 
L 238.667337 155.902093 
L 237.817085 155.547712 
L 236.966834 155.182753 
L 236.116583 154.806734 
L 235.266332 154.419145 
L 234.41608 154.019444 
L 233.565829 153.607055 
L 232.715578 153.181362 
L 231.865327 152.741712 
L 231.015075 152.287407 
L 230.164824 151.817702 
L 229.314573 151.331801 
L 228.464322 150.82885 
L 227.61407 150.307937 
L 226.763819 149.768081 
L 225.913568 149.20823 
L 225.063317 148.627254 
L 224.213065 148.023932 
L 223.362814 147.39695 
L 222.512563 146.744889 
L 221.662312 146.066213 
L 220.81206 145.359259 
L 219.961809 144.622222 
L 219.111558 143.85314 
L 218.261307 143.049877 
L 217.411055 142.210101 
L 216.560804 141.331266 
L 215.710553 140.410582 
L 214.860302 139.444986 
L 214.01005 138.431111 
L 213.159799 137.365242 
L 212.309548 136.243275 
L 211.459296 135.060661 
L 210.609045 133.812346 
L 209.758794 132.492698 
L 208.908543 131.095425 
L 208.058291 129.613468 
L 207.20804 128.038889 
L 206.357789 126.362724 
L 205.507538 124.574815 
L 204.657286 122.663602 
L 203.807035 120.615873 
L 202.956784 118.416461 
L 202.106533 116.047863 
L 201.256281 113.489778 
L 200.40603 110.718519 
L 199.555779 107.70628 
L 198.705528 104.420202 
L 197.855276 100.821164 
L 197.005025 96.862222 
L 196.154774 92.48655 
L 195.304523 87.624691 
L 194.454271 82.19085 
L 193.60402 76.077778 
L 192.753769 69.14963 
L 191.903518 61.231746 
L 191.053266 52.095726 
L 190.203015 41.437037 
L 189.352764 28.840404 
L 188.502513 13.724444 
L 187.652261 -4.750617 
L 186.80201 -27.844444 
L 185.951759 -57.536508 
L 185.101508 -97.125926 
L 184.251256 -152.551111 
L 183.401005 -235.688889 
L 182.550754 -374.251852 
L 181.700503 -651.377778 
L 180.850251 -1482.755556 
z
" clip-path="url(#p31ea94cc3d)" style="fill: #4169e1; fill-opacity: 0.6; stroke: #4169e1; stroke-opacity: 0.6; stroke-width: 0.5"/>
   </g>
   <g id="PolyCollection_2">
    <path d="M 179.149749 1842.755556 
L 179.149749 180 
L 178.299497 180 
L 177.449246 180 
L 176.598995 180 
L 175.748744 180 
L 174.898492 180 
L 174.048241 180 
L 173.19799 180 
L 172.347739 180 
L 171.497487 180 
L 170.647236 180 
L 169.796985 180 
L 168.946734 180 
L 168.096482 180 
L 167.246231 180 
L 166.39598 180 
L 165.545729 180 
L 164.695477 180 
L 163.845226 180 
L 162.994975 180 
L 162.144724 180 
L 161.294472 180 
L 160.444221 180 
L 159.59397 180 
L 158.743719 180 
L 157.893467 180 
L 157.043216 180 
L 156.192965 180 
L 155.342714 180 
L 154.492462 180 
L 153.642211 180 
L 152.79196 180 
L 151.941709 180 
L 151.091457 180 
L 150.241206 180 
L 149.390955 180 
L 148.540704 180 
L 147.690452 180 
L 146.840201 180 
L 145.98995 180 
L 145.139698 180 
L 144.289447 180 
L 143.439196 180 
L 142.588945 180 
L 141.738693 180 
L 140.888442 180 
L 140.038191 180 
L 139.18794 180 
L 138.337688 180 
L 137.487437 180 
L 136.637186 180 
L 135.786935 180 
L 134.936683 180 
L 134.086432 180 
L 133.236181 180 
L 132.38593 180 
L 131.535678 180 
L 130.685427 180 
L 129.835176 180 
L 128.984925 180 
L 128.134673 180 
L 127.284422 180 
L 126.434171 180 
L 125.58392 180 
L 124.733668 180 
L 123.883417 180 
L 123.033166 180 
L 122.182915 180 
L 121.332663 180 
L 120.482412 180 
L 119.632161 180 
L 118.78191 180 
L 117.931658 180 
L 117.081407 180 
L 116.231156 180 
L 115.380905 180 
L 114.530653 180 
L 113.680402 180 
L 112.830151 180 
L 111.979899 180 
L 111.129648 180 
L 110.279397 180 
L 109.429146 180 
L 108.578894 180 
L 107.728643 180 
L 106.878392 180 
L 106.028141 180 
L 105.177889 180 
L 104.327638 180 
L 103.477387 180 
L 102.627136 180 
L 101.776884 180 
L 100.926633 180 
L 100.076382 180 
L 99.226131 180 
L 98.375879 180 
L 97.525628 180 
L 96.675377 180 
L 95.825126 180 
L 94.974874 180 
L 94.124623 180 
L 93.274372 180 
L 92.424121 180 
L 91.573869 180 
L 90.723618 180 
L 89.873367 180 
L 89.023116 180 
L 88.172864 180 
L 87.322613 180 
L 86.472362 180 
L 85.622111 180 
L 84.771859 180 
L 83.921608 180 
L 83.071357 180 
L 82.221106 180 
L 81.370854 180 
L 80.520603 180 
L 79.670352 180 
L 78.820101 180 
L 77.969849 180 
L 77.119598 180 
L 76.269347 180 
L 75.419095 180 
L 74.568844 180 
L 73.718593 180 
L 72.868342 180 
L 72.01809 180 
L 71.167839 180 
L 70.317588 180 
L 69.467337 180 
L 68.617085 180 
L 67.766834 180 
L 66.916583 180 
L 66.066332 180 
L 65.21608 180 
L 64.365829 180 
L 63.515578 180 
L 62.665327 180 
L 61.815075 180 
L 60.964824 180 
L 60.114573 180 
L 59.264322 180 
L 58.41407 180 
L 57.563819 180 
L 56.713568 180 
L 55.863317 180 
L 55.013065 180 
L 54.162814 180 
L 53.312563 180 
L 52.462312 180 
L 51.61206 180 
L 50.761809 180 
L 49.911558 180 
L 49.061307 180 
L 48.211055 180 
L 47.360804 180 
L 46.510553 180 
L 45.660302 180 
L 44.81005 180 
L 43.959799 180 
L 43.109548 180 
L 42.259296 180 
L 41.409045 180 
L 40.558794 180 
L 39.708543 180 
L 38.858291 180 
L 38.00804 180 
L 37.157789 180 
L 36.307538 180 
L 35.457286 180 
L 34.607035 180 
L 33.756784 180 
L 32.906533 180 
L 32.056281 180 
L 31.20603 180 
L 30.355779 180 
L 29.505528 180 
L 28.655276 180 
L 27.805025 180 
L 26.954774 180 
L 26.104523 180 
L 25.254271 180 
L 24.40402 180 
L 23.553769 180 
L 22.703518 180 
L 21.853266 180 
L 21.003015 180 
L 20.152764 180 
L 19.302513 180 
L 18.452261 180 
L 17.60201 180 
L 16.751759 180 
L 15.901508 180 
L 15.051256 180 
L 14.201005 180 
L 13.350754 180 
L 12.500503 180 
L 11.650251 180 
L 10.8 180 
L 10.8 188.355556 
L 10.8 188.355556 
L 11.650251 188.397755 
L 12.500503 188.440384 
L 13.350754 188.483447 
L 14.201005 188.526952 
L 15.051256 188.570905 
L 15.901508 188.615314 
L 16.751759 188.660185 
L 17.60201 188.705526 
L 18.452261 188.751345 
L 19.302513 188.797648 
L 20.152764 188.844444 
L 21.003015 188.891741 
L 21.853266 188.939546 
L 22.703518 188.987868 
L 23.553769 189.036715 
L 24.40402 189.086096 
L 25.254271 189.13602 
L 26.104523 189.186495 
L 26.954774 189.237531 
L 27.805025 189.289137 
L 28.655276 189.341323 
L 29.505528 189.394099 
L 30.355779 189.447475 
L 31.20603 189.50146 
L 32.056281 189.556066 
L 32.906533 189.611304 
L 33.756784 189.667183 
L 34.607035 189.723717 
L 35.457286 189.780915 
L 36.307538 189.83879 
L 37.157789 189.897354 
L 38.00804 189.95662 
L 38.858291 190.0166 
L 39.708543 190.077306 
L 40.558794 190.138753 
L 41.409045 190.200954 
L 42.259296 190.263923 
L 43.109548 190.327674 
L 43.959799 190.392222 
L 44.81005 190.457582 
L 45.660302 190.523769 
L 46.510553 190.5908 
L 47.360804 190.658689 
L 48.211055 190.727455 
L 49.061307 190.797114 
L 49.911558 190.867683 
L 50.761809 190.939181 
L 51.61206 191.011626 
L 52.462312 191.085037 
L 53.312563 191.159433 
L 54.162814 191.234835 
L 55.013065 191.311262 
L 55.863317 191.388737 
L 56.713568 191.46728 
L 57.563819 191.546914 
L 58.41407 191.627661 
L 59.264322 191.709546 
L 60.114573 191.792593 
L 60.964824 191.876825 
L 61.815075 191.96227 
L 62.665327 192.048953 
L 63.515578 192.136902 
L 64.365829 192.226144 
L 65.21608 192.316708 
L 66.066332 192.408624 
L 66.916583 192.501921 
L 67.766834 192.596633 
L 68.617085 192.692791 
L 69.467337 192.790427 
L 70.317588 192.889578 
L 71.167839 192.990278 
L 72.01809 193.092563 
L 72.868342 193.196473 
L 73.718593 193.302044 
L 74.568844 193.409319 
L 75.419095 193.518338 
L 76.269347 193.629144 
L 77.119598 193.741781 
L 77.969849 193.856296 
L 78.820101 193.972736 
L 79.670352 194.091149 
L 80.520603 194.211586 
L 81.370854 194.3341 
L 82.221106 194.458744 
L 83.071357 194.585575 
L 83.921608 194.714651 
L 84.771859 194.846032 
L 85.622111 194.97978 
L 86.472362 195.11596 
L 87.322613 195.254638 
L 88.172864 195.395885 
L 89.023116 195.539772 
L 89.873367 195.686373 
L 90.723618 195.835767 
L 91.573869 195.988034 
L 92.424121 196.143258 
L 93.274372 196.301525 
L 94.124623 196.462926 
L 94.974874 196.627556 
L 95.825126 196.795511 
L 96.675377 196.966893 
L 97.525628 197.14181 
L 98.375879 197.32037 
L 99.226131 197.50269 
L 100.076382 197.688889 
L 100.926633 197.879092 
L 101.776884 198.07343 
L 102.627136 198.272039 
L 103.477387 198.475062 
L 104.327638 198.682647 
L 105.177889 198.894949 
L 106.028141 199.112133 
L 106.878392 199.334367 
L 107.728643 199.56183 
L 108.578894 199.794709 
L 109.429146 200.033199 
L 110.279397 200.277507 
L 111.129648 200.527846 
L 111.979899 200.784444 
L 112.830151 201.047539 
L 113.680402 201.317379 
L 114.530653 201.594228 
L 115.380905 201.878363 
L 116.231156 202.170074 
L 117.081407 202.46967 
L 117.931658 202.777473 
L 118.78191 203.093827 
L 119.632161 203.419092 
L 120.482412 203.753651 
L 121.332663 204.097907 
L 122.182915 204.452288 
L 123.033166 204.817247 
L 123.883417 205.193266 
L 124.733668 205.580855 
L 125.58392 205.980556 
L 126.434171 206.392945 
L 127.284422 206.818638 
L 128.134673 207.258288 
L 128.984925 207.712593 
L 129.835176 208.182298 
L 130.685427 208.668199 
L 131.535678 209.17115 
L 132.38593 209.692063 
L 133.236181 210.231919 
L 134.086432 210.79177 
L 134.936683 211.372746 
L 135.786935 211.976068 
L 136.637186 212.60305 
L 137.487437 213.255111 
L 138.337688 213.933787 
L 139.18794 214.640741 
L 140.038191 215.377778 
L 140.888442 216.14686 
L 141.738693 216.950123 
L 142.588945 217.789899 
L 143.439196 218.668734 
L 144.289447 219.589418 
L 145.139698 220.555014 
L 145.98995 221.568889 
L 146.840201 222.634758 
L 147.690452 223.756725 
L 148.540704 224.939339 
L 149.390955 226.187654 
L 150.241206 227.507302 
L 151.091457 228.904575 
L 151.941709 230.386532 
L 152.79196 231.961111 
L 153.642211 233.637276 
L 154.492462 235.425185 
L 155.342714 237.336398 
L 156.192965 239.384127 
L 157.043216 241.583539 
L 157.893467 243.952137 
L 158.743719 246.510222 
L 159.59397 249.281481 
L 160.444221 252.29372 
L 161.294472 255.579798 
L 162.144724 259.178836 
L 162.994975 263.137778 
L 163.845226 267.51345 
L 164.695477 272.375309 
L 165.545729 277.80915 
L 166.39598 283.922222 
L 167.246231 290.85037 
L 168.096482 298.768254 
L 168.946734 307.904274 
L 169.796985 318.562963 
L 170.647236 331.159596 
L 171.497487 346.275556 
L 172.347739 364.750617 
L 173.19799 387.844444 
L 174.048241 417.536508 
L 174.898492 457.125926 
L 175.748744 512.551111 
L 176.598995 595.688889 
L 177.449246 734.251852 
L 178.299497 1011.377778 
L 179.149749 1842.755556 
z
" clip-path="url(#p31ea94cc3d)" style="fill: #4169e1; fill-opacity: 0.6; stroke: #4169e1; stroke-opacity: 0.6; stroke-width: 0.5"/>
   </g>
   <g id="line2d_37">
    <path d="M 187.824871 -1 
L 188.502513 13.724444 
L 189.352764 28.840404 
L 190.203015 41.437037 
L 191.053266 52.095726 
L 191.903518 61.231746 
L 193.60402 76.077778 
L 195.304523 87.624691 
L 197.005025 96.862222 
L 198.705528 104.420202 
L 200.40603 110.718519 
L 202.106533 116.047863 
L 203.807035 120.615873 
L 205.507538 124.574815 
L 207.20804 128.038889 
L 208.908543 131.095425 
L 210.609045 133.812346 
L 213.159799 137.365242 
L 215.710553 140.410582 
L 218.261307 143.049877 
L 220.81206 145.359259 
L 223.362814 147.39695 
L 226.763819 149.768081 
L 230.164824 151.817702 
L 233.565829 153.607055 
L 237.817085 155.547712 
L 242.068342 157.222527 
L 247.169849 158.952461 
L 252.271357 160.43817 
L 258.223116 161.92657 
L 265.025126 163.372444 
L 272.677387 164.745362 
L 281.179899 166.027264 
L 290.532663 167.209573 
L 301.58593 168.372339 
L 314.339698 169.476231 
L 328.79397 170.49854 
L 345.798995 171.473048 
L 349.2 171.644444 
L 349.2 171.644444 
" clip-path="url(#p31ea94cc3d)" style="fill: none; stroke: #1f77b4; stroke-width: 1.5; stroke-linecap: square"/>
   </g>
   <g id="line2d_38">
    <path d="M 172.175129 361 
L 171.497487 346.275556 
L 170.647236 331.159596 
L 169.796985 318.562963 
L 168.946734 307.904274 
L 168.096482 298.768254 
L 166.39598 283.922222 
L 164.695477 272.375309 
L 162.994975 263.137778 
L 161.294472 255.579798 
L 159.59397 249.281481 
L 157.893467 243.952137 
L 156.192965 239.384127 
L 154.492462 235.425185 
L 152.79196 231.961111 
L 151.091457 228.904575 
L 149.390955 226.187654 
L 146.840201 222.634758 
L 144.289447 219.589418 
L 141.738693 216.950123 
L 139.18794 214.640741 
L 136.637186 212.60305 
L 133.236181 210.231919 
L 129.835176 208.182298 
L 126.434171 206.392945 
L 122.182915 204.452288 
L 117.931658 202.777473 
L 112.830151 201.047539 
L 107.728643 199.56183 
L 101.776884 198.07343 
L 94.974874 196.627556 
L 87.322613 195.254638 
L 78.820101 193.972736 
L 69.467337 192.790427 
L 58.41407 191.627661 
L 45.660302 190.523769 
L 31.20603 189.50146 
L 14.201005 188.526952 
L 10.8 188.355556 
L 10.8 188.355556 
" clip-path="url(#p31ea94cc3d)" style="fill: none; stroke: #1f77b4; stroke-width: 1.5; stroke-linecap: square"/>
   </g>
   <g id="LineCollection_1">
    <path d="M 217.6 180 
L 217.6 142.4 
" clip-path="url(#p31ea94cc3d)" style="fill: none; stroke: #d62728; stroke-width: 1.5"/>
   </g>
   <g id="patch_3">
    <path d="M 180 349.2 
L 180 10.8 
" style="fill: none; stroke: #ffffff; stroke-linejoin: miter; stroke-linecap: square"/>
   </g>
   <g id="patch_4">
    <path d="M 349.2 349.2 
L 349.2 10.8 
" style="fill: none"/>
   </g>
   <g id="patch_5">
    <path d="M 10.8 180 
L 349.2 180 
" style="fill: none; stroke: #ffffff; stroke-linejoin: miter; stroke-linecap: square"/>
   </g>
   <g id="patch_6">
    <path d="M 10.8 10.8 
L 349.2 10.8 
" style="fill: none"/>
   </g>
   <g id="legend_1">
    <g id="patch_7">
     <path d="M 235.271875 33.478125 
L 342.2 33.478125 
Q 344.2 33.478125 344.2 31.478125 
L 344.2 17.8 
Q 344.2 15.8 342.2 15.8 
L 235.271875 15.8 
Q 233.271875 15.8 233.271875 17.8 
L 233.271875 31.478125 
Q 233.271875 33.478125 235.271875 33.478125 
z
" style="fill: #e5e5e5; opacity: 0.8; stroke: #cccccc; stroke-width: 0.5; stroke-linejoin: miter"/>
    </g>
    <g id="line2d_39">
     <path d="M 237.271875 23.898438 
L 257.271875 23.898438 
" style="fill: none; stroke: #d62728; stroke-width: 1.5"/>
    </g>
    <g id="text_21">
     <!-- Arbeitsbereich -->
     <g transform="translate(265.271875 27.398438)scale(0.1 -0.1)">
      <defs>
       <path id="DejaVuSerif-41" d="M 1281 1691 
L 2994 1691 
L 2138 3909 
L 1281 1691 
z
M -38 0 
L -38 331 
L 372 331 
L 2034 4666 
L 2559 4666 
L 4225 331 
L 4684 331 
L 4684 0 
L 2988 0 
L 2988 331 
L 3506 331 
L 3116 1356 
L 1153 1356 
L 763 331 
L 1275 331 
L 1275 0 
L -38 0 
z
" transform="scale(0.015625)"/>
       <path id="DejaVuSerif-72" d="M 3059 3328 
L 3059 2497 
L 2728 2497 
Q 2713 2744 2591 2866 
Q 2469 2988 2234 2988 
Q 1809 2988 1582 2694 
Q 1356 2400 1356 1850 
L 1356 331 
L 2022 331 
L 2022 0 
L 263 0 
L 263 331 
L 781 331 
L 781 2994 
L 231 2994 
L 231 3322 
L 1356 3322 
L 1356 2731 
Q 1525 3078 1790 3245 
Q 2056 3413 2438 3413 
Q 2578 3413 2733 3391 
Q 2888 3369 3059 3328 
z
" transform="scale(0.015625)"/>
       <path id="DejaVuSerif-62" d="M 738 331 
L 738 4531 
L 184 4531 
L 184 4863 
L 1313 4863 
L 1313 2803 
Q 1481 3116 1742 3264 
Q 2003 3413 2388 3413 
Q 3000 3413 3387 2928 
Q 3775 2444 3775 1663 
Q 3775 881 3387 395 
Q 3000 -91 2388 -91 
Q 2003 -91 1742 57 
Q 1481 206 1313 519 
L 1313 0 
L 184 0 
L 184 331 
L 738 331 
z
M 1313 1497 
Q 1313 897 1542 583 
Q 1772 269 2209 269 
Q 2650 269 2876 622 
Q 3103 975 3103 1663 
Q 3103 2353 2876 2703 
Q 2650 3053 2209 3053 
Q 1772 3053 1542 2737 
Q 1313 2422 1313 1825 
L 1313 1497 
z
" transform="scale(0.015625)"/>
       <path id="DejaVuSerif-65" d="M 3469 1600 
L 991 1600 
L 991 1575 
Q 991 903 1244 561 
Q 1497 219 1991 219 
Q 2369 219 2611 417 
Q 2853 616 2950 1006 
L 3413 1006 
Q 3275 459 2904 184 
Q 2534 -91 1931 -91 
Q 1203 -91 761 389 
Q 319 869 319 1663 
Q 319 2450 753 2931 
Q 1188 3413 1894 3413 
Q 2647 3413 3050 2948 
Q 3453 2484 3469 1600 
z
M 2791 1931 
Q 2772 2513 2545 2808 
Q 2319 3103 1894 3103 
Q 1497 3103 1269 2806 
Q 1041 2509 991 1931 
L 2791 1931 
z
" transform="scale(0.015625)"/>
       <path id="DejaVuSerif-69" d="M 622 4353 
Q 622 4497 726 4603 
Q 831 4709 978 4709 
Q 1122 4709 1226 4603 
Q 1331 4497 1331 4353 
Q 1331 4206 1228 4103 
Q 1125 4000 978 4000 
Q 831 4000 726 4103 
Q 622 4206 622 4353 
z
M 1356 331 
L 1900 331 
L 1900 0 
L 231 0 
L 231 331 
L 781 331 
L 781 2988 
L 231 2988 
L 231 3322 
L 1356 3322 
L 1356 331 
z
" transform="scale(0.015625)"/>
       <path id="DejaVuSerif-74" d="M 691 2988 
L 184 2988 
L 184 3322 
L 691 3322 
L 691 4353 
L 1269 4353 
L 1269 3322 
L 2350 3322 
L 2350 2988 
L 1269 2988 
L 1269 878 
Q 1269 456 1350 337 
Q 1431 219 1650 219 
Q 1875 219 1978 351 
Q 2081 484 2088 781 
L 2522 781 
Q 2497 328 2275 118 
Q 2053 -91 1600 -91 
Q 1103 -91 897 129 
Q 691 350 691 878 
L 691 2988 
z
" transform="scale(0.015625)"/>
       <path id="DejaVuSerif-73" d="M 359 184 
L 359 959 
L 691 959 
Q 703 588 923 403 
Q 1144 219 1575 219 
Q 1963 219 2166 364 
Q 2369 509 2369 788 
Q 2369 1006 2220 1140 
Q 2072 1275 1594 1428 
L 1178 1569 
Q 750 1706 558 1912 
Q 366 2119 366 2438 
Q 366 2894 700 3153 
Q 1034 3413 1625 3413 
Q 1888 3413 2178 3344 
Q 2469 3275 2778 3144 
L 2778 2419 
L 2447 2419 
Q 2434 2741 2221 2922 
Q 2009 3103 1644 3103 
Q 1281 3103 1095 2975 
Q 909 2847 909 2591 
Q 909 2381 1050 2254 
Q 1191 2128 1613 1997 
L 2069 1856 
Q 2541 1709 2748 1489 
Q 2956 1269 2956 922 
Q 2956 450 2595 179 
Q 2234 -91 1600 -91 
Q 1278 -91 972 -22 
Q 666 47 359 184 
z
" transform="scale(0.015625)"/>
       <path id="DejaVuSerif-63" d="M 3291 997 
Q 3169 466 2822 187 
Q 2475 -91 1925 -91 
Q 1200 -91 759 389 
Q 319 869 319 1663 
Q 319 2459 759 2936 
Q 1200 3413 1925 3413 
Q 2241 3413 2553 3339 
Q 2866 3266 3181 3116 
L 3181 2266 
L 2847 2266 
Q 2781 2703 2561 2903 
Q 2341 3103 1931 3103 
Q 1466 3103 1228 2742 
Q 991 2381 991 1663 
Q 991 944 1227 581 
Q 1463 219 1931 219 
Q 2303 219 2525 412 
Q 2747 606 2828 997 
L 3291 997 
z
" transform="scale(0.015625)"/>
       <path id="DejaVuSerif-68" d="M 263 0 
L 263 331 
L 781 331 
L 781 4531 
L 231 4531 
L 231 4863 
L 1356 4863 
L 1356 2731 
Q 1516 3069 1770 3241 
Q 2025 3413 2363 3413 
Q 2913 3413 3172 3097 
Q 3431 2781 3431 2113 
L 3431 331 
L 3944 331 
L 3944 0 
L 2356 0 
L 2356 331 
L 2853 331 
L 2853 1931 
Q 2853 2541 2704 2764 
Q 2556 2988 2175 2988 
Q 1775 2988 1565 2697 
Q 1356 2406 1356 1850 
L 1356 331 
L 1856 331 
L 1856 0 
L 263 0 
z
" transform="scale(0.015625)"/>
      </defs>
      <use xlink:href="#DejaVuSerif-41"/>
      <use xlink:href="#DejaVuSerif-72" x="72.216797"/>
      <use xlink:href="#DejaVuSerif-62" x="120.019531"/>
      <use xlink:href="#DejaVuSerif-65" x="184.033203"/>
      <use xlink:href="#DejaVuSerif-69" x="243.212891"/>
      <use xlink:href="#DejaVuSerif-74" x="275.195312"/>
      <use xlink:href="#DejaVuSerif-73" x="315.380859"/>
      <use xlink:href="#DejaVuSerif-62" x="366.699219"/>
      <use xlink:href="#DejaVuSerif-65" x="430.712891"/>
      <use xlink:href="#DejaVuSerif-72" x="489.892578"/>
      <use xlink:href="#DejaVuSerif-65" x="537.695312"/>
      <use xlink:href="#DejaVuSerif-69" x="596.875"/>
      <use xlink:href="#DejaVuSerif-63" x="628.857422"/>
      <use xlink:href="#DejaVuSerif-68" x="684.863281"/>
     </g>
    </g>
   </g>
  </g>
 </g>
 <defs>
  <clipPath id="p31ea94cc3d">
   <rect x="10.8" y="10.8" width="338.4" height="338.4"/>
  </clipPath>
 </defs>
</svg>
