<?xml version="1.0" encoding="utf-8" standalone="no"?>
<!DOCTYPE svg PUBLIC "-//W3C//DTD SVG 1.1//EN"
  "http://www.w3.org/Graphics/SVG/1.1/DTD/svg11.dtd">
<svg xmlns:xlink="http://www.w3.org/1999/xlink" width="360pt" height="360pt" viewBox="0 0 360 360" xmlns="http://www.w3.org/2000/svg" version="1.1">
 <metadata>
  <rdf:RDF xmlns:dc="http://purl.org/dc/elements/1.1/" xmlns:cc="http://creativecommons.org/ns#" xmlns:rdf="http://www.w3.org/1999/02/22-rdf-syntax-ns#">
   <cc:Work>
    <dc:type rdf:resource="http://purl.org/dc/dcmitype/StillImage"/>
    <dc:date>2022-02-03T18:50:20.268022</dc:date>
    <dc:format>image/svg+xml</dc:format>
    <dc:creator>
     <cc:Agent>
      <dc:title>Matplotlib v3.5.0, https://matplotlib.org/</dc:title>
     </cc:Agent>
    </dc:creator>
   </cc:Work>
  </rdf:RDF>
 </metadata>
 <defs>
  <style type="text/css">*{stroke-linejoin: round; stroke-linecap: butt}</style>
 </defs>
 <g id="figure_1">
  <g id="patch_1">
   <path d="M 0 360 
L 360 360 
L 360 0 
L 0 0 
z
" style="fill: #ffffff"/>
  </g>
  <g id="axes_1">
   <g id="patch_2">
    <path d="M 10.8 349.2 
L 349.2 349.2 
L 349.2 10.8 
L 10.8 10.8 
z
" style="fill: #ffffff"/>
   </g>
   <g id="PolyCollection_1">
    <path d="M 180.850251 -1482.755556 
L 180.850251 180 
L 181.700503 180 
L 182.550754 180 
L 183.401005 180 
L 184.251256 180 
L 185.101508 180 
L 185.951759 180 
L 186.80201 180 
L 187.652261 180 
L 188.502513 180 
L 189.352764 180 
L 190.203015 180 
L 191.053266 180 
L 191.903518 180 
L 192.753769 180 
L 193.60402 180 
L 194.454271 180 
L 195.304523 180 
L 196.154774 180 
L 197.005025 180 
L 197.855276 180 
L 198.705528 180 
L 199.555779 180 
L 200.40603 180 
L 201.256281 180 
L 202.106533 180 
L 202.956784 180 
L 203.807035 180 
L 204.657286 180 
L 205.507538 180 
L 206.357789 180 
L 207.20804 180 
L 208.058291 180 
L 208.908543 180 
L 209.758794 180 
L 210.609045 180 
L 211.459296 180 
L 212.309548 180 
L 213.159799 180 
L 214.01005 180 
L 214.860302 180 
L 215.710553 180 
L 216.560804 180 
L 217.411055 180 
L 218.261307 180 
L 219.111558 180 
L 219.961809 180 
L 220.81206 180 
L 221.662312 180 
L 222.512563 180 
L 223.362814 180 
L 224.213065 180 
L 225.063317 180 
L 225.913568 180 
L 226.763819 180 
L 227.61407 180 
L 228.464322 180 
L 229.314573 180 
L 230.164824 180 
L 231.015075 180 
L 231.865327 180 
L 232.715578 180 
L 233.565829 180 
L 234.41608 180 
L 235.266332 180 
L 236.116583 180 
L 236.966834 180 
L 237.817085 180 
L 238.667337 180 
L 239.517588 180 
L 240.367839 180 
L 241.21809 180 
L 242.068342 180 
L 242.918593 180 
L 243.768844 180 
L 244.619095 180 
L 245.469347 180 
L 246.319598 180 
L 247.169849 180 
L 248.020101 180 
L 248.870352 180 
L 249.720603 180 
L 250.570854 180 
L 251.421106 180 
L 252.271357 180 
L 253.121608 180 
L 253.971859 180 
L 254.822111 180 
L 255.672362 180 
L 256.522613 180 
L 257.372864 180 
L 258.223116 180 
L 259.073367 180 
L 259.923618 180 
L 260.773869 180 
L 261.624121 180 
L 262.474372 180 
L 263.324623 180 
L 264.174874 180 
L 265.025126 180 
L 265.875377 180 
L 266.725628 180 
L 267.575879 180 
L 268.426131 180 
L 269.276382 180 
L 270.126633 180 
L 270.976884 180 
L 271.827136 180 
L 272.677387 180 
L 273.527638 180 
L 274.377889 180 
L 275.228141 180 
L 276.078392 180 
L 276.928643 180 
L 277.778894 180 
L 278.629146 180 
L 279.479397 180 
L 280.329648 180 
L 281.179899 180 
L 282.030151 180 
L 282.880402 180 
L 283.730653 180 
L 284.580905 180 
L 285.431156 180 
L 286.281407 180 
L 287.131658 180 
L 287.98191 180 
L 288.832161 180 
L 289.682412 180 
L 290.532663 180 
L 291.382915 180 
L 292.233166 180 
L 293.083417 180 
L 293.933668 180 
L 294.78392 180 
L 295.634171 180 
L 296.484422 180 
L 297.334673 180 
L 298.184925 180 
L 299.035176 180 
L 299.885427 180 
L 300.735678 180 
L 301.58593 180 
L 302.436181 180 
L 303.286432 180 
L 304.136683 180 
L 304.986935 180 
L 305.837186 180 
L 306.687437 180 
L 307.537688 180 
L 308.38794 180 
L 309.238191 180 
L 310.088442 180 
L 310.938693 180 
L 311.788945 180 
L 312.639196 180 
L 313.489447 180 
L 314.339698 180 
L 315.18995 180 
L 316.040201 180 
L 316.890452 180 
L 317.740704 180 
L 318.590955 180 
L 319.441206 180 
L 320.291457 180 
L 321.141709 180 
L 321.99196 180 
L 322.842211 180 
L 323.692462 180 
L 324.542714 180 
L 325.392965 180 
L 326.243216 180 
L 327.093467 180 
L 327.943719 180 
L 328.79397 180 
L 329.644221 180 
L 330.494472 180 
L 331.344724 180 
L 332.194975 180 
L 333.045226 180 
L 333.895477 180 
L 334.745729 180 
L 335.59598 180 
L 336.446231 180 
L 337.296482 180 
L 338.146734 180 
L 338.996985 180 
L 339.847236 180 
L 340.697487 180 
L 341.547739 180 
L 342.39799 180 
L 343.248241 180 
L 344.098492 180 
L 344.948744 180 
L 345.798995 180 
L 346.649246 180 
L 347.499497 180 
L 348.349749 180 
L 349.2 180 
L 349.2 171.644444 
L 349.2 171.644444 
L 348.349749 171.602245 
L 347.499497 171.559616 
L 346.649246 171.516553 
L 345.798995 171.473048 
L 344.948744 171.429095 
L 344.098492 171.384686 
L 343.248241 171.339815 
L 342.39799 171.294474 
L 341.547739 171.248655 
L 340.697487 171.202352 
L 339.847236 171.155556 
L 338.996985 171.108259 
L 338.146734 171.060454 
L 337.296482 171.012132 
L 336.446231 170.963285 
L 335.59598 170.913904 
L 334.745729 170.86398 
L 333.895477 170.813505 
L 333.045226 170.762469 
L 332.194975 170.710863 
L 331.344724 170.658677 
L 330.494472 170.605901 
L 329.644221 170.552525 
L 328.79397 170.49854 
L 327.943719 170.443934 
L 327.093467 170.388696 
L 326.243216 170.332817 
L 325.392965 170.276283 
L 324.542714 170.219085 
L 323.692462 170.16121 
L 322.842211 170.102646 
L 321.99196 170.04338 
L 321.141709 169.9834 
L 320.291457 169.922694 
L 319.441206 169.861247 
L 318.590955 169.799046 
L 317.740704 169.736077 
L 316.890452 169.672326 
L 316.040201 169.607778 
L 315.18995 169.542418 
L 314.339698 169.476231 
L 313.489447 169.4092 
L 312.639196 169.341311 
L 311.788945 169.272545 
L 310.938693 169.202886 
L 310.088442 169.132317 
L 309.238191 169.060819 
L 308.38794 168.988374 
L 307.537688 168.914963 
L 306.687437 168.840567 
L 305.837186 168.765165 
L 304.986935 168.688738 
L 304.136683 168.611263 
L 303.286432 168.53272 
L 302.436181 168.453086 
L 301.58593 168.372339 
L 300.735678 168.290454 
L 299.885427 168.207407 
L 299.035176 168.123175 
L 298.184925 168.03773 
L 297.334673 167.951047 
L 296.484422 167.863098 
L 295.634171 167.773856 
L 294.78392 167.683292 
L 293.933668 167.591376 
L 293.083417 167.498079 
L 292.233166 167.403367 
L 291.382915 167.307209 
L 290.532663 167.209573 
L 289.682412 167.110422 
L 288.832161 167.009722 
L 287.98191 166.907437 
L 287.131658 166.803527 
L 286.281407 166.697956 
L 285.431156 166.590681 
L 284.580905 166.481662 
L 283.730653 166.370856 
L 282.880402 166.258219 
L 282.030151 166.143704 
L 281.179899 166.027264 
L 280.329648 165.908851 
L 279.479397 165.788414 
L 278.629146 165.6659 
L 277.778894 165.541256 
L 276.928643 165.414425 
L 276.078392 165.285349 
L 275.228141 165.153968 
L 274.377889 165.02022 
L 273.527638 164.88404 
L 272.677387 164.745362 
L 271.827136 164.604115 
L 270.976884 164.460228 
L 270.126633 164.313627 
L 269.276382 164.164233 
L 268.426131 164.011966 
L 267.575879 163.856742 
L 266.725628 163.698475 
L 265.875377 163.537074 
L 265.025126 163.372444 
L 264.174874 163.204489 
L 263.324623 163.033107 
L 262.474372 162.85819 
L 261.624121 162.67963 
L 260.773869 162.49731 
L 259.923618 162.311111 
L 259.073367 162.120908 
L 258.223116 161.92657 
L 257.372864 161.727961 
L 256.522613 161.524938 
L 255.672362 161.317353 
L 254.822111 161.105051 
L 253.971859 160.887867 
L 253.121608 160.665633 
L 252.271357 160.43817 
L 251.421106 160.205291 
L 250.570854 159.966801 
L 249.720603 159.722493 
L 248.870352 159.472154 
L 248.020101 159.215556 
L 247.169849 158.952461 
L 246.319598 158.682621 
L 245.469347 158.405772 
L 244.619095 158.121637 
L 243.768844 157.829926 
L 242.918593 157.53033 
L 242.068342 157.222527 
L 241.21809 156.906173 
L 240.367839 156.580908 
L 239.517588 156.246349 
L 238.667337 155.902093 
L 237.817085 155.547712 
L 236.966834 155.182753 
L 236.116583 154.806734 
L 235.266332 154.419145 
L 234.41608 154.019444 
L 233.565829 153.607055 
L 232.715578 153.181362 
L 231.865327 152.741712 
L 231.015075 152.287407 
L 230.164824 151.817702 
L 229.314573 151.331801 
L 228.464322 150.82885 
L 227.61407 150.307937 
L 226.763819 149.768081 
L 225.913568 149.20823 
L 225.063317 148.627254 
L 224.213065 148.023932 
L 223.362814 147.39695 
L 222.512563 146.744889 
L 221.662312 146.066213 
L 220.81206 145.359259 
L 219.961809 144.622222 
L 219.111558 143.85314 
L 218.261307 143.049877 
L 217.411055 142.210101 
L 216.560804 141.331266 
L 215.710553 140.410582 
L 214.860302 139.444986 
L 214.01005 138.431111 
L 213.159799 137.365242 
L 212.309548 136.243275 
L 211.459296 135.060661 
L 210.609045 133.812346 
L 209.758794 132.492698 
L 208.908543 131.095425 
L 208.058291 129.613468 
L 207.20804 128.038889 
L 206.357789 126.362724 
L 205.507538 124.574815 
L 204.657286 122.663602 
L 203.807035 120.615873 
L 202.956784 118.416461 
L 202.106533 116.047863 
L 201.256281 113.489778 
L 200.40603 110.718519 
L 199.555779 107.70628 
L 198.705528 104.420202 
L 197.855276 100.821164 
L 197.005025 96.862222 
L 196.154774 92.48655 
L 195.304523 87.624691 
L 194.454271 82.19085 
L 193.60402 76.077778 
L 192.753769 69.14963 
L 191.903518 61.231746 
L 191.053266 52.095726 
L 190.203015 41.437037 
L 189.352764 28.840404 
L 188.502513 13.724444 
L 187.652261 -4.750617 
L 186.80201 -27.844444 
L 185.951759 -57.536508 
L 185.101508 -97.125926 
L 184.251256 -152.551111 
L 183.401005 -235.688889 
L 182.550754 -374.251852 
L 181.700503 -651.377778 
L 180.850251 -1482.755556 
z
" clip-path="url(#p289aec43ed)" style="fill: #4169e1; fill-opacity: 0.6; stroke: #4169e1; stroke-opacity: 0.6"/>
   </g>
   <g id="PolyCollection_2">
    <path d="M 179.149749 1842.755556 
L 179.149749 180 
L 178.299497 180 
L 177.449246 180 
L 176.598995 180 
L 175.748744 180 
L 174.898492 180 
L 174.048241 180 
L 173.19799 180 
L 172.347739 180 
L 171.497487 180 
L 170.647236 180 
L 169.796985 180 
L 168.946734 180 
L 168.096482 180 
L 167.246231 180 
L 166.39598 180 
L 165.545729 180 
L 164.695477 180 
L 163.845226 180 
L 162.994975 180 
L 162.144724 180 
L 161.294472 180 
L 160.444221 180 
L 159.59397 180 
L 158.743719 180 
L 157.893467 180 
L 157.043216 180 
L 156.192965 180 
L 155.342714 180 
L 154.492462 180 
L 153.642211 180 
L 152.79196 180 
L 151.941709 180 
L 151.091457 180 
L 150.241206 180 
L 149.390955 180 
L 148.540704 180 
L 147.690452 180 
L 146.840201 180 
L 145.98995 180 
L 145.139698 180 
L 144.289447 180 
L 143.439196 180 
L 142.588945 180 
L 141.738693 180 
L 140.888442 180 
L 140.038191 180 
L 139.18794 180 
L 138.337688 180 
L 137.487437 180 
L 136.637186 180 
L 135.786935 180 
L 134.936683 180 
L 134.086432 180 
L 133.236181 180 
L 132.38593 180 
L 131.535678 180 
L 130.685427 180 
L 129.835176 180 
L 128.984925 180 
L 128.134673 180 
L 127.284422 180 
L 126.434171 180 
L 125.58392 180 
L 124.733668 180 
L 123.883417 180 
L 123.033166 180 
L 122.182915 180 
L 121.332663 180 
L 120.482412 180 
L 119.632161 180 
L 118.78191 180 
L 117.931658 180 
L 117.081407 180 
L 116.231156 180 
L 115.380905 180 
L 114.530653 180 
L 113.680402 180 
L 112.830151 180 
L 111.979899 180 
L 111.129648 180 
L 110.279397 180 
L 109.429146 180 
L 108.578894 180 
L 107.728643 180 
L 106.878392 180 
L 106.028141 180 
L 105.177889 180 
L 104.327638 180 
L 103.477387 180 
L 102.627136 180 
L 101.776884 180 
L 100.926633 180 
L 100.076382 180 
L 99.226131 180 
L 98.375879 180 
L 97.525628 180 
L 96.675377 180 
L 95.825126 180 
L 94.974874 180 
L 94.124623 180 
L 93.274372 180 
L 92.424121 180 
L 91.573869 180 
L 90.723618 180 
L 89.873367 180 
L 89.023116 180 
L 88.172864 180 
L 87.322613 180 
L 86.472362 180 
L 85.622111 180 
L 84.771859 180 
L 83.921608 180 
L 83.071357 180 
L 82.221106 180 
L 81.370854 180 
L 80.520603 180 
L 79.670352 180 
L 78.820101 180 
L 77.969849 180 
L 77.119598 180 
L 76.269347 180 
L 75.419095 180 
L 74.568844 180 
L 73.718593 180 
L 72.868342 180 
L 72.01809 180 
L 71.167839 180 
L 70.317588 180 
L 69.467337 180 
L 68.617085 180 
L 67.766834 180 
L 66.916583 180 
L 66.066332 180 
L 65.21608 180 
L 64.365829 180 
L 63.515578 180 
L 62.665327 180 
L 61.815075 180 
L 60.964824 180 
L 60.114573 180 
L 59.264322 180 
L 58.41407 180 
L 57.563819 180 
L 56.713568 180 
L 55.863317 180 
L 55.013065 180 
L 54.162814 180 
L 53.312563 180 
L 52.462312 180 
L 51.61206 180 
L 50.761809 180 
L 49.911558 180 
L 49.061307 180 
L 48.211055 180 
L 47.360804 180 
L 46.510553 180 
L 45.660302 180 
L 44.81005 180 
L 43.959799 180 
L 43.109548 180 
L 42.259296 180 
L 41.409045 180 
L 40.558794 180 
L 39.708543 180 
L 38.858291 180 
L 38.00804 180 
L 37.157789 180 
L 36.307538 180 
L 35.457286 180 
L 34.607035 180 
L 33.756784 180 
L 32.906533 180 
L 32.056281 180 
L 31.20603 180 
L 30.355779 180 
L 29.505528 180 
L 28.655276 180 
L 27.805025 180 
L 26.954774 180 
L 26.104523 180 
L 25.254271 180 
L 24.40402 180 
L 23.553769 180 
L 22.703518 180 
L 21.853266 180 
L 21.003015 180 
L 20.152764 180 
L 19.302513 180 
L 18.452261 180 
L 17.60201 180 
L 16.751759 180 
L 15.901508 180 
L 15.051256 180 
L 14.201005 180 
L 13.350754 180 
L 12.500503 180 
L 11.650251 180 
L 10.8 180 
L 10.8 188.355556 
L 10.8 188.355556 
L 11.650251 188.397755 
L 12.500503 188.440384 
L 13.350754 188.483447 
L 14.201005 188.526952 
L 15.051256 188.570905 
L 15.901508 188.615314 
L 16.751759 188.660185 
L 17.60201 188.705526 
L 18.452261 188.751345 
L 19.302513 188.797648 
L 20.152764 188.844444 
L 21.003015 188.891741 
L 21.853266 188.939546 
L 22.703518 188.987868 
L 23.553769 189.036715 
L 24.40402 189.086096 
L 25.254271 189.13602 
L 26.104523 189.186495 
L 26.954774 189.237531 
L 27.805025 189.289137 
L 28.655276 189.341323 
L 29.505528 189.394099 
L 30.355779 189.447475 
L 31.20603 189.50146 
L 32.056281 189.556066 
L 32.906533 189.611304 
L 33.756784 189.667183 
L 34.607035 189.723717 
L 35.457286 189.780915 
L 36.307538 189.83879 
L 37.157789 189.897354 
L 38.00804 189.95662 
L 38.858291 190.0166 
L 39.708543 190.077306 
L 40.558794 190.138753 
L 41.409045 190.200954 
L 42.259296 190.263923 
L 43.109548 190.327674 
L 43.959799 190.392222 
L 44.81005 190.457582 
L 45.660302 190.523769 
L 46.510553 190.5908 
L 47.360804 190.658689 
L 48.211055 190.727455 
L 49.061307 190.797114 
L 49.911558 190.867683 
L 50.761809 190.939181 
L 51.61206 191.011626 
L 52.462312 191.085037 
L 53.312563 191.159433 
L 54.162814 191.234835 
L 55.013065 191.311262 
L 55.863317 191.388737 
L 56.713568 191.46728 
L 57.563819 191.546914 
L 58.41407 191.627661 
L 59.264322 191.709546 
L 60.114573 191.792593 
L 60.964824 191.876825 
L 61.815075 191.96227 
L 62.665327 192.048953 
L 63.515578 192.136902 
L 64.365829 192.226144 
L 65.21608 192.316708 
L 66.066332 192.408624 
L 66.916583 192.501921 
L 67.766834 192.596633 
L 68.617085 192.692791 
L 69.467337 192.790427 
L 70.317588 192.889578 
L 71.167839 192.990278 
L 72.01809 193.092563 
L 72.868342 193.196473 
L 73.718593 193.302044 
L 74.568844 193.409319 
L 75.419095 193.518338 
L 76.269347 193.629144 
L 77.119598 193.741781 
L 77.969849 193.856296 
L 78.820101 193.972736 
L 79.670352 194.091149 
L 80.520603 194.211586 
L 81.370854 194.3341 
L 82.221106 194.458744 
L 83.071357 194.585575 
L 83.921608 194.714651 
L 84.771859 194.846032 
L 85.622111 194.97978 
L 86.472362 195.11596 
L 87.322613 195.254638 
L 88.172864 195.395885 
L 89.023116 195.539772 
L 89.873367 195.686373 
L 90.723618 195.835767 
L 91.573869 195.988034 
L 92.424121 196.143258 
L 93.274372 196.301525 
L 94.124623 196.462926 
L 94.974874 196.627556 
L 95.825126 196.795511 
L 96.675377 196.966893 
L 97.525628 197.14181 
L 98.375879 197.32037 
L 99.226131 197.50269 
L 100.076382 197.688889 
L 100.926633 197.879092 
L 101.776884 198.07343 
L 102.627136 198.272039 
L 103.477387 198.475062 
L 104.327638 198.682647 
L 105.177889 198.894949 
L 106.028141 199.112133 
L 106.878392 199.334367 
L 107.728643 199.56183 
L 108.578894 199.794709 
L 109.429146 200.033199 
L 110.279397 200.277507 
L 111.129648 200.527846 
L 111.979899 200.784444 
L 112.830151 201.047539 
L 113.680402 201.317379 
L 114.530653 201.594228 
L 115.380905 201.878363 
L 116.231156 202.170074 
L 117.081407 202.46967 
L 117.931658 202.777473 
L 118.78191 203.093827 
L 119.632161 203.419092 
L 120.482412 203.753651 
L 121.332663 204.097907 
L 122.182915 204.452288 
L 123.033166 204.817247 
L 123.883417 205.193266 
L 124.733668 205.580855 
L 125.58392 205.980556 
L 126.434171 206.392945 
L 127.284422 206.818638 
L 128.134673 207.258288 
L 128.984925 207.712593 
L 129.835176 208.182298 
L 130.685427 208.668199 
L 131.535678 209.17115 
L 132.38593 209.692063 
L 133.236181 210.231919 
L 134.086432 210.79177 
L 134.936683 211.372746 
L 135.786935 211.976068 
L 136.637186 212.60305 
L 137.487437 213.255111 
L 138.337688 213.933787 
L 139.18794 214.640741 
L 140.038191 215.377778 
L 140.888442 216.14686 
L 141.738693 216.950123 
L 142.588945 217.789899 
L 143.439196 218.668734 
L 144.289447 219.589418 
L 145.139698 220.555014 
L 145.98995 221.568889 
L 146.840201 222.634758 
L 147.690452 223.756725 
L 148.540704 224.939339 
L 149.390955 226.187654 
L 150.241206 227.507302 
L 151.091457 228.904575 
L 151.941709 230.386532 
L 152.79196 231.961111 
L 153.642211 233.637276 
L 154.492462 235.425185 
L 155.342714 237.336398 
L 156.192965 239.384127 
L 157.043216 241.583539 
L 157.893467 243.952137 
L 158.743719 246.510222 
L 159.59397 249.281481 
L 160.444221 252.29372 
L 161.294472 255.579798 
L 162.144724 259.178836 
L 162.994975 263.137778 
L 163.845226 267.51345 
L 164.695477 272.375309 
L 165.545729 277.80915 
L 166.39598 283.922222 
L 167.246231 290.85037 
L 168.096482 298.768254 
L 168.946734 307.904274 
L 169.796985 318.562963 
L 170.647236 331.159596 
L 171.497487 346.275556 
L 172.347739 364.750617 
L 173.19799 387.844444 
L 174.048241 417.536508 
L 174.898492 457.125926 
L 175.748744 512.551111 
L 176.598995 595.688889 
L 177.449246 734.251852 
L 178.299497 1011.377778 
L 179.149749 1842.755556 
z
" clip-path="url(#p289aec43ed)" style="fill: #4169e1; fill-opacity: 0.6; stroke: #4169e1; stroke-opacity: 0.6"/>
   </g>
   <g id="matplotlib.axis_1">
    <g id="xtick_1">
     <g id="line2d_1">
      <defs>
       <path id="m017a0f82d0" d="M 0 0 
L 0 3.5 
" style="stroke: #000000; stroke-width: 0.8"/>
      </defs>
      <g>
       <use xlink:href="#m017a0f82d0" x="29.6" y="180" style="stroke: #000000; stroke-width: 0.8"/>
      </g>
     </g>
     <g id="text_1">
      <!-- $\mathdefault{−4}$ -->
      <g transform="translate(23.234961 177.918498)scale(0.1 -0.1)">
       <defs>
        <path id="CMSY10-0" d="M 4218 1472 
C 4326 1472 4442 1472 4442 1600 
C 4442 1728 4326 1728 4218 1728 
L 755 1728 
C 646 1728 531 1728 531 1600 
C 531 1472 646 1472 755 1472 
L 4218 1472 
z
" transform="scale(0.015625)"/>
        <path id="CMR17-34" d="M 2150 4122 
C 2150 4256 2144 4256 2029 4256 
L 128 1254 
L 128 1088 
L 1779 1088 
L 1779 457 
C 1779 224 1766 160 1318 160 
L 1197 160 
L 1197 0 
C 1402 0 1747 0 1965 0 
C 2182 0 2528 0 2733 0 
L 2733 160 
L 2611 160 
C 2163 160 2150 224 2150 457 
L 2150 1088 
L 2803 1088 
L 2803 1254 
L 2150 1254 
L 2150 4122 
z
M 1798 3703 
L 1798 1254 
L 256 1254 
L 1798 3703 
z
" transform="scale(0.015625)"/>
       </defs>
       <use xlink:href="#CMSY10-0" transform="scale(0.996264)"/>
       <use xlink:href="#CMR17-34" transform="translate(77.487468 0)scale(0.996264)"/>
      </g>
     </g>
    </g>
    <g id="xtick_2">
     <g id="line2d_2">
      <g>
       <use xlink:href="#m017a0f82d0" x="67.2" y="180" style="stroke: #000000; stroke-width: 0.8"/>
      </g>
     </g>
     <g id="text_2">
      <!-- $\mathdefault{−3}$ -->
      <g transform="translate(60.834961 177.918498)scale(0.1 -0.1)">
       <defs>
        <path id="CMR17-33" d="M 1414 2157 
C 1984 2157 2234 1662 2234 1090 
C 2234 320 1824 25 1453 25 
C 1114 25 563 194 390 693 
C 422 680 454 680 486 680 
C 640 680 755 782 755 948 
C 755 1133 614 1216 486 1216 
C 378 1216 211 1165 211 926 
C 211 335 787 -128 1466 -128 
C 2176 -128 2720 430 2720 1085 
C 2720 1707 2208 2157 1600 2227 
C 2086 2328 2554 2756 2554 3329 
C 2554 3820 2048 4179 1472 4179 
C 890 4179 378 3829 378 3329 
C 378 3110 544 3072 627 3072 
C 762 3072 877 3155 877 3321 
C 877 3486 762 3569 627 3569 
C 602 3569 570 3569 544 3557 
C 730 3959 1235 4032 1459 4032 
C 1683 4032 2106 3925 2106 3320 
C 2106 3143 2080 2828 1862 2550 
C 1670 2304 1453 2304 1242 2284 
C 1210 2284 1062 2269 1037 2269 
C 992 2263 966 2257 966 2208 
C 966 2163 973 2157 1101 2157 
L 1414 2157 
z
" transform="scale(0.015625)"/>
       </defs>
       <use xlink:href="#CMSY10-0" transform="scale(0.996264)"/>
       <use xlink:href="#CMR17-33" transform="translate(77.487468 0)scale(0.996264)"/>
      </g>
     </g>
    </g>
    <g id="xtick_3">
     <g id="line2d_3">
      <g>
       <use xlink:href="#m017a0f82d0" x="104.8" y="180" style="stroke: #000000; stroke-width: 0.8"/>
      </g>
     </g>
     <g id="text_3">
      <!-- $\mathdefault{−2}$ -->
      <g transform="translate(98.434961 177.918498)scale(0.1 -0.1)">
       <defs>
        <path id="CMR17-32" d="M 2669 989 
L 2554 989 
C 2490 536 2438 459 2413 420 
C 2381 369 1920 369 1830 369 
L 602 369 
C 832 619 1280 1072 1824 1597 
C 2214 1967 2669 2402 2669 3035 
C 2669 3790 2067 4224 1395 4224 
C 691 4224 262 3604 262 3030 
C 262 2780 448 2748 525 2748 
C 589 2748 781 2787 781 3010 
C 781 3207 614 3264 525 3264 
C 486 3264 448 3258 422 3245 
C 544 3790 915 4058 1306 4058 
C 1862 4058 2227 3617 2227 3035 
C 2227 2479 1901 2000 1536 1584 
L 262 146 
L 262 0 
L 2515 0 
L 2669 989 
z
" transform="scale(0.015625)"/>
       </defs>
       <use xlink:href="#CMSY10-0" transform="scale(0.996264)"/>
       <use xlink:href="#CMR17-32" transform="translate(77.487468 0)scale(0.996264)"/>
      </g>
     </g>
    </g>
    <g id="xtick_4">
     <g id="line2d_4">
      <g>
       <use xlink:href="#m017a0f82d0" x="142.4" y="180" style="stroke: #000000; stroke-width: 0.8"/>
      </g>
     </g>
     <g id="text_4">
      <!-- $\mathdefault{−1}$ -->
      <g transform="translate(136.034961 177.918498)scale(0.1 -0.1)">
       <defs>
        <path id="CMR17-31" d="M 1702 4058 
C 1702 4192 1696 4192 1606 4192 
C 1357 3916 979 3827 621 3827 
C 602 3827 570 3827 563 3808 
C 557 3795 557 3782 557 3648 
C 755 3648 1088 3686 1344 3839 
L 1344 461 
C 1344 236 1331 160 781 160 
L 589 160 
L 589 0 
C 896 0 1216 0 1523 0 
C 1830 0 2150 0 2458 0 
L 2458 160 
L 2266 160 
C 1715 160 1702 230 1702 458 
L 1702 4058 
z
" transform="scale(0.015625)"/>
       </defs>
       <use xlink:href="#CMSY10-0" transform="scale(0.996264)"/>
       <use xlink:href="#CMR17-31" transform="translate(77.487468 0)scale(0.996264)"/>
      </g>
     </g>
    </g>
    <g id="xtick_5">
     <g id="line2d_5">
      <g>
       <use xlink:href="#m017a0f82d0" x="180" y="180" style="stroke: #000000; stroke-width: 0.8"/>
      </g>
     </g>
     <g id="text_5">
      <!-- $\mathdefault{0}$ -->
      <g transform="translate(182.509332 189.418498)scale(0.1 -0.1)">
       <defs>
        <path id="CMR17-30" d="M 2688 2025 
C 2688 2416 2682 3080 2413 3591 
C 2176 4039 1798 4198 1466 4198 
C 1158 4198 768 4058 525 3597 
C 269 3118 243 2524 243 2025 
C 243 1661 250 1106 448 619 
C 723 -39 1216 -128 1466 -128 
C 1760 -128 2208 -7 2470 600 
C 2662 1042 2688 1559 2688 2025 
z
M 1466 -26 
C 1056 -26 813 325 723 812 
C 653 1188 653 1738 653 2096 
C 653 2588 653 2997 736 3387 
C 858 3929 1216 4096 1466 4096 
C 1728 4096 2067 3923 2189 3400 
C 2272 3036 2278 2607 2278 2096 
C 2278 1680 2278 1169 2202 792 
C 2067 95 1690 -26 1466 -26 
z
" transform="scale(0.015625)"/>
       </defs>
       <use xlink:href="#CMR17-30" transform="scale(0.996264)"/>
      </g>
     </g>
    </g>
    <g id="xtick_6">
     <g id="line2d_6">
      <g>
       <use xlink:href="#m017a0f82d0" x="217.6" y="180" style="stroke: #000000; stroke-width: 0.8"/>
      </g>
     </g>
     <g id="text_6">
      <!-- $\mathdefault{1}$ -->
      <g transform="translate(215.109332 193.918498)scale(0.1 -0.1)">
       <use xlink:href="#CMR17-31" transform="scale(0.996264)"/>
      </g>
     </g>
    </g>
    <g id="xtick_7">
     <g id="line2d_7">
      <g>
       <use xlink:href="#m017a0f82d0" x="255.2" y="180" style="stroke: #000000; stroke-width: 0.8"/>
      </g>
     </g>
     <g id="text_7">
      <!-- $\mathdefault{2}$ -->
      <g transform="translate(252.709332 193.918498)scale(0.1 -0.1)">
       <use xlink:href="#CMR17-32" transform="scale(0.996264)"/>
      </g>
     </g>
    </g>
    <g id="xtick_8">
     <g id="line2d_8">
      <g>
       <use xlink:href="#m017a0f82d0" x="292.8" y="180" style="stroke: #000000; stroke-width: 0.8"/>
      </g>
     </g>
     <g id="text_8">
      <!-- $\mathdefault{3}$ -->
      <g transform="translate(290.309332 193.918498)scale(0.1 -0.1)">
       <use xlink:href="#CMR17-33" transform="scale(0.996264)"/>
      </g>
     </g>
    </g>
    <g id="xtick_9">
     <g id="line2d_9">
      <g>
       <use xlink:href="#m017a0f82d0" x="330.4" y="180" style="stroke: #000000; stroke-width: 0.8"/>
      </g>
     </g>
     <g id="text_9">
      <!-- $\mathdefault{4}$ -->
      <g transform="translate(327.909332 193.918498)scale(0.1 -0.1)">
       <use xlink:href="#CMR17-34" transform="scale(0.996264)"/>
      </g>
     </g>
    </g>
    <g id="text_10">
     <!-- $g_1$ -->
     <g transform="translate(340.476898 202.774175)scale(0.1 -0.1)">
      <defs>
       <path id="CMMI12-67" d="M 2163 811 
C 2138 709 2125 683 2042 588 
C 1779 249 1510 128 1312 128 
C 1101 128 902 294 902 734 
C 902 1073 1094 1788 1235 2076 
C 1421 2433 1709 2689 1978 2689 
C 2400 2689 2483 2165 2483 2127 
L 2464 2037 
L 2163 811 
z
M 2560 2395 
C 2477 2580 2298 2816 1978 2816 
C 1280 2816 486 1941 486 990 
C 486 326 890 0 1299 0 
C 1638 0 1939 268 2054 396 
L 1914 -171 
C 1824 -516 1786 -674 1555 -894 
C 1293 -1152 1050 -1152 909 -1152 
C 717 -1152 557 -1139 397 -1089 
C 602 -1033 653 -858 653 -789 
C 653 -689 576 -588 435 -588 
C 282 -588 115 -714 115 -922 
C 115 -1180 378 -1280 922 -1280 
C 1747 -1280 2176 -753 2259 -410 
L 2970 2435 
C 2989 2511 2989 2524 2989 2536 
C 2989 2625 2918 2695 2822 2695 
C 2669 2695 2579 2567 2560 2395 
z
" transform="scale(0.015625)"/>
      </defs>
      <use xlink:href="#CMMI12-67" transform="scale(0.996264)"/>
      <use xlink:href="#CMR17-31" transform="translate(46.710897 -14.943915)scale(0.697382)"/>
     </g>
    </g>
   </g>
   <g id="matplotlib.axis_2">
    <g id="ytick_1">
     <g id="line2d_10">
      <defs>
       <path id="m16368c1d06" d="M 0 0 
L -3.5 0 
" style="stroke: #000000; stroke-width: 0.8"/>
      </defs>
      <g>
       <use xlink:href="#m16368c1d06" x="180" y="330.4" style="stroke: #000000; stroke-width: 0.8"/>
      </g>
     </g>
     <g id="text_11">
      <!-- $\mathdefault{−4}$ -->
      <g transform="translate(182.269921 333.359249)scale(0.1 -0.1)">
       <use xlink:href="#CMSY10-0" transform="scale(0.996264)"/>
       <use xlink:href="#CMR17-34" transform="translate(77.487468 0)scale(0.996264)"/>
      </g>
     </g>
    </g>
    <g id="ytick_2">
     <g id="line2d_11">
      <g>
       <use xlink:href="#m16368c1d06" x="180" y="292.8" style="stroke: #000000; stroke-width: 0.8"/>
      </g>
     </g>
     <g id="text_12">
      <!-- $\mathdefault{−3}$ -->
      <g transform="translate(182.269921 295.759249)scale(0.1 -0.1)">
       <use xlink:href="#CMSY10-0" transform="scale(0.996264)"/>
       <use xlink:href="#CMR17-33" transform="translate(77.487468 0)scale(0.996264)"/>
      </g>
     </g>
    </g>
    <g id="ytick_3">
     <g id="line2d_12">
      <g>
       <use xlink:href="#m16368c1d06" x="180" y="255.2" style="stroke: #000000; stroke-width: 0.8"/>
      </g>
     </g>
     <g id="text_13">
      <!-- $\mathdefault{−2}$ -->
      <g transform="translate(182.269921 258.159249)scale(0.1 -0.1)">
       <use xlink:href="#CMSY10-0" transform="scale(0.996264)"/>
       <use xlink:href="#CMR17-32" transform="translate(77.487468 0)scale(0.996264)"/>
      </g>
     </g>
    </g>
    <g id="ytick_4">
     <g id="line2d_13">
      <g>
       <use xlink:href="#m16368c1d06" x="180" y="217.6" style="stroke: #000000; stroke-width: 0.8"/>
      </g>
     </g>
     <g id="text_14">
      <!-- $\mathdefault{−1}$ -->
      <g transform="translate(182.269921 220.559249)scale(0.1 -0.1)">
       <use xlink:href="#CMSY10-0" transform="scale(0.996264)"/>
       <use xlink:href="#CMR17-31" transform="translate(77.487468 0)scale(0.996264)"/>
      </g>
     </g>
    </g>
    <g id="ytick_5">
     <g id="line2d_14">
      <g>
       <use xlink:href="#m16368c1d06" x="180" y="180" style="stroke: #000000; stroke-width: 0.8"/>
      </g>
     </g>
     <g id="text_15">
      <!-- $\mathdefault{0}$ -->
      <g transform="translate(173.018665 175.959249)scale(0.1 -0.1)">
       <use xlink:href="#CMR17-30" transform="scale(0.996264)"/>
      </g>
     </g>
    </g>
    <g id="ytick_6">
     <g id="line2d_15">
      <g>
       <use xlink:href="#m16368c1d06" x="180" y="142.4" style="stroke: #000000; stroke-width: 0.8"/>
      </g>
     </g>
     <g id="text_16">
      <!-- $\mathdefault{1}$ -->
      <g transform="translate(168.018665 145.859249)scale(0.1 -0.1)">
       <use xlink:href="#CMR17-31" transform="scale(0.996264)"/>
      </g>
     </g>
    </g>
    <g id="ytick_7">
     <g id="line2d_16">
      <g>
       <use xlink:href="#m16368c1d06" x="180" y="104.8" style="stroke: #000000; stroke-width: 0.8"/>
      </g>
     </g>
     <g id="text_17">
      <!-- $\mathdefault{2}$ -->
      <g transform="translate(168.018665 108.259249)scale(0.1 -0.1)">
       <use xlink:href="#CMR17-32" transform="scale(0.996264)"/>
      </g>
     </g>
    </g>
    <g id="ytick_8">
     <g id="line2d_17">
      <g>
       <use xlink:href="#m16368c1d06" x="180" y="67.2" style="stroke: #000000; stroke-width: 0.8"/>
      </g>
     </g>
     <g id="text_18">
      <!-- $\mathdefault{3}$ -->
      <g transform="translate(168.018665 70.659249)scale(0.1 -0.1)">
       <use xlink:href="#CMR17-33" transform="scale(0.996264)"/>
      </g>
     </g>
    </g>
    <g id="ytick_9">
     <g id="line2d_18">
      <g>
       <use xlink:href="#m16368c1d06" x="180" y="29.6" style="stroke: #000000; stroke-width: 0.8"/>
      </g>
     </g>
     <g id="text_19">
      <!-- $\mathdefault{4}$ -->
      <g transform="translate(168.018665 33.059249)scale(0.1 -0.1)">
       <use xlink:href="#CMR17-34" transform="scale(0.996264)"/>
      </g>
     </g>
    </g>
    <g id="text_20">
     <!-- $g_2$ -->
     <g transform="translate(166.081486 19.523102)rotate(-90)scale(0.1 -0.1)">
      <use xlink:href="#CMMI12-67" transform="scale(0.996264)"/>
      <use xlink:href="#CMR17-32" transform="translate(46.710897 -14.943915)scale(0.697382)"/>
     </g>
    </g>
   </g>
   <g id="line2d_19">
    <path d="M 187.824871 -1 
L 188.502513 13.724444 
L 189.352764 28.840404 
L 190.203015 41.437037 
L 191.053266 52.095726 
L 191.903518 61.231746 
L 193.60402 76.077778 
L 195.304523 87.624691 
L 197.005025 96.862222 
L 198.705528 104.420202 
L 200.40603 110.718519 
L 202.106533 116.047863 
L 203.807035 120.615873 
L 205.507538 124.574815 
L 207.20804 128.038889 
L 208.908543 131.095425 
L 210.609045 133.812346 
L 213.159799 137.365242 
L 215.710553 140.410582 
L 218.261307 143.049877 
L 220.81206 145.359259 
L 223.362814 147.39695 
L 226.763819 149.768081 
L 230.164824 151.817702 
L 233.565829 153.607055 
L 237.817085 155.547712 
L 242.068342 157.222527 
L 247.169849 158.952461 
L 252.271357 160.43817 
L 258.223116 161.92657 
L 265.025126 163.372444 
L 272.677387 164.745362 
L 281.179899 166.027264 
L 290.532663 167.209573 
L 301.58593 168.372339 
L 314.339698 169.476231 
L 328.79397 170.49854 
L 345.798995 171.473048 
L 349.2 171.644444 
L 349.2 171.644444 
" clip-path="url(#p289aec43ed)" style="fill: none; stroke: #1f77b4; stroke-width: 1.5; stroke-linecap: square"/>
   </g>
   <g id="line2d_20">
    <path d="M 172.175129 361 
L 171.497487 346.275556 
L 170.647236 331.159596 
L 169.796985 318.562963 
L 168.946734 307.904274 
L 168.096482 298.768254 
L 166.39598 283.922222 
L 164.695477 272.375309 
L 162.994975 263.137778 
L 161.294472 255.579798 
L 159.59397 249.281481 
L 157.893467 243.952137 
L 156.192965 239.384127 
L 154.492462 235.425185 
L 152.79196 231.961111 
L 151.091457 228.904575 
L 149.390955 226.187654 
L 146.840201 222.634758 
L 144.289447 219.589418 
L 141.738693 216.950123 
L 139.18794 214.640741 
L 136.637186 212.60305 
L 133.236181 210.231919 
L 129.835176 208.182298 
L 126.434171 206.392945 
L 122.182915 204.452288 
L 117.931658 202.777473 
L 112.830151 201.047539 
L 107.728643 199.56183 
L 101.776884 198.07343 
L 94.974874 196.627556 
L 87.322613 195.254638 
L 78.820101 193.972736 
L 69.467337 192.790427 
L 58.41407 191.627661 
L 45.660302 190.523769 
L 31.20603 189.50146 
L 14.201005 188.526952 
L 10.8 188.355556 
L 10.8 188.355556 
" clip-path="url(#p289aec43ed)" style="fill: none; stroke: #1f77b4; stroke-width: 1.5; stroke-linecap: square"/>
   </g>
   <g id="LineCollection_1">
    <path d="M 217.6 180 
L 217.6 142.4 
" clip-path="url(#p289aec43ed)" style="fill: none; stroke: #d62728; stroke-width: 1.5"/>
   </g>
   <g id="patch_3">
    <path d="M 180 349.2 
L 180 10.8 
" style="fill: none; stroke: #000000; stroke-width: 0.8; stroke-linejoin: miter; stroke-linecap: square"/>
   </g>
   <g id="patch_4">
    <path d="M 349.2 349.2 
L 349.2 10.8 
" style="fill: none"/>
   </g>
   <g id="patch_5">
    <path d="M 10.8 180 
L 349.2 180 
" style="fill: none; stroke: #000000; stroke-width: 0.8; stroke-linejoin: miter; stroke-linecap: square"/>
   </g>
   <g id="patch_6">
    <path d="M 10.8 10.8 
L 349.2 10.8 
" style="fill: none"/>
   </g>
   <g id="legend_1">
    <g id="patch_7">
     <path d="M 246.992479 32.737178 
L 342.2 32.737178 
Q 344.2 32.737178 344.2 30.737178 
L 344.2 17.8 
Q 344.2 15.8 342.2 15.8 
L 246.992479 15.8 
Q 244.992479 15.8 244.992479 17.8 
L 244.992479 30.737178 
Q 244.992479 32.737178 246.992479 32.737178 
z
" style="fill: #ffffff; opacity: 0.8; stroke: #cccccc; stroke-linejoin: miter"/>
    </g>
    <g id="line2d_21">
     <path d="M 248.992479 23.3 
L 268.992479 23.3 
" style="fill: none; stroke: #d62728; stroke-width: 1.5"/>
    </g>
    <g id="text_21">
     <!-- Arbeitsbereich -->
     <g transform="translate(276.992479 26.8)scale(0.1 -0.1)">
      <defs>
       <path id="CMR17-41" d="M 2323 4378 
C 2291 4461 2278 4480 2214 4480 
C 2150 4480 2138 4461 2106 4378 
L 749 566 
C 627 223 371 153 147 153 
L 147 -13 
C 262 0 518 0 640 0 
C 800 0 1056 0 1210 -13 
L 1210 153 
C 909 153 864 361 864 439 
C 864 497 877 530 890 569 
L 1229 1536 
L 2906 1536 
L 3290 442 
C 3322 365 3322 352 3322 327 
C 3322 153 3046 153 2925 153 
L 2925 0 
C 3110 0 3443 0 3642 0 
C 3808 0 4128 0 4282 -13 
L 4282 153 
C 3942 153 3827 153 3744 387 
L 2323 4378 
z
M 2067 3893 
L 2848 1702 
L 1286 1702 
L 2067 3893 
z
" transform="scale(0.015625)"/>
       <path id="CMR17-72" d="M 960 1497 
C 960 2112 1222 2688 1702 2688 
C 1747 2688 1792 2682 1837 2662 
C 1837 2662 1696 2617 1696 2452 
C 1696 2298 1818 2234 1914 2234 
C 1990 2234 2131 2279 2131 2458 
C 2131 2663 1926 2790 1709 2790 
C 1222 2790 1011 2317 947 2093 
L 941 2093 
L 941 2790 
L 198 2720 
L 198 2554 
C 576 2554 634 2515 634 2208 
L 634 428 
C 634 184 608 153 198 153 
L 198 -13 
C 352 0 646 0 813 0 
C 998 0 1325 0 1498 -13 
L 1498 153 
C 1037 153 960 153 960 440 
L 960 1497 
z
" transform="scale(0.015625)"/>
       <path id="CMR17-62" d="M 960 4396 
L 198 4326 
L 198 4160 
C 576 4160 634 4122 634 3817 
L 634 -13 
L 749 -13 
L 934 441 
C 1120 141 1395 -64 1766 -64 
C 2406 -64 3053 500 3053 1370 
C 3053 2188 2477 2790 1830 2790 
C 1434 2790 1152 2579 960 2330 
L 960 4396 
z
M 973 2004 
C 973 2118 973 2138 1062 2272 
C 1312 2657 1670 2688 1792 2688 
C 1984 2688 2643 2585 2643 1376 
C 2643 108 1888 38 1734 38 
C 1536 38 1248 114 1043 486 
C 973 608 973 621 973 735 
L 973 2004 
z
" transform="scale(0.015625)"/>
       <path id="CMR17-65" d="M 2438 1472 
C 2464 1498 2464 1511 2464 1576 
C 2464 2238 2118 2816 1389 2816 
C 710 2816 173 2169 173 1383 
C 173 551 781 -64 1459 -64 
C 2176 -64 2458 607 2458 740 
C 2458 784 2419 784 2406 784 
C 2362 784 2355 771 2330 696 
C 2189 265 1837 51 1504 51 
C 1229 51 954 203 781 480 
C 582 803 582 1176 582 1472 
L 2438 1472 
z
M 589 1568 
C 634 2505 1126 2714 1382 2714 
C 1818 2714 2112 2297 2118 1568 
L 589 1568 
z
" transform="scale(0.015625)"/>
       <path id="CMR17-69" d="M 992 3909 
C 992 4049 877 4170 730 4170 
C 589 4170 467 4056 467 3909 
C 467 3769 582 3648 730 3648 
C 870 3648 992 3763 992 3909 
z
M 243 2706 
L 243 2541 
C 602 2541 653 2502 653 2197 
L 653 427 
C 653 184 627 153 218 153 
L 218 -13 
C 371 0 646 0 806 0 
C 960 0 1222 0 1370 -13 
L 1370 153 
C 992 153 979 191 979 420 
L 979 2776 
L 243 2706 
z
" transform="scale(0.015625)"/>
       <path id="CMR17-74" d="M 966 2560 
L 1862 2560 
L 1862 2725 
L 966 2725 
L 966 3904 
L 851 3904 
C 838 3245 614 2668 70 2668 
L 70 2560 
L 627 2560 
L 627 771 
C 627 650 627 -64 1370 -64 
C 1747 -64 1965 306 1965 777 
L 1965 1140 
L 1850 1140 
L 1850 783 
C 1850 344 1677 51 1408 51 
C 1222 51 966 178 966 758 
L 966 2560 
z
" transform="scale(0.015625)"/>
       <path id="CMR17-73" d="M 1978 2697 
C 1978 2813 1971 2819 1933 2819 
C 1907 2819 1901 2813 1824 2717 
C 1805 2691 1747 2626 1728 2601 
C 1523 2819 1235 2819 1126 2819 
C 416 2819 160 2447 160 2076 
C 160 1498 813 1365 998 1325 
C 1402 1243 1542 1217 1677 1101 
C 1760 1025 1901 884 1901 654 
C 1901 384 1747 38 1158 38 
C 602 38 403 460 288 1021 
C 269 1110 269 1117 218 1117 
C 166 1117 160 1110 160 983 
L 160 63 
C 160 -51 166 -58 205 -58 
C 237 -58 243 -51 275 0 
C 314 57 410 211 448 276 
C 576 103 800 -64 1158 -64 
C 1792 -64 2131 283 2131 784 
C 2131 1112 1958 1285 1875 1362 
C 1683 1561 1459 1606 1190 1657 
C 838 1735 390 1825 390 2217 
C 390 2383 480 2737 1126 2737 
C 1811 2737 1850 2094 1862 1888 
C 1869 1856 1901 1849 1920 1849 
C 1978 1849 1978 1869 1978 1978 
L 1978 2697 
z
" transform="scale(0.015625)"/>
       <path id="CMR17-63" d="M 2234 2240 
C 2112 2240 1933 2240 1933 2017 
C 1933 1838 2080 1787 2163 1787 
C 2208 1787 2394 1807 2394 2024 
C 2394 2467 1958 2803 1466 2803 
C 787 2803 211 2178 211 1363 
C 211 516 813 -64 1466 -64 
C 2259 -64 2458 677 2458 748 
C 2458 774 2451 793 2406 793 
C 2362 793 2355 787 2330 703 
C 2163 180 1798 51 1523 51 
C 1114 51 621 427 621 1369 
C 621 2338 1094 2688 1472 2688 
C 1722 2688 2093 2573 2234 2240 
z
" transform="scale(0.015625)"/>
       <path id="CMR17-68" d="M 2656 1933 
C 2656 2259 2592 2790 1837 2790 
C 1312 2790 1056 2368 979 2157 
L 973 2157 
L 973 4396 
L 211 4326 
L 211 4160 
C 589 4160 646 4122 646 3817 
L 646 426 
C 646 184 621 153 211 153 
L 211 -13 
C 365 0 646 0 813 0 
C 979 0 1267 0 1421 -13 
L 1421 153 
C 1011 153 986 178 986 428 
L 986 1658 
C 986 2247 1344 2688 1792 2688 
C 2266 2688 2317 2266 2317 1958 
L 2317 428 
C 2317 184 2291 153 1882 153 
L 1882 -13 
C 2035 0 2317 0 2483 0 
C 2650 0 2938 0 3091 -13 
L 3091 153 
C 2682 153 2656 178 2656 428 
L 2656 1933 
z
" transform="scale(0.015625)"/>
      </defs>
      <use xlink:href="#CMR17-41" transform="scale(0.996264)"/>
      <use xlink:href="#CMR17-72" transform="translate(69.07243 0)scale(0.996264)"/>
      <use xlink:href="#CMR17-62" transform="translate(104.353198 0)scale(0.996264)"/>
      <use xlink:href="#CMR17-65" transform="translate(157.851006 0)scale(0.996264)"/>
      <use xlink:href="#CMR17-69" transform="translate(198.336667 0)scale(0.996264)"/>
      <use xlink:href="#CMR17-74" transform="translate(223.207725 0)scale(0.996264)"/>
      <use xlink:href="#CMR17-73" transform="translate(258.488493 0)scale(0.996264)"/>
      <use xlink:href="#CMR17-62" transform="translate(294.28983 0)scale(0.996264)"/>
      <use xlink:href="#CMR17-65" transform="translate(347.787639 0)scale(0.996264)"/>
      <use xlink:href="#CMR17-72" transform="translate(388.273299 0)scale(0.996264)"/>
      <use xlink:href="#CMR17-65" transform="translate(423.554067 0)scale(0.996264)"/>
      <use xlink:href="#CMR17-69" transform="translate(464.039728 0)scale(0.996264)"/>
      <use xlink:href="#CMR17-63" transform="translate(488.910786 0)scale(0.996264)"/>
      <use xlink:href="#CMR17-68" transform="translate(526.793993 0)scale(0.996264)"/>
     </g>
    </g>
   </g>
  </g>
 </g>
 <defs>
  <clipPath id="p289aec43ed">
   <rect x="10.8" y="10.8" width="338.4" height="338.4"/>
  </clipPath>
 </defs>
</svg>
